<?xml version="1.0" encoding="UTF-8"?>
<svg version="1.1" xmlns="http://www.w3.org/2000/svg" width="64" height="64">
<path d="M0 0 C12.54 0 25.08 0 38 0 C38.66 1.98 39.32 3.96 40 6 C40.495 6.99 40.495 6.99 41 8 C41.34912629 11.07031873 41.42548146 14.16371353 41.5625 17.25 C41.60568359 18.05824219 41.64886719 18.86648437 41.69335938 19.69921875 C42.1822929 30.14532229 42 40.51417965 42 51 C26.82 51 11.64 51 -4 51 C-4 25.10625 -4 25.10625 -3.625 17.3125 C-3.5940625 16.43529297 -3.563125 15.55808594 -3.53125 14.65429688 C-3.47324219 13.39649414 -3.47324219 13.39649414 -3.4140625 12.11328125 C-3.3826416 11.38923096 -3.3512207 10.66518066 -3.31884766 9.91918945 C-3 8 -3 8 -1 5 C-0.67 3.35 -0.34 1.7 0 0 Z M5 4 C4.67 5.32 4.34 6.64 4 8 C13.9 8 23.8 8 34 8 C33.67 6.68 33.34 5.36 33 4 C23.76 4 14.52 4 5 4 Z M9 14 C9.94717913 19.39474 9.94717913 19.39474 12.625 24 C16.11703971 25.47033251 19.32539689 25.77283319 23 25 C26.52848284 22.4474805 27.77301895 20.92538426 28.8125 16.6875 C28.874375 15.800625 28.93625 14.91375 29 14 C27.68 14 26.36 14 25 14 C24.34 16.31 23.68 18.62 23 21 C20.36 21 17.72 21 15 21 C14.34 18.69 13.68 16.38 13 14 C11.68 14 10.36 14 9 14 Z " fill="#FFFFFF" transform="translate(13,6)"/>
</svg>
