<?xml version="1.0" encoding="UTF-8"?>
<svg version="1.1" xmlns="http://www.w3.org/2000/svg" width="64" height="64">
<path d="M0 0 C8.34296853 4.97488123 13.53708251 11.86384564 16.109375 21.2578125 C16.90235712 30.15580954 16.99600648 38.47480011 12.109375 46.2578125 C11.78195313 46.86753906 11.45453125 47.47726563 11.1171875 48.10546875 C7.4654778 54.16943924 0.83743947 58.52584783 -5.74609375 60.9375 C-17.14435926 62.63997317 -27.13574513 61.82809417 -36.578125 55.0703125 C-42.53643467 50.20093529 -45.85072373 44.65134112 -47.890625 37.2578125 C-48.67939221 28.40711065 -48.85066889 19.959744 -43.890625 12.2578125 C-43.45492187 11.55140625 -43.01921875 10.845 -42.5703125 10.1171875 C-33.40117673 -3.4110456 -14.48728344 -6.95195145 0 0 Z " fill="#565D5A" transform="translate(47.890625,2.7421875)"/>
<path d="M0 0 C8.34296853 4.97488123 13.53708251 11.86384564 16.109375 21.2578125 C16.90235712 30.15580954 16.99600648 38.47480011 12.109375 46.2578125 C11.78195313 46.86753906 11.45453125 47.47726563 11.1171875 48.10546875 C7.4654778 54.16943924 0.83743947 58.52584783 -5.74609375 60.9375 C-17.14435926 62.63997317 -27.13574513 61.82809417 -36.578125 55.0703125 C-42.53643467 50.20093529 -45.85072373 44.65134112 -47.890625 37.2578125 C-48.67939221 28.40711065 -48.85066889 19.959744 -43.890625 12.2578125 C-43.45492187 11.55140625 -43.01921875 10.845 -42.5703125 10.1171875 C-33.40117673 -3.4110456 -14.48728344 -6.95195145 0 0 Z M-37.890625 10.2578125 C-37.99149712 12.76705403 -38.03034532 15.24817634 -38.0234375 17.7578125 C-38.02439423 18.50869141 -38.02535095 19.25957031 -38.02633667 20.03320312 C-38.02701838 21.62369877 -38.02516472 23.21419717 -38.02099609 24.8046875 C-38.01564767 27.24745905 -38.02094134 29.69004671 -38.02734375 32.1328125 C-38.02668297 33.67447957 -38.0254018 35.21614653 -38.0234375 36.7578125 C-38.02546173 37.49322266 -38.02748596 38.22863281 -38.02957153 38.98632812 C-38.32119013 42.41027592 -38.32119013 42.41027592 -36.890625 45.2578125 C-34.19407646 45.33100871 -31.52371042 45.35023787 -28.828125 45.3203125 C-28.06951172 45.31580078 -27.31089844 45.31128906 -26.52929688 45.30664062 C-24.64970629 45.2948193 -22.77015601 45.27688328 -20.890625 45.2578125 C-20.890625 46.9078125 -20.890625 48.5578125 -20.890625 50.2578125 C-22.210625 50.2578125 -23.530625 50.2578125 -24.890625 50.2578125 C-24.890625 50.9178125 -24.890625 51.5778125 -24.890625 52.2578125 C-18.950625 52.2578125 -13.010625 52.2578125 -6.890625 52.2578125 C-6.890625 51.5978125 -6.890625 50.9378125 -6.890625 50.2578125 C-8.210625 50.2578125 -9.530625 50.2578125 -10.890625 50.2578125 C-10.890625 48.6078125 -10.890625 46.9578125 -10.890625 45.2578125 C-9.74722656 45.26941406 -8.60382812 45.28101563 -7.42578125 45.29296875 C-5.93489746 45.30234538 -4.44401191 45.31144571 -2.953125 45.3203125 C-1.82100586 45.33288086 -1.82100586 45.33288086 -0.66601562 45.34570312 C1.25931813 45.35433691 3.18473081 45.31005583 5.109375 45.2578125 C6.8423048 43.5248827 6.23757546 41.29566914 6.24832153 38.98632812 C6.2462973 38.25091797 6.24427307 37.51550781 6.2421875 36.7578125 C6.24314423 36.00693359 6.24410095 35.25605469 6.24508667 34.48242188 C6.24576838 32.89192623 6.24391472 31.30142783 6.23974609 29.7109375 C6.23439767 27.26816595 6.23969134 24.82557829 6.24609375 22.3828125 C6.24543297 20.84114543 6.2441518 19.29947847 6.2421875 17.7578125 C6.24421173 17.02240234 6.24623596 16.28699219 6.24832153 15.52929688 C6.53994013 12.10534908 6.53994013 12.10534908 5.109375 9.2578125 C2.01856035 9.1566433 -1.04945055 9.11812692 -4.140625 9.125 C-5.06907227 9.12404327 -5.99751953 9.12308655 -6.95410156 9.12210083 C-8.92122465 9.12141895 -10.88834996 9.12327378 -12.85546875 9.12744141 C-15.87765526 9.13278955 -18.89969315 9.12749668 -21.921875 9.12109375 C-23.82812533 9.12175453 -25.73437557 9.12303569 -27.640625 9.125 C-28.55102539 9.12297577 -29.46142578 9.12095154 -30.39941406 9.11886597 C-34.46726178 8.71889918 -34.46726178 8.71889918 -37.890625 10.2578125 Z " fill="#000000" transform="translate(47.890625,2.7421875)"/>
<path d="M0 0 C14.52 0 29.04 0 44 0 C44 1.65 44 3.3 44 5 C43 6 43 6 39.40234375 6.09765625 C37.91403133 6.0909822 36.42573568 6.07902183 34.9375 6.0625 C34.17888672 6.05798828 33.42027344 6.05347656 32.63867188 6.04882812 C30.75908129 6.0370068 28.87953101 6.01907078 27 6 C27 7.65 27 9.3 27 11 C28.32 11 29.64 11 31 11 C31 11.66 31 12.32 31 13 C25.06 13 19.12 13 13 13 C13 12.34 13 11.68 13 11 C14.32 11 15.64 11 17 11 C17 9.35 17 7.7 17 6 C15.85660156 6.01160156 14.71320312 6.02320313 13.53515625 6.03515625 C12.04427246 6.04453288 10.55338691 6.05363321 9.0625 6.0625 C7.93038086 6.07506836 7.93038086 6.07506836 6.77539062 6.08789062 C4.85005687 6.09652441 2.92464419 6.05224333 1 6 C0.67 5.67 0.34 5.34 0 5 C0 3.35 0 1.7 0 0 Z " fill="#DEDFDD" transform="translate(10,42)"/>
<path d="M0 0 C1.36560059 0.00303635 1.36560059 0.00303635 2.75878906 0.00613403 C3.68723633 0.00517731 4.61568359 0.00422058 5.57226562 0.00323486 C7.53938871 0.00255298 9.50651403 0.00440781 11.47363281 0.00857544 C14.49581932 0.01392358 17.51785721 0.00863071 20.54003906 0.00222778 C22.44628939 0.00288856 24.35253963 0.00416972 26.25878906 0.00613403 C27.16918945 0.0041098 28.07958984 0.00208557 29.01757812 0 C35.39383938 0.02399685 35.39383938 0.02399685 36.50878906 1.13894653 C36.50878906 2.78894653 36.50878906 4.43894653 36.50878906 6.13894653 C21.98878906 6.13894653 7.46878906 6.13894653 -7.49121094 6.13894653 C-7.49121094 -1.09057562 -6.61024981 0.02487746 0 0 Z " fill="#0693B5" transform="translate(17.4912109375,11.861053466796875)"/>
<path d="M0 0 C3.3 0 6.6 0 10 0 C10 1.65 10 3.3 10 5 C11.32 5 12.64 5 14 5 C14 5.66 14 6.32 14 7 C8.06 7 2.12 7 -4 7 C-4 6.34 -4 5.68 -4 5 C-2.68 5 -1.36 5 0 5 C0 3.35 0 1.7 0 0 Z " fill="#C0C0C0" transform="translate(27,48)"/>
<path d="M0 0 C0.99 0.33 1.98 0.66 3 1 C4.66362417 1.34820041 6.32995171 1.68404492 8 2 C8 2.66 8 3.32 8 4 C1.07 4 -5.86 4 -13 4 C-13 3.34 -13 2.68 -13 2 C-8.71 2 -4.42 2 0 2 C0 1.34 0 0.68 0 0 Z " fill="#A5574A" transform="translate(29,28)"/>
<path d="M0 0 C1.65 0.33 3.3 0.66 5 1 C5 2.32 5 3.64 5 5 C3.02 5 1.04 5 -1 5 C-0.67 3.35 -0.34 1.7 0 0 Z " fill="#9FA09F" transform="translate(18,21)"/>
</svg>
