<?xml version="1.0" encoding="UTF-8"?>
<svg version="1.1" xmlns="http://www.w3.org/2000/svg" width="64" height="64">
<path d="M0 0 C8.34296853 4.97488123 13.53708251 11.86384564 16.109375 21.2578125 C16.90235712 30.15580954 16.99600648 38.47480011 12.109375 46.2578125 C11.78195313 46.86753906 11.45453125 47.47726563 11.1171875 48.10546875 C7.4654778 54.16943924 0.83743947 58.52584783 -5.74609375 60.9375 C-17.14435926 62.63997317 -27.13574513 61.82809417 -36.578125 55.0703125 C-42.53643467 50.20093529 -45.85072373 44.65134112 -47.890625 37.2578125 C-48.67939221 28.40711065 -48.85066889 19.959744 -43.890625 12.2578125 C-43.45492187 11.55140625 -43.01921875 10.845 -42.5703125 10.1171875 C-33.40117673 -3.4110456 -14.48728344 -6.95195145 0 0 Z " fill="#F7F7F7" transform="translate(47.890625,2.7421875)"/>
<path d="M0 0 C3.70403159 1.94167078 7.35144027 3.95324698 11 6 C11 12.27 11 18.54 11 25 C7.720625 27.0109375 7.720625 27.0109375 4.375 29.0625 C3.69872559 29.48926025 3.02245117 29.91602051 2.32568359 30.35571289 C-0.72203764 32.15817161 -2.45061141 33.01821952 -6.0625 32.8984375 C-11.88924801 31.11632042 -16.76360355 29.5745126 -21 25 C-22.96109021 19.29931843 -22.76734086 12.73403922 -21 7 C-18.46841577 3.69980315 -15.82757501 2.46440883 -12 1 C-10.4221875 0.01 -10.4221875 0.01 -8.8125 -1 C-4.94491097 -2.37514277 -3.71973545 -1.75459219 0 0 Z " fill="#3B3B3B" transform="translate(37,15)"/>
<path d="M0 0 C0.33 0.99 0.66 1.98 1 3 C11.23 3 21.46 3 32 3 C32 2.01 32 1.02 32 0 C32.66 0 33.32 0 34 0 C34 0.99 34 1.98 34 3 C35.65 3 37.3 3 39 3 C39 3.66 39 4.32 39 5 C37.35 5 35.7 5 34 5 C34 16.88 34 28.76 34 41 C35.65 41 37.3 41 39 41 C39 41.33 39 41.66 39 42 C37.35 42 35.7 42 34 42 C34 42.99 34 43.98 34 45 C33.34 45 32.68 45 32 45 C32 44.01 32 43.02 32 42 C21.77 42 11.54 42 1 42 C0.67 42.66 0.34 43.32 0 44 C0 43.34 0 42.68 0 42 C-1.65 42 -3.3 42 -5 42 C-5 41.67 -5 41.34 -5 41 C-3.35 41 -1.7 41 0 41 C0 29.12 0 17.24 0 5 C-1.65 5 -3.3 5 -5 5 C-5 4.34 -5 3.68 -5 3 C-3.35 3 -1.7 3 0 3 C0 2.01 0 1.02 0 0 Z M8.9375 8.9375 C8.28716797 9.31068359 7.63683594 9.68386719 6.96679688 10.06835938 C3.79839778 11.77938422 3.79839778 11.77938422 1 14 C0.91368126 15.34267413 0.89293527 16.68974322 0.90234375 18.03515625 C0.90556641 18.84404297 0.90878906 19.65292969 0.91210938 20.48632812 C0.92048828 21.33646484 0.92886719 22.18660156 0.9375 23.0625 C0.94201172 23.91650391 0.94652344 24.77050781 0.95117188 25.65039062 C0.96299627 27.76695663 0.98093231 29.88348685 1 32 C3.19730384 33.37557241 5.40489938 34.72463252 7.625 36.0625 C8.55119141 36.64741211 8.55119141 36.64741211 9.49609375 37.24414062 C12.61037902 39.09632081 14.37044689 40.02168104 18.0625 39.89453125 C19.5165625 39.45173828 19.5165625 39.45173828 21 39 C22.05960938 38.68289062 23.11921875 38.36578125 24.2109375 38.0390625 C27.94290453 36.37119575 30.27479451 35.0842405 33 32 C34.53045664 25.81061274 33.67581918 19.26384254 33 13 C30.54429825 11.66161267 28.08570084 10.32913768 25.625 9 C24.92632812 8.6184375 24.22765625 8.236875 23.5078125 7.84375 C16.88312104 4.27660844 15.16636155 5.30451495 8.9375 8.9375 Z " fill="#7A7A7A" transform="translate(15,8)"/>
<path d="M0 0 C3.70403159 1.94167078 7.35144027 3.95324698 11 6 C11 12.27 11 18.54 11 25 C7.720625 27.0109375 7.720625 27.0109375 4.375 29.0625 C3.69872559 29.48926025 3.02245117 29.91602051 2.32568359 30.35571289 C-0.72203764 32.15817161 -2.45061141 33.01821952 -6.0625 32.8984375 C-11.88924801 31.11632042 -16.76360355 29.5745126 -21 25 C-22.96109021 19.29931843 -22.76734086 12.73403922 -21 7 C-18.46841577 3.69980315 -15.82757501 2.46440883 -12 1 C-10.4221875 0.01 -10.4221875 0.01 -8.8125 -1 C-4.94491097 -2.37514277 -3.71973545 -1.75459219 0 0 Z M-14.9140625 5.66796875 C-18.22003845 9.36397558 -17.76837153 13.29160171 -17.50878906 17.96899414 C-17.37405806 19.64915664 -17.19174964 21.32538645 -17 23 C-16.36191406 23.26554687 -15.72382813 23.53109375 -15.06640625 23.8046875 C-13.82697266 24.33449219 -13.82697266 24.33449219 -12.5625 24.875 C-11.73878906 25.22304688 -10.91507813 25.57109375 -10.06640625 25.9296875 C-8 27 -8 27 -7 29 C-2.45326592 28.65899494 1.58225576 27.55279128 5.390625 25.05078125 C8.45477991 21.14621492 8.34702642 16.34179915 7.9296875 11.5625 C6.83953999 7.38512802 5.87597072 6.30048787 2.25 4.0625 C-4.3337489 0.91500601 -8.85629465 2.0173198 -14.9140625 5.66796875 Z " fill="#101010" transform="translate(37,15)"/>
<path d="M0 0 C0.33 0 0.66 0 1 0 C2.12980563 10.81137083 1.79688494 21.18688437 1 32 C1.721875 32.26683594 2.44375 32.53367188 3.1875 32.80859375 C6 34 6 34 8.375 35.47265625 C18.04386057 41.32864769 27.96534738 41.02170955 39 41 C39 41.33 39 41.66 39 42 C37.35 42 35.7 42 34 42 C34 42.99 34 43.98 34 45 C33.34 45 32.68 45 32 45 C32 44.01 32 43.02 32 42 C21.77 42 11.54 42 1 42 C0.67 42.66 0.34 43.32 0 44 C0 43.34 0 42.68 0 42 C-1.65 42 -3.3 42 -5 42 C-5 41.67 -5 41.34 -5 41 C-3.35 41 -1.7 41 0 41 C0 29.12 0 17.24 0 5 C-1.65 5 -3.3 5 -5 5 C-5 4.34 -5 3.68 -5 3 C-3.35 3 -1.7 3 0 3 C0 2.01 0 1.02 0 0 Z " fill="#484848" transform="translate(15,8)"/>
<path d="M0 0 C3.67694648 1.37140166 6.95318589 3.03695801 10.3125 5.0625 C11.19550781 5.58972656 12.07851563 6.11695313 12.98828125 6.66015625 C13.65214844 7.10230469 14.31601562 7.54445313 15 8 C15 8.33 15 8.66 15 9 C10.05 9 5.1 9 0 9 C0 6.03 0 3.06 0 0 Z " fill="#E2E2E2" transform="translate(16,40)"/>
<path d="M0 0 C0 2.97 0 5.94 0 9 C-4.62 9 -9.24 9 -14 9 C-10.8750153 5.8750153 -9.02148266 4.23629815 -5.3125 2.25 C-4.52488281 1.82203125 -3.73726562 1.3940625 -2.92578125 0.953125 C-1 0 -1 0 0 0 Z " fill="#EBEBEB" transform="translate(47,40)"/>
<path d="M0 0 C4.62 0 9.24 0 14 0 C11.42066109 2.57933891 9.56158672 3.97362706 6.4375 5.6875 C5.65246094 6.12449219 4.86742187 6.56148437 4.05859375 7.01171875 C2 8 2 8 0 8 C0 5.36 0 2.72 0 0 Z " fill="#EEEEEE" transform="translate(16,13)"/>
<path d="M0 0 C4.29 0 8.58 0 13 0 C13 2.64 13 5.28 13 8 C11.01729088 7.04901734 9.03891621 6.08899297 7.0625 5.125 C5.96035156 4.59132813 4.85820313 4.05765625 3.72265625 3.5078125 C1 2 1 2 0 0 Z " fill="#F7F7F7" transform="translate(34,13)"/>
<path d="M0 0 C1.32 0 2.64 0 4 0 C4 1.65 4 3.3 4 5 C2.68 5 1.36 5 0 5 C0 3.35 0 1.7 0 0 Z " fill="#909090" transform="translate(38,28)"/>
<path d="M0 0 C1.32 0 2.64 0 4 0 C4 1.65 4 3.3 4 5 C2.68 5 1.36 5 0 5 C0 3.35 0 1.7 0 0 Z " fill="#A4A4A4" transform="translate(28,28)"/>
</svg>
