<?xml version="1.0" encoding="UTF-8"?>
<svg version="1.1" xmlns="http://www.w3.org/2000/svg" width="64" height="64">
<path d="M0 0 C8.34296853 4.97488123 13.53708251 11.86384564 16.109375 21.2578125 C16.90235712 30.15580954 16.99600648 38.47480011 12.109375 46.2578125 C11.78195313 46.86753906 11.45453125 47.47726563 11.1171875 48.10546875 C7.4654778 54.16943924 0.83743947 58.52584783 -5.74609375 60.9375 C-17.14435926 62.63997317 -27.13574513 61.82809417 -36.578125 55.0703125 C-42.53643467 50.20093529 -45.85072373 44.65134112 -47.890625 37.2578125 C-48.67939221 28.40711065 -48.85066889 19.959744 -43.890625 12.2578125 C-43.45492187 11.55140625 -43.01921875 10.845 -42.5703125 10.1171875 C-33.40117673 -3.4110456 -14.48728344 -6.95195145 0 0 Z " fill="#D3364C" transform="translate(47.890625,2.7421875)"/>
<path d="M0 0 C0.9375 1.75 0.9375 1.75 0.875 3.8125 C-0.32305902 6.28848865 -1.54679364 6.77617818 -4.0625 7.75 C-4.7225 6.1 -5.3825 4.45 -6.0625 2.75 C-7.7125 3.08 -9.3625 3.41 -11.0625 3.75 C-11.3925 6.72 -11.7225 9.69 -12.0625 12.75 C-11.4025 12.75 -10.7425 12.75 -10.0625 12.75 C-9.5675 15.225 -9.5675 15.225 -9.0625 17.75 C-7.7425 18.08 -6.4225 18.41 -5.0625 18.75 C-5.3925 19.41 -5.7225 20.07 -6.0625 20.75 C-8.5375 19.76 -8.5375 19.76 -11.0625 18.75 C-11.0625 22.38 -11.0625 26.01 -11.0625 29.75 C-9.0825 30.41 -7.1025 31.07 -5.0625 31.75 C-5.60973683 35.12462715 -6.1174 36.83235 -8.0625 39.75 C-7.134375 40.018125 -6.20625 40.28625 -5.25 40.5625 C-0.81859756 42.21341463 -0.81859756 42.21341463 0.9375 44.75 C0.9375 46.07 0.9375 47.39 0.9375 48.75 C-4.6725 48.75 -10.2825 48.75 -16.0625 48.75 C-16.3925 47.43 -16.7225 46.11 -17.0625 44.75 C-19.5375 45.245 -19.5375 45.245 -22.0625 45.75 C-22.0625 45.09 -22.0625 44.43 -22.0625 43.75 C-23.7021875 43.9046875 -23.7021875 43.9046875 -25.375 44.0625 C-29.0625 43.75 -29.0625 43.75 -31 41.9375 C-32.57132446 37.22352661 -32.29531375 32.67357961 -32.0625 27.75 C-33.0525 27.75 -34.0425 27.75 -35.0625 27.75 C-35.7225 26.43 -36.3825 25.11 -37.0625 23.75 C-37.3925 24.74 -37.7225 25.73 -38.0625 26.75 C-40.3725 27.08 -42.6825 27.41 -45.0625 27.75 C-45.6875 25.4375 -45.6875 25.4375 -46.0625 22.75 C-44.05270941 19.73531412 -43.35513985 18.91210818 -40.0625 17.75 C-37.8125 18.125 -37.8125 18.125 -36.0625 18.75 C-36.0625 19.41 -36.0625 20.07 -36.0625 20.75 C-32.1025 20.255 -32.1025 20.255 -28.0625 19.75 C-26.85168149 16.64459074 -26.85168149 16.64459074 -27.0625 12.75 C-27.7225 12.75 -28.3825 12.75 -29.0625 12.75 C-29.0625 10.77 -29.0625 8.79 -29.0625 6.75 C-28.0725 6.42 -27.0825 6.09 -26.0625 5.75 C-26.0625 6.74 -26.0625 7.73 -26.0625 8.75 C-25.9696875 7.6053125 -25.9696875 7.6053125 -25.875 6.4375 C-25.0625 3.75 -25.0625 3.75 -23.125 2.0625 C-16.87115782 -0.61771808 -6.2284803 -3.77483655 0 0 Z " fill="#D3E3F4" transform="translate(50.0625,8.25)"/>
<path d="M0 0 C0.66 0 1.32 0 2 0 C2.495 2.475 2.495 2.475 3 5 C4.32 5.33 5.64 5.66 7 6 C6.67 6.66 6.34 7.32 6 8 C3.525 7.01 3.525 7.01 1 6 C1 9.63 1 13.26 1 17 C2.98 17.66 4.96 18.32 7 19 C6.45276317 22.37462715 5.9451 24.08235 4 27 C4.928125 27.268125 5.85625 27.53625 6.8125 27.8125 C11.24390244 29.46341463 11.24390244 29.46341463 13 32 C13 33.32 13 34.64 13 36 C7.39 36 1.78 36 -4 36 C-4.33 34.68 -4.66 33.36 -5 32 C-7.475 32.495 -7.475 32.495 -10 33 C-10 32.34 -10 31.68 -10 31 C-11.093125 31.103125 -12.18625 31.20625 -13.3125 31.3125 C-17 31 -17 31 -18.9375 29.1875 C-20.50882446 24.47352661 -20.23281375 19.92357961 -20 15 C-20.99 15 -21.98 15 -23 15 C-23.66 13.68 -24.32 12.36 -25 11 C-25.33 11.99 -25.66 12.98 -26 14 C-28.31 14.33 -30.62 14.66 -33 15 C-33.625 12.6875 -33.625 12.6875 -34 10 C-31.99020941 6.98531412 -31.29263985 6.16210818 -28 5 C-25.75 5.375 -25.75 5.375 -24 6 C-24 6.66 -24 7.32 -24 8 C-22.02 7.67 -20.04 7.34 -18 7 C-18 10.96 -18 14.92 -18 19 C-15.69 19 -13.38 19 -11 19 C-10.67 19.99 -10.34 20.98 -10 22 C-9.34 22.33 -8.68 22.66 -8 23 C-8 24.32 -8 25.64 -8 27 C-7.34 27 -6.68 27 -6 27 C-5.67 27.66 -5.34 28.32 -5 29 C-4.01 29.33 -3.02 29.66 -2 30 C-2.7115625 28.63875 -2.7115625 28.63875 -3.4375 27.25 C-6.38297872 21.12340426 -6.38297872 21.12340426 -5.0625 17.25 C-4.5365625 16.13625 -4.5365625 16.13625 -4 15 C-3.01 15 -2.02 15 -1 15 C-1.09539063 14.08476563 -1.19078125 13.16953125 -1.2890625 12.2265625 C-1.39992187 11.03804687 -1.51078125 9.84953125 -1.625 8.625 C-1.74101563 7.44164062 -1.85703125 6.25828125 -1.9765625 5.0390625 C-1.98816406 3.53472656 -1.98816406 3.53472656 -2 2 C-1.34 1.34 -0.68 0.68 0 0 Z " fill="#CCCFF7" transform="translate(38,21)"/>
<path d="M0 0 C0.9375 1.75 0.9375 1.75 0.875 3.8125 C-0.32305902 6.28848865 -1.54679364 6.77617818 -4.0625 7.75 C-4.7225 6.1 -5.3825 4.45 -6.0625 2.75 C-8.53516765 3.09444881 -8.53516765 3.09444881 -11.0625 3.75 C-11.3925 4.41 -11.7225 5.07 -12.0625 5.75 C-15.12396896 7.71808719 -17.46414967 7.94990835 -21.0625 7.75 C-21.0625 8.41 -21.0625 9.07 -21.0625 9.75 C-19.7425 10.08 -18.4225 10.41 -17.0625 10.75 C-17.0625 11.41 -17.0625 12.07 -17.0625 12.75 C-21.8125 11.875 -21.8125 11.875 -24.0625 10.75 C-24.0625 12.4 -24.0625 14.05 -24.0625 15.75 C-25.0525 15.42 -26.0425 15.09 -27.0625 14.75 C-27.0625 14.09 -27.0625 13.43 -27.0625 12.75 C-27.7225 12.75 -28.3825 12.75 -29.0625 12.75 C-29.0625 10.77 -29.0625 8.79 -29.0625 6.75 C-28.0725 6.42 -27.0825 6.09 -26.0625 5.75 C-26.0625 6.74 -26.0625 7.73 -26.0625 8.75 C-26.000625 7.986875 -25.93875 7.22375 -25.875 6.4375 C-25.0625 3.75 -25.0625 3.75 -23.125 2.0625 C-16.87115782 -0.61771808 -6.2284803 -3.77483655 0 0 Z " fill="#CDCBF8" transform="translate(50.0625,8.25)"/>
<path d="M0 0 C3.0625 0.375 3.0625 0.375 4.875 2.0625 C6.13725375 4.5205731 6.68361184 6.64700523 7.0625 9.375 C6.4025 9.375 5.7425 9.375 5.0625 9.375 C3.79691476 14.77670398 3.79691476 14.77670398 5.5 19.6875 C6.015625 20.244375 6.53125 20.80125 7.0625 21.375 C7.0625 22.365 7.0625 23.355 7.0625 24.375 C5.7425 24.045 4.4225 23.715 3.0625 23.375 C3.0625 22.715 3.0625 22.055 3.0625 21.375 C2.4025 21.375 1.7425 21.375 1.0625 21.375 C1.0625 20.055 1.0625 18.735 1.0625 17.375 C0.0725 17.045 -0.9175 16.715 -1.9375 16.375 C-1.9375 15.385 -1.9375 14.395 -1.9375 13.375 C-2.5975 13.375 -3.2575 13.375 -3.9375 13.375 C-4.2675 14.035 -4.5975 14.695 -4.9375 15.375 C-4.9375 14.385 -4.9375 13.395 -4.9375 12.375 C-4.2775 12.375 -3.6175 12.375 -2.9375 12.375 C-3.4325 11.570625 -3.4325 11.570625 -3.9375 10.75 C-5.18714598 7.7820908 -5.21506584 5.56700721 -4.9375 2.375 C-2.9375 0.375 -2.9375 0.375 0 0 Z " fill="#D7E5FC" transform="translate(28.9375,26.625)"/>
<path d="M0 0 C0.66 0 1.32 0 2 0 C2.33 1.65 2.66 3.3 3 5 C4.32 5.33 5.64 5.66 7 6 C6.67 6.66 6.34 7.32 6 8 C3.525 7.01 3.525 7.01 1 6 C1 9.63 1 13.26 1 17 C2.98 17.66 4.96 18.32 7 19 C6.45276317 22.37462715 5.9451 24.08235 4 27 C0.5625 27.4375 0.5625 27.4375 -3 27 C-5 25.3125 -5 25.3125 -6 23 C-5.71814575 20.11099395 -4.91884332 17.75652997 -4 15 C-3.01 15 -2.02 15 -1 15 C-1.09539063 14.08476563 -1.19078125 13.16953125 -1.2890625 12.2265625 C-1.39992188 11.03804687 -1.51078125 9.84953125 -1.625 8.625 C-1.74101563 7.44164062 -1.85703125 6.25828125 -1.9765625 5.0390625 C-1.98429687 4.03617188 -1.99203125 3.03328125 -2 2 C-1.34 1.34 -0.68 0.68 0 0 Z " fill="#5376F8" transform="translate(38,21)"/>
<path d="M0 0 C8.08888889 -0.62222222 8.08888889 -0.62222222 11.5625 1.75 C13 4 13 4 13 8 C7.39 8 1.78 8 -4 8 C-4.33 6.68 -4.66 5.36 -5 4 C-4.0409375 3.8453125 -4.0409375 3.8453125 -3.0625 3.6875 C-2.381875 3.460625 -1.70125 3.23375 -1 3 C-0.67 2.01 -0.34 1.02 0 0 Z " fill="#CED1E1" transform="translate(38,49)"/>
<path d="M0 0 C0 0.66 0 1.32 0 2 C1.65 2 3.3 2 5 2 C5 3.98 5 5.96 5 8 C2.5625 7.625 2.5625 7.625 0 7 C-0.33 6.34 -0.66 5.68 -1 5 C-1.33 5.99 -1.66 6.98 -2 8 C-4.31 8.33 -6.62 8.66 -9 9 C-9.625 6.6875 -9.625 6.6875 -10 4 C-7.19291889 -0.21062166 -4.92322234 -1.75829369 0 0 Z " fill="#E7E2E6" transform="translate(14,27)"/>
<path d="M0 0 C2.64 0 5.28 0 8 0 C8.36923077 7.38461538 8.36923077 7.38461538 6.5 10.5 C6.005 10.995 5.51 11.49 5 12 C1.97580475 11.41196203 -1.01758453 10.77321882 -4 10 C-4 8.35 -4 6.7 -4 5 C-1.69 5.66 0.62 6.32 3 7 C3 6.34 3 5.68 3 5 C1.68 4.67 0.36 4.34 -1 4 C-0.67 2.68 -0.34 1.36 0 0 Z " fill="#DEE1F2" transform="translate(30,14)"/>
<path d="M0 0 C0.66 0.33 1.32 0.66 2 1 C1.34 3.31 0.68 5.62 0 8 C0.66 8 1.32 8 2 8 C2.625 10.875 2.625 10.875 3 14 C1 16 1 16 -0.9453125 16.1953125 C-2.96354167 16.13020833 -4.98177083 16.06510417 -7 16 C-7.38063221 13.6739143 -7.71269945 11.33944736 -8 9 C-7 8 -7 8 -3.9375 7.9375 C-2.4834375 7.9684375 -2.4834375 7.9684375 -1 8 C-1.020625 6.865625 -1.04125 5.73125 -1.0625 4.5625 C-1 1 -1 1 0 0 Z " fill="#E43BCB" transform="translate(21,13)"/>
<path d="M0 0 C6.11570248 1.2231405 6.11570248 1.2231405 8 4 C8.46369062 7.61678684 7.8454602 9.88578592 6 13 C4.02 12.34 2.04 11.68 0 11 C0 7.37 0 3.74 0 0 Z " fill="#D43C5D" transform="translate(39,27)"/>
<path d="M0 0 C2.0625 1.25 2.0625 1.25 3 3 C2.9375 5.0625 2.9375 5.0625 2 7 C-0.0625 8.25 -0.0625 8.25 -2 9 C-2.66 7.35 -3.32 5.7 -4 4 C-6.31 4 -8.62 4 -11 4 C-11 3.01 -11 2.02 -11 1 C-7.24604616 -0.25131795 -3.92706604 -0.45720519 0 0 Z " fill="#DBDFEA" transform="translate(48,7)"/>
<path d="M0 0 C2.625 0.375 2.625 0.375 5 1 C5.25 3.3125 5.25 3.3125 5 6 C3.1875 7.8125 3.1875 7.8125 1 9 C0.01 9 -0.98 9 -2 9 C-2.125 5.625 -2.125 5.625 -2 2 C-1.34 1.34 -0.68 0.68 0 0 Z " fill="#EE667E" transform="translate(40,10)"/>
<path d="M0 0 C0.33 2.31 0.66 4.62 1 7 C-1.31 7.33 -3.62 7.66 -6 8 C-6.33 5.69 -6.66 3.38 -7 1 C-4.53721199 -0.231394 -2.7204945 -0.07159196 0 0 Z " fill="#5EA7E0" transform="translate(27,40)"/>
<path d="M0 0 C2.97 0 5.94 0 9 0 C8.67 0.66 8.34 1.32 8 2 C6.35 1.67 4.7 1.34 3 1 C3 1.66 3 2.32 3 3 C5.31 3 7.62 3 10 3 C9.34 4.32 8.68 5.64 8 7 C5.125 7.125 5.125 7.125 2 7 C0 5 0 5 -0.125 2.375 C-0.08375 1.59125 -0.0425 0.8075 0 0 Z " fill="#CC770B" transform="translate(24,30)"/>
<path d="M0 0 C0.66 0 1.32 0 2 0 C2.33 1.65 2.66 3.3 3 5 C4.32 5.33 5.64 5.66 7 6 C6.67 6.66 6.34 7.32 6 8 C3.525 7.01 3.525 7.01 1 6 C1 9.3 1 12.6 1 16 C0.34 15.67 -0.32 15.34 -1 15 C-1.484375 12.12890625 -1.484375 12.12890625 -1.75 8.5625 C-1.84796875 7.38816406 -1.9459375 6.21382812 -2.046875 5.00390625 C-2 2 -2 2 0 0 Z " fill="#7F62F0" transform="translate(38,21)"/>
<path d="M0 0 C0.33 0.66 0.66 1.32 1 2 C3.11846285 2.68729254 3.11846285 2.68729254 5.5625 3.125 C6.80193359 3.37636719 6.80193359 3.37636719 8.06640625 3.6328125 C8.70449219 3.75398438 9.34257813 3.87515625 10 4 C9.67 5.32 9.34 6.64 9 8 C5.6875 8.25 5.6875 8.25 2 8 C0 6.25 0 6.25 -1 4 C-0.6875 1.75 -0.6875 1.75 0 0 Z " fill="#446CF7" transform="translate(33,40)"/>
<path d="M0 0 C1.32 0 2.64 0 4 0 C4.66 2.97 5.32 5.94 6 9 C4.02 9.33 2.04 9.66 0 10 C0 6.7 0 3.4 0 0 Z " fill="#DAE3F3" transform="translate(20,30)"/>
<path d="M0 0 C1.65 0 3.3 0 5 0 C5.33 0.66 5.66 1.32 6 2 C6.99 2.33 7.98 2.66 9 3 C9 2.01 9 1.02 9 0 C9.66 0 10.32 0 11 0 C10.67 1.65 10.34 3.3 10 5 C5.545 5.495 5.545 5.495 1 6 C1 5.34 1 4.68 1 4 C-1.31 4 -3.62 4 -6 4 C-6 3.67 -6 3.34 -6 3 C-2.7 3 0.6 3 4 3 C4 2.34 4 1.68 4 1 C2.68 1.33 1.36 1.66 0 2 C0 1.34 0 0.68 0 0 Z " fill="#B453F0" transform="translate(27,48)"/>
<path d="M0 0 C3 -0.3125 3 -0.3125 6 0 C8 2 8 2 8 6 C5.69 6 3.38 6 1 6 C1 5.34 1 4.68 1 4 C2.2065625 4.0309375 2.2065625 4.0309375 3.4375 4.0625 C5.93354885 4.29633621 5.93354885 4.29633621 7 3 C4.03 3 1.06 3 -2 3 C-1.34 2.01 -0.68 1.02 0 0 Z " fill="#F4C665" transform="translate(26,27)"/>
<path d="M0 0 C2.125 0.375 2.125 0.375 4 1 C4.625 2.875 4.625 2.875 5 5 C4.34 5.66 3.68 6.32 3 7 C0.875 6.625 0.875 6.625 -1 6 C-1.625 4.125 -1.625 4.125 -2 2 C-1.34 1.34 -0.68 0.68 0 0 Z " fill="#E48A92" transform="translate(9,39)"/>
<path d="M0 0 C2.64 0.33 5.28 0.66 8 1 C8 2.98 8 4.96 8 7 C6.35 6.67 4.7 6.34 3 6 C2.67 4.68 2.34 3.36 2 2 C1.34 2 0.68 2 0 2 C0 1.34 0 0.68 0 0 Z " fill="#D4DAE6" transform="translate(11,28)"/>
<path d="M0 0 C0.33 0 0.66 0 1 0 C1 3.96 1 7.92 1 12 C1.66 12.33 2.32 12.66 3 13 C2.34 13 1.68 13 1 13 C0.67 14.98 0.34 16.96 0 19 C-0.33 19 -0.66 19 -1 19 C-1 15.37 -1 11.74 -1 8 C-1.99 7.67 -2.98 7.34 -4 7 C-2.68 7 -1.36 7 0 7 C0 4.69 0 2.38 0 0 Z " fill="#B881E7" transform="translate(19,28)"/>
<path d="M0 0 C0.33 0.66 0.66 1.32 1 2 C1.66 2 2.32 2 3 2 C3 5.3 3 8.6 3 12 C1 11 1 11 0.1484375 8.93359375 C-0.10679688 8.10988281 -0.36203125 7.28617188 -0.625 6.4375 C-0.88539062 5.61121094 -1.14578125 4.78492188 -1.4140625 3.93359375 C-1.60742188 3.29550781 -1.80078125 2.65742188 -2 2 C-1.34 1.34 -0.68 0.68 0 0 Z " fill="#DBE2FB" transform="translate(34,24)"/>
<path d="M0 0 C2.64 0.33 5.28 0.66 8 1 C7.67 2.65 7.34 4.3 7 6 C4.69 5.67 2.38 5.34 0 5 C0 3.35 0 1.7 0 0 Z " fill="#EABB6A" transform="translate(26,19)"/>
<path d="M0 0 C1.32 0.66 2.64 1.32 4 2 C3.67 3.65 3.34 5.3 3 7 C1.35 7 -0.3 7 -2 7 C-2.33 5.35 -2.66 3.7 -3 2 C-2.01 2 -1.02 2 0 2 C0 1.34 0 0.68 0 0 Z " fill="#F3BE59" transform="translate(13,12)"/>
<path d="M0 0 C0.66 1.32 1.32 2.64 2 4 C1.01 4.495 1.01 4.495 0 5 C0 5.99 0 6.98 0 8 C-0.95712891 8.07347656 -0.95712891 8.07347656 -1.93359375 8.1484375 C-3.17302734 8.26058594 -3.17302734 8.26058594 -4.4375 8.375 C-5.26121094 8.44460937 -6.08492187 8.51421875 -6.93359375 8.5859375 C-7.95646484 8.79089844 -7.95646484 8.79089844 -9 9 C-9.33 9.66 -9.66 10.32 -10 11 C-10 10.01 -10 9.02 -10 8 C-9.34 8 -8.68 8 -8 8 C-8 7.34 -8 6.68 -8 6 C-5.69 5.34 -3.38 4.68 -1 4 C-0.67 2.68 -0.34 1.36 0 0 Z " fill="#AEC1CB" transform="translate(34,31)"/>
<path d="M0 0 C-0.33 0.66 -0.66 1.32 -1 2 C-1.66 1.67 -2.32 1.34 -3 1 C-3 1.66 -3 2.32 -3 3 C-2.34 3.33 -1.68 3.66 -1 4 C-1.33 5.32 -1.66 6.64 -2 8 C-2.66 8 -3.32 8 -4 8 C-4.33 6.02 -4.66 4.04 -5 2 C-5.99 1.67 -6.98 1.34 -8 1 C-4.93251126 -0.86240388 -3.40254489 -1.2151946 0 0 Z " fill="#ECDACA" transform="translate(14,27)"/>
<path d="M0 0 C0.99 0.66 1.98 1.32 3 2 C2.75 3.875 2.75 3.875 2 6 C-0.0625 7.25 -0.0625 7.25 -2 8 C-2.66 6.02 -3.32 4.04 -4 2 C-2.68 2 -1.36 2 0 2 C0 1.34 0 0.68 0 0 Z " fill="#CFC4D4" transform="translate(48,8)"/>
<path d="M0 0 C0.66 0 1.32 0 2 0 C2 1.98 2 3.96 2 6 C-0.64 6 -3.28 6 -6 6 C-6 5.01 -6 4.02 -6 3 C-4.35 3 -2.7 3 -1 3 C-0.67 2.01 -0.34 1.02 0 0 Z " fill="#E5E3E9" transform="translate(39,50)"/>
<path d="M0 0 C-0.33 1.32 -0.66 2.64 -1 4 C-2.98 4 -4.96 4 -7 4 C-7 3.34 -7 2.68 -7 2 C-7.66 1.67 -8.32 1.34 -9 1 C-3.375 -1.125 -3.375 -1.125 0 0 Z " fill="#4867E0" transform="translate(37,9)"/>
<path d="M0 0 C2 0.3125 2 0.3125 4 1 C4.33 1.66 4.66 2.32 5 3 C4.67 3.99 4.34 4.98 4 6 C2.68 6 1.36 6 0 6 C-0.38218767 4.34385343 -0.71395102 2.67542976 -1 1 C-0.67 0.67 -0.34 0.34 0 0 Z " fill="#DA8B3D" transform="translate(16,47)"/>
<path d="M0 0 C0.99 0.33 1.98 0.66 3 1 C3 2.65 3 4.3 3 6 C0.03 6 -2.94 6 -6 6 C-4.68 5.34 -3.36 4.68 -2 4 C-0.73195434 1.9664052 -0.73195434 1.9664052 0 0 Z " fill="#CE3C6B" transform="translate(44,43)"/>
<path d="M0 0 C1.65 0.33 3.3 0.66 5 1 C4.67 2.32 4.34 3.64 4 5 C0 5 0 5 -2 4 C-1.34 2.68 -0.68 1.36 0 0 Z " fill="#EC853E" transform="translate(49,21)"/>
<path d="M0 0 C3.465 1.485 3.465 1.485 7 3 C7 3.99 7 4.98 7 6 C1.25 4.25 1.25 4.25 -1 2 C-0.67 1.34 -0.34 0.68 0 0 Z " fill="#9EAEEB" transform="translate(35,39)"/>
<path d="M0 0 C2 1.8125 2 1.8125 4 4 C4 4.99 4 5.98 4 7 C2.68 6.67 1.36 6.34 0 6 C0 4.02 0 2.04 0 0 Z " fill="#C8D6F7" transform="translate(32,44)"/>
<path d="M0 0 C-0.33 1.32 -0.66 2.64 -1 4 C-3.31 4.33 -5.62 4.66 -8 5 C-8 4.34 -8 3.68 -8 3 C-6.68 3 -5.36 3 -4 3 C-4 2.34 -4 1.68 -4 1 C-2 0 -2 0 0 0 Z " fill="#EC4CCD" transform="translate(23,21)"/>
<path d="M0 0 C1.32 0 2.64 0 4 0 C4 1.32 4 2.64 4 4 C2.35 3.67 0.7 3.34 -1 3 C-0.67 2.01 -0.34 1.02 0 0 Z " fill="#E08F9A" transform="translate(43,31)"/>
<path d="M0 0 C2.97 0 5.94 0 9 0 C8.67 0.66 8.34 1.32 8 2 C6.35 1.67 4.7 1.34 3 1 C2.67 1.99 2.34 2.98 2 4 C1.34 4 0.68 4 0 4 C0 2.68 0 1.36 0 0 Z " fill="#CD8719" transform="translate(24,30)"/>
<path d="M0 0 C0.66 0.33 1.32 0.66 2 1 C2 2.65 2 4.3 2 6 C0.02 6.99 0.02 6.99 -2 8 C-2.33 7.01 -2.66 6.02 -3 5 C-2.01 4.67 -1.02 4.34 0 4 C0 2.68 0 1.36 0 0 Z " fill="#C2C3ED" transform="translate(23,23)"/>
</svg>
