<?xml version="1.0" encoding="UTF-8"?>
<svg version="1.1" xmlns="http://www.w3.org/2000/svg" width="64" height="64">
<path d="M0 0 C8.34296853 4.97488123 13.53708251 11.86384564 16.109375 21.2578125 C16.90235712 30.15580954 16.99600648 38.47480011 12.109375 46.2578125 C11.78195313 46.86753906 11.45453125 47.47726563 11.1171875 48.10546875 C7.4654778 54.16943924 0.83743947 58.52584783 -5.74609375 60.9375 C-17.14435926 62.63997317 -27.13574513 61.82809417 -36.578125 55.0703125 C-42.53643467 50.20093529 -45.85072373 44.65134112 -47.890625 37.2578125 C-48.67939221 28.40711065 -48.85066889 19.959744 -43.890625 12.2578125 C-43.45492187 11.55140625 -43.01921875 10.845 -42.5703125 10.1171875 C-33.40117673 -3.4110456 -14.48728344 -6.95195145 0 0 Z " fill="#4471C4" transform="translate(47.890625,2.7421875)"/>
<path d="M0 0 C9.57 0 19.14 0 29 0 C29.020625 2.76375 29.04125 5.5275 29.0625 8.375 C29.071604 9.24431152 29.08070801 10.11362305 29.09008789 11.00927734 C29.11111111 16.77777778 29.11111111 16.77777778 28 19 C28.99 19.33 29.98 19.66 31 20 C30.67 20.66 30.34 21.32 30 22 C28.02 22 26.04 22 24 22 C24 20.35 24 18.7 24 17 C14.9401941 16.87775374 6.02253886 17.16069406 -3 18 C-3 17.01 -3 16.02 -3 15 C-1.35 15 0.3 15 2 15 C2 14.34 2 13.68 2 13 C1.34 13 0.68 13 0 13 C0 12.01 0 11.02 0 10 C-2.31 10 -4.62 10 -7 10 C-7 8.68 -7 7.36 -7 6 C-5.02 5.67 -3.04 5.34 -1 5 C-0.67 3.35 -0.34 1.7 0 0 Z " fill="#809AC5" transform="translate(21,27)"/>
<path d="M0 0 C0.66 0.66 1.32 1.32 2 2 C1.96712417 4.72869407 1.43602229 7.2966618 1 10 C0.67 9.34 0.34 8.68 0 8 C-2.64 8 -5.28 8 -8 8 C-8 10.31 -8 12.62 -8 15 C-6.68 15 -5.36 15 -4 15 C-4 15.66 -4 16.32 -4 17 C-5.98 17 -7.96 17 -10 17 C-10 18.32 -10 19.64 -10 21 C-7.69 21 -5.38 21 -3 21 C-3 21.99 -3 22.98 -3 24 C-2.34 24 -1.68 24 -1 24 C-1 24.66 -1 25.32 -1 26 C-2.65 26 -4.3 26 -6 26 C-6 26.99 -6 27.98 -6 29 C-4.68 29 -3.36 29 -2 29 C-2 29.66 -2 30.32 -2 31 C-4.97 31 -7.94 31 -11 31 C-11.05425226 28.60385874 -11.09379027 26.20896147 -11.125 23.8125 C-11.15013672 22.80219727 -11.15013672 22.80219727 -11.17578125 21.77148438 C-11.21538674 17.71192193 -10.80020002 14.65001185 -9 11 C-10.32 10.67 -11.64 10.34 -13 10 C-13.6875 7.6875 -13.6875 7.6875 -14 5 C-11.16036826 0.48999665 -4.97960252 -0.55328917 0 0 Z " fill="#4DA9D8" transform="translate(24,16)"/>
<path d="M0 0 C2.5625718 -0.02710123 5.12485365 -0.04688771 7.6875 -0.0625 C8.40873047 -0.07087891 9.12996094 -0.07925781 9.87304688 -0.08789062 C13.71555382 -0.10543632 17.26639526 0.06475779 21 1 C21 1.66 21 2.32 21 3 C22.65 3 24.3 3 26 3 C24.1875 6 24.1875 6 22 9 C21.01 9 20.02 9 19 9 C19 8.01 19 7.02 19 6 C18.34 6 17.68 6 17 6 C17 6.99 17 7.98 17 9 C17.99 9.66 18.98 10.32 20 11 C19.01 11.33 18.02 11.66 17 12 C17 12.66 17 13.32 17 14 C17.99 13.67 18.98 13.34 20 13 C20 13.66 20 14.32 20 15 C16.37 15 12.74 15 9 15 C8.34 12.03 7.68 9.06 7 6 C8.65 5.67 10.3 5.34 12 5 C12.66 6.65 13.32 8.3 14 10 C14 7.36 14 4.72 14 2 C11.36 2 8.72 2 6 2 C6 3.65 6 5.3 6 7 C5.34 7 4.68 7 4 7 C4.33 7.99 4.66 8.98 5 10 C5.66 10 6.32 10 7 10 C7 10.66 7 11.32 7 12 C5.35 12 3.7 12 2 12 C2.33 11.01 2.66 10.02 3 9 C2.01 8.67 1.02 8.34 0 8 C0 5.36 0 2.72 0 0 Z " fill="#94ADCF" transform="translate(22,27)"/>
<path d="M0 0 C0.33 0 0.66 0 1 0 C1.1953125 2.05078125 1.390625 4.1015625 1.5859375 6.15234375 C1.72257812 6.76207031 1.85921875 7.37179688 2 8 C2.66 8.33 3.32 8.66 4 9 C4 9.66 4 10.32 4 11 C5.32 11.33 6.64 11.66 8 12 C8 11.34 8 10.68 8 10 C7.01 10.33 6.02 10.66 5 11 C5 9.68 5 8.36 5 7 C5.66 7 6.32 7 7 7 C7 5.35 7 3.7 7 2 C9.64 2 12.28 2 15 2 C15 4.64 15 7.28 15 10 C13.35 10 11.7 10 10 10 C11.32 9.67 12.64 9.34 14 9 C13.67 7.68 13.34 6.36 13 5 C11.35 5.33 9.7 5.66 8 6 C8.33 6.70125 8.66 7.4025 9 8.125 C10 11 10 11 10 17 C3.565 17.495 3.565 17.495 -3 18 C-3 17.01 -3 16.02 -3 15 C-1.35 15 0.3 15 2 15 C2 14.34 2 13.68 2 13 C1.34 13 0.68 13 0 13 C0 12.01 0 11.02 0 10 C-2.31 10 -4.62 10 -7 10 C-7 8.68 -7 7.36 -7 6 C-5.02 5.67 -3.04 5.34 -1 5 C-0.67 3.35 -0.34 1.7 0 0 Z " fill="#6771C9" transform="translate(21,27)"/>
<path d="M0 0 C2.21142499 1.50921895 4.02799234 3.16557427 6 5 C5.67 6.32 5.34 7.64 5 9 C2.69 9.66 0.38 10.32 -2 11 C-2.66 10.34 -3.32 9.68 -4 9 C-6.32275177 8.59952556 -8.65739357 8.2602896 -11 8 C-10.8125 5.6875 -10.8125 5.6875 -10 3 C-6.75079675 0.38258627 -4.14226852 -0.80824752 0 0 Z " fill="#2D8DCD" transform="translate(53,18)"/>
<path d="M0 0 C1.24546405 2.49092811 0.7767578 3.41080733 0 6 C2.31 6 4.62 6 7 6 C7 6.99 7 7.98 7 9 C7.66 9 8.32 9 9 9 C9 9.66 9 10.32 9 11 C7.35 11 5.7 11 4 11 C4 11.99 4 12.98 4 14 C5.32 14 6.64 14 8 14 C8 14.66 8 15.32 8 16 C5.03 16 2.06 16 -1 16 C-1.02685095 13.52076199 -1.04676547 11.0418116 -1.0625 8.5625 C-1.07506836 7.50192383 -1.07506836 7.50192383 -1.08789062 6.41992188 C-1.09653588 4.61306441 -1.05220011 2.80612397 -1 1 C-0.67 0.67 -0.34 0.34 0 0 Z " fill="#4D83D2" transform="translate(14,31)"/>
<path d="M0 0 C5.28 0 10.56 0 16 0 C16 0.33 16 0.66 16 1 C12.7 1 9.4 1 6 1 C6 2.98 6 4.96 6 7 C5.34 7 4.68 7 4 7 C4.33 7.99 4.66 8.98 5 10 C5.66 10 6.32 10 7 10 C7 10.66 7 11.32 7 12 C5.35 12 3.7 12 2 12 C2.33 11.01 2.66 10.02 3 9 C2.01 8.67 1.02 8.34 0 8 C0 5.36 0 2.72 0 0 Z " fill="#819CD2" transform="translate(22,27)"/>
<path d="M0 0 C3.96 0 7.92 0 12 0 C12.02690104 2.79173055 12.04679053 5.58320348 12.0625 8.375 C12.07087891 9.1690625 12.07925781 9.963125 12.08789062 10.78125 C12.11328125 16.7734375 12.11328125 16.7734375 11 19 C11.99 19.33 12.98 19.66 14 20 C13.67 20.66 13.34 21.32 13 22 C11.02 22 9.04 22 7 22 C7 20.35 7 18.7 7 17 C6.01 16.67 5.02 16.34 4 16 C6.31 16 8.62 16 11 16 C10.67 11.38 10.34 6.76 10 2 C6.7 1.67 3.4 1.34 0 1 C0 0.67 0 0.34 0 0 Z " fill="#6572C5" transform="translate(38,27)"/>
<path d="M0 0 C2.31728088 1.48262047 4.00503269 3.05142728 6 5 C6 5.66 6 6.32 6 7 C5.21625 6.649375 4.4325 6.29875 3.625 5.9375 C-1.13169713 4.70731971 -5.18890305 5.29640084 -10 6 C-10 5.01 -10 4.02 -10 3 C-6.69939902 0.4538221 -4.14806969 -0.80937945 0 0 Z " fill="#3EABDB" transform="translate(53,18)"/>
<path d="M0 0 C2.31 0 4.62 0 7 0 C7 0.66 7 1.32 7 2 C8.65 1.67 10.3 1.34 12 1 C12.66 1.99 13.32 2.98 14 4 C9.38 4.33 4.76 4.66 0 5 C0 3.35 0 1.7 0 0 Z " fill="#4F77D2" transform="translate(26,44)"/>
<path d="M0 0 C0.33 0 0.66 0 1 0 C1 3.3 1 6.6 1 10 C-0.98 10 -2.96 10 -5 10 C-5.66 7.69 -6.32 5.38 -7 3 C-5.35 2.67 -3.7 2.34 -2 2 C-1.34 3.65 -0.68 5.3 0 7 C0 4.69 0 2.38 0 0 Z " fill="#7289C0" transform="translate(36,30)"/>
<path d="M0 0 C2.64 0 5.28 0 8 0 C8 0.66 8 1.32 8 2 C7.01 2.495 7.01 2.495 6 3 C5.34444881 5.52733235 5.34444881 5.52733235 5 8 C3.35 7.67 1.7 7.34 0 7 C0 4.69 0 2.38 0 0 Z " fill="#3D88D0" transform="translate(16,24)"/>
<path d="M0 0 C2.64 0 5.28 0 8 0 C8 2.64 8 5.28 8 8 C6.35 8 4.7 8 3 8 C4.32 7.67 5.64 7.34 7 7 C6.67 5.68 6.34 4.36 6 3 C4.02 3.66 2.04 4.32 0 5 C0 3.35 0 1.7 0 0 Z " fill="#C55384" transform="translate(28,29)"/>
<path d="M0 0 C2.31 0 4.62 0 7 0 C7 0.99 7 1.98 7 3 C7.66 3 8.32 3 9 3 C9 3.66 9 4.32 9 5 C6.03 5 3.06 5 0 5 C0 3.35 0 1.7 0 0 Z " fill="#C1CED6" transform="translate(14,37)"/>
<path d="M0 0 C3.3 0 6.6 0 10 0 C8.1875 3 8.1875 3 6 6 C5.01 6 4.02 6 3 6 C3 5.01 3 4.02 3 3 C2.34 3 1.68 3 1 3 C0.67 3.99 0.34 4.98 0 6 C0 4.02 0 2.04 0 0 Z " fill="#B3BCCE" transform="translate(38,30)"/>
<path d="M0 0 C0.33 0 0.66 0 1 0 C1 3.3 1 6.6 1 10 C-0.65 10 -2.3 10 -4 10 C-4 8.35 -4 6.7 -4 5 C-3.34 4.67 -2.68 4.34 -2 4 C-2 3.34 -2 2.68 -2 2 C-1.34 2 -0.68 2 0 2 C0 1.34 0 0.68 0 0 Z " fill="#BEA6B7" transform="translate(47,32)"/>
<path d="M0 0 C1.65 0.33 3.3 0.66 5 1 C4.67 2.65 4.34 4.3 4 6 C2.35 5.67 0.7 5.34 -1 5 C-0.67 3.35 -0.34 1.7 0 0 Z " fill="#3798D1" transform="translate(6,27)"/>
<path d="M0 0 C0.66 0 1.32 0 2 0 C2 1.65 2 3.3 2 5 C-0.31 5 -2.62 5 -5 5 C-5 4.01 -5 3.02 -5 2 C-3.35 2 -1.7 2 0 2 C0 1.34 0 0.68 0 0 Z " fill="#C47382" transform="translate(23,40)"/>
<path d="M0 0 C5.75 1.75 5.75 1.75 8 4 C5.36 4 2.72 4 0 4 C0 2.68 0 1.36 0 0 Z " fill="#32A1D4" transform="translate(51,22)"/>
<path d="M0 0 C0.5625 1.9375 0.5625 1.9375 1 4 C0 5 0 5 -3.5625 5.0625 C-4.696875 5.041875 -5.83125 5.02125 -7 5 C-7 4.34 -7 3.68 -7 3 C-3.535 2.505 -3.535 2.505 0 2 C0 1.34 0 0.68 0 0 Z " fill="#3C9CD5" transform="translate(25,18)"/>
<path d="M0 0 C0.99 0 1.98 0 3 0 C3 0.66 3 1.32 3 2 C3.99 2.33 4.98 2.66 6 3 C5.67 3.66 5.34 4.32 5 5 C3.35 5 1.7 5 0 5 C0 3.35 0 1.7 0 0 Z " fill="#C06072" transform="translate(46,44)"/>
<path d="M0 0 C3.34249629 0.59687434 5.46436342 1.73603877 8 4 C8 4.66 8 5.32 8 6 C2.33846154 4.52307692 2.33846154 4.52307692 0.625 1.875 C0.41875 1.25625 0.2125 0.6375 0 0 Z " fill="#72C3E7" transform="translate(51,19)"/>
<path d="M0 0 C1.32 0.33 2.64 0.66 4 1 C4.33 3.31 4.66 5.62 5 8 C4.34 8 3.68 8 3 8 C3 6.35 3 4.7 3 3 C2.01 3.33 1.02 3.66 0 4 C0 2.68 0 1.36 0 0 Z " fill="#4170D0" transform="translate(26,34)"/>
<path d="M0 0 C3.63 0 7.26 0 11 0 C7.71299843 1.64350079 5.52069985 2.41321669 2 3 C2 2.34 2 1.68 2 1 C1.34 0.67 0.68 0.34 0 0 Z " fill="#3D39B8" transform="translate(31,43)"/>
<path d="M0 0 C0.33 0.99 0.66 1.98 1 3 C1.66 3 2.32 3 3 3 C3 3.66 3 4.32 3 5 C0.03 5 -2.94 5 -6 5 C-4.68 4.67 -3.36 4.34 -2 4 C-2 3.34 -2 2.68 -2 2 C-1.34 2 -0.68 2 0 2 C0 1.34 0 0.68 0 0 Z " fill="#A4BBD3" transform="translate(20,37)"/>
<path d="M0 0 C1.65 0.33 3.3 0.66 5 1 C5 1.99 5 2.98 5 4 C2.03 3.505 2.03 3.505 -1 3 C-0.67 2.01 -0.34 1.02 0 0 Z " fill="#54B9E1" transform="translate(20,16)"/>
<path d="M0 0 C0 0.33 0 0.66 0 1 C-2.97 1 -5.94 1 -9 1 C-8 -1 -8 -1 -6.1875 -1.75 C-3.50171361 -2.05694702 -2.2747813 -1.38111722 0 0 Z " fill="#5B4DCA" transform="translate(40,47)"/>
<path d="M0 0 C0.33 1.32 0.66 2.64 1 4 C-0.65 4 -2.3 4 -4 4 C-4.33 3.01 -4.66 2.02 -5 1 C-2 0 -2 0 0 0 Z " fill="#C8AEC0" transform="translate(34,32)"/>
<path d="M0 0 C0.99 0.33 1.98 0.66 3 1 C3 2.65 3 4.3 3 6 C0.53199953 4.84826645 -1.04783565 3.95216435 -3 2 C-2.01 1.34 -1.02 0.68 0 0 Z " fill="#4699D2" transform="translate(55,31)"/>
</svg>
