<?xml version="1.0" encoding="UTF-8"?>
<svg version="1.1" xmlns="http://www.w3.org/2000/svg" width="55" height="64">
<path d="M0 0 C2.77392578 0.45117187 2.77392578 0.45117187 4.77392578 2.63867188 C5.77392578 5.45117187 5.77392578 5.45117187 5.33642578 7.88867188 C3.24321549 11.32153675 0.71124361 13.70541826 -2.22607422 16.45117188 C-1.16913773 20.76022062 -0.4174091 23.40489767 2.77392578 26.45117188 C2.77392578 27.77117188 2.77392578 29.09117188 2.77392578 30.45117188 C3.76392578 30.78117187 4.75392578 31.11117187 5.77392578 31.45117188 C6.53955078 34.12695312 6.53955078 34.12695312 6.77392578 37.45117188 C5.00830078 40.11914062 5.00830078 40.11914062 2.52392578 42.63867188 C1.71439453 43.47785156 0.90486328 44.31703125 0.07080078 45.18164062 C-0.68716797 45.93058594 -1.44513672 46.67953125 -2.22607422 47.45117188 C-2.77779297 48.04542969 -3.32951172 48.6396875 -3.89794922 49.25195312 C-5.22607422 50.45117188 -5.22607422 50.45117188 -7.22607422 50.45117188 C-7.55607422 51.44117188 -7.88607422 52.43117187 -8.22607422 53.45117188 C-12.30502615 56.01237425 -15.42615727 57.15115976 -20.22607422 56.45117188 C-22.61272171 55.23132982 -24.2030492 54.14400201 -26.22607422 52.45117188 C-26.94150391 51.89945313 -27.65693359 51.34773438 -28.39404297 50.77929688 C-34.58072102 45.43201736 -36.72494627 40.15169786 -39.04272461 32.56103516 C-40.68902547 27.36943377 -42.52143544 24.09643501 -47.00341797 20.77539062 C-47.40689453 20.33839844 -47.81037109 19.90140625 -48.22607422 19.45117188 C-47.95953153 16.4851756 -47.36476742 15.58986507 -45.22607422 13.45117188 C-40.58608976 12.98717343 -38.21289888 12.94808479 -34.03857422 15.07617188 C-30.97855147 17.66019109 -28.75159172 20.3526378 -26.22607422 23.45117188 C-25.22809814 22.40606445 -25.22809814 22.40606445 -24.20996094 21.33984375 C-21.73176714 18.75284955 -19.23360213 16.18592932 -16.72900391 13.62451172 C-15.64892746 12.51430717 -14.57430276 11.39877108 -13.50537109 10.27783203 C-11.96546103 8.66493367 -10.40679155 7.07239267 -8.84326172 5.48242188 C-8.37113251 4.97932495 -7.8990033 4.47622803 -7.41256714 3.95788574 C-4.93568041 1.47855895 -3.51110578 0.49103402 0 0 Z M-3.70629883 6.67016602 C-4.68731113 7.68552934 -5.66088651 8.70811088 -6.62841797 9.73632812 C-7.69391473 10.83488614 -8.75967814 11.93318559 -9.82568359 13.03125 C-11.50011551 14.77410644 -13.17029758 16.52074677 -14.83520508 18.27270508 C-16.44303455 19.95882638 -18.06581542 21.62937384 -19.69091797 23.29882812 C-20.18583237 23.82896011 -20.68074677 24.3590921 -21.19065857 24.9052887 C-22.61645508 26.36157227 -22.61645508 26.36157227 -25.22607422 28.45117188 C-27.49243164 28.38208008 -27.49243164 28.38208008 -29.22607422 27.45117188 C-30.49951172 25.70898438 -30.49951172 25.70898438 -31.60107422 23.57617188 C-33.86788959 19.67920842 -35.81969644 17.88803419 -40.22607422 16.45117188 C-41.21607422 16.78117187 -42.20607422 17.11117188 -43.22607422 17.45117188 C-42.45392578 18.27359375 -41.68177734 19.09601562 -40.88623047 19.94335938 C-37.88542102 23.54180106 -36.89801901 27.12945646 -35.66357422 31.57617188 C-33.63254479 38.03988083 -31.03268902 42.7122231 -26.22607422 47.51367188 C-25.727771 48.01979004 -25.22946777 48.5259082 -24.71606445 49.04736328 C-22.20704303 51.36521725 -20.48160485 52.41107616 -17.08935547 52.94335938 C-13.89034145 52.39346065 -12.7284698 51.73778724 -10.41357422 49.51367188 C-9.74712891 48.88074219 -9.08068359 48.2478125 -8.39404297 47.59570312 C-7.67861328 46.88800781 -6.96318359 46.1803125 -6.22607422 45.45117188 C-5.39720703 44.67128906 -4.56833984 43.89140625 -3.71435547 43.08789062 C-0.34584772 39.88618119 -0.34584772 39.88618119 2.77392578 36.45117188 C2.77392578 35.46117188 2.77392578 34.47117187 2.77392578 33.45117188 C-0.19607422 33.94617187 -0.19607422 33.94617187 -3.22607422 34.45117188 C-2.89607422 33.85304688 -2.56607422 33.25492188 -2.22607422 32.63867188 C-1.01819434 30.39730717 -1.01819434 30.39730717 -1.22607422 27.45117188 C-3.20607422 27.45117188 -5.18607422 27.45117188 -7.22607422 27.45117188 C-6.56607422 26.46117188 -5.90607422 25.47117187 -5.22607422 24.45117188 C-5.22607422 23.13117187 -5.22607422 21.81117187 -5.22607422 20.45117188 C-6.87607422 20.45117188 -8.52607422 20.45117188 -10.22607422 20.45117188 C-8.11221467 16.58602416 -5.72862698 13.78934188 -2.53857422 10.76367188 C-1.06393653 9.3642948 0.38381083 7.93454402 1.77392578 6.45117188 C1.77392578 5.79117187 1.77392578 5.13117187 1.77392578 4.45117188 C-1.40810534 4.11778731 -1.40810534 4.11778731 -3.70629883 6.67016602 Z " fill="#FFFFFF" transform="translate(50.22607421875,5.548828125)"/>
<path d="M0 0 C-0.5409931 3.78695173 -2.03432464 5.62745972 -5 8 C-6.32 8 -7.64 8 -9 8 C-8.20944111 2.46608774 -5.52734603 0 0 0 Z " fill="#FFFFFF" transform="translate(39,5)"/>
<path d="M0 0 C3.18609925 0.35401103 4.79066678 0.83027036 7.3125 2.875 C9 5 9 5 9 8 C5.41209425 7.70100785 4.21833224 7.23013399 1.6875 4.5625 C0 2 0 2 0 0 Z " fill="#FFFFFF" transform="translate(12,5)"/>
<path d="M0 0 C0.99 0 1.98 0 3 0 C3 3.63 3 7.26 3 11 C2.01 11 1.02 11 0 11 C0 7.37 0 3.74 0 0 Z " fill="#FFFFFF" transform="translate(24,1)"/>
</svg>
