<?xml version="1.0" encoding="UTF-8"?>
<svg version="1.1" xmlns="http://www.w3.org/2000/svg" width="553" height="254" viewBox="0 0 580 171">
<path d="M0 0 C4.98539215 2.79104966 7.86388538 6.48394896 9.578125 11.8984375 C10.26669025 15.32851252 10.18690758 18.51105847 10 22 C14.62 22 19.24 22 24 22 C24.33 22.99 24.66 23.98 25 25 C25.61407715 24.97905273 26.2281543 24.95810547 26.86083984 24.93652344 C29.69872017 24.85231966 32.53633652 24.80101577 35.375 24.75 C36.34050781 24.71648438 37.30601562 24.68296875 38.30078125 24.6484375 C46.77027432 24.53475303 53.24639705 26.5212056 60.3125 31.1875 C66.99616995 38.18203832 69.39176088 45.4750402 69.27734375 54.984375 C68.66391661 61.6543152 66.55383308 67.80224781 61.875 72.6875 C59 75 59 75 57 75 C62.81557325 86.84636694 62.81557325 86.84636694 69.1875 98.3984375 C70 100 70 100 70 102 C61.42 102 52.84 102 44 102 C42.370625 98.90625 40.74125 95.8125 39.0625 92.625 C38.29305054 91.16441162 38.29305054 91.16441162 37.50805664 89.67431641 C36.90272095 88.52455322 36.90272095 88.52455322 36.28515625 87.3515625 C35.87144775 86.56604004 35.45773926 85.78051758 35.03149414 84.97119141 C34.34211376 83.65378141 33.66495329 82.32990658 33 81 C31.02 81 29.04 81 27 81 C26.67 87.93 26.34 94.86 26 102 C22.77788308 103.61105846 19.26157805 103.1417111 15.72265625 103.1328125 C14.46273109 103.13424759 14.46273109 103.13424759 13.17735291 103.13571167 C11.38589402 103.13639398 9.59443269 103.13453615 7.80297852 103.13037109 C5.13226314 103.12513673 2.46172492 103.13025395 -0.20898438 103.13671875 C-11.83590052 103.14076726 -23.39651777 102.72817221 -35 102 C-34.98839844 101.16452637 -34.97679687 100.32905273 -34.96484375 99.46826172 C-34.2559749 77.26692219 -34.2559749 77.26692219 -44 58 C-44.03963867 58.61407715 -44.07927734 59.2281543 -44.12011719 59.86083984 C-44.31314915 62.70032932 -44.53144023 65.53736567 -44.75 68.375 C-44.811875 69.34050781 -44.87375 70.30601563 -44.9375 71.30078125 C-45.7505877 81.39662022 -48.28391877 89.38204183 -55.87109375 96.3125 C-64.69217532 103.30462337 -75.0996549 104.67538907 -86.09375 103.5703125 C-89.05175359 102.98984405 -91.35140117 102.04549343 -94.0625 100.75 C-98.03791404 98.96412234 -100.026051 98.96808409 -104.12841797 100.37011719 C-109.83916188 102.08719454 -114.9500981 102.40736488 -120.8828125 102.328125 C-121.86369843 102.32625183 -122.84458435 102.32437866 -123.85519409 102.32244873 C-125.90382344 102.31578572 -127.95244134 102.3019881 -130.00097656 102.28125 C-133.15181154 102.2497318 -136.30214705 102.24023547 -139.453125 102.234375 C-141.45052701 102.22521802 -143.4479239 102.21484645 -145.4453125 102.203125 C-146.38996368 102.19887512 -147.33461487 102.19462524 -148.30789185 102.19024658 C-149.17324554 102.18063904 -150.03859924 102.17103149 -150.93017578 102.16113281 C-151.69419708 102.15430481 -152.45821838 102.14747681 -153.24539185 102.14044189 C-155 102 -155 102 -156 101 C-156.09494733 98.62699131 -156.12559319 96.28321297 -156.11352539 93.90991211 C-156.11367142 93.16849472 -156.11381744 92.42707733 -156.1139679 91.66319275 C-156.11326865 89.20121379 -156.10547574 86.73930957 -156.09765625 84.27734375 C-156.09579211 82.57483461 -156.09436819 80.87232493 -156.09336853 79.16981506 C-156.08954302 74.68006927 -156.07971247 70.19035562 -156.06866455 65.70062256 C-156.05665668 60.31836359 -156.05204835 54.9360939 -156.04621124 49.55382538 C-156.03650072 41.36919454 -156.01734441 33.18463428 -156 25 C-134.22 25 -112.44 25 -90 25 C-89.6875 49.1875 -89.6875 49.1875 -89.61206055 56.80151367 C-89.57976789 58.79868437 -89.54639378 60.795838 -89.51171875 62.79296875 C-89.50547485 63.82538696 -89.49923096 64.85780518 -89.49279785 65.92150879 C-89.40770604 72.9655713 -89.40770604 72.9655713 -86 79 C-83.35057347 81.15879198 -81.21683717 81.09478727 -77.9375 80.8125 C-75.3656078 80.41094062 -74.18126963 80.13449037 -72.0625 78.5625 C-70.0653111 75.62545749 -69.85659979 73.7038166 -69.79467773 70.18310547 C-69.77473251 69.18221893 -69.75478729 68.1813324 -69.73423767 67.15011597 C-69.71752518 66.06674957 -69.70081268 64.98338318 -69.68359375 63.8671875 C-69.6524221 62.20672897 -69.6524221 62.20672897 -69.62062073 60.51272583 C-69.55509009 56.96688201 -69.49622386 53.42096246 -69.4375 49.875 C-69.39431813 47.4752525 -69.35070395 45.07551273 -69.30664062 42.67578125 C-69.19940512 36.78393487 -69.09764528 30.89201269 -69 25 C-67.99622314 25.01571045 -66.99244629 25.0314209 -65.95825195 25.04760742 C-62.22168045 25.10205114 -58.48514379 25.13640226 -54.74829102 25.16479492 C-53.13332211 25.17984876 -51.51839387 25.20029648 -49.90356445 25.22631836 C-47.57753445 25.26285286 -45.25204659 25.27976015 -42.92578125 25.29296875 C-42.20787918 25.30845261 -41.48997711 25.32393646 -40.75032043 25.33988953 C-36.24409986 25.34139039 -33.68990186 24.5272791 -30 22 C-27.1875 21.8125 -27.1875 21.8125 -25 22 C-25.0825 20.845 -25.165 19.69 -25.25 18.5 C-25.23927765 12.45259605 -22.92323961 7.92323961 -18.6875 3.6875 C-12.38066754 -0.27260411 -7.2576588 -2.28244393 0 0 Z M-15.5 7.25 C-18.48903294 12.72989372 -18 15.14027274 -18 22 C-11.07 22 -4.14 22 3 22 C2.29829565 13.74124907 2.29829565 13.74124907 -1 7 C-5.7532029 3.83119806 -11.11295267 3.30165741 -15.5 7.25 Z M-133 42 C-133 45.96 -133 49.92 -133 54 C-130.37472811 54.05382106 -127.75055287 54.09358313 -125.125 54.125 C-124.00544922 54.15013672 -124.00544922 54.15013672 -122.86328125 54.17578125 C-120.90805539 54.1933959 -118.95257979 54.10320189 -117 54 C-114.64360592 52.06110754 -114.64360592 52.06110754 -114.625 48.5625 C-114.63681774 45.05492594 -114.63681774 45.05492594 -116.5703125 43.2890625 C-119.90529127 41.51970077 -122.49942808 41.70831745 -126.25 41.8125 C-127.51328125 41.83957031 -128.7765625 41.86664063 -130.078125 41.89453125 C-131.52445313 41.94673828 -131.52445313 41.94673828 -133 42 Z M26 44 C26 49.94 26 55.88 26 62 C28.5678125 62.061875 28.5678125 62.061875 31.1875 62.125 C32.63189453 62.15980469 32.63189453 62.15980469 34.10546875 62.1953125 C37.84598544 61.94291596 40.64630993 60.84022142 43.8125 58.875 C45.76858728 55.78644114 45.52845207 52.49482969 45 49 C43.25746655 45.76386646 42.52814056 45.17604685 39 44 C34.66328697 43.86498403 30.33988266 43.95703086 26 44 Z M-46 54 C-45 56 -45 56 -45 56 Z M-133 71 C-133 75.29 -133 79.58 -133 84 C-130.22858283 84.08089542 -127.45952181 84.14044062 -124.6875 84.1875 C-123.50897461 84.22520508 -123.50897461 84.22520508 -122.30664062 84.26367188 C-121.54931641 84.27333984 -120.79199219 84.28300781 -120.01171875 84.29296875 C-119.31522217 84.3086792 -118.61872559 84.32438965 -117.90112305 84.34057617 C-115.37768682 83.88851587 -114.51745454 83.0383587 -113 81 C-112.58326793 77.45800359 -112.58326793 77.45800359 -113 74 C-115.35358251 71.64641749 -115.92968394 71.72128096 -119.1328125 71.5859375 C-119.93847656 71.54726562 -120.74414062 71.50859375 -121.57421875 71.46875 C-122.41597656 71.4378125 -123.25773437 71.406875 -124.125 71.375 C-124.97449219 71.33632812 -125.82398438 71.29765625 -126.69921875 71.2578125 C-128.79911684 71.16343506 -130.89952891 71.08062414 -133 71 Z " fill="#E43333" transform="translate(254,2)"/>
<path d="M0 0 C4.98539215 2.79104966 7.86388538 6.48394896 9.578125 11.8984375 C10.26669025 15.32851252 10.18690758 18.51105847 10 22 C14.62 22 19.24 22 24 22 C24.495 23.485 24.495 23.485 25 25 C25.61407715 24.97905273 26.2281543 24.95810547 26.86083984 24.93652344 C29.69872017 24.85231966 32.53633652 24.80101577 35.375 24.75 C36.34050781 24.71648438 37.30601562 24.68296875 38.30078125 24.6484375 C46.77027432 24.53475303 53.24639705 26.5212056 60.3125 31.1875 C66.99616995 38.18203832 69.39176088 45.4750402 69.27734375 54.984375 C68.66391661 61.6543152 66.55383308 67.80224781 61.875 72.6875 C59 75 59 75 57 75 C62.81557325 86.84636694 62.81557325 86.84636694 69.1875 98.3984375 C70 100 70 100 70 102 C61.42 102 52.84 102 44 102 C42.370625 98.90625 40.74125 95.8125 39.0625 92.625 C38.29305054 91.16441162 38.29305054 91.16441162 37.50805664 89.67431641 C37.10449951 88.90780762 36.70094238 88.14129883 36.28515625 87.3515625 C35.66459351 86.17327881 35.66459351 86.17327881 35.03149414 84.97119141 C34.34211376 83.65378141 33.66495329 82.32990658 33 81 C31.02 81 29.04 81 27 81 C26.67 87.93 26.34 94.86 26 102 C22.77788308 103.61105846 19.26157805 103.1417111 15.72265625 103.1328125 C14.46273109 103.13424759 14.46273109 103.13424759 13.17735291 103.13571167 C11.38589402 103.13639398 9.59443269 103.13453615 7.80297852 103.13037109 C5.13226314 103.12513673 2.46172492 103.13025395 -0.20898438 103.13671875 C-11.83590052 103.14076726 -23.39651777 102.72817221 -35 102 C-35.01981934 101.11739502 -35.03963867 100.23479004 -35.06005859 99.32543945 C-35.13837866 96.03578043 -35.22507855 92.74656036 -35.31738281 89.45727539 C-35.35555149 88.0364627 -35.39042513 86.61555737 -35.421875 85.19458008 C-35.46779065 83.14631145 -35.52573805 81.09867392 -35.5859375 79.05078125 C-35.6173584 77.82012939 -35.6487793 76.58947754 -35.68115234 75.3215332 C-35.98595035 72.14635945 -36.64442201 69.86573943 -38 67 C-36.68 67.33 -35.36 67.66 -34 68 C-32.73249331 74.79663036 -32.88860274 81.54298684 -32.9375 88.4375 C-32.94201172 89.64599609 -32.94652344 90.85449219 -32.95117188 92.09960938 C-32.96289843 95.06642772 -32.98083201 98.0332204 -33 101 C-25.74 101 -18.48 101 -11 101 C-11.02320313 99.00195312 -11.04640625 97.00390625 -11.0703125 94.9453125 C-11.08421736 93.01253761 -11.09805206 91.07976148 -11.10986328 89.14697266 C-11.12488107 87.1408864 -11.15028981 85.13488676 -11.17578125 83.12890625 C-11.18222656 81.87207031 -11.18867188 80.61523438 -11.1953125 79.3203125 C-11.20578613 78.15773926 -11.21625977 76.99516602 -11.22705078 75.79736328 C-11 73 -11 73 -9 71 C-8.34703812 69.45351134 -7.69733307 67.90558095 -7.0625 66.3515625 C-4.68468867 61.08890655 -1.7771719 56.05977893 1 51 C1.66 51 2.32 51 3 51 C3.185625 49.7934375 3.185625 49.7934375 3.375 48.5625 C3.58125 47.716875 3.7875 46.87125 4 46 C4.66 45.67 5.32 45.34 6 45 C6.70312552 43.09151644 7.40216991 41.18136595 8.07421875 39.26171875 C9.32708641 36.20091549 11.05605141 33.58445794 12.9140625 30.859375 C14.2595218 28.75476743 14.2595218 28.75476743 15 25 C7.08 25 -0.84 25 -9 25 C-9.66 27.31 -10.32 29.62 -11 32 C-11.9296875 34.00048828 -11.9296875 34.00048828 -12.875 35.5703125 C-13.22046875 36.15683594 -13.5659375 36.74335937 -13.921875 37.34765625 C-14.45554688 38.22744141 -14.45554688 38.22744141 -15 39.125 C-17.31142018 42.98574167 -19.46133071 46.75263165 -21 51 C-23.70241335 49.99012111 -24.795196 49.38961031 -26.16015625 46.79296875 C-26.45792969 45.93316406 -26.75570312 45.07335938 -27.0625 44.1875 C-28.4198968 40.49559196 -29.8945553 37.33362077 -32 34 C-33.37140983 31.3519323 -34.69037255 28.6790856 -36 26 C-32.20307814 23.17438373 -29.81430721 21.43361092 -25 22 C-25.0825 20.845 -25.165 19.69 -25.25 18.5 C-25.23927765 12.45259605 -22.92323961 7.92323961 -18.6875 3.6875 C-12.38066754 -0.27260411 -7.2576588 -2.28244393 0 0 Z M-15.5 7.25 C-18.48903294 12.72989372 -18 15.14027274 -18 22 C-11.07 22 -4.14 22 3 22 C2.29829565 13.74124907 2.29829565 13.74124907 -1 7 C-5.7532029 3.83119806 -11.11295267 3.30165741 -15.5 7.25 Z M26 44 C26 49.94 26 55.88 26 62 C28.5678125 62.061875 28.5678125 62.061875 31.1875 62.125 C32.63189453 62.15980469 32.63189453 62.15980469 34.10546875 62.1953125 C37.84598544 61.94291596 40.64630993 60.84022142 43.8125 58.875 C45.76858728 55.78644114 45.52845207 52.49482969 45 49 C43.25746655 45.76386646 42.52814056 45.17604685 39 44 C34.66328697 43.86498403 30.33988266 43.95703086 26 44 Z " fill="#556776" transform="translate(254,2)"/>
<path d="M0 0 C20.72340426 -0.57446809 20.72340426 -0.57446809 29 3 C29 3.66 29 4.32 29 5 C30.010625 4.814375 31.02125 4.62875 32.0625 4.4375 C36.57423326 5.08203332 37.06590723 5.65810981 39.8125 9.0625 C44.82246649 16.2853889 45.92855114 23.35286755 45 32 C43.30827437 39.23789432 40.81547555 44.32233489 35 49 C34.34 49 33.68 49 33 49 C38.81557325 60.84636694 38.81557325 60.84636694 45.1875 72.3984375 C46 74 46 74 46 76 C37.42 76 28.84 76 20 76 C18.081875 72.5040625 18.081875 72.5040625 16.125 68.9375 C15.52582764 67.85843384 15.52582764 67.85843384 14.91455078 66.75756836 C12.65107978 62.57100223 11.14200063 58.62209727 10 54 C7.03 53.67 4.06 53.34 1 53 C1 47.72 1 42.44 1 37 C8.75 36.75 8.75 36.75 11.17089844 36.70214844 C14.7433954 36.53117251 16.64045102 36.30784913 19.390625 33.953125 C19.92171875 33.30859375 20.4528125 32.6640625 21 32 C21.66 32 22.32 32 23 32 C23 28.37 23 24.74 23 21 C21.35 20.34 19.7 19.68 18 19 C17.34 18.67 16.68 18.34 16 18 C13.28573859 17.76759495 10.59366233 17.58091198 7.875 17.4375 C5.27625 17.293125 2.6775 17.14875 0 17 C0 11.39 0 5.78 0 0 Z " fill="#E43231" transform="translate(278,28)"/>
<path d="M0 0 C0.99 0 1.98 0 3 0 C3 24.75 3 49.5 3 75 C-6.57 75 -16.14 75 -26 75 C-26 66.09 -26 57.18 -26 48 C-24.515 47.505 -24.515 47.505 -23 47 C-22.979375 45.783125 -22.95875 44.56625 -22.9375 43.3125 C-22.23720607 36.46275003 -18.44159558 30.81387035 -15 25 C-14.34 25 -13.68 25 -13 25 C-12.87625 24.195625 -12.7525 23.39125 -12.625 22.5625 C-12.41875 21.716875 -12.2125 20.87125 -12 20 C-11.34 19.67 -10.68 19.34 -10 19 C-9.608125 17.88625 -9.21625 16.7725 -8.8125 15.625 C-6.80979523 9.97634553 -3.76845132 4.65917618 0 0 Z " fill="#79ABC6" transform="translate(270,28)"/>
<path d="M0 0 C21.78 0 43.56 0 66 0 C66.33 17.16 66.66 34.32 67 52 C66.01 52 65.02 52 64 52 C63.970271 50.16840332 63.970271 50.16840332 63.93994141 48.29980469 C63.86383877 43.76720646 63.77512839 39.2349273 63.68261719 34.70263672 C63.64434673 32.7414378 63.60949046 30.78016916 63.578125 28.81884766 C63.5324326 25.99877003 63.474445 23.17917162 63.4140625 20.359375 C63.40251129 19.48319519 63.39096008 18.60701538 63.37905884 17.70428467 C63.35918915 16.88373596 63.33931946 16.06318726 63.31884766 15.21777344 C63.30552399 14.49829529 63.29220032 13.77881714 63.2784729 13.03753662 C63.11713568 10.91544738 63.11713568 10.91544738 61.85507202 8.98638916 C61.57289825 8.33088074 61.29072449 7.67537231 61 7 C61.66 5.68 62.32 4.36 63 3 C43.86 3 24.72 3 5 3 C5 4.65 5 6.3 5 8 C4.34 8 3.68 8 3 8 C3 29.78 3 51.56 3 74 C9.043125 74.020625 15.08625 74.04125 21.3125 74.0625 C24.16902222 74.07615601 24.16902222 74.07615601 27.08325195 74.09008789 C28.593261 74.0930086 30.10327084 74.0955568 31.61328125 74.09765625 C32.39682983 74.10277222 33.18037842 74.10788818 33.9876709 74.11315918 C37.25575102 74.11368519 39.87678633 74.04107122 43 73 C44.56118428 72.93259135 46.1250252 72.91485544 47.6875 72.9375 C48.49574219 72.94652344 49.30398437 72.95554687 50.13671875 72.96484375 C50.75160156 72.97644531 51.36648437 72.98804687 52 73 C52 72.34 52 71.68 52 71 C54.31 71.33 56.62 71.66 59 72 C59 72.66 59 73.32 59 74 C58.154375 74.12375 57.30875 74.2475 56.4375 74.375 C53.02314259 74.91123596 53.02314259 74.91123596 49.94091797 76.0246582 C45.16866108 77.40510916 40.44080598 77.26797571 35.5078125 77.23046875 C34.52126678 77.23001053 33.53472107 77.22955231 32.51828003 77.2290802 C30.4457681 77.22607257 28.37325814 77.21823121 26.30078125 77.20581055 C23.11450287 77.18743948 19.92851356 77.18530185 16.7421875 77.18554688 C14.72655997 77.18063549 12.71093441 77.17480884 10.6953125 77.16796875 C9.7381131 77.16685593 8.7809137 77.1657431 7.79470825 77.16459656 C6.47731155 77.15502678 6.47731155 77.15502678 5.13330078 77.14526367 C4.35721466 77.14145187 3.58112854 77.13764008 2.78152466 77.13371277 C1 77 1 77 0 76 C-0.09494733 73.62699131 -0.12559319 71.28321297 -0.11352539 68.90991211 C-0.11367142 68.16849472 -0.11381744 67.42707733 -0.1139679 66.66319275 C-0.11326865 64.20121379 -0.10547574 61.73930957 -0.09765625 59.27734375 C-0.09579211 57.57483461 -0.09436819 55.87232493 -0.09336853 54.16981506 C-0.08954302 49.68006927 -0.07971247 45.19035562 -0.06866455 40.70062256 C-0.05665668 35.31836359 -0.05204835 29.9360939 -0.04621124 24.55382538 C-0.03650072 16.36919454 -0.01734441 8.18463428 0 0 Z " fill="#E37A78" transform="translate(98,27)"/>
<path d="M0 0 C0.495 0.99 0.495 0.99 1 2 C1.92111572 1.9685791 1.92111572 1.9685791 2.86083984 1.93652344 C5.69872017 1.85231966 8.53633652 1.80101577 11.375 1.75 C12.34050781 1.71648438 13.30601562 1.68296875 14.30078125 1.6484375 C21.17895907 1.55611297 26.94665571 2.57559966 33 6 C33.495 6.99 33.495 6.99 34 8 C32.35 8 30.7 8 29 8 C29 7.34 29 6.68 29 6 C27.906875 5.855625 26.81375 5.71125 25.6875 5.5625 C22 5 22 5 19 4 C17.52034074 3.85426942 16.03596157 3.75336732 14.55078125 3.68359375 C13.70322266 3.64169922 12.85566406 3.59980469 11.98242188 3.55664062 C11.10134766 3.51732422 10.22027344 3.47800781 9.3125 3.4375 C8.41982422 3.39431641 7.52714844 3.35113281 6.60742188 3.30664062 C4.40512656 3.2006478 2.20258338 3.09982779 0 3 C0 8.61 0 14.22 0 20 C2.495625 19.9175 4.99125 19.835 7.5625 19.75 C13.80042358 19.64704946 17.97022083 19.97617667 23 24 C23.16322732 25.72597775 23.27895945 27.45648337 23.375 29.1875 C23.47941406 30.63189453 23.47941406 30.63189453 23.5859375 32.10546875 C22.89902379 35.49882247 21.6204867 37.01208441 18.84912109 39.0690918 C15.50700769 40.75162129 12.28219799 40.52574219 8.625 40.3125 C6.10875 40.209375 3.5925 40.10625 1 40 C1 45.28 1 50.56 1 56 C2.44375 55.938125 3.8875 55.87625 5.375 55.8125 C7.8359375 55.70703125 7.8359375 55.70703125 10 56 C10.66 56.99 11.32 57.98 12 59 C11.67 59.99 11.34 60.98 11 62 C10.01 60.02 10.01 60.02 9 58 C7.02 58 5.04 58 3 58 C2.67 64.93 2.34 71.86 2 79 C-1.22211692 80.61105846 -4.73842195 80.1417111 -8.27734375 80.1328125 C-9.53726891 80.13424759 -9.53726891 80.13424759 -10.82264709 80.13571167 C-12.61410598 80.13639398 -14.40556731 80.13453615 -16.19702148 80.13037109 C-18.86773686 80.12513673 -21.53827508 80.13025395 -24.20898438 80.13671875 C-35.83590052 80.14076726 -47.39651777 79.72817221 -59 79 C-59.01981934 78.11739502 -59.03963867 77.23479004 -59.06005859 76.32543945 C-59.13837866 73.03578043 -59.22507855 69.74656036 -59.31738281 66.45727539 C-59.35555149 65.0364627 -59.39042513 63.61555737 -59.421875 62.19458008 C-59.46779065 60.14631145 -59.52573805 58.09867392 -59.5859375 56.05078125 C-59.6173584 54.82012939 -59.6487793 53.58947754 -59.68115234 52.3215332 C-59.98595035 49.14635945 -60.64442201 46.86573943 -62 44 C-60.68 44.33 -59.36 44.66 -58 45 C-56.73249331 51.79663036 -56.88860274 58.54298684 -56.9375 65.4375 C-56.94201172 66.64599609 -56.94652344 67.85449219 -56.95117188 69.09960938 C-56.96289843 72.06642772 -56.98083201 75.0332204 -57 78 C-49.74 78 -42.48 78 -35 78 C-35.02320313 76.00195312 -35.04640625 74.00390625 -35.0703125 71.9453125 C-35.08421736 70.01253761 -35.09805206 68.07976148 -35.10986328 66.14697266 C-35.12488107 64.1408864 -35.15028981 62.13488676 -35.17578125 60.12890625 C-35.18222656 58.87207031 -35.18867188 57.61523438 -35.1953125 56.3203125 C-35.20578613 55.15773926 -35.21625977 53.99516602 -35.22705078 52.79736328 C-35 50 -35 50 -33 48 C-32.29289322 46.35008418 -31.62056011 44.68437744 -31 43 C-29.65117186 45.69765628 -30.19661735 47.15164334 -31 50 C-31.99 50.495 -31.99 50.495 -33 51 C-33.33 59.91 -33.66 68.82 -34 78 C-23.11 77.67 -12.22 77.34 -1 77 C-1.01740234 68.91371094 -1.01740234 68.91371094 -1.03515625 60.6640625 C-1.04026389 57.25520713 -1.04507773 53.84635647 -1.04882812 50.4375 C-1.05481315 45.02310205 -1.06190441 39.60872096 -1.07543945 34.19433594 C-1.08627995 29.83069041 -1.09227932 25.46706295 -1.09487724 21.103405 C-1.09672939 19.43598521 -1.10034599 17.76856645 -1.10573006 16.10115433 C-1.11295589 13.77135303 -1.11399029 11.44162705 -1.11352539 9.11181641 C-1.11712067 8.41770157 -1.12071594 7.72358673 -1.12442017 7.00843811 C-1.11405216 2.22810432 -1.11405216 2.22810432 0 0 Z M2 21 C2 26.94 2 32.88 2 39 C4.5678125 39.061875 4.5678125 39.061875 7.1875 39.125 C8.63189453 39.15980469 8.63189453 39.15980469 10.10546875 39.1953125 C13.84598544 38.94291596 16.64630993 37.84022142 19.8125 35.875 C21.76858728 32.78644114 21.52845207 29.49482969 21 26 C19.25746655 22.76386646 18.52814056 22.17604685 15 21 C10.66328697 20.86498403 6.33988266 20.95703086 2 21 Z " fill="#93707A" transform="translate(278,25)"/>
<path d="M0 0 C4.99202578 2.75422112 7.87020994 6.50392531 9.578125 11.8984375 C10.26669025 15.32851252 10.18690758 18.51105847 10 22 C14.62 22 19.24 22 24 22 C24 48.07 24 74.14 24 101 C23.01 101 22.02 101 21 101 C20.97686164 91.25576086 20.95907727 81.51152822 20.94818783 71.76726723 C20.94296228 67.24294695 20.93587056 62.71864542 20.92456055 58.19433594 C20.91372005 53.83069041 20.90772068 49.46706295 20.90512276 45.103405 C20.90327061 43.43598521 20.89965401 41.76856645 20.89426994 40.10115433 C20.88704411 37.77135303 20.88600971 35.44162705 20.88647461 33.11181641 C20.88287933 32.41770157 20.87928406 31.72358673 20.87557983 31.00843811 C20.88594784 26.22810432 20.88594784 26.22810432 22 24 C16.72 24 11.44 24 6 24 C5.34 20.04 4.68 16.08 4 12 C3.34 13.32 2.68 14.64 2 16 C1.81824219 15.36191406 1.63648438 14.72382813 1.44921875 14.06640625 C1.19785156 13.24011719 0.94648438 12.41382813 0.6875 11.5625 C0.32205078 10.32693359 0.32205078 10.32693359 -0.05078125 9.06640625 C-0.36402344 8.38449219 -0.67726562 7.70257813 -1 7 C-3.7357627 6.0880791 -5.65625968 5.77755178 -8.5 5.6875 C-9.2734375 5.65011719 -10.046875 5.61273437 -10.84375 5.57421875 C-13.12078531 5.82329403 -13.12078531 5.82329403 -14.70703125 7.62890625 C-16.28130696 10.51587108 -16.7282031 12.99959115 -17.1875 16.25 C-17.5896875 19.09625 -17.5896875 19.09625 -18 22 C-11.07 22 -4.14 22 3 22 C3 20.35 3 18.7 3 17 C3.33 17 3.66 17 4 17 C4 18.98 4 20.96 4 23 C-3.59 23 -11.18 23 -19 23 C-19.33 19.04 -19.66 15.08 -20 11 C-19.34 11 -18.68 11 -18 11 C-18.66 10.01 -19.32 9.02 -20 8 C-20.99 8.495 -20.99 8.495 -22 9 C-20.60802671 5.61743279 -19.1974504 4.16311318 -16.0625 2.3125 C-15.37285156 1.89613281 -14.68320313 1.47976562 -13.97265625 1.05078125 C-9.19636651 -1.49342061 -5.13116745 -1.36376543 0 0 Z " fill="#8EA0AB" transform="translate(254,2)"/>
<path d="M0 0 C1.125 3.75 1.125 3.75 0 6 C-0.23274209 8.87910588 -0.41972757 11.74146495 -0.5625 14.625 C-0.60568359 15.42679688 -0.64886719 16.22859375 -0.69335938 17.0546875 C-0.79951457 19.0362511 -0.90026855 21.01810271 -1 23 C-0.01 23 0.98 23 2 23 C2 21.02 2 19.04 2 17 C4.97 17 7.94 17 11 17 C10.79220835 24.27270783 9.53581608 28.63594906 5.47265625 34.67578125 C3.97047317 37.0466007 2.96353515 39.37006106 2 42 C-0.70241335 40.99012111 -1.795196 40.38961031 -3.16015625 37.79296875 C-3.45792969 36.93316406 -3.75570312 36.07335938 -4.0625 35.1875 C-5.4198968 31.49559196 -6.8945553 28.33362077 -9 25 C-10.37140983 22.3519323 -11.69037255 19.6790856 -13 17 C-9.20307814 14.17438373 -6.81430721 12.43361092 -2 13 C-2.04125 11.783125 -2.0825 10.56625 -2.125 9.3125 C-2.13754508 5.78105873 -1.59998217 3.19996434 0 0 Z " fill="#71A5C2" transform="translate(231,11)"/>
<path d="M0 0 C1.34882814 2.69765628 0.80338265 4.15164334 0 7 C-0.99 7.495 -0.99 7.495 -2 8 C-2.33 16.91 -2.66 25.82 -3 35 C8.55 35 20.1 35 32 35 C31.96041531 28.13387193 31.96041531 28.13387193 31.90991211 21.26782227 C31.90741455 20.41760498 31.90491699 19.5673877 31.90234375 18.69140625 C31.89710693 17.81685791 31.89187012 16.94230957 31.88647461 16.04125977 C32 14 32 14 33 13 C38.8410596 12.62913907 38.8410596 12.62913907 41 13 C41.99 14.485 41.99 14.485 43 16 C42.505 17.485 42.505 17.485 42 19 C41.01 17.02 41.01 17.02 40 15 C38.02 15 36.04 15 34 15 C33.67 21.93 33.34 28.86 33 36 C29.77788308 37.61105846 26.26157805 37.1417111 22.72265625 37.1328125 C21.46273109 37.13424759 21.46273109 37.13424759 20.17735291 37.13571167 C18.38589402 37.13639398 16.59443269 37.13453615 14.80297852 37.13037109 C12.13226314 37.12513673 9.46172492 37.13025395 6.79101562 37.13671875 C-4.83590052 37.14076726 -16.39651777 36.72817221 -28 36 C-28.01981934 35.11739502 -28.03963867 34.23479004 -28.06005859 33.32543945 C-28.13837866 30.03578043 -28.22507855 26.74656036 -28.31738281 23.45727539 C-28.35555149 22.0364627 -28.39042513 20.61555737 -28.421875 19.19458008 C-28.46779065 17.14631145 -28.52573805 15.09867392 -28.5859375 13.05078125 C-28.6173584 11.82012939 -28.6487793 10.58947754 -28.68115234 9.3215332 C-28.98595035 6.14635945 -29.64442201 3.86573943 -31 1 C-29.68 1.33 -28.36 1.66 -27 2 C-25.73249331 8.79663036 -25.88860274 15.54298684 -25.9375 22.4375 C-25.94201172 23.64599609 -25.94652344 24.85449219 -25.95117188 26.09960938 C-25.96289843 29.06642772 -25.98083201 32.0332204 -26 35 C-18.74 35 -11.48 35 -4 35 C-4.02320313 33.00195312 -4.04640625 31.00390625 -4.0703125 28.9453125 C-4.08421736 27.01253761 -4.09805206 25.07976148 -4.10986328 23.14697266 C-4.12488107 21.1408864 -4.15028981 19.13488676 -4.17578125 17.12890625 C-4.18222656 15.87207031 -4.18867188 14.61523438 -4.1953125 13.3203125 C-4.20578613 12.15773926 -4.21625977 10.99516602 -4.22705078 9.79736328 C-4 7 -4 7 -2 5 C-1.29289322 3.35008418 -0.62056011 1.68437744 0 0 Z " fill="#C7C0C8" transform="translate(247,68)"/>
<path d="M0 0 C20.72340426 -0.57446809 20.72340426 -0.57446809 29 3 C29 3.66 29 4.32 29 5 C30.010625 4.814375 31.02125 4.62875 32.0625 4.4375 C36.57423326 5.08203332 37.06590723 5.65810981 39.8125 9.0625 C44.83887519 16.3090454 45.83417971 23.33178471 45 32 C44.22472453 35.10558324 43.22581773 38.04490368 42 41 C41.67 41 41.34 41 41 41 C40.95758277 38.66705225 40.95907063 36.33297433 41 34 C41.33 33.67 41.66 33.34 42 33 C42.20747626 30.54288833 42.32435535 28.14836971 42.375 25.6875 C42.41238281 25.01009766 42.44976562 24.33269531 42.48828125 23.63476562 C42.58165929 21.35410985 42.58165929 21.35410985 42 18 C39.62954142 15.62354696 39.62954142 15.62354696 37 14 C36.3125 11.8125 36.3125 11.8125 36 10 C35.34 9.67 34.68 9.34 34 9 C34 8.34 34 7.68 34 7 C33.39671875 6.87882812 32.7934375 6.75765625 32.171875 6.6328125 C31.37265625 6.46523438 30.5734375 6.29765625 29.75 6.125 C28.96109375 5.96257813 28.1721875 5.80015625 27.359375 5.6328125 C25 5 25 5 23.12304688 3.97265625 C20.76611713 2.89284851 19.24769586 2.76789006 16.671875 2.8046875 C15.87265625 2.81113281 15.0734375 2.81757813 14.25 2.82421875 C13.425 2.84097656 12.6 2.85773437 11.75 2.875 C10.48929687 2.88853516 10.48929687 2.88853516 9.203125 2.90234375 C7.13529396 2.92584183 5.06761005 2.96171092 3 3 C2.67 7.29 2.34 11.58 2 16 C7.28 16 12.56 16 18 16 C18 16.66 18 17.32 18 18 C12.06 17.67 6.12 17.34 0 17 C0 11.39 0 5.78 0 0 Z " fill="#CA3F41" transform="translate(278,28)"/>
<path d="M0 0 C0.99 0 1.98 0 3 0 C3 14.19 3 28.38 3 43 C2.67 43 2.34 43 2 43 C2 34.75 2 26.5 2 18 C-4.01968036 18.52896837 -4.01968036 18.52896837 -9 21 C-7.35 21.33 -5.7 21.66 -4 22 C-4 22.33 -4 22.66 -4 23 C-6.97 23.66 -9.94 24.32 -13 25 C-12.625 22.5625 -12.625 22.5625 -12 20 C-11.34 19.67 -10.68 19.34 -10 19 C-9.608125 17.88625 -9.21625 16.7725 -8.8125 15.625 C-6.80979523 9.97634553 -3.76845132 4.65917618 0 0 Z " fill="#76A4BE" transform="translate(270,28)"/>
<path d="M0 0 C0.66 1.32 1.32 2.64 2 4 C1.34 4 0.68 4 0 4 C0.33 4.66 0.66 5.32 1 6 C1 9.3 1 12.6 1 16 C8.59 16 16.18 16 24 16 C24 16.66 24 17.32 24 18 C19.71 18 15.42 18 11 18 C10.71125 19.134375 10.4225 20.26875 10.125 21.4375 C9.75375 22.613125 9.3825 23.78875 9 25 C8.34 25.33 7.68 25.66 7 26 C7.33 23.69 7.66 21.38 8 19 C5.03 19 2.06 19 -1 19 C-1 20.98 -1 22.96 -1 25 C-1.99 25 -2.98 25 -4 25 C-4.08164159 22.3118751 -4.14079668 19.626277 -4.1875 16.9375 C-4.22520508 15.80924805 -4.22520508 15.80924805 -4.26367188 14.65820312 C-4.33285271 9.33127915 -3.44914534 5.74406239 -1 1 C-0.67 0.67 -0.34 0.34 0 0 Z " fill="#718291" transform="translate(234,9)"/>
<path d="M0 0 C4.21150246 3.8286386 5.23868729 7.41704012 6 13 C6.33 11.35 6.66 9.7 7 8 C7.33 8 7.66 8 8 8 C8 10.64 8 13.28 8 16 C12.62 16 17.24 16 22 16 C22 42.07 22 68.14 22 95 C21.01 95 20.02 95 19 95 C18.97686164 85.25576086 18.95907727 75.51152822 18.94818783 65.76726723 C18.94296228 61.24294695 18.93587056 56.71864542 18.92456055 52.19433594 C18.91372005 47.83069041 18.90772068 43.46706295 18.90512276 39.103405 C18.90327061 37.43598521 18.89965401 35.76856645 18.89426994 34.10115433 C18.88704411 31.77135303 18.88600971 29.44162705 18.88647461 27.11181641 C18.88287933 26.41770157 18.87928406 25.72358673 18.87557983 25.00843811 C18.88594784 20.22810432 18.88594784 20.22810432 20 18 C14.72 18 9.44 18 4 18 C3.71125 16.14375 3.4225 14.2875 3.125 12.375 C2.41483889 8.08359787 1.5828459 4.07017518 0 0 Z " fill="#8896A5" transform="translate(256,8)"/>
<path d="M0 0 C10.89 0 21.78 0 33 0 C33 0.33 33 0.66 33 1 C22.77 1 12.54 1 2 1 C2.33 17.5 2.66 34 3 51 C2.34 51 1.68 51 1 51 C1 51.99 1 52.98 1 54 C-0.98 54.495 -0.98 54.495 -3 55 C-2.67657623 54.28137283 -2.35315247 53.56274567 -2.01992798 52.82234192 C-0.98446782 49.9570194 -0.72715408 47.87097678 -0.68115234 44.8425293 C-0.66128265 43.84186935 -0.64141296 42.84120941 -0.62094116 41.81022644 C-0.60938995 40.7423439 -0.59783875 39.67446136 -0.5859375 38.57421875 C-0.56657135 37.47149124 -0.5472052 36.36876373 -0.5272522 35.23262024 C-0.46757077 31.71765834 -0.42111625 28.20266349 -0.375 24.6875 C-0.33680974 22.30141817 -0.2977574 19.91534997 -0.2578125 17.52929688 C-0.16025935 11.68626966 -0.0805984 5.84338409 0 0 Z " fill="#E9A9A6" transform="translate(185,27)"/>
<path d="M0 0 C5.053125 -0.103125 10.10625 -0.20625 15.3125 -0.3125 C16.90360596 -0.35802002 18.49471191 -0.40354004 20.1340332 -0.45043945 C21.38531006 -0.46292725 22.63658691 -0.47541504 23.92578125 -0.48828125 C25.85031128 -0.52755737 25.85031128 -0.52755737 27.8137207 -0.56762695 C31 0 31 0 32.94213867 2.40551758 C34 5 34 5 34 7 C33.34 7 32.68 7 32 7 C31.67 5.35 31.34 3.7 31 2 C30.01 2 29.02 2 28 2 C28 2.99 28 3.98 28 5 C27.01 5 26.02 5 25 5 C25 4.01 25 3.02 25 2 C19.06 2.33 13.12 2.66 7 3 C6.67 4.98 6.34 6.96 6 9 C5.34 9 4.68 9 4 9 C4 7.68 4 6.36 4 5 C3.01 5 2.02 5 1 5 C1 16.88 1 28.76 1 41 C0.67 41 0.34 41 0 41 C0 27.47 0 13.94 0 0 Z " fill="#D23736" transform="translate(187,28)"/>
<path d="M0 0 C0.33 0 0.66 0 1 0 C1.33 3.63 1.66 7.26 2 11 C2.33 11 2.66 11 3 11 C3.02468447 15.80549747 3.04285255 20.61095818 3.05493164 25.41650391 C3.05996621 27.05192711 3.06679427 28.6873458 3.07543945 30.32275391 C3.08754335 32.67090975 3.093237 35.01900619 3.09765625 37.3671875 C3.10281754 38.10057343 3.10797882 38.83395935 3.11329651 39.58956909 C3.11387171 44.77225659 3.11387171 44.77225659 2 47 C1.34 47 0.68 47 0 47 C0 31.49 0 15.98 0 0 Z " fill="#5D8195" transform="translate(273,56)"/>
<path d="M0 0 C1.32 0.33 2.64 0.66 4 1 C5.26750669 7.79663036 5.11139726 14.54298684 5.0625 21.4375 C5.05798828 22.64599609 5.05347656 23.85449219 5.04882812 25.09960938 C5.03710157 28.06642772 5.01916799 31.0332204 5 34 C12.26 34 19.52 34 27 34 C27 34.33 27 34.66 27 35 C19.08 35 11.16 35 3 35 C2.92652344 31.83857422 2.92652344 31.83857422 2.8515625 28.61328125 C2.79747781 26.56121009 2.74019994 24.50925103 2.68261719 22.45727539 C2.64444851 21.0364627 2.60957487 19.61555737 2.578125 18.19458008 C2.53220935 16.14631145 2.47426195 14.09867392 2.4140625 12.05078125 C2.3826416 10.82012939 2.3512207 9.58947754 2.31884766 8.3215332 C2.01404965 5.14635945 1.35557799 2.86573943 0 0 Z " fill="#C79BA2" transform="translate(216,69)"/>
<path d="M0 0 C16.14285714 -0.57142857 16.14285714 -0.57142857 22 4 C22.16322732 5.72597775 22.27895945 7.45648337 22.375 9.1875 C22.44460938 10.15042969 22.51421875 11.11335938 22.5859375 12.10546875 C21.89902379 15.49882247 20.6204867 17.01208441 17.84912109 19.0690918 C14.50700769 20.75162129 11.28219799 20.52574219 7.625 20.3125 C5.10875 20.209375 2.5925 20.10625 0 20 C0 13.4 0 6.8 0 0 Z M1 1 C1 6.94 1 12.88 1 19 C3.5678125 19.061875 3.5678125 19.061875 6.1875 19.125 C7.63189453 19.15980469 7.63189453 19.15980469 9.10546875 19.1953125 C12.84598544 18.94291596 15.64630993 17.84022142 18.8125 15.875 C20.76858728 12.78644114 20.52845207 9.49482969 20 6 C18.25746655 2.76386646 17.52814056 2.17604685 14 1 C9.66328697 0.86498403 5.33988266 0.95703086 1 1 Z " fill="#EFBEBC" transform="translate(279,45)"/>
<path d="M0 0 C0.98484375 0.21269531 1.9696875 0.42539063 2.984375 0.64453125 C3.73203125 0.82371094 4.4796875 1.00289063 5.25 1.1875 C5.25 1.5175 5.25 1.8475 5.25 2.1875 C3.26432292 2.31770833 1.27864583 2.44791667 -0.70703125 2.578125 C-3.58407889 3.43628835 -4.29361057 4.5868046 -5.75 7.1875 C-6.53628026 10.22018887 -6.53628026 10.22018887 -6.9375 13.4375 C-7.3396875 16.28375 -7.3396875 16.28375 -7.75 19.1875 C-0.82 19.1875 6.11 19.1875 13.25 19.1875 C13.25 17.5375 13.25 15.8875 13.25 14.1875 C13.58 14.1875 13.91 14.1875 14.25 14.1875 C14.25 16.1675 14.25 18.1475 14.25 20.1875 C6.66 20.1875 -0.93 20.1875 -8.75 20.1875 C-9.08 16.2275 -9.41 12.2675 -9.75 8.1875 C-9.09 8.1875 -8.43 8.1875 -7.75 8.1875 C-8.41 7.1975 -9.07 6.2075 -9.75 5.1875 C-10.74 5.6825 -10.74 5.6825 -11.75 6.1875 C-9.28002328 0.2183896 -6.28028485 -1.42054062 0 0 Z " fill="#A4B3BE" transform="translate(243.75,4.8125)"/>
<path d="M0 0 C2.31 0.33 4.62 0.66 7 1 C7 1.66 7 2.32 7 3 C5.6078125 3.2165625 5.6078125 3.2165625 4.1875 3.4375 C0.99274889 3.92100111 0.99274889 3.92100111 -2 5 C-3.58033192 5.08705429 -5.16410378 5.11767952 -6.74682617 5.11352539 C-7.70759567 5.11344986 -8.66836517 5.11337433 -9.6582489 5.11329651 C-10.69270645 5.10813522 -11.727164 5.10297394 -12.79296875 5.09765625 C-14.38471672 5.09553383 -14.38471672 5.09553383 -16.00862122 5.09336853 C-19.40160935 5.08776606 -22.79453177 5.07521314 -26.1875 5.0625 C-28.48632717 5.05748532 -30.78515538 5.05292236 -33.08398438 5.04882812 C-38.72267872 5.03779583 -44.36133466 5.0210553 -50 5 C-50 4.67 -50 4.34 -50 4 C-48.86457764 3.97494385 -47.72915527 3.9498877 -46.55932617 3.92407227 C-42.34924919 3.82994424 -38.13933512 3.72973663 -33.92944336 3.62768555 C-32.10689096 3.58435713 -30.28429852 3.54268053 -28.46166992 3.50268555 C-25.84281339 3.44493238 -23.22415805 3.38125244 -20.60546875 3.31640625 C-19.78974899 3.29969376 -18.97402924 3.28298126 -18.1335907 3.26576233 C-14.85820456 3.17986755 -12.12743599 3.04247866 -9 2 C-7.43881572 1.93259135 -5.8749748 1.91485544 -4.3125 1.9375 C-3.10013672 1.95103516 -3.10013672 1.95103516 -1.86328125 1.96484375 C-0.94095703 1.98224609 -0.94095703 1.98224609 0 2 C0 1.34 0 0.68 0 0 Z " fill="#D1514F" transform="translate(150,98)"/>
<path d="M0 0 C7.92 0 15.84 0 24 0 C23.67 1.98 23.34 3.96 23 6 C22.67 4.68 22.34 3.36 22 2 C15.4 2 8.8 2 2 2 C1.67 3.32 1.34 4.64 1 6 C0.34 6 -0.32 6 -1 6 C-1 6.99 -1 7.98 -1 9 C-1.66 9 -2.32 9 -3 9 C-3 10.65 -3 12.3 -3 14 C-3.99 14 -4.98 14 -6 14 C-4.46371007 8.87903356 -2.4723363 4.94467261 0 0 Z " fill="#D0393C" transform="translate(245,27)"/>
<path d="M0 0 C3.3480027 3.79440306 4.3076893 5.92306791 6 11 C-2.58 11 -11.16 11 -20 11 C-20 10.01 -20 9.02 -20 8 C-13.07 8.33 -6.14 8.66 1 9 C0.67 6.03 0.34 3.06 0 0 Z " fill="#DE8683" transform="translate(318,93)"/>
<path d="M0 0 C0.33 0 0.66 0 1 0 C1.02496472 4.10765642 1.04298366 8.21528264 1.05493164 12.32299805 C1.05991957 13.71656057 1.06671231 15.11011798 1.07543945 16.50366211 C1.12158795 24.06930078 1.05558458 31.49454426 0 39 C-0.33 39 -0.66 39 -1 39 C-2.94706179 4.75257395 -2.94706179 4.75257395 0 0 Z " fill="#537586" transform="translate(275,37)"/>
<path d="M0 0 C0.66 1.32 1.32 2.64 2 4 C1.34 4 0.68 4 0 4 C0.33 4.66 0.66 5.32 1 6 C1.06996014 7.70702735 1.08440154 9.41668003 1.0625 11.125 C1.05347656 12.03507812 1.04445312 12.94515625 1.03515625 13.8828125 C1.02355469 14.58148438 1.01195312 15.28015625 1 16 C0.34 16 -0.32 16 -1 16 C-1 18.97 -1 21.94 -1 25 C-1.99 25 -2.98 25 -4 25 C-4.08164159 22.3118751 -4.14079668 19.626277 -4.1875 16.9375 C-4.22520508 15.80924805 -4.22520508 15.80924805 -4.26367188 14.65820312 C-4.33285271 9.33127915 -3.44914534 5.74406239 -1 1 C-0.67 0.67 -0.34 0.34 0 0 Z " fill="#314E60" transform="translate(234,9)"/>
<path d="M0 0 C3.77520069 3.14600058 5.28426612 6.21960459 6 11 C6.62736425 18.27522398 5.79637126 24.25874786 3 31 C2.67 31 2.34 31 2 31 C1.95758277 28.66705225 1.95907063 26.33297433 2 24 C2.33 23.67 2.66 23.34 3 23 C3.07313567 20.46950598 3.09247527 17.96695163 3.0625 15.4375 C3.05798828 14.72658203 3.05347656 14.01566406 3.04882812 13.28320312 C3.03700864 11.52209987 3.01907263 9.76103964 3 8 C2.34 7.67 1.68 7.34 1 7 C0.59270772 4.67843403 0.25561323 2.3431213 0 0 Z " fill="#E0A19C" transform="translate(317,38)"/>
<path d="M0 0 C3.57849992 0.29820833 4.76226484 0.74245358 7.25 3.4375 C10.02592825 7.50225208 10.11084885 9.69341693 10.0625 14.625 C10.05347656 15.81351563 10.04445313 17.00203125 10.03515625 18.2265625 C10.02355469 19.14179688 10.01195312 20.05703125 10 21 C8.53041498 18.26730058 7.82665545 16.23233127 7.125 13.125 C6.18679139 9.12644427 4.46289406 6.30951389 2 3 C1.34 2.01 0.68 1.02 0 0 Z " fill="#5E6F7A" transform="translate(253,4)"/>
<path d="M0 0 C0.33 0.66 0.66 1.32 1 2 C1.92111572 1.9685791 1.92111572 1.9685791 2.86083984 1.93652344 C5.69872017 1.85231966 8.53633652 1.80101577 11.375 1.75 C12.34050781 1.71648438 13.30601562 1.68296875 14.30078125 1.6484375 C21.17895907 1.55611297 26.94665571 2.57559966 33 6 C33.495 6.99 33.495 6.99 34 8 C32.35 8 30.7 8 29 8 C29 7.34 29 6.68 29 6 C27.906875 5.855625 26.81375 5.71125 25.6875 5.5625 C22 5 22 5 19 4 C17.52034074 3.85426942 16.03596157 3.75336732 14.55078125 3.68359375 C13.70322266 3.64169922 12.85566406 3.59980469 11.98242188 3.55664062 C11.10134766 3.51732422 10.22027344 3.47800781 9.3125 3.4375 C8.41982422 3.39431641 7.52714844 3.35113281 6.60742188 3.30664062 C4.40509892 3.20064647 2.20266527 3.09857949 0 3 C0 2.01 0 1.02 0 0 Z " fill="#E48A8E" transform="translate(278,25)"/>
<path d="M0 0 C1.13732426 3.40401948 0.83989957 5.77456664 0.0625 9.25 C-0.13214844 10.14203125 -0.32679688 11.0340625 -0.52734375 11.953125 C-0.68332031 12.62859375 -0.83929688 13.3040625 -1 14 C-3.31 14.33 -5.62 14.66 -8 15 C-8 18.3 -8 21.6 -8 25 C-10.83328987 22.16671013 -11.7191375 20.64553172 -13 17 C-9.20307814 14.17438373 -6.81430721 12.43361092 -2 13 C-2.04125 11.783125 -2.0825 10.56625 -2.125 9.3125 C-2.13754508 5.78105873 -1.59998217 3.19996434 0 0 Z " fill="#ADB5C1" transform="translate(231,11)"/>
<path d="M0 0 C0.33 0 0.66 0 1 0 C1 4.95 1 9.9 1 15 C6.94 14.67 12.88 14.34 19 14 C18.67 15.32 18.34 16.64 18 18 C17.34 17.67 16.68 17.34 16 17 C13.28024285 16.92812481 10.59325368 16.9072138 7.875 16.9375 C3.976875 16.9684375 3.976875 16.9684375 0 17 C0 11.39 0 5.78 0 0 Z " fill="#D2373A" transform="translate(119,43)"/>
<path d="M0 0 C-9.11056551 5.41709301 -18.74531071 5.32434033 -29 4 C-29 3.67 -29 3.34 -29 3 C-27.71029297 2.94392578 -27.71029297 2.94392578 -26.39453125 2.88671875 C-18.84357076 2.46676348 -11.85848757 1.46725645 -4.546875 -0.4765625 C-2 -1 -2 -1 0 0 Z " fill="#EA9D9F" transform="translate(194,101)"/>
<path d="M0 0 C2.97 0 5.94 0 9 0 C8.93927992 1.56354206 8.8503009 3.12599738 8.75 4.6875 C8.68039063 5.99267578 8.68039063 5.99267578 8.609375 7.32421875 C8 10 8 10 4 15 C4.66 10.71 5.32 6.42 6 2 C5.01 2 4.02 2 3 2 C2.34 3.65 1.68 5.3 1 7 C-0.32 6.67 -1.64 6.34 -3 6 C-2.01 6 -1.02 6 0 6 C0 4.02 0 2.04 0 0 Z " fill="#7C98AE" transform="translate(233,28)"/>
<path d="M0 0 C1.2065625 0.0309375 1.2065625 0.0309375 2.4375 0.0625 C2.581875 0.825625 2.72625 1.58875 2.875 2.375 C3.4007594 5.14422908 3.4007594 5.14422908 4.4375 8.0625 C1.77083333 8.0625 -0.89583333 8.0625 -3.5625 8.0625 C-3.60491723 5.72955225 -3.60342937 3.39547433 -3.5625 1.0625 C-2.5625 0.0625 -2.5625 0.0625 0 0 Z " fill="#D4D4D4" transform="translate(114.5625,12.9375)"/>
<path d="M0 0 C1.99954746 -0.04254356 4.00041636 -0.04080783 6 0 C7 1 7 1 7.125 4 C7 7 7 7 6 8 C4.00041636 8.04080783 1.99954746 8.04254356 0 8 C0 5.36 0 2.72 0 0 Z " fill="#D5D5D5" transform="translate(275,124)"/>
<path d="M0 0 C3.0625 -0.25 3.0625 -0.25 6 0 C7 1 7 1 7.1875 3.9375 C7 7 7 7 5 9 C2.5 8.9375 2.5 8.9375 0 8 C-1.4375 5.625 -1.4375 5.625 -2 3 C-1.34 2.01 -0.68 1.02 0 0 Z M1 2 C1.33 3.65 1.66 5.3 2 7 C2.99 6.67 3.98 6.34 5 6 C5 4.68 5 3.36 5 2 C3.68 2 2.36 2 1 2 Z " fill="#DFDEDE" transform="translate(126,13)"/>
<path d="M0 0 C1.953125 0.13020833 3.90625 0.26041667 5.859375 0.390625 C5.859375 2.040625 5.859375 3.690625 5.859375 5.390625 C1.899375 5.060625 -2.060625 4.730625 -6.140625 4.390625 C-2.140625 0.390625 -2.140625 0.390625 0 0 Z " fill="#89B5D0" transform="translate(266.140625,45.609375)"/>
<path d="M0 0 C0.99 0.33 1.98 0.66 3 1 C3.6875 3.0625 3.6875 3.0625 4 5 C4.99 5 5.98 5 7 5 C7.33 3.35 7.66 1.7 8 0 C8.99 0 9.98 0 11 0 C9.66666667 3.33333333 8.33333333 6.66666667 7 10 C3.78634109 8.89184175 3.0085776 8.01470446 1.25 5 C0 2 0 2 0 0 Z " fill="#9891A5" transform="translate(226,43)"/>
<path d="M0 0 C1.2375 0.1546875 1.2375 0.1546875 2.5 0.3125 C4.5 3.3125 4.5 3.3125 4.125 6 C3.91875 6.763125 3.7125 7.52625 3.5 8.3125 C0.625 8.9375 0.625 8.9375 -2.5 9.3125 C-4.5 7.3125 -4.5 7.3125 -4.75 4.8125 C-4.40047575 1.3172575 -3.47557682 0.4344471 0 0 Z M-2.5 2.3125 C-2.17 3.9625 -1.84 5.6125 -1.5 7.3125 C-0.18 6.6525 1.14 5.9925 2.5 5.3125 C2.17 4.3225 1.84 3.3325 1.5 2.3125 C0.18 2.3125 -1.14 2.3125 -2.5 2.3125 Z " fill="#DADADA" transform="translate(156.5,12.6875)"/>
<path d="M0 0 C1.2065625 0.0309375 1.2065625 0.0309375 2.4375 0.0625 C2.480221 1.72861905 2.47813832 3.39632885 2.4375 5.0625 C2.1075 5.3925 1.7775 5.7225 1.4375 6.0625 C2.0975 6.7225 2.7575 7.3825 3.4375 8.0625 C2.4375 9.0625 2.4375 9.0625 -0.0625 9.1875 C-2.5625 9.0625 -2.5625 9.0625 -3.5625 8.0625 C-3.6875 4.5625 -3.6875 4.5625 -3.5625 1.0625 C-2.5625 0.0625 -2.5625 0.0625 0 0 Z " fill="#DDDDDE" transform="translate(207.5625,12.9375)"/>
<path d="M0 0 C0.61875 0.268125 1.2375 0.53625 1.875 0.8125 C2.205 1.8025 2.535 2.7925 2.875 3.8125 C-0.095 3.3175 -0.095 3.3175 -3.125 2.8125 C-3.125 4.1325 -3.125 5.4525 -3.125 6.8125 C-0.95625748 6.30646008 0.87467627 5.81266187 2.875 4.8125 C2.545 6.1325 2.215 7.4525 1.875 8.8125 C0.0625 9.4375 0.0625 9.4375 -2.125 9.8125 C-3.115 9.1525 -4.105 8.4925 -5.125 7.8125 C-5.5 4.8125 -5.5 4.8125 -5.125 1.8125 C-2.125 -0.1875 -2.125 -0.1875 0 0 Z " fill="#DEDEDE" transform="translate(209.125,123.1875)"/>
<path d="M0 0 C1.98 0 3.96 0 6 0 C6.82638376 2.89234315 7 4.88742431 7 8 C6.01 8 5.02 8 4 8 C4 7.01 4 6.02 4 5 C3.34 5 2.68 5 2 5 C2 5.99 2 6.98 2 8 C1.34 8 0.68 8 0 8 C0 5.36 0 2.72 0 0 Z " fill="#D7D7D7" transform="translate(314,124)"/>
<path d="M0 0 C0 4.29 0 8.58 0 13 C-0.99 13 -1.98 13 -3 13 C-4.15926382 8.74936599 -3.90949326 5.29942266 -3 1 C-1 0 -1 0 0 0 Z " fill="#E62C2B" transform="translate(320,49)"/>
<path d="M0 0 C0.99 0 1.98 0 3 0 C3 1.98 3 3.96 3 6 C3.66 6 4.32 6 5 6 C5 4.02 5 2.04 5 0 C5.66 0 6.32 0 7 0 C7 2.31 7 4.62 7 7 C5.02 7.99 5.02 7.99 3 9 C1.5 7.875 1.5 7.875 0 6 C-0.1875 2.8125 -0.1875 2.8125 0 0 Z " fill="#E2E2E2" transform="translate(288,124)"/>
<path d="M0 0 C0.598125 0.185625 1.19625 0.37125 1.8125 0.5625 C4.16408762 1.22093687 4.16408762 1.22093687 7 0 C7 2.64 7 5.28 7 8 C6.01 7.67 5.02 7.34 4 7 C3.67 6.34 3.34 5.68 3 5 C2.34 5.99 1.68 6.98 1 8 C0 7 0 7 -0.0625 3.4375 C-0.041875 2.303125 -0.02125 1.16875 0 0 Z " fill="#D6D6D6" transform="translate(231,124)"/>
<path d="M0 0 C0.99 0 1.98 0 3 0 C3 0.99 3 1.98 3 3 C3.66 3 4.32 3 5 3 C5 2.01 5 1.02 5 0 C5.66 0 6.32 0 7 0 C7 2.64 7 5.28 7 8 C6.34 8 5.68 8 5 8 C5 7.01 5 6.02 5 5 C4.34 5 3.68 5 3 5 C2.67 5.99 2.34 6.98 2 8 C1.34 7.67 0.68 7.34 0 7 C0 4.69 0 2.38 0 0 Z " fill="#E0E0E0" transform="translate(147,124)"/>
<path d="M0 0 C0.99 0.33 1.98 0.66 3 1 C3.33 3.31 3.66 5.62 4 8 C2.02 8.99 2.02 8.99 0 10 C-0.99 9.34 -1.98 8.68 -3 8 C-3 4 -3 4 -2 1 C-1.34 0.67 -0.68 0.34 0 0 Z M-1 6 C-0.34 6.66 0.32 7.32 1 8 C1.33 7.34 1.66 6.68 2 6 C1.01 6 0.02 6 -1 6 Z " fill="#DBDBDB" transform="translate(194,123)"/>
<path d="M0 0 C1.2065625 0.0309375 1.2065625 0.0309375 2.4375 0.0625 C1.4475 0.5575 1.4475 0.5575 0.4375 1.0625 C0.4375 2.0525 0.4375 3.0425 0.4375 4.0625 C-0.2225 4.0625 -0.8825 4.0625 -1.5625 4.0625 C-1.8925 5.3825 -2.2225 6.7025 -2.5625 8.0625 C-4.8725 8.0625 -7.1825 8.0625 -9.5625 8.0625 C-9.8925 6.7425 -10.2225 5.4225 -10.5625 4.0625 C-9.9025 4.0625 -9.2425 4.0625 -8.5625 4.0625 C-8.5625 4.7225 -8.5625 5.3825 -8.5625 6.0625 C-7.2425 6.0625 -5.9225 6.0625 -4.5625 6.0625 C-4.418125 5.258125 -4.27375 4.45375 -4.125 3.625 C-3.347189 0.08163876 -3.347189 0.08163876 0 0 Z " fill="#88B0CF" transform="translate(238.5625,28.9375)"/>
<path d="M0 0 C1.2065625 0.0309375 1.2065625 0.0309375 2.4375 0.0625 C2.7675 1.7125 3.0975 3.3625 3.4375 5.0625 C2.1175 5.3925 0.7975 5.7225 -0.5625 6.0625 C-0.5625 6.7225 -0.5625 7.3825 -0.5625 8.0625 C-1.5525 8.0625 -2.5425 8.0625 -3.5625 8.0625 C-3.60491723 5.72955225 -3.60342937 3.39547433 -3.5625 1.0625 C-2.5625 0.0625 -2.5625 0.0625 0 0 Z " fill="#DBDBDB" transform="translate(101.5625,12.9375)"/>
<path d="M0 0 C0.99 0 1.98 0 3 0 C1.54718935 5.32697239 -2.08111378 8.36402802 -6 12 C-6.66 11.67 -7.32 11.34 -8 11 C-8 10.01 -8 9.02 -8 8 C-6.68 8 -5.36 8 -4 8 C-4 7.01 -4 6.02 -4 5 C-3.34 5 -2.68 5 -2 5 C-1.855625 4.360625 -1.71125 3.72125 -1.5625 3.0625 C-1 1 -1 1 0 0 Z " fill="#E0787A" transform="translate(202,88)"/>
<path d="M0 0 C0.66 1.65 1.32 3.3 2 5 C-0.14729141 4.71926927 -2.29283193 4.42511501 -4.4375 4.125 C-5.63246094 3.96257813 -6.82742187 3.80015625 -8.05859375 3.6328125 C-9.02925781 3.42398437 -9.99992188 3.21515625 -11 3 C-11.33 2.34 -11.66 1.68 -12 1 C-8.0186217 -0.3271261 -4.14954773 -0.06915913 0 0 Z " fill="#374D5C" transform="translate(252,3)"/>
<path d="M0 0 C0.99 0 1.98 0 3 0 C5.125 4.625 5.125 4.625 4 8 C2.02 8 0.04 8 -2 8 C-1.34 5.36 -0.68 2.72 0 0 Z " fill="#DBDBDB" transform="translate(220,124)"/>
<path d="M0 0 C1.98 0 3.96 0 6 0 C6.33 1.32 6.66 2.64 7 4 C5.35 4.33 3.7 4.66 2 5 C2 5.99 2 6.98 2 8 C1.34 8 0.68 8 0 8 C0 5.36 0 2.72 0 0 Z " fill="#D2D2D2" transform="translate(106,124)"/>
<path d="M0 0 C2.375 -0.1875 2.375 -0.1875 5 0 C5.66 0.99 6.32 1.98 7 3 C5.625 4.5 5.625 4.5 4 6 C3.34 6 2.68 6 2 6 C2 6.66 2 7.32 2 8 C1.34 8 0.68 8 0 8 C0 5.36 0 2.72 0 0 Z " fill="#DFDFDF" transform="translate(192,13)"/>
<path d="M0 0 C-0.33 1.32 -0.66 2.64 -1 4 C-4.96 4 -8.92 4 -13 4 C-13 3.01 -13 2.02 -13 1 C-10.02148438 1.04882812 -10.02148438 1.04882812 -7.04296875 1.09765625 C-4.54365249 0.97818607 -2.50594088 0 0 0 Z " fill="#DB6F71" transform="translate(182,82)"/>
<path d="M0 0 C7.92 0 15.84 0 24 0 C23.67 1.98 23.34 3.96 23 6 C22.34 4.68 21.68 3.36 21 2 C14.07 2 7.14 2 0 2 C0 1.34 0 0.68 0 0 Z " fill="#AC4B52" transform="translate(245,27)"/>
<path d="M0 0 C0.33 0.66 0.66 1.32 1 2 C-0.1796875 4.3828125 -0.1796875 4.3828125 -1.875 7.125 C-2.42929688 8.03507812 -2.98359375 8.94515625 -3.5546875 9.8828125 C-4.03164062 10.58148438 -4.50859375 11.28015625 -5 12 C-5.33 12 -5.66 12 -6 12 C-5.92909865 8.92545953 -5.7524935 5.98877701 -5 3 C-2.4375 0.9375 -2.4375 0.9375 0 0 Z " fill="#CA4042" transform="translate(252,57)"/>
<path d="M0 0 C1.98 0.66 3.96 1.32 6 2 C5.67 2.99 5.34 3.98 5 5 C3.02 5.33 1.04 5.66 -1 6 C-1.625 4.125 -1.625 4.125 -2 2 C-1.34 1.34 -0.68 0.68 0 0 Z " fill="#DA3435" transform="translate(189,95)"/>
<path d="M0 0 C0.33 0.99 0.66 1.98 1 3 C1.66 3.33 2.32 3.66 3 4 C2.67 7.96 2.34 11.92 2 16 C1.34 16 0.68 16 0 16 C0.01740234 15.07767578 0.01740234 15.07767578 0.03515625 14.13671875 C0.04417969 13.32847656 0.05320313 12.52023438 0.0625 11.6875 C0.07410156 10.88699219 0.08570313 10.08648437 0.09765625 9.26171875 C0.09657855 6.83138666 0.09657855 6.83138666 -1 4 C-1.66 4 -2.32 4 -3 4 C-2.67 3.01 -2.34 2.02 -2 1 C-1.34 0.67 -0.68 0.34 0 0 Z " fill="#E66E6F" transform="translate(140,69)"/>
<path d="M0 0 C0.66 0.99 1.32 1.98 2 3 C1.34 4.32 0.68 5.64 0 7 C-1.32 7 -2.64 7 -4 7 C-4.33 7.66 -4.66 8.32 -5 9 C-7 6 -7 6 -6.625 3.8125 C-6.41875 3.214375 -6.2125 2.61625 -6 2 C-4.68 3.32 -3.36 4.64 -2 6 C-1.34 4.02 -0.68 2.04 0 0 Z " fill="#C94344" transform="translate(235,47)"/>
<path d="M0 0 C0.99 0.33 1.98 0.66 3 1 C2.690625 1.886875 2.38125 2.77375 2.0625 3.6875 C1.1709329 6.46709155 0.50622993 9.13136375 0 12 C-0.99 12.33 -1.98 12.66 -3 13 C-2.88557539 11.39504433 -2.75805306 9.79101881 -2.625 8.1875 C-2.55539063 7.29417969 -2.48578125 6.40085937 -2.4140625 5.48046875 C-2 3 -2 3 0 0 Z " fill="#E9282A" transform="translate(144,45)"/>
<path d="M0 0 C2.86724686 0.57344937 3.8614515 0.8614515 6 3 C6.40047444 5.32275177 6.7397104 7.65739357 7 10 C6.01 9.67 5.02 9.34 4 9 C3.64587656 7.67203709 3.31478446 6.33783393 3 5 C2.01979625 3.9805881 1.02196992 2.97753644 0 2 C0 1.34 0 0.68 0 0 Z " fill="#D85F5F" transform="translate(311,33)"/>
<path d="M0 0 C2.475 0.99 2.475 0.99 5 2 C5 5.63 5 9.26 5 13 C4.34 13 3.68 13 3 13 C2.92652344 12.09507813 2.92652344 12.09507813 2.8515625 11.171875 C2.77679688 10.37265625 2.70203125 9.5734375 2.625 8.75 C2.55539062 7.96109375 2.48578125 7.1721875 2.4140625 6.359375 C1.98492887 3.914123 1.21399362 2.15163097 0 0 Z " fill="#DF928C" transform="translate(296,47)"/>
<path d="M0 0 C0.33 0.66 0.66 1.32 1 2 C1.66 2 2.32 2 3 2 C3 4 3 4 1.25 6.0625 C-0.9670446 7.97162174 -2.158832 8.59411886 -5 9 C-3.7508258 5.54074837 -2.32472205 2.85306797 0 0 Z " fill="#9391A7" transform="translate(267,33)"/>
<path d="M0 0 C-0.99 0.33 -1.98 0.66 -3 1 C-3.33 2.65 -3.66 4.3 -4 6 C-6.50037734 3.82575883 -7.43628586 2.26954202 -8 -1 C-4.59745511 -2.2151946 -3.06748874 -1.86240388 0 0 Z " fill="#7DA3BC" transform="translate(232,38)"/>
<path d="M0 0 C0.598125 0.185625 1.19625 0.37125 1.8125 0.5625 C4.16408762 1.22093687 4.16408762 1.22093687 7 0 C6.40138258 2.35171131 5.73075648 4.6859378 5 7 C4.01 7.495 4.01 7.495 3 8 C0 2.25 0 2.25 0 0 Z " fill="#E0E0E0" transform="translate(301,124)"/>
<path d="M0 0 C3.09592835 3.5087188 4.74194623 6.49197399 6 11 C4.125 10.875 4.125 10.875 2 10 C0.40155515 6.40349908 0 3.96602757 0 0 Z " fill="#E08280" transform="translate(312,82)"/>
<path d="M0 0 C0.33 0.66 0.66 1.32 1 2 C-0.47169811 5.73584906 -0.47169811 5.73584906 -3 7 C-3.65213292 9.02463255 -3.65213292 9.02463255 -4 11 C-4.66 11 -5.32 11 -6 11 C-6 9.35 -6 7.7 -6 6 C-5.34 5.67 -4.68 5.34 -4 5 C-3.67 4.34 -3.34 3.68 -3 3 C-2 1 -2 1 0 0 Z " fill="#BE5159" transform="translate(261,42)"/>
<path d="M0 0 C1.32 0.33 2.64 0.66 4 1 C4.66 0.67 5.32 0.34 6 0 C5.125 5.75 5.125 5.75 4 8 C3.34 8 2.68 8 2 8 C1.34 5.36 0.68 2.72 0 0 Z " fill="#DFDFDF" transform="translate(179,13)"/>
<path d="M0 0 C1.98 0 3.96 0 6 0 C6 0.66 6 1.32 6 2 C5.34 2 4.68 2 4 2 C4 3.98 4 5.96 4 8 C3.34 8 2.68 8 2 8 C1.34 5.36 0.68 2.72 0 0 Z " fill="#DEDEDE" transform="translate(140,13)"/>
<path d="M0 0 C0.66 0 1.32 0 2 0 C2 0.66 2 1.32 2 2 C2.99 2.33 3.98 2.66 5 3 C3.02 5.97 1.04 8.94 -1 12 C-1.33 11.34 -1.66 10.68 -2 10 C-1.34 9.01 -0.68 8.02 0 7 C0.07905064 4.66800612 0.08798769 2.33167378 0 0 Z " fill="#CD3D3E" transform="translate(262,31)"/>
<path d="M0 0 C0.33 0 0.66 0 1 0 C1 3.63 1 7.26 1 11 C0.01 11.33 -0.98 11.66 -2 12 C-1.85904936 10.3745692 -1.71207913 8.74965949 -1.5625 7.125 C-1.48128906 6.22007813 -1.40007812 5.31515625 -1.31640625 4.3828125 C-1 2 -1 2 0 0 Z " fill="#D65253" transform="translate(205,77)"/>
<path d="M0 0 C0.33 0 0.66 0 1 0 C1 2.97 1 5.94 1 9 C0.34 9 -0.32 9 -1 9 C-1 9.99 -1 10.98 -1 12 C-2.32 12.33 -3.64 12.66 -5 13 C-4.34 11.35 -3.68 9.7 -3 8 C-2.34 8 -1.68 8 -1 8 C-0.67 5.36 -0.34 2.72 0 0 Z " fill="#D95E62" transform="translate(187,69)"/>
<path d="M0 0 C0.33 0 0.66 0 1 0 C1.125 5.75 1.125 5.75 0 8 C-0.99 8 -1.98 8 -3 8 C-3 8.99 -3 9.98 -3 11 C-3.66 11 -4.32 11 -5 11 C-3.55049545 7.2089881 -1.84827434 3.6125362 0 0 Z " fill="#9A96B1" transform="translate(253,57)"/>
<path d="M0 0 C0.5625 1.9375 0.5625 1.9375 1 4 C0.67 4.33 0.34 4.66 0 5 C1.65 5.33 3.3 5.66 5 6 C5 6.33 5 6.66 5 7 C2.03 7.66 -0.94 8.32 -4 9 C-3.625 6.5625 -3.625 6.5625 -3 4 C-2.34 3.67 -1.68 3.34 -1 3 C-0.67 2.01 -0.34 1.02 0 0 Z " fill="#93A0B3" transform="translate(261,44)"/>
<path d="M0 0 C1.9375 1.0625 1.9375 1.0625 4 3 C4.75 6.6875 4.75 6.6875 5 10 C3.0625 8.9375 3.0625 8.9375 1 7 C0.25 3.3125 0.25 3.3125 0 0 Z " fill="#B55865" transform="translate(221,35)"/>
<path d="M0 0 C1.98 0 3.96 0 6 0 C6 0.66 6 1.32 6 2 C5.34 2 4.68 2 4 2 C4 3.98 4 5.96 4 8 C3.34 8 2.68 8 2 8 C2 6.02 2 4.04 2 2 C1.34 2 0.68 2 0 2 C0 1.34 0 0.68 0 0 Z " fill="#D8D8D8" transform="translate(167,13)"/>
<path d="M0 0 C0.66 0 1.32 0 2 0 C2 1.98 2 3.96 2 6 C3.32 6.33 4.64 6.66 6 7 C6 7.33 6 7.66 6 8 C4.02 8 2.04 8 0 8 C0 5.36 0 2.72 0 0 Z " fill="#D7D7D7" transform="translate(127,124)"/>
<path d="M0 0 C4.42857143 5.14285714 4.42857143 5.14285714 5 9 C3.68 9 2.36 9 1 9 C0.67 6.03 0.34 3.06 0 0 Z " fill="#E07E7F" transform="translate(318,93)"/>
<path d="M0 0 C2.31 0.33 4.62 0.66 7 1 C5.824375 1.928125 5.824375 1.928125 4.625 2.875 C2.03162353 4.89858661 2.03162353 4.89858661 0 7 C-1.125 2.25 -1.125 2.25 0 0 Z " fill="#85AFC8" transform="translate(248,68)"/>
<path d="M0 0 C0.99 0.33 1.98 0.66 3 1 C0.75 3.5625 0.75 3.5625 -2 6 C-4.3125 5.8125 -4.3125 5.8125 -6 5 C-1.60546875 0.99609375 -1.60546875 0.99609375 0 0 Z " fill="#DB333B" transform="translate(299,60)"/>
<path d="M0 0 C1.32 0 2.64 0 4 0 C3.60196439 2.88575819 3.20990931 3.82189513 0.9375 5.75 C0.298125 6.1625 -0.34125 6.575 -1 7 C-1.625 5.1875 -1.625 5.1875 -2 3 C-1.34 2.01 -0.68 1.02 0 0 Z " fill="#D43932" transform="translate(251,53)"/>
<path d="M0 0 C0 2.31 0 4.62 0 7 C-0.33 5.68 -0.66 4.36 -1 3 C-2.98 3 -4.96 3 -7 3 C-7 2.34 -7 1.68 -7 1 C-4 0 -4 0 0 0 Z " fill="#5E8393" transform="translate(230,25)"/>
<path d="M0 0 C0.99 0 1.98 0 3 0 C3 0.66 3 1.32 3 2 C2.34 2 1.68 2 1 2 C1.33 3.65 1.66 5.3 2 7 C1.01 7 0.02 7 -1 7 C-1.04254356 5.00045254 -1.04080783 2.99958364 -1 1 C-0.67 0.67 -0.34 0.34 0 0 Z " fill="#EA282F" transform="translate(303,51)"/>
<path d="M0 0 C1.33332095 2.6666419 0.67102033 4.16680303 0 7 C-0.66 7 -1.32 7 -2 7 C-2 8.65 -2 10.3 -2 12 C-2.99 12 -3.98 12 -5 12 C-3.68938409 7.76570244 -2.05643741 3.92592596 0 0 Z " fill="#C3464F" transform="translate(244,29)"/>
<path d="M0 0 C0.66 0.33 1.32 0.66 2 1 C2.73075648 3.3140622 3.40138258 5.64828869 4 8 C3.01 8 2.02 8 1 8 C0.34 7.34 -0.32 6.68 -1 6 C-0.625 2.875 -0.625 2.875 0 0 Z " fill="#D83732" transform="translate(310,81)"/>
<path d="M0 0 C3.12270126 2.51830747 3.94523098 3.7261549 4.75 7.75 C4.8325 8.8225 4.915 9.895 5 11 C1.87729874 8.48169253 1.05476902 7.2738451 0.25 3.25 C0.1675 2.1775 0.085 1.105 0 0 Z " fill="#E59698" transform="translate(317,38)"/>
<path d="M0 0 C0.33 0 0.66 0 1 0 C1.06058594 0.67546875 1.12117187 1.3509375 1.18359375 2.046875 C1.26738281 2.93890625 1.35117188 3.8309375 1.4375 4.75 C1.51871094 5.63171875 1.59992188 6.5134375 1.68359375 7.421875 C1.96238465 9.69350452 2.38790577 11.79851823 3 14 C2.01 14 1.02 14 0 14 C0 9.38 0 4.76 0 0 Z " fill="#204A5E" transform="translate(230,20)"/>
<path d="M0 0 C2.31 0.33 4.62 0.66 7 1 C7 1.66 7 2.32 7 3 C4.36 3.33 1.72 3.66 -1 4 C-0.67 2.68 -0.34 1.36 0 0 Z " fill="#E07872" transform="translate(150,98)"/>
<path d="M0 0 C0.33 0 0.66 0 1 0 C1 3.63 1 7.26 1 11 C0.01 10.01 -0.98 9.02 -2 8 C-1.71263151 5.12631508 -0.91403285 2.74209856 0 0 Z " fill="#5C768F" transform="translate(275,37)"/>
<path d="M0 0 C0.68707555 2.49064888 1 4.37886292 1 7 C0.01 6.67 -0.98 6.34 -2 6 C-2 5.01 -2 4.02 -2 3 C-2.66 2.34 -3.32 1.68 -4 1 C-2.68 0.67 -1.36 0.34 0 0 Z " fill="#E1E1E1" transform="translate(117,15)"/>
<path d="M0 0 C1.99954746 -0.04254356 4.00041636 -0.04080783 6 0 C7 1 7 1 7.0625 3.5625 C7.041875 4.366875 7.02125 5.17125 7 6 C6.34 5.01 5.68 4.02 5 3 C2.43717258 2.27034634 2.43717258 2.27034634 0 2 C0 1.34 0 0.68 0 0 Z " fill="#D3D3D3" transform="translate(126,13)"/>
<path d="M0 0 C1.65 0.33 3.3 0.66 5 1 C4.67 1.99 4.34 2.98 4 4 C2.02 4 0.04 4 -2 4 C-1.34 2.68 -0.68 1.36 0 0 Z " fill="#D4D4D4" transform="translate(220,128)"/>
<path d="M0 0 C0.99 0.33 1.98 0.66 3 1 C2.67 2.32 2.34 3.64 2 5 C0.68 4.67 -0.64 4.34 -2 4 C-2 3.01 -2 2.02 -2 1 C-1.34 0.67 -0.68 0.34 0 0 Z " fill="#DFDFDF" transform="translate(110,124)"/>
<path d="M0 0 C0.268125 0.639375 0.53625 1.27875 0.8125 1.9375 C1.88667752 4.33131686 1.88667752 4.33131686 5 5 C4.01 5 3.02 5 2 5 C2 5.99 2 6.98 2 8 C1.34 8 0.68 8 0 8 C0 5.36 0 2.72 0 0 Z " fill="#CCCCCC" transform="translate(314,124)"/>
<path d="M0 0 C0.66 0 1.32 0 2 0 C2 0.66 2 1.32 2 2 C2.99 2.33 3.98 2.66 5 3 C3.625 4.5 3.625 4.5 2 6 C1.34 6 0.68 6 0 6 C0 4.02 0 2.04 0 0 Z " fill="#E2746D" transform="translate(311,71)"/>
<path d="M0 0 C0.99 0.495 0.99 0.495 2 1 C1.67 1.66 1.34 2.32 1 3 C2.98 3.495 2.98 3.495 5 4 C4.01 4.33 3.02 4.66 2 5 C2 5.66 2 6.32 2 7 C1.34 7 0.68 7 0 7 C0 4.69 0 2.38 0 0 Z " fill="#CACBCB" transform="translate(192,14)"/>
<path d="M0 0 C1.2065625 0.0309375 1.2065625 0.0309375 2.4375 0.0625 C2.4375 1.0525 2.4375 2.0425 2.4375 3.0625 C1.65375 3.02125 0.87 2.98 0.0625 2.9375 C-2.72366119 2.77521266 -2.72366119 2.77521266 -4.5625 5.0625 C-3.43829114 0.08386076 -3.43829114 0.08386076 0 0 Z " fill="#D4D4D4" transform="translate(156.5625,12.9375)"/>
<path d="M0 0 C0.66 0 1.32 0 2 0 C2 2.64 2 5.28 2 8 C1.34 8 0.68 8 0 8 C0 5.36 0 2.72 0 0 Z " fill="#DDDDDD" transform="translate(119,124)"/>
<path d="M0 0 C0.66 0 1.32 0 2 0 C2 2.64 2 5.28 2 8 C1.34 8 0.68 8 0 8 C0 5.36 0 2.72 0 0 Z " fill="#DFDFDF" transform="translate(139,124)"/>
<path d="M0 0 C1.32 0 2.64 0 4 0 C4 0.66 4 1.32 4 2 C2.68 2 1.36 2 0 2 C0 1.34 0 0.68 0 0 Z " fill="#E1E1E1" transform="translate(171,128)"/>
<path d="M0 0 C1.32 0 2.64 0 4 0 C4 0.66 4 1.32 4 2 C2.68 2 1.36 2 0 2 C0 1.34 0 0.68 0 0 Z " fill="#E0E0E0" transform="translate(255,128)"/>
</svg>
