<?xml version="1.0" encoding="UTF-8"?>
<svg version="1.1" xmlns="http://www.w3.org/2000/svg" width="324" height="144" viewBox="0 0 550 141">
<path d="M0 0 C9.63184568 6.98592355 15.48999087 14.89640372 20.125 25.8125 C20.46660156 26.60140625 20.80820313 27.3903125 21.16015625 28.203125 C25.34380936 39.64492979 24.20917628 52.51418048 19.6640625 63.59765625 C12.75774753 78.02379133 2.48295208 88.31869924 -12.7109375 93.84375 C-27.88085467 98.23611208 -42.15858874 96.21779896 -55.875 88.8125 C-67.59546519 81.11520389 -75.75326584 70.4064729 -79.27075195 56.79150391 C-80.24727944 51.97712474 -80.40717353 47.27610165 -80.375 42.375 C-80.37000488 41.36872559 -80.36500977 40.36245117 -80.35986328 39.32568359 C-80.17874397 31.60750285 -78.94160749 25.47959596 -74.875 18.8125 C-74.40578125 17.99910156 -73.9365625 17.18570313 -73.453125 16.34765625 C-65.57850225 3.62548348 -54.09127849 -3.20393093 -40.078125 -7.7734375 C-26.23871153 -10.37446202 -11.6427846 -7.92175537 0 0 Z " fill="#30AADF" transform="translate(126.875,21.1875)"/>
<path d="M0 0 C1.051875 -0.00515625 2.10375 -0.0103125 3.1875 -0.015625 C6 0.25 6 0.25 9 2.25 C8.90912109 3.21486328 8.90912109 3.21486328 8.81640625 4.19921875 C8.53672203 7.21550554 8.26749928 10.23260808 8 13.25 C7.89300781 14.42304687 7.78601563 15.59609375 7.67578125 16.8046875 C7.57652344 17.96226563 7.47726563 19.11984375 7.375 20.3125 C7.23191406 21.93865234 7.23191406 21.93865234 7.0859375 23.59765625 C6.79013357 26.22688699 6.79013357 26.22688699 8 28.25 C14.70200527 28.98380958 14.70200527 28.98380958 20.9609375 27.13671875 C22.34905908 25.88600007 23.67879246 24.57120754 25 23.25 C25.99 23.25 26.98 23.25 28 23.25 C28.495 24.24 28.495 24.24 29 25.25 C29.90672553 22.5298234 30.17003843 20.68894658 30.28125 17.87109375 C30.31863281 17.03255859 30.35601562 16.19402344 30.39453125 15.33007812 C30.46499941 13.56445933 30.53531122 11.79883429 30.60546875 10.03320312 C30.64285156 9.19595703 30.68023437 8.35871094 30.71875 7.49609375 C30.74904297 6.72966553 30.77933594 5.9632373 30.81054688 5.17358398 C31 3.25 31 3.25 32 1.25 C37.43505813 -0.56168604 43.313143 0.06532647 49 0.0625 C50.29679687 0.05025391 51.59359375 0.03800781 52.9296875 0.02539062 C54.16976562 0.02345703 55.40984375 0.02152344 56.6875 0.01953125 C58.39486328 0.01336792 58.39486328 0.01336792 60.13671875 0.00708008 C63 0.25 63 0.25 66 2.25 C66.51171875 5.2890625 66.51171875 5.2890625 66.6875 8.875 C66.75324219 10.06351563 66.81898438 11.25203125 66.88671875 12.4765625 C66.94279297 13.84941406 66.94279297 13.84941406 67 15.25 C64.6875 15.875 64.6875 15.875 62 16.25 C61.01 15.59 60.02 14.93 59 14.25 C56.03157342 13.79084493 56.03157342 13.79084493 52.8125 13.625 C51.72582031 13.55023438 50.63914062 13.47546875 49.51953125 13.3984375 C48.68808594 13.34945312 47.85664063 13.30046875 47 13.25 C47 14.24 47 15.23 47 16.25 C48.37285156 16.23259766 48.37285156 16.23259766 49.7734375 16.21484375 C51.55621094 16.20130859 51.55621094 16.20130859 53.375 16.1875 C54.55835938 16.17589844 55.74171875 16.16429687 56.9609375 16.15234375 C60 16.25 60 16.25 62 17.25 C62 19.56 62 21.87 62 24.25 C58.39245247 25.49876645 55.70391329 24.9303106 52 24.25 C50.33372702 24.21377667 48.66594626 24.20100158 47 24.25 C47.495 26.725 47.495 26.725 48 29.25 C54.21975873 30.45030432 57.40764584 30.26987125 63 27.25 C63.66 26.59 64.32 25.93 65 25.25 C67.125 25.625 67.125 25.625 69 26.25 C69.495 29.22 69.495 29.22 70 32.25 C72.47241738 25.79669631 74.66146313 19.28377123 76.75 12.69726562 C78.09715494 8.56107897 79.44391712 4.82712685 82 1.25 C85.00299655 -0.25149828 88.08476691 0.06561575 91.375 0.0625 C92.04789062 0.05025391 92.72078125 0.03800781 93.4140625 0.02539062 C100.26118568 0.00517274 100.26118568 0.00517274 103 2.25 C104.5625 5.1640625 104.5625 5.1640625 106 8.875 C106.38019287 9.85641968 106.38019287 9.85641968 106.76806641 10.85766602 C109.49712872 18.15043258 111.30483003 25.66162148 113 33.25 C113.98268038 30.30195886 114.16506402 28.21721246 114.24609375 25.13671875 C114.29540039 23.6352832 114.29540039 23.6352832 114.34570312 22.10351562 C114.40655835 20.00465759 114.46389054 17.90569424 114.51757812 15.80664062 C114.85652173 5.83658254 114.85652173 5.83658254 117 1.25 C120.06429776 -0.28214888 122.6165642 0.02061452 126 0.25 C130.12322616 2.21283409 132.01926927 4.30512881 134.25 8.25 C135.00023437 9.549375 135.00023437 9.549375 135.765625 10.875 C137 13.25 137 13.25 138 16.25 C138.99 16.25 139.98 16.25 141 16.25 C140.67 11.63 140.34 7.01 140 2.25 C143.122002 0.16866533 143.93266989 -0.0237822 147.5 0 C148.2734375 -0.00515625 149.046875 -0.0103125 149.84375 -0.015625 C152 0.25 152 0.25 155 2.25 C155.73046875 5.5078125 155.73046875 5.5078125 156.1875 9.375 C156.34605469 10.65632813 156.50460937 11.93765625 156.66796875 13.2578125 C156.77753906 14.24523438 156.88710938 15.23265625 157 16.25 C157.14695312 14.76886719 157.14695312 14.76886719 157.296875 13.2578125 C157.44640625 11.97648437 157.5959375 10.69515625 157.75 9.375 C157.88921875 8.09882812 158.0284375 6.82265625 158.171875 5.5078125 C159 2.25 159 2.25 160.66699219 1.06738281 C165.68875044 -0.6920193 171.23772892 -0.11951275 176.5 -0.125 C178.35431641 -0.16173828 178.35431641 -0.16173828 180.24609375 -0.19921875 C181.43332031 -0.20308594 182.62054688 -0.20695312 183.84375 -0.2109375 C184.92849609 -0.21915527 186.01324219 -0.22737305 187.13085938 -0.23583984 C190.67179149 0.36375639 191.84397392 1.42816121 194 4.25 C194.390625 7.046875 194.390625 7.046875 194.25 10 C194.21390625 10.98484375 194.1778125 11.9696875 194.140625 12.984375 C194.09421875 13.73203125 194.0478125 14.4796875 194 15.25 C192.25 15.875 192.25 15.875 190 16.25 C188.66227377 15.59219247 187.32937118 14.92453279 186 14.25 C183.17914272 14.00926806 183.17914272 14.00926806 180.25 14.125 C179.26515625 14.14304687 178.2803125 14.16109375 177.265625 14.1796875 C176.51796875 14.20289063 175.7703125 14.22609375 175 14.25 C175.33 14.91 175.66 15.57 176 16.25 C179.96 16.25 183.92 16.25 188 16.25 C189.4783226 19.20664519 189.06032783 21.99229737 189 25.25 C188.15695312 25.16621094 187.31390625 25.08242187 186.4453125 24.99609375 C185.34960938 24.89425781 184.25390625 24.79242188 183.125 24.6875 C182.03445313 24.58308594 180.94390625 24.47867188 179.8203125 24.37109375 C177.04847977 24.02360596 177.04847977 24.02360596 175 25.25 C175 26.57 175 27.89 175 29.25 C180.30473031 30.33259802 183.92790426 30.20080605 189 28.25 C189.804375 27.445625 189.804375 27.445625 190.625 26.625 C192 25.25 192 25.25 194.5859375 25.1640625 C195.38257813 25.19242188 196.17921875 25.22078125 197 25.25 C197.06058594 24.42757812 197.12117187 23.60515625 197.18359375 22.7578125 C197.69751644 15.910781 198.27558027 9.0780413 199 2.25 C202.90128998 0.42909664 205.99834239 -0.0067112 210.2890625 -0.015625 C212.07183594 -0.01949219 212.07183594 -0.01949219 213.890625 -0.0234375 C215.73914063 -0.01183594 215.73914063 -0.01183594 217.625 0 C218.86507812 -0.00773437 220.10515625 -0.01546875 221.3828125 -0.0234375 C222.56875 -0.02085938 223.7546875 -0.01828125 224.9765625 -0.015625 C226.06018066 -0.01336914 227.14379883 -0.01111328 228.26025391 -0.00878906 C231 0.25 231 0.25 234 2.25 C234.29296875 5.5078125 234.29296875 5.5078125 234.1875 9.375 C234.14689453 11.29699219 234.14689453 11.29699219 234.10546875 13.2578125 C234.07066406 14.24523438 234.03585937 15.23265625 234 16.25 C230.87709365 15.76421457 228.00419641 15.2513988 225 14.25 C223.27204648 14.18197033 221.54164635 14.16504355 219.8125 14.1875 C218.91144531 14.19652344 218.01039063 14.20554687 217.08203125 14.21484375 C216.05142578 14.23224609 216.05142578 14.23224609 215 14.25 C215 15.24 215 16.23 215 17.25 C216.794375 17.0025 216.794375 17.0025 218.625 16.75 C222.10737505 16.31702264 225.48562869 16.07856725 229 16.25 C229.33 16.58 229.66 16.91 230 17.25 C229.82364548 19.94082872 229.38164079 22.57851446 229 25.25 C222.07 24.755 222.07 24.755 215 24.25 C215 26.23 215 28.21 215 30.25 C222.2251855 30.01617523 227.27691678 29.79911743 233 25.25 C233.99 25.25 234.98 25.25 236 25.25 C238.4797048 36.45295203 238.4797048 36.45295203 238 41.25 C235.48842528 43.76157472 233.96605838 43.48691344 230.53970337 43.50224304 C229.42563614 43.49146477 229.42563614 43.49146477 228.2890625 43.48046875 C227.52451752 43.48001053 226.75997253 43.47955231 225.97225952 43.4790802 C224.35323538 43.47605682 222.73421418 43.46816795 221.11523438 43.45581055 C218.64182166 43.43762369 216.16878492 43.43530042 213.6953125 43.43554688 C212.12239261 43.43062881 210.54947525 43.42479923 208.9765625 43.41796875 C208.23789948 43.41685593 207.49923645 43.4157431 206.7381897 43.41459656 C203.31507824 43.38312692 200.30407396 43.08533179 197 42.25 C196.01 42.58 195.02 42.91 194 43.25 C191.46110196 43.38224377 188.95036254 43.46206223 186.41015625 43.48828125 C185.29875526 43.50038887 185.29875526 43.50038887 184.16490173 43.51274109 C182.59897181 43.52655712 181.03301208 43.53729035 179.46704102 43.54516602 C177.0744543 43.56241382 174.68323776 43.60632273 172.29101562 43.65039062 C170.76823931 43.66051529 169.24545127 43.66903211 167.72265625 43.67578125 C167.00900406 43.69328934 166.29535187 43.71079742 165.56007385 43.72883606 C162.0032177 43.71332166 160.31539429 43.50745776 157.51733398 41.22338867 C157.01661377 40.57217041 156.51589355 39.92095215 156 39.25 C155.2265625 40.2709375 155.2265625 40.2709375 154.4375 41.3125 C152 43.25 152 43.25 148.5625 43.3125 C141.5351983 41.21663809 138.44160434 35.19129609 134.55078125 29.359375 C133.16953188 27.14487675 133.16953188 27.14487675 131 26.25 C131.33 31.2 131.66 36.15 132 41.25 C128.52207183 43.56861878 127.09700748 43.49272927 123 43.4375 C121.948125 43.43105469 120.89625 43.42460938 119.8125 43.41796875 C117 43.25 117 43.25 114 42.25 C112.515 42.745 112.515 42.745 111 43.25 C108.98093192 43.34416778 106.95875687 43.37991192 104.9375 43.375 C103.87402344 43.37757812 102.81054688 43.38015625 101.71484375 43.3828125 C99 43.25 99 43.25 97 42.25 C96.3671875 40.18359375 96.3671875 40.18359375 95.875 37.6875 C95.70742188 36.86121094 95.53984375 36.03492188 95.3671875 35.18359375 C95.24601562 34.54550781 95.12484375 33.90742187 95 33.25 C93.02 33.25 91.04 33.25 89 33.25 C88.81824219 34.20712891 88.81824219 34.20712891 88.6328125 35.18359375 C88.46523438 36.00988281 88.29765625 36.83617187 88.125 37.6875 C87.96257812 38.51121094 87.80015625 39.33492187 87.6328125 40.18359375 C87.42398438 40.86550781 87.21515625 41.54742187 87 42.25 C84.16239474 43.66880263 81.72317025 43.3820472 78.5625 43.375 C77.40878906 43.37757812 76.25507813 43.38015625 75.06640625 43.3828125 C72 43.25 72 43.25 69 42.25 C68.01 42.745 68.01 42.745 67 43.25 C64.39726568 43.36093316 61.82208634 43.41410078 59.21875 43.41796875 C58.44946167 43.42129715 57.68017334 43.42462555 56.88757324 43.42805481 C55.26017862 43.43312004 53.6327736 43.43546326 52.00537109 43.43530273 C49.50991825 43.4374913 47.01490595 43.45565654 44.51953125 43.47460938 C42.94010568 43.47754291 41.36067801 43.47952797 39.78125 43.48046875 C39.0322644 43.48765427 38.28327881 43.49483978 37.51159668 43.50224304 C32.2288276 43.4788276 32.2288276 43.4788276 30 41.25 C29.50000488 41.57524658 29.00000977 41.90049316 28.48486328 42.2355957 C25.08368544 43.62407025 21.85564729 43.51669219 18.2421875 43.48046875 C17.49792511 43.48001053 16.75366272 43.47955231 15.98684692 43.4790802 C14.41846109 43.47606649 12.85007802 43.46820658 11.28173828 43.45581055 C8.8765203 43.43751157 6.47168671 43.43530129 4.06640625 43.43554688 C2.54166333 43.43063287 1.01692302 43.42480506 -0.5078125 43.41796875 C-1.22865021 43.41685593 -1.94948792 43.4157431 -2.69216919 43.41459656 C-7.76781024 43.36609488 -7.76781024 43.36609488 -10 42.25 C-10.25123996 7.98087003 -10.25123996 7.98087003 -9 2.25 C-5.53767506 -0.05821663 -4.08201684 -0.02000989 0 0 Z M91 17.25 C89.64560332 19.95879335 89.93498549 22.25933268 90 25.25 C90.99 25.25 91.98 25.25 93 25.25 C93.79953138 21.96303767 94.09658936 20.53976808 93 17.25 C92.34 17.25 91.68 17.25 91 17.25 Z " fill="#EDF9F9" transform="translate(225,46.75)"/>
<path d="M0 0 C0.4640625 0.48082031 0.928125 0.96164063 1.40625 1.45703125 C3.49628925 3.48047611 5.02140829 3.55152787 7.875 3.9375 C12.24142104 4.69604614 14.83886828 5.73689629 18 9 C20.30493712 13.60987424 19.19089524 19.01227381 17.75 23.75 C16.439922 27.29455684 15.21693351 29.82383909 12 32 C9.4375 32.5 9.4375 32.5 7 32 C3.10830168 28.04265858 3.56090884 23.95097629 3.40625 18.6796875 C3.20515625 17.35324219 3.20515625 17.35324219 3 16 C-0.37768595 13.74820937 -1.96299346 13.75978304 -5.89453125 14.42578125 C-14.78784564 16.85123063 -19.61611606 25.49903557 -24 33 C-29.00231902 42.2255693 -33.27028823 51.53606257 -33.3125 62.1875 C-33.32925781 63.17105469 -33.34601563 64.15460938 -33.36328125 65.16796875 C-32.93755672 68.48678903 -31.97668851 70.31966593 -30 73 C-24.97627528 76.34914981 -18.64240335 75.7180365 -12.8203125 74.5703125 C-4.85504662 71.89318994 2.39223832 66.65421485 8.4375 60.9375 C18.20495334 51.92273572 29.33303186 48.74827093 42.265625 48.83203125 C44.66099113 48.97917517 46.70840543 49.31797781 49 50 C49.60317792 60.10002175 44.12986797 68.91960153 37.75 76.4375 C28.35234237 86.15426315 15.97728407 92.53265445 2.4140625 93.16796875 C-12.53308881 93.24501592 -25.96230208 89.79389335 -37 79 C-45.33535525 68.17201459 -44.1445551 53.99230399 -42.609375 40.9296875 C-40.3950579 28.69416606 -34.43079346 14.38922418 -24 7 C-16.16180328 2.37066087 -9.23799552 -0.68429596 0 0 Z " fill="#F7FCFA" transform="translate(99,24)"/>
<path d="M0 0 C4.12322616 1.96283409 6.01926927 4.05512881 8.25 8 C8.75015625 8.86625 9.2503125 9.7325 9.765625 10.625 C11 13 11 13 12 16 C12.99 16 13.98 16 15 16 C14.67 11.38 14.34 6.76 14 2 C17.157776 -0.105184 17.95397134 -0.25289344 21.5625 -0.1875 C22.34753906 -0.18105469 23.13257813 -0.17460938 23.94140625 -0.16796875 C26 0 26 0 28 1 C29.52759799 10.22323314 29.14743109 19.99338171 29.25 29.3125 C29.282146 30.98602539 29.282146 30.98602539 29.31494141 32.69335938 C29.31929199 33.73943359 29.32364258 34.78550781 29.328125 35.86328125 C29.34214355 37.27540894 29.34214355 37.27540894 29.35644531 38.71606445 C29.23881836 39.46976318 29.12119141 40.22346191 29 41 C26 43 26 43 22.625 42.9375 C15.50195742 41.09533381 12.47537697 34.96234124 8.6484375 29.109375 C7.09875245 26.72581634 7.09875245 26.72581634 4 26 C4 30.95 4 35.9 4 41 C-0.62 41 -5.24 41 -10 41 C-10.02311261 36.74984856 -10.0429782 32.49992036 -10.05493164 28.24975586 C-10.05992148 26.807691 -10.06671573 25.36563109 -10.07543945 23.92358398 C-10.17098337 7.70921919 -10.17098337 7.70921919 -9 1 C-5.93570224 -0.53214888 -3.3834358 -0.22938548 0 0 Z " fill="#F9FDFD" transform="translate(351,47)"/>
<path d="M0 0 C1.29679687 -0.01224609 2.59359375 -0.02449219 3.9296875 -0.03710938 C5.16976563 -0.03904297 6.40984375 -0.04097656 7.6875 -0.04296875 C9.39486328 -0.04913208 9.39486328 -0.04913208 11.13671875 -0.05541992 C14 0.1875 14 0.1875 17 2.1875 C17.51171875 5.2265625 17.51171875 5.2265625 17.6875 8.8125 C17.78611328 10.59527344 17.78611328 10.59527344 17.88671875 12.4140625 C17.94279297 13.78691406 17.94279297 13.78691406 18 15.1875 C15.6875 15.8125 15.6875 15.8125 13 16.1875 C12.01 15.5275 11.02 14.8675 10 14.1875 C7.03157342 13.72834493 7.03157342 13.72834493 3.8125 13.5625 C2.72582031 13.48773438 1.63914062 13.41296875 0.51953125 13.3359375 C-0.31191406 13.28695312 -1.14335937 13.23796875 -2 13.1875 C-2 14.1775 -2 15.1675 -2 16.1875 C-0.62714844 16.17009766 -0.62714844 16.17009766 0.7734375 16.15234375 C2.55621094 16.13880859 2.55621094 16.13880859 4.375 16.125 C5.55835938 16.11339844 6.74171875 16.10179687 7.9609375 16.08984375 C11 16.1875 11 16.1875 13 17.1875 C13 19.4975 13 21.8075 13 24.1875 C9.39245247 25.43626645 6.70391329 24.8678106 3 24.1875 C1.33372702 24.15127667 -0.33405374 24.13850158 -2 24.1875 C-1.67 25.8375 -1.34 27.4875 -1 29.1875 C6.02853959 30.6462535 11.229184 29.39050447 18 27.1875 C19.32229189 29.83208379 19.09677194 31.86511301 19.0625 34.8125 C19.05347656 35.81539062 19.04445313 36.81828125 19.03515625 37.8515625 C19.02355469 38.62242188 19.01195312 39.39328125 19 40.1875 C15.55868631 41.33460456 12.87840011 41.3169635 9.25 41.3203125 C8.26821777 41.32174759 8.26821777 41.32174759 7.26660156 41.32321167 C5.88476465 41.32389122 4.50292451 41.32205261 3.12109375 41.31787109 C1.00773946 41.3125196 -1.10540231 41.31782361 -3.21875 41.32421875 C-4.56250047 41.32355793 -5.9062508 41.32227668 -7.25 41.3203125 C-8.47203125 41.31918457 -9.6940625 41.31805664 -10.953125 41.31689453 C-14 41.1875 -14 41.1875 -17 40.1875 C-17 27.3175 -17 14.4475 -17 1.1875 C-11.56494187 -0.62418604 -5.686857 0.00282647 0 0 Z " fill="#F4FBFB" transform="translate(274,46.8125)"/>
<path d="M0 0 C1.86108398 -0.04350586 1.86108398 -0.04350586 3.75976562 -0.08789062 C4.95150391 -0.09626953 6.14324219 -0.10464844 7.37109375 -0.11328125 C9.00776001 -0.13515503 9.00776001 -0.13515503 10.67749023 -0.1574707 C14.23796724 0.42253422 15.40052778 1.4761807 17.5625 4.3125 C17.953125 7.109375 17.953125 7.109375 17.8125 10.0625 C17.77640625 11.04734375 17.7403125 12.0321875 17.703125 13.046875 C17.65671875 13.79453125 17.6103125 14.5421875 17.5625 15.3125 C15.8125 15.9375 15.8125 15.9375 13.5625 16.3125 C12.22477377 15.65469247 10.89187118 14.98703279 9.5625 14.3125 C6.74164272 14.07176806 6.74164272 14.07176806 3.8125 14.1875 C2.82765625 14.20554687 1.8428125 14.22359375 0.828125 14.2421875 C0.08046875 14.26539063 -0.6671875 14.28859375 -1.4375 14.3125 C-1.1075 14.9725 -0.7775 15.6325 -0.4375 16.3125 C3.5225 16.3125 7.4825 16.3125 11.5625 16.3125 C13.0408226 19.26914519 12.62282783 22.05479737 12.5625 25.3125 C11.29792969 25.18681641 11.29792969 25.18681641 10.0078125 25.05859375 C8.91210938 24.95675781 7.81640625 24.85492188 6.6875 24.75 C5.59695313 24.64558594 4.50640625 24.54117188 3.3828125 24.43359375 C0.61097977 24.08610596 0.61097977 24.08610596 -1.4375 25.3125 C-1.4375 26.6325 -1.4375 27.9525 -1.4375 29.3125 C2.9573864 30.08806819 6.23539754 30.28609805 10.5625 29.3125 C12.89551986 29.27425377 15.22961508 29.26675716 17.5625 29.3125 C17.5625 33.2725 17.5625 37.2325 17.5625 41.3125 C6.0125 41.3125 -5.5375 41.3125 -17.4375 41.3125 C-17.458125 35.82625 -17.47875 30.34 -17.5 24.6875 C-17.509104 22.96708496 -17.51820801 21.24666992 -17.52758789 19.47412109 C-17.53051134 18.09472735 -17.53305888 16.71533274 -17.53515625 15.3359375 C-17.54027222 14.63251221 -17.54538818 13.92908691 -17.55065918 13.2043457 C-17.55137277 9.13258395 -17.22714796 5.30718969 -16.4375 1.3125 C-11.15229085 -0.44923638 -5.53187509 0.04297158 0 0 Z " fill="#F0FAFB" transform="translate(401.4375,46.6875)"/>
<path d="M0 0 C0.495 0.99 0.495 0.99 1 2 C-4.71632167 16.8704312 -14.20848369 27.42706434 -28.7109375 34.28125 C-41.02968614 39.46030348 -55.14149462 39.78377418 -67.60546875 35 C-74.00487967 32.3166608 -82.73933737 28.52132526 -86 22 C-83.47742 23.0054089 -80.96000061 24.01683538 -78.45703125 25.0703125 C-68.0422769 29.22390729 -60.58292997 28.99566629 -50.1796875 24.6875 C-45.00337078 21.94036386 -41.09834124 18.13493357 -37 14 C-28.45624104 5.51345371 -18.9906161 2.49416859 -7.03125 2.23828125 C-4.10941438 2.00860087 -2.46650012 1.5173812 0 0 Z " fill="#93C01A" transform="translate(147,79)"/>
<path d="M0 0 C0.02694851 1.95825873 0.04637218 3.91662226 0.0625 5.875 C0.07410156 6.96554688 0.08570313 8.05609375 0.09765625 9.1796875 C0 12 0 12 -1 14 C-3.6595047 13.54408491 -5.8751879 13.0607194 -8.3125 11.875 C-12.15802798 10.62296763 -15.0312506 11.32733061 -19 12 C-20.27336185 17.94484106 -20.27336185 17.94484106 -18.625 23.5625 C-14.73091082 25.69497741 -11.34138063 25.76138884 -7 25 C-4.47286531 23.87467323 -2.34301531 22.4995298 0 21 C0.99 21 1.98 21 3 21 C4.41179301 23.82358602 4.28379289 26.29085463 4.375 29.4375 C4.42398438 30.59121094 4.47296875 31.74492188 4.5234375 32.93359375 C4 36 4 36 1.7890625 37.84765625 C-6.49082157 41.26861675 -18.82242446 41.77463441 -27.1875 38.375 C-32.0436594 35.69669835 -35.10528643 32.77017085 -36.8125 27.484375 C-38.41090531 20.33151123 -38.34790076 14.3121576 -34.8046875 7.8046875 C-26.5922927 -4.35683704 -12.70141405 -5.15419701 0 0 Z " fill="#EBF8F9" transform="translate(210,50)"/>
<path d="M0 0 C4.95 0 9.9 0 15 0 C15.28994872 9.13338455 14.1741788 17.96301675 13 27 C13.66 27 14.32 27 15 27 C15 27.66 15 28.32 15 29 C17.39839917 28.93966291 19.7908385 28.85255482 22.1875 28.75 C22.86103516 28.73582031 23.53457031 28.72164062 24.22851562 28.70703125 C29.05693569 28.47149856 31.54712426 27.35230654 35 24 C35.02685412 26.31243792 35.04632841 28.6249627 35.0625 30.9375 C35.07410156 32.22527344 35.08570313 33.51304688 35.09765625 34.83984375 C35 38 35 38 34 39 C31.40665852 39.0885067 28.83937421 39.1153317 26.24609375 39.09765625 C25.55906372 39.09664917 24.87203369 39.09564209 24.16418457 39.09460449 C21.58860616 39.08935776 19.01305147 39.07539659 16.4375 39.0625 C10.683125 39.041875 4.92875 39.02125 -1 39 C-0.67 26.13 -0.34 13.26 0 0 Z " fill="#FBFEFD" transform="translate(217,49)"/>
<path d="M0 0 C1.051875 -0.00515625 2.10375 -0.0103125 3.1875 -0.015625 C6 0.25 6 0.25 9 2.25 C8.90912109 3.21486328 8.90912109 3.21486328 8.81640625 4.19921875 C8.53672203 7.21550554 8.26749928 10.23260808 8 13.25 C7.89300781 14.42304687 7.78601563 15.59609375 7.67578125 16.8046875 C7.57652344 17.96226563 7.47726563 19.11984375 7.375 20.3125 C7.23191406 21.93865234 7.23191406 21.93865234 7.0859375 23.59765625 C6.79013357 26.22688699 6.79013357 26.22688699 8 28.25 C14.70200527 28.98380958 14.70200527 28.98380958 20.9609375 27.13671875 C22.34905908 25.88600007 23.67879246 24.57120754 25 23.25 C25.99 23.25 26.98 23.25 28 23.25 C28.495 24.24 28.495 24.24 29 25.25 C29.90833969 22.52498092 30.18359985 20.62766029 30.31640625 17.80078125 C30.37924805 16.52944336 30.37924805 16.52944336 30.44335938 15.23242188 C30.48267578 14.35134766 30.52199219 13.47027344 30.5625 12.5625 C30.62727539 11.22348633 30.62727539 11.22348633 30.69335938 9.85742188 C30.79935353 7.65509892 30.90142051 5.45266527 31 3.25 C31.33 3.25 31.66 3.25 32 3.25 C32 15.46 32 27.67 32 40.25 C43.88 40.25 55.76 40.25 68 40.25 C67.67 35.96 67.34 31.67 67 27.25 C65.35 27.91 63.7 28.57 62 29.25 C62.99 27.93 63.98 26.61 65 25.25 C66.98 25.745 66.98 25.745 69 26.25 C69.33951619 27.81116819 69.67132544 29.37401338 70 30.9375 C70.185625 31.80761719 70.37125 32.67773438 70.5625 33.57421875 C71 36.25 71 36.25 71 41.25 C75.29 40.92 79.58 40.59 84 40.25 C84.99 37.28 84.99 37.28 86 34.25 C86.66 33.92 87.32 33.59 88 33.25 C87.88637738 34.7300841 87.75877092 36.20910074 87.625 37.6875 C87.55539062 38.51121094 87.48578125 39.33492187 87.4140625 40.18359375 C87.27742188 40.86550781 87.14078125 41.54742187 87 42.25 C84.16239474 43.66880263 81.72317025 43.3820472 78.5625 43.375 C77.40878906 43.37757812 76.25507813 43.38015625 75.06640625 43.3828125 C72 43.25 72 43.25 69 42.25 C68.01 42.745 68.01 42.745 67 43.25 C64.39726568 43.36093316 61.82208634 43.41410078 59.21875 43.41796875 C58.44946167 43.42129715 57.68017334 43.42462555 56.88757324 43.42805481 C55.26017862 43.43312004 53.6327736 43.43546326 52.00537109 43.43530273 C49.50991825 43.4374913 47.01490595 43.45565654 44.51953125 43.47460938 C42.94010568 43.47754291 41.36067801 43.47952797 39.78125 43.48046875 C39.0322644 43.48765427 38.28327881 43.49483978 37.51159668 43.50224304 C32.2288276 43.4788276 32.2288276 43.4788276 30 41.25 C29.50000488 41.57524658 29.00000977 41.90049316 28.48486328 42.2355957 C25.08368544 43.62407025 21.85564729 43.51669219 18.2421875 43.48046875 C17.49792511 43.48001053 16.75366272 43.47955231 15.98684692 43.4790802 C14.41846109 43.47606649 12.85007802 43.46820658 11.28173828 43.45581055 C8.8765203 43.43751157 6.47168671 43.43530129 4.06640625 43.43554688 C2.54166333 43.43063287 1.01692302 43.42480506 -0.5078125 43.41796875 C-1.22865021 43.41685593 -1.94948792 43.4157431 -2.69216919 43.41459656 C-7.76781024 43.36609488 -7.76781024 43.36609488 -10 42.25 C-10.25123996 7.98087003 -10.25123996 7.98087003 -9 2.25 C-5.53767506 -0.05821663 -4.08201684 -0.02000989 0 0 Z M-8 2.25 C-8.33 15.12 -8.66 27.99 -9 41.25 C-3.245625 41.270625 2.50875 41.29125 8.4375 41.3125 C11.16471313 41.32615601 11.16471313 41.32615601 13.94702148 41.34008789 C15.38004482 41.34300711 16.81306898 41.34555566 18.24609375 41.34765625 C18.99669067 41.35277222 19.7472876 41.35788818 20.52062988 41.36315918 C22.34747601 41.36346992 24.17421683 41.31231113 26 41.25 C27.36532549 40.11298403 27.36532549 40.11298403 27.09765625 37.08984375 C27.08605469 35.80207031 27.07445312 34.51429687 27.0625 33.1875 C27.05347656 31.89714844 27.04445312 30.60679688 27.03515625 29.27734375 C27.02355469 28.27832031 27.01195312 27.27929688 27 26.25 C26.33613281 26.89453125 25.67226562 27.5390625 24.98828125 28.203125 C21.37414618 30.67868941 18.42730432 30.91074096 14.1875 31 C13.14819336 31.04447266 13.14819336 31.04447266 12.08789062 31.08984375 C10.39253787 31.15999628 8.69626688 31.20732662 7 31.25 C7 30.59 7 29.93 7 29.25 C6.34 29.25 5.68 29.25 5 29.25 C5.144375 28.13882813 5.28875 27.02765625 5.4375 25.8828125 C6.43725626 17.95515525 7.25421395 10.25773942 7 2.25 C2.05 2.25 -2.9 2.25 -8 2.25 Z " fill="#A5DCE3" transform="translate(225,46.75)"/>
<path d="M0 0 C1.65 0 3.3 0 5 0 C5 0.99 5 1.98 5 3 C4.34 3 3.68 3 3 3 C3 2.34 3 1.68 3 1 C2.34 1 1.68 1 1 1 C0.34 2.32 -0.32 3.64 -1 5 C-3.31 5 -5.62 5 -8 5 C-8.33 5.66 -8.66 6.32 -9 7 C-8.4225 7.144375 -7.845 7.28875 -7.25 7.4375 C-5.16666667 7.95833333 -3.08333333 8.47916667 -1 9 C-1 8.34 -1 7.68 -1 7 C1.64 7 4.28 7 7 7 C7 6.01 7 5.02 7 4 C7.99 3.67 8.98 3.34 10 3 C8.53658537 9.46341463 8.53658537 9.46341463 6.0625 11.9375 C4 13 4 13 1 13 C0.896875 13.639375 0.79375 14.27875 0.6875 14.9375 C0.460625 15.618125 0.23375 16.29875 0 17 C-0.99 17.33 -1.98 17.66 -3 18 C-3.33 18.66 -3.66 19.32 -4 20 C-4.99 20 -5.98 20 -7 20 C-7.33 20.99 -7.66 21.98 -8 23 C-13.76467952 27.56799382 -18.80760192 28.57082524 -26 28 C-25.01 26.515 -25.01 26.515 -24 25 C-23.34 25 -22.68 25 -22 25 C-21.690625 24.38125 -21.38125 23.7625 -21.0625 23.125 C-20.375 21.75 -19.6875 20.375 -19 19 C-19.99 19 -20.98 19 -22 19 C-22.66 17.68 -23.32 16.36 -24 15 C-20.535 14.505 -20.535 14.505 -17 14 C-16.67 13.01 -16.34 12.02 -16 11 C-16.99 10.67 -17.98 10.34 -19 10 C-19 9.01 -19 8.02 -19 7 C-17.68 7 -16.36 7 -15 7 C-15 6.34 -15 5.68 -15 5 C-11.50184674 1.35609035 -7.81744661 1.30586963 -3 1 C-2.01 1.33 -1.02 1.66 0 2 C0 1.34 0 0.68 0 0 Z " fill="#94C01A" transform="translate(131,85)"/>
<path d="M0 0 C0.495 0.99 0.495 0.99 1 2 C-4.71632167 16.8704312 -14.20848369 27.42706434 -28.7109375 34.28125 C-41.07043968 39.4774371 -55.44560366 39.89157415 -67.88671875 34.82421875 C-75.80677637 31.38644726 -75.80677637 31.38644726 -77 29 C-73.7 29.99 -70.4 30.98 -67 32 C-67 32.66 -67 33.32 -67 34 C-53.92224474 36.16797012 -38.01828826 37.21796362 -26.375 29.9375 C-23.93968019 28.22133095 -23.93968019 28.22133095 -23 26 C-22.01 26 -21.02 26 -20 26 C-19.505 24.515 -19.505 24.515 -19 23 C-18.01 22.67 -17.02 22.34 -16 22 C-15.505 20.515 -15.505 20.515 -15 19 C-14.21625 18.7525 -13.4325 18.505 -12.625 18.25 C-9.64403262 16.83049173 -9.41113389 16.2906444 -8.1875 13.375 C-7.795625 12.26125 -7.40375 11.1475 -7 10 C-7.66 10 -8.32 10 -9 10 C-9 10.99 -9 11.98 -9 13 C-11.64 13 -14.28 13 -17 13 C-17 13.66 -17 14.32 -17 15 C-19.76276177 14.47731534 -22.3260876 13.89130413 -25 13 C-24.67 12.01 -24.34 11.02 -24 10 C-22.329375 10.0928125 -22.329375 10.0928125 -20.625 10.1875 C-19.42875 10.125625 -18.2325 10.06375 -17 10 C-16.34 9.01 -15.68 8.02 -15 7 C-14.34 7 -13.68 7 -13 7 C-13 7.66 -13 8.32 -13 9 C-12.34 9 -11.68 9 -11 9 C-11 8.01 -11 7.02 -11 6 C-12.65 6 -14.3 6 -16 6 C-16 6.66 -16 7.32 -16 8 C-17.051875 7.95875 -18.10375 7.9175 -19.1875 7.875 C-22.79085517 7.99314279 -24.79953737 8.48867043 -28 10 C-28.99 10.33 -29.98 10.66 -31 11 C-31 11.66 -31 12.32 -31 13 C-32.32 12.67 -33.64 12.34 -35 12 C-26.60436793 4.87965381 -17.92707764 2.4714127 -7.03125 2.23828125 C-4.10941438 2.00860087 -2.46650012 1.5173812 0 0 Z " fill="#94BF25" transform="translate(147,79)"/>
<path d="M0 0 C0.33 0 0.66 0 1 0 C1.66 4.62 2.32 9.24 3 14 C3.66 9.38 4.32 4.76 5 0 C5.33 0 5.66 0 6 0 C5.67 12.87 5.34 25.74 5 39 C16.55 39 28.1 39 40 39 C40 35.04 40 31.08 40 27 C38.35 27 36.7 27 35 27 C36.1875 25 36.1875 25 38 23 C39.65 23 41.3 23 43 23 C43.495 16.565 43.495 16.565 44 10 C44.33 10 44.66 10 45 10 C45 19.57 45 29.14 45 39 C57.21 39 69.42 39 82 39 C82 34.71 82 30.42 82 26 C82.33 26 82.66 26 83 26 C83.22134176 28.12368444 83.42670007 30.24904024 83.625 32.375 C83.74101562 33.55835938 83.85703125 34.74171875 83.9765625 35.9609375 C83.98816406 37.46527344 83.98816406 37.46527344 84 39 C81.48842528 41.51157472 79.96605838 41.23691344 76.53970337 41.25224304 C75.42563614 41.24146477 75.42563614 41.24146477 74.2890625 41.23046875 C73.52451752 41.23001053 72.75997253 41.22955231 71.97225952 41.2290802 C70.35323538 41.22605682 68.73421418 41.21816795 67.11523438 41.20581055 C64.64182166 41.18762369 62.16878492 41.18530042 59.6953125 41.18554688 C58.12239261 41.18062881 56.54947525 41.17479923 54.9765625 41.16796875 C54.23789948 41.16685593 53.49923645 41.1657431 52.7381897 41.16459656 C49.31507824 41.13312692 46.30407396 40.83533179 43 40 C42.01 40.33 41.02 40.66 40 41 C37.47277455 41.13225339 34.97385236 41.21206775 32.4453125 41.23828125 C31.70675018 41.246353 30.96818787 41.25442474 30.20724487 41.26274109 C28.64551119 41.27655873 27.08374761 41.28729125 25.52197266 41.29516602 C23.92748142 41.30669676 22.33302912 41.32716613 20.73876953 41.35668945 C18.43235095 41.39940091 16.12707763 41.41553795 13.8203125 41.42578125 C13.11182159 41.44328934 12.40333069 41.46079742 11.67337036 41.47883606 C8.17763243 41.46358653 6.09457775 41.05519715 3.05541992 39.28149414 C0.67886738 36.64354623 0.35734321 35.56766158 0.29296875 32.0703125 C0.26388428 31.11584229 0.2347998 30.16137207 0.20483398 29.17797852 C0.19911377 28.17049561 0.19339355 27.1630127 0.1875 26.125 C0.16308838 25.09882568 0.13867676 24.07265137 0.11352539 23.01538086 C0.04901601 20.00990553 0.01850207 17.0060728 0 14 C-0.00837891 13.19288574 -0.01675781 12.38577148 -0.02539062 11.55419922 C-0.06330306 7.70177903 -0.0600852 3.85212886 0 0 Z " fill="#BFE8EC" transform="translate(379,49)"/>
<path d="M0 0 C0.73299316 0.00088623 1.46598633 0.00177246 2.22119141 0.00268555 C9.64021939 0.16062249 19.05413409 0.99921097 24.8203125 6.01171875 C25.18898437 6.46160156 25.55765625 6.91148438 25.9375 7.375 C22.73369983 9.51086678 21.91810033 9.60632175 18.25 9.5 C17.44175781 9.48195313 16.63351563 9.46390625 15.80078125 9.4453125 C14.87845703 9.41050781 14.87845703 9.41050781 13.9375 9.375 C14.2675 10.365 14.5975 11.355 14.9375 12.375 C15.576875 12.49875 16.21625 12.6225 16.875 12.75 C17.555625 12.95625 18.23625 13.1625 18.9375 13.375 C20.0625 15.875 20.0625 15.875 20.9375 18.375 C21.5975 18.705 22.2575 19.035 22.9375 19.375 C22.6075 23.995 22.2775 28.615 21.9375 33.375 C21.2775 33.375 20.6175 33.375 19.9375 33.375 C20.02451172 32.27091797 20.02451172 32.27091797 20.11328125 31.14453125 C20.42599586 24.98218202 20.42599586 24.98218202 18.1875 19.375 C14.09554416 16.85687333 10.17933902 16.03017465 5.484375 15.1484375 C4.22367188 14.76558594 4.22367188 14.76558594 2.9375 14.375 C2.6075 13.385 2.2775 12.395 1.9375 11.375 C3.2575 11.375 4.5775 11.375 5.9375 11.375 C5.9375 12.365 5.9375 13.355 5.9375 14.375 C7.2575 14.045 8.5775 13.715 9.9375 13.375 C9.48375 12.67375 9.03 11.9725 8.5625 11.25 C6.91863407 8.34162182 5.94853262 5.54876326 4.9375 2.375 C2.56221849 2.51703337 0.18734749 2.66351612 -2.1875 2.8125 C-3.18523437 2.87147461 -3.18523437 2.87147461 -4.203125 2.93164062 C-8.21268817 3.187152 -12.11244196 3.64282413 -16.0625 4.375 C-15.0625 2.375 -15.0625 2.375 -12.00390625 1.2734375 C-8.02542632 0.24209231 -4.09778185 -0.00900091 0 0 Z " fill="#35AADD" transform="translate(97.0625,12.625)"/>
<path d="M0 0 C0.66 0.33 1.32 0.66 2 1 C2.63724091 10.11608519 2.63724091 10.11608519 0.0625 13.6875 C-0.618125 14.450625 -1.29875 15.21375 -2 16 C-2.80222151 19.689748 -2.80222151 19.689748 -3 23 C-3.66 23 -4.32 23 -5 23 C-5.19335938 23.84304687 -5.38671875 24.68609375 -5.5859375 25.5546875 C-5.84632812 26.65039062 -6.10671875 27.74609375 -6.375 28.875 C-6.63023438 29.96554688 -6.88546875 31.05609375 -7.1484375 32.1796875 C-8 35 -8 35 -10 37 C-10 35.02 -10 33.04 -10 31 C-11.65 31 -13.3 31 -15 31 C-14.66666667 29.33333333 -14.33333333 27.66666667 -14 26 C-13.7834375 24.63875 -13.7834375 24.63875 -13.5625 23.25 C-13.376875 22.5075 -13.19125 21.765 -13 21 C-12.34 20.67 -11.68 20.34 -11 20 C-11 18.68 -11 17.36 -11 16 C-9.66666667 14.66666667 -8.33333333 13.33333333 -7 12 C-5.68548862 8.77944711 -5 6.48063358 -5 3 C-3.35 3.33 -1.7 3.66 0 4 C0 2.68 0 1.36 0 0 Z " fill="#2EA9E0" transform="translate(64,29)"/>
<path d="M0 0 C0.33 0 0.66 0 1 0 C0.67 12.87 0.34 25.74 0 39 C4.62 39 9.24 39 14 39 C14 34.05 14 29.1 14 24 C14.33 24 14.66 24 15 24 C15.495 31.425 15.495 31.425 16 39 C12.52207183 41.31861878 11.09700748 41.24272927 7 41.1875 C5.948125 41.18105469 4.89625 41.17460938 3.8125 41.16796875 C1 41 1 41 -2 40 C-3.485 40.495 -3.485 40.495 -5 41 C-7.01906808 41.09416778 -9.04124313 41.12991192 -11.0625 41.125 C-12.12597656 41.12757812 -13.18945312 41.13015625 -14.28515625 41.1328125 C-17 41 -17 41 -19 40 C-19.6328125 37.71484375 -19.6328125 37.71484375 -20.125 34.9375 C-20.29257812 34.01839844 -20.46015625 33.09929687 -20.6328125 32.15234375 C-20.75398438 31.44207031 -20.87515625 30.73179688 -21 30 C-20.34 30 -19.68 30 -19 30 C-17.93347808 32.30368736 -16.93578995 34.64018187 -16 37 C-16.33 37.66 -16.66 38.32 -17 39 C-13.04 39 -9.08 39 -5 39 C-5.144375 38.14277344 -5.28875 37.28554687 -5.4375 36.40234375 C-6.38858888 30.54390042 -7.2761941 24.93817322 -7 19 C-5.09681116 21.85478326 -4.5380901 23.41941308 -3.875 26.6875 C-3.70742188 27.49574219 -3.53984375 28.30398437 -3.3671875 29.13671875 C-3.24601562 29.75160156 -3.12484375 30.36648437 -3 31 C-2.01816667 28.05450002 -1.82057937 25.93081754 -1.71875 22.8515625 C-1.68136719 21.84609375 -1.64398438 20.840625 -1.60546875 19.8046875 C-1.57066406 18.75539063 -1.53585937 17.70609375 -1.5 16.625 C-1.43081449 14.55455945 -1.35802113 12.48423565 -1.28125 10.4140625 C-1.25095703 9.4957666 -1.22066406 8.5774707 -1.18945312 7.63134766 C-1.00106326 5.01476776 -0.5708725 2.55794795 0 0 Z " fill="#92D5E2" transform="translate(341,49)"/>
<path d="M0 0 C0.33 0 0.66 0 1 0 C1 5.61 1 11.22 1 17 C12.88 17 24.76 17 37 17 C36.67 12.71 36.34 8.42 36 4 C34.35 4.66 32.7 5.32 31 6 C31.99 4.68 32.98 3.36 34 2 C35.32 2.33 36.64 2.66 38 3 C38.33951619 4.56116819 38.67132544 6.12401338 39 7.6875 C39.185625 8.55761719 39.37125 9.42773438 39.5625 10.32421875 C40 13 40 13 40 18 C46.435 17.505 46.435 17.505 53 17 C53.66 15.02 54.32 13.04 55 11 C55.66 10.67 56.32 10.34 57 10 C56.88637738 11.4800841 56.75877092 12.95910074 56.625 14.4375 C56.55539062 15.26121094 56.48578125 16.08492187 56.4140625 16.93359375 C56.27742188 17.61550781 56.14078125 18.29742187 56 19 C53.16239474 20.41880263 50.72317025 20.1320472 47.5625 20.125 C46.40878906 20.12757812 45.25507813 20.13015625 44.06640625 20.1328125 C41 20 41 20 38 19 C37.01 19.495 37.01 19.495 36 20 C33.38549646 20.0988012 30.79822414 20.13984941 28.18359375 20.1328125 C27.41193375 20.13376923 26.64027374 20.13472595 25.8452301 20.13571167 C24.21363239 20.13639246 22.58203197 20.1345452 20.95043945 20.13037109 C18.44411179 20.12501413 15.93796275 20.13032319 13.43164062 20.13671875 C11.84895794 20.13605809 10.26627536 20.13477719 8.68359375 20.1328125 C7.92944687 20.13483673 7.17529999 20.13686096 6.39830017 20.13894653 C1.11495624 20.11495624 1.11495624 20.11495624 0 19 C-0.08651611 17.58429877 -0.10704904 16.164405 -0.09765625 14.74609375 C-0.09443359 13.89208984 -0.09121094 13.03808594 -0.08789062 12.15820312 C-0.07951172 11.26037109 -0.07113281 10.36253906 -0.0625 9.4375 C-0.05798828 8.53580078 -0.05347656 7.63410156 -0.04882812 6.70507812 C-0.03700225 4.46998686 -0.0205222 2.23502563 0 0 Z " fill="#C3E9ED" transform="translate(256,70)"/>
<path d="M0 0 C0.98226563 0.00257812 1.96453125 0.00515625 2.9765625 0.0078125 C4.44222656 0.00394531 4.44222656 0.00394531 5.9375 0 C8.6015625 0.1328125 8.6015625 0.1328125 11.6015625 1.1328125 C11.9315625 2.1228125 12.2615625 3.1128125 12.6015625 4.1328125 C5.6715625 3.6378125 5.6715625 3.6378125 -1.3984375 3.1328125 C-1.3984375 4.1228125 -1.3984375 5.1128125 -1.3984375 6.1328125 C-0.02558594 6.11541016 -0.02558594 6.11541016 1.375 6.09765625 C3.15777344 6.08412109 3.15777344 6.08412109 4.9765625 6.0703125 C6.15992188 6.05871094 7.34328125 6.04710937 8.5625 6.03515625 C11.6015625 6.1328125 11.6015625 6.1328125 13.6015625 7.1328125 C13.6015625 9.4428125 13.6015625 11.7528125 13.6015625 14.1328125 C9.99401497 15.38157895 7.30547579 14.8131231 3.6015625 14.1328125 C1.93528952 14.09658917 0.26750876 14.08381408 -1.3984375 14.1328125 C-1.0684375 15.7828125 -0.7384375 17.4328125 -0.3984375 19.1328125 C0.8390625 19.2771875 2.0765625 19.4215625 3.3515625 19.5703125 C6.16660749 19.91969752 8.8717122 20.33660616 11.6015625 21.1328125 C7.89192543 22.36935819 4.45727172 22.6836281 0.6015625 22.1328125 C-1.8984375 20.5078125 -1.8984375 20.5078125 -3.3984375 18.1328125 C-3.6484375 14.8828125 -3.6484375 14.8828125 -3.3984375 12.1328125 C-2.7384375 11.8028125 -2.0784375 11.4728125 -1.3984375 11.1328125 C-0.7384375 11.4628125 -0.0784375 11.7928125 0.6015625 12.1328125 C0.2715625 10.4828125 -0.0584375 8.8328125 -0.3984375 7.1328125 C-1.3884375 6.8028125 -2.3784375 6.4728125 -3.3984375 6.1328125 C-3.4411585 4.46669345 -3.43907582 2.79898365 -3.3984375 1.1328125 C-2.3984375 0.1328125 -2.3984375 0.1328125 0 0 Z " fill="#CEE9EF" transform="translate(273.3984375,56.8671875)"/>
<path d="M0 0 C0.99 0 1.98 0 3 0 C-0.53777725 10.30171406 -9.69324986 17.07135485 -19 22 C-30.94650237 27.64618556 -45.33683324 29.43210837 -58 25 C-68.67374681 20.65250637 -68.67374681 20.65250637 -70 18 C-66.7 18.99 -63.4 19.98 -60 21 C-60 21.66 -60 22.32 -60 23 C-46.92224474 25.16797012 -31.01828826 26.21796362 -19.375 18.9375 C-16.93968019 17.22133095 -16.93968019 17.22133095 -16 15 C-15.01 15 -14.02 15 -13 15 C-12.67 14.01 -12.34 13.02 -12 12 C-11.01 11.67 -10.02 11.34 -9 11 C-8.67 10.01 -8.34 9.02 -8 8 C-7.21625 7.731875 -6.4325 7.46375 -5.625 7.1875 C-2.07068177 5.57959413 -1.45140066 3.51391738 0 0 Z " fill="#74C68D" transform="translate(140,90)"/>
<path d="M0 0 C0.33 0 0.66 0 1 0 C1 9.57 1 19.14 1 29 C13.21 29 25.42 29 38 29 C38 24.71 38 20.42 38 16 C38.33 16 38.66 16 39 16 C39.22134176 18.12368444 39.42670007 20.24904024 39.625 22.375 C39.74101562 23.55835937 39.85703125 24.74171875 39.9765625 25.9609375 C39.98816406 27.46527344 39.98816406 27.46527344 40 29 C37.49317752 31.50682248 35.98540929 31.23686946 32.56535339 31.25224304 C31.82577896 31.24505753 31.08620453 31.23787201 30.32421875 31.23046875 C29.56204544 31.23001053 28.79987213 31.22955231 28.01460266 31.2290802 C26.39977465 31.22605647 24.78494959 31.21816654 23.17016602 31.20581055 C20.70773887 31.18764927 18.24569001 31.18530026 15.78320312 31.18554688 C14.21353844 31.18062774 12.64387629 31.17479771 11.07421875 31.16796875 C10.34071701 31.16685593 9.60721527 31.1657431 8.85148621 31.16459656 C5.02599441 31.1294239 1.79192552 30.7583851 -2 30 C-2.33 24.39 -2.66 18.78 -3 13 C-2.34 13 -1.68 13 -1 13 C-0.67 8.71 -0.34 4.42 0 0 Z " fill="#AADEE3" transform="translate(423,59)"/>
<path d="M0 0 C0.495 1.485 0.495 1.485 1 3 C0.0409375 3.5878125 0.0409375 3.5878125 -0.9375 4.1875 C-3.43778819 6.38472296 -3.64950425 7.75791433 -4 11 C-4.99 11 -5.98 11 -7 11 C-7 10.34 -7 9.68 -7 9 C-8.19496094 9.46792969 -8.19496094 9.46792969 -9.4140625 9.9453125 C-13.76851053 11.22603251 -17.86112196 11.60530288 -22.375 11.875 C-23.18710938 11.9471875 -23.99921875 12.019375 -24.8359375 12.09375 C-30.77372471 12.45534602 -35.07445475 11.41490913 -40 8 C-42.5 5.25 -42.5 5.25 -44 3 C-41.47742 4.0054089 -38.96000061 5.01683538 -36.45703125 6.0703125 C-25.71376583 10.35492352 -18.69780894 9.71387344 -7.98046875 5.484375 C-4.93959097 3.96991425 -2.56269042 2.216893 0 0 Z " fill="#9CC141" transform="translate(105,98)"/>
<path d="M0 0 C0.33 0 0.66 0 1 0 C1.66 4.62 2.32 9.24 3 14 C3.66 9.38 4.32 4.76 5 0 C5.33 0 5.66 0 6 0 C5.34 12.87 4.68 25.74 4 39 C1 37 1 37 0.56762695 34.88378906 C0.54144287 34.01979492 0.51525879 33.15580078 0.48828125 32.265625 C0.45275146 31.30470947 0.41722168 30.34379395 0.38061523 29.35375977 C0.35813721 28.32951904 0.33565918 27.30527832 0.3125 26.25 C0.27906494 25.21480225 0.24562988 24.17960449 0.21118164 23.11303711 C-0.01996919 15.40941027 -0.12020718 7.7066156 0 0 Z " fill="#7BC9D7" transform="translate(379,49)"/>
<path d="M0 0 C3.33816934 5.00725401 3.1824921 9.60068794 3.1875 15.5 C3.19974609 16.25925781 3.21199219 17.01851562 3.22460938 17.80078125 C3.23479204 21.6769826 3.20641411 24.72090235 1 28 C1 26.68 1 25.36 1 24 C-5.93 24 -12.86 24 -20 24 C-18.74458443 21.48916886 -17.49936512 21.12874554 -15 20 C-15 19.34 -15 18.68 -15 18 C-12.36 18 -9.72 18 -7 18 C-7.33 18.66 -7.66 19.32 -8 20 C-4.7 20.66 -1.4 21.32 2 22 C1.34 14.74 0.68 7.48 0 0 Z " fill="#3FA9D6" transform="translate(147,50)"/>
<path d="M0 0 C0.495 0.99 0.495 0.99 1 2 C0.22265625 4.1640625 0.22265625 4.1640625 -0.9375 6.625 C-1.50791016 7.85089844 -1.50791016 7.85089844 -2.08984375 9.1015625 C-2.39019531 9.72804688 -2.69054687 10.35453125 -3 11 C-3.33 11 -3.66 11 -4 11 C-4.33 9.35 -4.66 7.7 -5 6 C-14.55751044 5.55661034 -22.46704803 6.53959329 -31 11 C-31 11.66 -31 12.32 -31 13 C-32.32 12.67 -33.64 12.34 -35 12 C-26.60436793 4.87965381 -17.92707764 2.4714127 -7.03125 2.23828125 C-4.10941438 2.00860087 -2.46650012 1.5173812 0 0 Z " fill="#9ABE4A" transform="translate(147,79)"/>
<path d="M0 0 C1.2272208 3.6816624 0.58074847 5.03905002 -0.4375 8.75 C-1.97808134 15.53707722 -2.34037969 22.04736296 -2.375 29 C-2.38845459 29.9909668 -2.40190918 30.98193359 -2.41577148 32.00292969 C-2.38250028 37.51564055 -1.86484014 41.14947701 1 46 C1 46.99 1 47.98 1 49 C-1.76021004 45.81514226 -4.07741127 42.43863797 -6.3125 38.875 C-6.84488281 38.02679688 -7.37726562 37.17859375 -7.92578125 36.3046875 C-9 34 -9 34 -8 31 C-7.67 32.32 -7.34 33.64 -7 35 C-6.34 35 -5.68 35 -5 35 C-4.95101562 33.76765625 -4.90203125 32.5353125 -4.8515625 31.265625 C-3.78626047 6.82794253 -3.78626047 6.82794253 0 0 Z " fill="#5CB3D6" transform="translate(59,52)"/>
<path d="M0 0 C1.79093191 -0.08086147 3.58289628 -0.13912702 5.375 -0.1875 C6.87160156 -0.23970703 6.87160156 -0.23970703 8.3984375 -0.29296875 C9.25695312 -0.19628906 10.11546875 -0.09960938 11 0 C11.66 0.99 12.32 1.98 13 3 C9.37 3.33 5.74 3.66 2 4 C2.33 4.66 2.66 5.32 3 6 C6.96 6 10.92 6 15 6 C16.4783226 8.95664519 16.06032783 11.74229737 16 15 C13.69 14.67 11.38 14.34 9 14 C9 13.67 9 13.34 9 13 C10.65 13 12.3 13 14 13 C14 11.35 14 9.7 14 8 C12.62714844 8.01740234 12.62714844 8.01740234 11.2265625 8.03515625 C9.44378906 8.04869141 9.44378906 8.04869141 7.625 8.0625 C6.44164062 8.07410156 5.25828125 8.08570312 4.0390625 8.09765625 C1 8 1 8 -1 7 C-0.67 4.69 -0.34 2.38 0 0 Z " fill="#B2E5E8" transform="translate(398,57)"/>
<path d="M0 0 C1.32 0.33 2.64 0.66 4 1 C4.33951619 2.56116819 4.67132544 4.12401338 5 5.6875 C5.185625 6.55761719 5.37125 7.42773438 5.5625 8.32421875 C6 11 6 11 6 16 C12.435 15.505 12.435 15.505 19 15 C19.66 13.02 20.32 11.04 21 9 C21.66 8.67 22.32 8.34 23 8 C22.88637738 9.4800841 22.75877092 10.95910074 22.625 12.4375 C22.55539062 13.26121094 22.48578125 14.08492187 22.4140625 14.93359375 C22.27742188 15.61550781 22.14078125 16.29742187 22 17 C19.16612485 18.41693757 16.71970627 18.1699013 13.5625 18.1875 C12.40878906 18.20167969 11.25507813 18.21585938 10.06640625 18.23046875 C7 18 7 18 4 16 C3.26953125 12.7421875 3.26953125 12.7421875 2.8125 8.875 C2.65394531 7.59367187 2.49539063 6.31234375 2.33203125 4.9921875 C2.22246094 4.00476563 2.11289062 3.01734375 2 2 C0.35 2.66 -1.3 3.32 -3 4 C-2.01 2.68 -1.02 1.36 0 0 Z " fill="#B1E2E8" transform="translate(290,72)"/>
<path d="M0 0 C2.22697147 3.34045721 2.55724635 5.43677228 3.125 9.375 C3.29257812 10.49648437 3.46015625 11.61796875 3.6328125 12.7734375 C3.94965288 15.55758804 4.07332983 18.20299084 4 21 C1.26922124 22.36538938 -0.95560367 22.13231826 -4 22.125 C-5.60875 22.12886719 -5.60875 22.12886719 -7.25 22.1328125 C-10 22 -10 22 -12 21 C-12.6328125 18.71484375 -12.6328125 18.71484375 -13.125 15.9375 C-13.29257812 15.01839844 -13.46015625 14.09929687 -13.6328125 13.15234375 C-13.75398438 12.44207031 -13.87515625 11.73179688 -14 11 C-13.34 11 -12.68 11 -12 11 C-10.93347808 13.30368736 -9.93578995 15.64018187 -9 18 C-9.33 18.66 -9.66 19.32 -10 20 C-6.04 20 -2.08 20 2 20 C1.855625 19.14277344 1.71125 18.28554687 1.5625 17.40234375 C0.61141112 11.54390042 -0.2761941 5.93817322 0 0 Z " fill="#BAE6EC" transform="translate(334,68)"/>
<path d="M0 0 C2.875 1.25 2.875 1.25 5 3 C5.8125 5.1875 5.8125 5.1875 6 7 C4.68 6.34 3.36 5.68 2 5 C2 4.01 2 3.02 2 2 C0.0509375 2.185625 0.0509375 2.185625 -1.9375 2.375 C-2.66839844 2.44460937 -3.39929688 2.51421875 -4.15234375 2.5859375 C-4.76207031 2.72257812 -5.37179687 2.85921875 -6 3 C-7.16540224 5.33080447 -7.16860169 6.83252953 -7.24609375 9.4296875 C-7.27896484 10.30753906 -7.31183594 11.18539062 -7.34570312 12.08984375 C-7.40663971 13.93868555 -7.46396298 15.78765015 -7.51757812 17.63671875 C-7.55173828 18.51714844 -7.58589844 19.39757812 -7.62109375 20.3046875 C-7.6461499 21.10890137 -7.67120605 21.91311523 -7.69702148 22.74169922 C-8.02561791 25.19094739 -8.77971891 26.86702555 -10 29 C-10.02727678 26.02076997 -10.04697128 23.04179621 -10.0625 20.0625 C-10.07087891 19.23169922 -10.07925781 18.40089844 -10.08789062 17.54492188 C-10.10966144 11.94982283 -9.87369337 6.53339134 -9 1 C-5.93570224 -0.53214888 -3.3834358 -0.22938548 0 0 Z " fill="#ECFEFE" transform="translate(351,47)"/>
<path d="M0 0 C0.98226563 0.00257812 1.96453125 0.00515625 2.9765625 0.0078125 C4.44222656 0.00394531 4.44222656 0.00394531 5.9375 0 C8.6015625 0.1328125 8.6015625 0.1328125 11.6015625 1.1328125 C11.9315625 2.1228125 12.2615625 3.1128125 12.6015625 4.1328125 C5.6715625 3.6378125 5.6715625 3.6378125 -1.3984375 3.1328125 C-1.3984375 4.1228125 -1.3984375 5.1128125 -1.3984375 6.1328125 C-0.02558594 6.11541016 -0.02558594 6.11541016 1.375 6.09765625 C3.15777344 6.08412109 3.15777344 6.08412109 4.9765625 6.0703125 C6.15992188 6.05871094 7.34328125 6.04710937 8.5625 6.03515625 C11.6015625 6.1328125 11.6015625 6.1328125 13.6015625 7.1328125 C13.6015625 9.4428125 13.6015625 11.7528125 13.6015625 14.1328125 C13.2715625 14.1328125 12.9415625 14.1328125 12.6015625 14.1328125 C12.6015625 12.1528125 12.6015625 10.1728125 12.6015625 8.1328125 C11.24611328 8.16761719 11.24611328 8.16761719 9.86328125 8.203125 C8.68378906 8.22117187 7.50429688 8.23921875 6.2890625 8.2578125 C4.53142578 8.29261719 4.53142578 8.29261719 2.73828125 8.328125 C-0.3984375 8.1328125 -0.3984375 8.1328125 -3.3984375 6.1328125 C-3.6484375 3.5703125 -3.6484375 3.5703125 -3.3984375 1.1328125 C-2.3984375 0.1328125 -2.3984375 0.1328125 0 0 Z " fill="#AEDCE4" transform="translate(273.3984375,56.8671875)"/>
<path d="M0 0 C0.99 0 1.98 0 3 0 C1.64940209 3.91327088 -0.06848436 6.59720322 -2.8125 9.6875 C-3.47894531 10.45449219 -4.14539063 11.22148438 -4.83203125 12.01171875 C-7.16766708 14.15377035 -9.04327141 14.93742566 -12 16 C-14.12406831 17.29740389 -16.17142372 18.6765878 -18.23046875 20.07421875 C-19.10638672 20.53248047 -19.10638672 20.53248047 -20 21 C-20.66 20.67 -21.32 20.34 -22 20 C-21.195625 19.54625 -20.39125 19.0925 -19.5625 18.625 C-16.91143428 17.25274335 -16.91143428 17.25274335 -16 15 C-15.01 15 -14.02 15 -13 15 C-12.67 14.01 -12.34 13.02 -12 12 C-11.01 11.67 -10.02 11.34 -9 11 C-8.67 10.01 -8.34 9.02 -8 8 C-7.21625 7.731875 -6.4325 7.46375 -5.625 7.1875 C-2.07068177 5.57959413 -1.45140066 3.51391738 0 0 Z " fill="#8DC13F" transform="translate(140,90)"/>
<path d="M0 0 C0.73299316 0.00088623 1.46598633 0.00177246 2.22119141 0.00268555 C9.64021939 0.16062249 19.05413409 0.99921097 24.8203125 6.01171875 C25.18898437 6.46160156 25.55765625 6.91148438 25.9375 7.375 C22.625 7.5625 22.625 7.5625 18.9375 7.375 C17.92288443 6.38983238 16.92346249 5.38884317 15.9375 4.375 C5.75206293 0.40692347 -5.69176529 2.34791049 -16.0625 4.375 C-15.0625 2.375 -15.0625 2.375 -12.00390625 1.2734375 C-8.02542632 0.24209231 -4.09778185 -0.00900091 0 0 Z " fill="#4CBDE1" transform="translate(97.0625,12.625)"/>
<path d="M0 0 C2.0625 1.75 2.0625 1.75 4 4 C3.75 6.25 3.75 6.25 3 8 C1.35 8 -0.3 8 -2 8 C-2.66 9.65 -3.32 11.3 -4 13 C-5.32 13 -6.64 13 -8 13 C-8 12.01 -8 11.02 -8 10 C-7.34 9.67 -6.68 9.34 -6 9 C-5.71125 8.236875 -5.4225 7.47375 -5.125 6.6875 C-3.87898624 3.71091157 -2.37769684 2.13992716 0 0 Z " fill="#94BF23" transform="translate(111,92)"/>
<path d="M0 0 C5.4852071 0.60946746 5.4852071 0.60946746 7.8125 2.375 C9 4 9 4 10 7 C10.66 7.33 11.32 7.66 12 8 C11.67 12.62 11.34 17.24 11 22 C10.34 22 9.68 22 9 22 C9.05800781 21.26394531 9.11601563 20.52789062 9.17578125 19.76953125 C9.56789725 13.42960068 9.56789725 13.42960068 6.75 7.9375 C4.52968401 6.37318646 2.51008495 5.0226272 0 4 C1.32 3.67 2.64 3.34 4 3 C2.68 2.34 1.36 1.68 0 1 C0 0.67 0 0.34 0 0 Z " fill="#47AADB" transform="translate(108,24)"/>
<path d="M0 0 C0.66 0 1.32 0 2 0 C4.19790854 4.57897612 5.49432386 7.80959948 5 13 C4 14 4 14 0.4375 14.0625 C-0.696875 14.041875 -1.83125 14.02125 -3 14 C-3.57293869 4.26004228 -3.57293869 4.26004228 0 0 Z M0 4 C-1.35439668 6.70879335 -1.06501451 9.00933268 -1 12 C-0.01 12 0.98 12 2 12 C2.79953138 8.71303767 3.09658936 7.28976808 2 4 C1.34 4 0.68 4 0 4 Z " fill="#B1E3E6" transform="translate(316,60)"/>
<path d="M0 0 C0.33 0 0.66 0 1 0 C1 4.62 1 9.24 1 14 C-5 13 -5 13 -8 12 C-9.89470816 11.9314505 -11.7916834 11.91519628 -13.6875 11.9375 C-14.68136719 11.94652344 -15.67523438 11.95554687 -16.69921875 11.96484375 C-17.45847656 11.97644531 -18.21773438 11.98804688 -19 12 C-19 11.01 -19 10.02 -19 9 C-14.05 9 -9.1 9 -4 9 C-3.67 9.99 -3.34 10.98 -3 12 C-2.01 12 -1.02 12 0 12 C0 8.04 0 4.08 0 0 Z " fill="#A4D6DF" transform="translate(458,49)"/>
<path d="M0 0 C2.49778671 0.9964337 4.99200313 1.99665218 7.47265625 3.03515625 C14.33326141 5.75663311 20.63969819 6.74309592 28 7 C28 7.33 28 7.66 28 8 C11.20186981 9.87551939 11.20186981 9.87551939 5.484375 6.2578125 C3.29398465 4.40174489 1.58852785 2.38279178 0 0 Z " fill="#94BE44" transform="translate(61,101)"/>
<path d="M0 0 C0.33 0 0.66 0 1 0 C1 4.95 1 9.9 1 15 C1.99 15.33 2.98 15.66 4 16 C4.33 17.65 4.66 19.3 5 21 C9.29 21.66 13.58 22.32 18 23 C18 23.33 18 23.66 18 24 C6.17928253 24.86073185 6.17928253 24.86073185 2.3125 21.6875 C-1.0342062 17.79808469 -1.13728681 15.03251572 -1.125 10.0625 C-1.12757812 9.02222656 -1.13015625 7.98195313 -1.1328125 6.91015625 C-1.01932023 4.42334029 -0.71928571 2.36907593 0 0 Z " fill="#4FA9D3" transform="translate(66,76)"/>
<path d="M0 0 C0.33 0 0.66 0 1 0 C1 9.9 1 19.8 1 30 C0.01 30 -0.98 30 -2 30 C-2.33 24.39 -2.66 18.78 -3 13 C-2.34 13 -1.68 13 -1 13 C-0.67 8.71 -0.34 4.42 0 0 Z " fill="#81CBD3" transform="translate(423,59)"/>
<path d="M0 0 C1.32 0.66 2.64 1.32 4 2 C2.68 2.33 1.36 2.66 0 3 C-1.29901642 8.93932385 -1.29901642 8.93932385 0.4375 14.5 C4.00037921 16.58558783 6.89070299 16.72604687 11 17 C11 17.33 11 17.66 11 18 C8.85423363 18.02685938 6.70837355 18.04633088 4.5625 18.0625 C3.36753906 18.07410156 2.17257813 18.08570312 0.94140625 18.09765625 C-2 18 -2 18 -3 17 C-3.0991757 14.85605481 -3.1297015 12.70873268 -3.125 10.5625 C-3.12757813 9.38816406 -3.13015625 8.21382812 -3.1328125 7.00390625 C-3 4 -3 4 -2 2 C-1.34 2 -0.68 2 0 2 C0 1.34 0 0.68 0 0 Z " fill="#ACDEE6" transform="translate(191,59)"/>
<path d="M0 0 C0.99 0 1.98 0 3 0 C3.07347656 1.37285156 3.07347656 1.37285156 3.1484375 2.7734375 C3.22320312 3.96195313 3.29796875 5.15046875 3.375 6.375 C3.44460937 7.55835938 3.51421875 8.74171875 3.5859375 9.9609375 C3.70217346 13.10562319 3.70217346 13.10562319 6 15 C7.32 15 8.64 15 10 15 C12.8741331 12.1258669 13.86475876 8.84235498 15 5 C16 8 16 8 14.75 11.5 C12.22857143 16.54285714 12.22857143 16.54285714 10 18 C7.5 18.4375 7.5 18.4375 5 18 C1.88848775 14.83587764 1.57765279 12.21603619 1.375 7.875 C1.27524566 3.78441077 1.27524566 3.78441077 0 0 Z " fill="#E4FCFE" transform="translate(101,38)"/>
<path d="M0 0 C2.64 0 5.28 0 8 0 C3.64592545 5.10477706 -1.84798598 8.36483779 -8 11 C-8.66 10.67 -9.32 10.34 -10 10 C-9.01 9.67 -8.02 9.34 -7 9 C-7 8.34 -7 7.68 -7 7 C-5.6875 5.375 -5.6875 5.375 -4 4 C-3.01 4 -2.02 4 -1 4 C-0.67 2.68 -0.34 1.36 0 0 Z " fill="#50A9D4" transform="translate(96,88)"/>
<path d="M0 0 C1.17755859 -0.00773437 1.17755859 -0.00773437 2.37890625 -0.015625 C4.4375 0.25 4.4375 0.25 6.4375 2.25 C2.4775 2.25 -1.4825 2.25 -5.5625 2.25 C-5.2325 7.2 -4.9025 12.15 -4.5625 17.25 C-5.8825 17.58 -7.2025 17.91 -8.5625 18.25 C-8.8925 17.59 -9.2225 16.93 -9.5625 16.25 C-8.5725 16.25 -7.5825 16.25 -6.5625 16.25 C-6.8925 11.63 -7.2225 7.01 -7.5625 2.25 C-4.42838698 0.16059132 -3.58799528 -0.02364412 0 0 Z " fill="#A4DDE5" transform="translate(372.5625,46.75)"/>
<path d="M0 0 C-1.18810605 3.56431814 -1.94032675 3.81848033 -5.0625 5.6875 C-8.6218555 7.93045894 -11.34622665 10.27592772 -14.1875 13.375 C-17.56786051 16.93826579 -17.56786051 16.93826579 -21.5 17.5 C-22.325 17.335 -23.15 17.17 -24 17 C-23.42636719 16.57203125 -22.85273437 16.1440625 -22.26171875 15.703125 C-20.09559994 14.0719889 -17.95097943 12.41715701 -15.8125 10.75 C-15.03390625 10.14542969 -14.2553125 9.54085937 -13.453125 8.91796875 C-11.78958928 7.61733811 -10.13353264 6.3070952 -8.484375 4.98828125 C-7.28554687 4.03501953 -7.28554687 4.03501953 -6.0625 3.0625 C-5.33160156 2.47597656 -4.60070312 1.88945313 -3.84765625 1.28515625 C-2 0 -2 0 0 0 Z " fill="#DEF8FD" transform="translate(117,79)"/>
<path d="M0 0 C0.598125 0.78375 1.19625 1.5675 1.8125 2.375 C3.91085249 5.14574323 3.91085249 5.14574323 7 7 C9.76655324 7.14245897 12.42653306 7.18769445 15.1875 7.125 C16.31188477 7.11146484 16.31188477 7.11146484 17.45898438 7.09765625 C19.30612654 7.07412578 21.15310412 7.03825561 23 7 C19.7200492 10.2799508 15.47109634 9.55749446 11 9.75 C10.071875 9.80542969 9.14375 9.86085938 8.1875 9.91796875 C7.300625 9.96050781 6.41375 10.00304687 5.5 10.046875 C4.6853125 10.08651367 3.870625 10.12615234 3.03125 10.16699219 C1 10 1 10 -1 8 C-0.34 8 0.32 8 1 8 C0.67 5.36 0.34 2.72 0 0 Z " fill="#DBF4FD" transform="translate(65,92)"/>
<path d="M0 0 C0 3 0 3 -1.515625 5.171875 C-4.87203112 7.64168327 -7.75962949 7.44612407 -11.75 7.25 C-12.44738281 7.23195313 -13.14476562 7.21390625 -13.86328125 7.1953125 C-15.57611539 7.14838554 -17.28823824 7.07664605 -19 7 C-19 6.34 -19 5.68 -19 5 C-18.21496094 4.97421875 -17.42992187 4.9484375 -16.62109375 4.921875 C-9.94281332 4.5613298 -5.49342308 3.87036626 0 0 Z " fill="#BEE6EB" transform="translate(251,71)"/>
<path d="M0 0 C4.29 0 8.58 0 13 0 C12.01 0.495 12.01 0.495 11 1 C11 1.99 11 2.98 11 4 C11.99 4.66 12.98 5.32 14 6 C6.57142857 5 6.57142857 5 3 4 C3 3.34 3 2.68 3 2 C2.01 2 1.02 2 0 2 C0 1.34 0 0.68 0 0 Z " fill="#90C02B" transform="translate(77,109)"/>
<path d="M0 0 C0.33 0 0.66 0 1 0 C1.08676908 4.12486838 1.14031295 8.24950384 1.1875 12.375 C1.22520508 14.1384375 1.22520508 14.1384375 1.26367188 15.9375 C1.27817383 17.61972656 1.27817383 17.61972656 1.29296875 19.3359375 C1.31653442 20.89127197 1.31653442 20.89127197 1.34057617 22.47802734 C1.17199097 23.72640381 1.17199097 23.72640381 1 25 C-2.8503105 27.56687367 -4.58569763 26.83288724 -9 26 C-9 25.67 -9 25.34 -9 25 C-6.03 24.34 -3.06 23.68 0 23 C0 15.41 0 7.82 0 0 Z " fill="#F0FEFF" transform="translate(379,63)"/>
<path d="M0 0 C4.32046898 1.41680244 7.00461199 3.53763785 10.3125 6.625 C11.19550781 7.44226563 12.07851562 8.25953125 12.98828125 9.1015625 C13.65214844 9.72804688 14.31601563 10.35453125 15 11 C14.67 11.66 14.34 12.32 14 13 C12.02 11.35 10.04 9.7 8 8 C8.33 8.99 8.66 9.98 9 11 C7.68 11 6.36 11 5 11 C4.87625 9.39125 4.87625 9.39125 4.75 7.75 C3.94523098 3.7261549 3.12270126 2.51830747 0 0 Z " fill="#42B7E0" transform="translate(123,20)"/>
<path d="M0 0 C0.33 0 0.66 0 1 0 C1.00410889 0.57854736 1.00821777 1.15709473 1.01245117 1.75317383 C1.05284004 17.59512279 1.05284004 17.59512279 7 32 C6.34 32 5.68 32 5 32 C1.40479469 27.0974473 -0.13101657 23.7139995 -0.09765625 17.67578125 C-0.09443359 16.64775391 -0.09121094 15.61972656 -0.08789062 14.56054688 C-0.07951172 13.48869141 -0.07113281 12.41683594 -0.0625 11.3125 C-0.05798828 10.22904297 -0.05347656 9.14558594 -0.04882812 8.02929688 C-0.03703743 5.35280915 -0.02058063 2.67643223 0 0 Z " fill="#E4FCFE" transform="translate(56,69)"/>
<path d="M0 0 C1.175625 0.185625 2.35125 0.37125 3.5625 0.5625 C7.61268594 1.08230996 10.99874453 0.7502354 15 0 C14.67 1.32 14.34 2.64 14 4 C10.01803543 5.05404945 7.01804691 4.84098656 3 4 C3 3.34 3 2.68 3 2 C2.01 2 1.02 2 0 2 C0 1.34 0 0.68 0 0 Z " fill="#ACDFE3" transform="translate(399,76)"/>
<path d="M0 0 C0.66 0.33 1.32 0.66 2 1 C1.401875 1.66 0.80375 2.32 0.1875 3 C-2.42425831 6.58183997 -3.58094144 9.81377726 -5 14 C-5.99 14 -6.98 14 -8 14 C-8.66 15.32 -9.32 16.64 -10 18 C-9.52382405 12.97783177 -8.05066382 10.16970581 -5 6.1875 C-4.278125 5.23230469 -3.55625 4.27710938 -2.8125 3.29296875 C-1 1 -1 1 0 0 Z " fill="#49BFE2" transform="translate(60,29)"/>
<path d="M0 0 C3.33816934 5.00725401 3.1824921 9.60068794 3.1875 15.5 C3.19974609 16.25925781 3.21199219 17.01851562 3.22460938 17.80078125 C3.23479204 21.6769826 3.20641411 24.72090235 1 28 C1 26.68 1 25.36 1 24 C-0.32 23.67 -1.64 23.34 -3 23 C-1.68 22.67 -0.36 22.34 1 22 C1.10331031 14.57313685 0.99862699 7.36487404 0 0 Z " fill="#4FBCD7" transform="translate(147,50)"/>
<path d="M0 0 C1.32 0.33 2.64 0.66 4 1 C5.19088986 6.38027025 6.2919519 11.45291384 6 17 C5.34 16.67 4.68 16.34 4 16 C3.53193355 13.66255706 3.17330206 11.30260921 2.875 8.9375 C2.70742188 7.64714844 2.53984375 6.35679688 2.3671875 5.02734375 C2.24601562 4.02832031 2.12484375 3.02929688 2 2 C0.35 2.66 -1.3 3.32 -3 4 C-2.01 2.68 -1.02 1.36 0 0 Z " fill="#96D0DD" transform="translate(290,72)"/>
<path d="M0 0 C1 2 1 2 0.375 5.3125 C-1.11939091 9.32018472 -2.80390733 11.22444584 -6 14 C-6.66 13.67 -7.32 13.34 -8 13 C-6.85605098 11.01974361 -5.70978896 9.04082322 -4.5625 7.0625 C-3.92441406 5.96035156 -3.28632812 4.85820313 -2.62890625 3.72265625 C-1 1 -1 1 0 0 Z " fill="#47ACD9" transform="translate(80,48)"/>
<path d="M0 0 C-1 3 -1 3 -3.75 4.75 C-7.18153369 6.06982065 -8.59670539 6.26408086 -12 5 C-12.33 4.34 -12.66 3.68 -13 3 C-11.906875 2.87625 -10.81375 2.7525 -9.6875 2.625 C-5.83012786 1.97120811 -3.84162005 0 0 0 Z " fill="#92C205" transform="translate(120,97)"/>
<path d="M0 0 C1.65 0 3.3 0 5 0 C5 0.99 5 1.98 5 3 C4.34 3 3.68 3 3 3 C3 2.34 3 1.68 3 1 C2.34 1 1.68 1 1 1 C0.34 2.32 -0.32 3.64 -1 5 C-3.3431213 4.74438677 -5.67843403 4.40729228 -8 4 C-8.33 3.34 -8.66 2.68 -9 2 C-3.375 0.875 -3.375 0.875 0 2 C0 1.34 0 0.68 0 0 Z " fill="#93C109" transform="translate(131,85)"/>
<path d="M0 0 C0.33 0.66 0.66 1.32 1 2 C0.06421005 4.35981813 -0.93347808 6.69631264 -2 9 C-2.33 9 -2.66 9 -3 9 C-3 7.35 -3 5.7 -3 4 C-7.95 4 -12.9 4 -18 4 C-18 3.67 -18 3.34 -18 3 C-17.03578125 2.95101562 -16.0715625 2.90203125 -15.078125 2.8515625 C-13.81484375 2.77679688 -12.5515625 2.70203125 -11.25 2.625 C-9.99703125 2.55539063 -8.7440625 2.48578125 -7.453125 2.4140625 C-4.39001879 2.04676696 -2.58025734 1.60288714 0 0 Z " fill="#9DCA83" transform="translate(147,79)"/>
<path d="M0 0 C1.4783226 2.95664519 1.06032783 5.74229737 1 9 C-1.31 8.67 -3.62 8.34 -6 8 C-6 7.67 -6 7.34 -6 7 C-4.35 7 -2.7 7 -1 7 C-1 5.35 -1 3.7 -1 2 C-4.3 2 -7.6 2 -11 2 C-11 1.67 -11 1.34 -11 1 C-3.375 0 -3.375 0 0 0 Z " fill="#A3E3E9" transform="translate(413,63)"/>
<path d="M0 0 C0.99 0 1.98 0 3 0 C1.62815653 4.06498881 -0.22068459 6.67396561 -3.125 9.8125 C-3.84945312 10.60269531 -4.57390625 11.39289063 -5.3203125 12.20703125 C-5.87460938 12.79871094 -6.42890625 13.39039062 -7 14 C-7 10.2719778 -5.62685405 9.26024539 -3.24609375 6.5625 C-1.6336066 4.54057254 -0.79187918 2.44762655 0 0 Z " fill="#76C688" transform="translate(140,90)"/>
<path d="M0 0 C3.87852028 0.32868816 5.70415762 0.85562981 8.6875 3.3125 C9.5 5.5 9.5 5.5 9.6875 7.3125 C8.3675 6.6525 7.0475 5.9925 5.6875 5.3125 C5.6875 4.3225 5.6875 3.3325 5.6875 2.3125 C2.0575 2.3125 -1.5725 2.3125 -5.3125 2.3125 C-3.3125 0.3125 -3.3125 0.3125 0 0 Z " fill="#9FD6E2" transform="translate(347.3125,46.6875)"/>
<path d="M0 0 C2 1.8125 2 1.8125 4 4 C4 4.99 4 5.98 4 7 C1.03 6.67 -1.94 6.34 -5 6 C-3.35 4.02 -1.7 2.04 0 0 Z " fill="#9ABF39" transform="translate(111,92)"/>
<path d="M0 0 C1.44207941 2.88415883 1.09394887 5.41721528 1.0625 8.625 C1.05347656 9.81351563 1.04445312 11.00203125 1.03515625 12.2265625 C1.02355469 13.14179687 1.01195312 14.05703125 1 15 C0.67 15 0.34 15 0 15 C0 11.7 0 8.4 0 5 C-0.66 5 -1.32 5 -2 5 C-2 4.34 -2 3.68 -2 3 C-3.32 2.67 -4.64 2.34 -6 2 C-3 0 -3 0 0 0 Z " fill="#9DD6DC" transform="translate(213,71)"/>
<path d="M0 0 C0.99 0 1.98 0 3 0 C3 4.95 3 9.9 3 15 C2.67 15 2.34 15 2 15 C2 11.37 2 7.74 2 4 C0.35 4 -1.3 4 -3 4 C-1.6875 2 -1.6875 2 0 0 Z " fill="#D6F4F6" transform="translate(417,72)"/>
<path d="M0 0 C-2.64212589 1.76141726 -5.2427764 3.23818698 -8.0625 4.6875 C-8.94035156 5.14511719 -9.81820312 5.60273437 -10.72265625 6.07421875 C-11.47417969 6.37972656 -12.22570312 6.68523437 -13 7 C-13.66 6.67 -14.32 6.34 -15 6 C-14.34 5.01 -13.68 4.02 -13 3 C-12.01 3 -11.02 3 -10 3 C-10 2.34 -10 1.68 -10 1 C-6.59437148 0.22157062 -3.49234244 -0.09978121 0 0 Z " fill="#53AAD3" transform="translate(127,74)"/>
<path d="M0 0 C0.99 0.33 1.98 0.66 3 1 C3 1.66 3 2.32 3 3 C1.68 3 0.36 3 -1 3 C-1.66 4.32 -2.32 5.64 -3 7 C-3.99 6.67 -4.98 6.34 -6 6 C-6 5.01 -6 4.02 -6 3 C-4.68 3 -3.36 3 -2 3 C-2 2.34 -2 1.68 -2 1 C-1.34 0.67 -0.68 0.34 0 0 Z " fill="#93C012" transform="translate(118,89)"/>
<path d="M0 0 C2 1 2 1 3.1875 4.1875 C3.99163947 7.96076983 3.90372567 10.29472477 3 14 C2.67 14 2.34 14 2 14 C0.4087311 9.126739 -0.21192221 5.19209404 0 0 Z " fill="#17ACE4" transform="translate(52,52)"/>
<path d="M0 0 C3.53790403 3.69172595 3.59115883 7.09390595 4 12 C3.01 12.495 3.01 12.495 2 13 C1.66307215 11.39658445 1.33058907 9.79223445 1 8.1875 C0.814375 7.29417969 0.62875 6.40085937 0.4375 5.48046875 C0 3 0 3 0 0 Z " fill="#3CB3DA" transform="translate(143,40)"/>
<path d="M0 0 C2.64 0 5.28 0 8 0 C4.67692308 3.93846154 4.67692308 3.93846154 1.25 4.25 C0.5075 4.1675 -0.235 4.085 -1 4 C-0.67 2.68 -0.34 1.36 0 0 Z " fill="#41ABDC" transform="translate(96,88)"/>
<path d="M0 0 C3.33773709 3.64116773 3.97864902 7.28607242 5 12 C1.66442368 9.0094833 -0.15083921 6.06815373 -2 2 C-1.34 2 -0.68 2 0 2 C0 1.34 0 0.68 0 0 Z " fill="#C1E2E6" transform="translate(360,71)"/>
<path d="M0 0 C-9 6 -9 6 -12 6 C-12 5.34 -12 4.68 -12 4 C-11.34 4 -10.68 4 -10 4 C-9.67 3.01 -9.34 2.02 -9 1 C-5.8035914 -0.06546953 -3.34252724 -0.07427838 0 0 Z " fill="#54A8D5" transform="translate(87,25)"/>
<path d="M0 0 C1.051875 0.433125 1.051875 0.433125 2.125 0.875 C5.05452503 2.02133588 8.00921653 3.02625654 11 4 C10.01 4.495 10.01 4.495 9 5 C9 5.66 9 6.32 9 7 C4.58110387 5.64978174 2.65654657 3.73884332 0 0 Z " fill="#87C294" transform="translate(61,101)"/>
<path d="M0 0 C0.33 0 0.66 0 1 0 C0.45144652 4.571279 -0.41744803 8.67435795 -2 13 C-2.66 13 -3.32 13 -4 13 C-3.40895235 8.15340923 -2.02055843 4.39251833 0 0 Z " fill="#55ACD4" transform="translate(71,63)"/>
<path d="M0 0 C0 0.99 0 1.98 0 3 C-0.99 3.33 -1.98 3.66 -3 4 C-3.33 4.66 -3.66 5.32 -4 6 C-4.66 6 -5.32 6 -6 6 C-6 5.34 -6 4.68 -6 4 C-6.66 3.67 -7.32 3.34 -8 3 C-4.93882432 0.37613513 -4.26826873 0 0 0 Z " fill="#2AA9E1" transform="translate(94,40)"/>
<path d="M0 0 C0.33 0 0.66 0 1 0 C1.33 4.29 1.66 8.58 2 13 C0.35 13.33 -1.3 13.66 -3 14 C-3.33 13.34 -3.66 12.68 -4 12 C-2.68 12 -1.36 12 0 12 C0 8.04 0 4.08 0 0 Z " fill="#98DCE4" transform="translate(290,49)"/>
<path d="M0 0 C-0.33 0.99 -0.66 1.98 -1 3 C-4.375 3.625 -4.375 3.625 -8 4 C-8.66 3.34 -9.32 2.68 -10 2 C-3.375 0 -3.375 0 0 0 Z " fill="#BAE7EC" transform="translate(380,86)"/>
<path d="M0 0 C-2.64 1.98 -5.28 3.96 -8 6 C-7.39816251 3.97954558 -6.72693904 1.97888961 -6 0 C-4 -1 -4 -1 0 0 Z " fill="#4AAAD4" transform="translate(112,82)"/>
<path d="M0 0 C5.75 1.75 5.75 1.75 8 4 C1.25 4.125 1.25 4.125 -1 3 C-0.67 2.01 -0.34 1.02 0 0 Z " fill="#46B3DA" transform="translate(115,16)"/>
<path d="M0 0 C-0.33 1.32 -0.66 2.64 -1 4 C-2.32 4 -3.64 4 -5 4 C-5.33 2.68 -5.66 1.36 -6 0 C-3.50907189 -1.24546405 -2.58919267 -0.7767578 0 0 Z " fill="#20ACDE" transform="translate(105,84)"/>
<path d="M0 0 C2.33944736 0.28730055 4.6739143 0.61936779 7 1 C6.67 1.66 6.34 2.32 6 3 C4.02 3 2.04 3 0 3 C-0.33 4.32 -0.66 5.64 -1 7 C-1.04254356 5.00045254 -1.04080783 2.99958364 -1 1 C-0.67 0.67 -0.34 0.34 0 0 Z " fill="#C1E8E9" transform="translate(271,68)"/>
<path d="M0 0 C1.32 0 2.64 0 4 0 C4 2.64 4 5.28 4 8 C3.34 8 2.68 8 2 8 C2 6.02 2 4.04 2 2 C1.34 2 0.68 2 0 2 C0 1.34 0 0.68 0 0 Z " fill="#1DAAE6" transform="translate(96,40)"/>
<path d="M0 0 C0.66 0.33 1.32 0.66 2 1 C-0.475 5.455 -0.475 5.455 -3 10 C-3.33 10 -3.66 10 -4 10 C-4.41176754 6.39703406 -4.1535853 5.21597933 -2 2.1875 C-1.34 1.465625 -0.68 0.74375 0 0 Z " fill="#58AAD3" transform="translate(65,40)"/>
<path d="M0 0 C0.99 0 1.98 0 3 0 C2.34 4.29 1.68 8.58 1 13 C0.67 13 0.34 13 0 13 C0 8.71 0 4.42 0 0 Z " fill="#D7F5F8" transform="translate(257,48)"/>
<path d="M0 0 C0.66 0.33 1.32 0.66 2 1 C0.12050295 4.57104439 -1.17053157 6.54744301 -5 8 C-3.8141763 4.62496331 -2.72426311 2.35277269 0 0 Z " fill="#A8DAE7" transform="translate(180,52)"/>
<path d="M0 0 C1.40253926 4.20761779 -0.09397469 6.11735584 -2 10 C-2.66 10.66 -3.32 11.32 -4 12 C-3.33501617 7.61110675 -1.81242323 4.0188515 0 0 Z " fill="#D2F4FC" transform="translate(116,43)"/>
<path d="M0 0 C1.65 0 3.3 0 5 0 C3.35 1.98 1.7 3.96 0 6 C-1.24546405 3.50907189 -0.7767578 2.58919267 0 0 Z " fill="#ECFAD5" transform="translate(108,90)"/>
<path d="M0 0 C3.625 -0.1875 3.625 -0.1875 7 0 C4.23776722 2.76223278 1.79293383 2.57856291 -2 3 C-1.34 2.01 -0.68 1.02 0 0 Z " fill="#19ABE5" transform="translate(126,70)"/>
<path d="M0 0 C1.32 0.66 2.64 1.32 4 2 C2.68 2.33 1.36 2.66 0 3 C-0.33 4.65 -0.66 6.3 -1 8 C-1.33 8 -1.66 8 -2 8 C-2 6.02 -2 4.04 -2 2 C-1.34 2 -0.68 2 0 2 C0 1.34 0 0.68 0 0 Z " fill="#A9D9E1" transform="translate(191,59)"/>
<path d="M0 0 C0 0.99 0 1.98 0 3 C-2.66666667 1.66666667 -5.33333333 0.33333333 -8 -1 C-4.59745511 -2.2151946 -3.06748874 -1.86240388 0 0 Z " fill="#58ACD6" transform="translate(116,29)"/>
<path d="M0 0 C-3.85756507 2.15305957 -6.55129785 3.39253254 -11 3 C-7.18178484 -0.02823961 -4.81391924 -1.49397494 0 0 Z " fill="#CEF3FD" transform="translate(91,26)"/>
</svg>
