<?xml version="1.0" encoding="UTF-8"?>
<svg version="1.1" xmlns="http://www.w3.org/2000/svg" width="502" height="192">
<path d="M0 0 C12.29777278 10.47657589 20.91158096 24.76936042 23.18359375 40.8671875 C23.95672649 51.44902171 24.00306173 61.8472845 20.18359375 71.8671875 C19.91675781 72.68960938 19.64992188 73.51203125 19.375 74.359375 C16.89635312 81.43178077 12.78723926 87.01372417 8.18359375 92.8671875 C7.55324219 93.70765625 6.92289062 94.548125 6.2734375 95.4140625 C-3.94426025 107.40792079 -19.54133641 113.78501876 -34.81640625 115.8671875 C-53.40413714 117.32914386 -71.18467421 111.68146141 -85.44140625 99.65234375 C-98.08651301 87.75900401 -105.85028193 71.95226313 -107.0390625 54.62109375 C-107.50240648 36.55067841 -101.78967964 19.76141079 -89.92578125 6.03515625 C-65.36435776 -19.208529 -27.71077733 -20.9848605 0 0 Z " fill="#F9F9EC" transform="translate(139.81640625,51.1328125)"/>
<path d="M0 0 C6.625 0.75 6.625 0.75 10 3 C12.38558677 2.68192176 14.2825264 1.87992628 16.5 0.9375 C19 0 19 0 23 0 C23 0.99 23 1.98 23 3 C22.01 3.33 21.02 3.66 20 4 C21.32 4.33 22.64 4.66 24 5 C24.495 6.98 24.495 6.98 25 9 C28.3 9 31.6 9 35 9 C35.07654536 13.51617599 35.10228696 17.59085217 34 22 C33.34 22 32.68 22 32 22 C32.8604139 26.33229715 32.8604139 26.33229715 35 30 C35.04063832 31.66617115 35.042721 33.33388095 35 35 C34.37351563 35.06058594 33.74703125 35.12117188 33.1015625 35.18359375 C32.28429687 35.26738281 31.46703125 35.35117188 30.625 35.4375 C29.81289062 35.51871094 29.00078125 35.59992188 28.1640625 35.68359375 C25.95727195 35.89090114 25.95727195 35.89090114 24 37 C24.20625 37.66 24.4125 38.32 24.625 39 C25.13703763 43.09630108 24.14033701 46.04235979 23 50 C22.67 49.34 22.34 48.68 22 48 C20.9171875 48.1546875 20.9171875 48.1546875 19.8125 48.3125 C15.87958411 47.87550935 14.53678077 45.89917803 12 43 C11.40832031 43.22816406 10.81664063 43.45632812 10.20703125 43.69140625 C2.35852373 46.54657293 2.35852373 46.54657293 -2 45 C-2.33 43.02 -2.66 41.04 -3 39 C-4.32 38.67 -5.64 38.34 -7 38 C-7 37.01 -7 36.02 -7 35 C-5.68 35 -4.36 35 -3 35 C-3.99 34.67 -4.98 34.34 -6 34 C-6.20140476 30.37471432 -5.85776765 28.13498292 -4 25 C-7.0916909 27.52956528 -7.90931332 30.22454612 -9 34 C-9.66 34 -10.32 34 -11 34 C-11.18585272 29.91124013 -10.80145306 27.60290612 -9 24 C-9.33940736 21.69202999 -9.95755231 20.08489539 -11 18 C-11.039992 16.00039988 -11.04346799 13.99952758 -11 12 C-10.34 12 -9.68 12 -9 12 C-8.4121875 13.85625 -8.4121875 13.85625 -7.8125 15.75 C-5.90994824 20.80560702 -3.18950669 22.9816248 1.6875 25.25 C3.91189406 26.1028349 3.91189406 26.1028349 6 26 C5.02729399 22.28603159 3.87368181 19.623838 1.375 16.75 C-1 14 -1 14 -1 12 C1 13 3 14 5 15 C5.33 13.68 5.66 12.36 6 11 C4.02 10.01 2.04 9.02 0 8 C0 7.01 0 6.02 0 5 C2.97 5.99 5.94 6.98 9 8 C6.16569547 4.7457985 4.31392226 3.4793247 0 3 C0 2.01 0 1.02 0 0 Z " fill="#FDF9DC" transform="translate(87,65)"/>
<path d="M0 0 C3.96 0 7.92 0 12 0 C12.44653931 1.30988892 12.44653931 1.30988892 12.90209961 2.64624023 C14.00490624 5.87670347 15.11031797 9.10625018 16.2175293 12.33520508 C16.69677318 13.73458422 17.1749668 15.13432349 17.65209961 16.53442383 C18.33693985 18.54343077 19.02551057 20.5511247 19.71484375 22.55859375 C20.12855225 23.76829834 20.54226074 24.97800293 20.96850586 26.22436523 C21.73313712 28.87196983 21.73313712 28.87196983 23 30 C23.29769287 29.12674072 23.59538574 28.25348145 23.90209961 27.35375977 C25.00490624 24.12329653 26.11031797 20.89374982 27.2175293 17.66479492 C27.69677318 16.26541578 28.1749668 14.86567651 28.65209961 13.46557617 C29.33693985 11.45656923 30.02551057 9.4488753 30.71484375 7.44140625 C31.33540649 5.62684937 31.33540649 5.62684937 31.96850586 3.77563477 C33 1 33 1 34 0 C37.63 0 41.26 0 45 0 C45 14.52 45 29.04 45 44 C42.36 44 39.72 44 37 44 C36.505 31.13 36.505 31.13 36 18 C33.03 26.58 30.06 35.16 27 44 C24.03 44 21.06 44 18 44 C15.03 35.75 12.06 27.5 9 19 C8.67 27.25 8.34 35.5 8 44 C5.36 44 2.72 44 0 44 C0 29.48 0 14.96 0 0 Z " fill="#F1F1F1" transform="translate(230,82)"/>
<path d="M0 0 C2.15217802 2.37872307 3.14192151 3.47844036 3.375 6.625 C-1.25 9.625 -1.25 9.625 -4.625 9.625 C-5.140625 8.965 -5.65625 8.305 -6.1875 7.625 C-9.53073466 4.8818331 -12.05522516 5.0648908 -16.27734375 5.2265625 C-18.82645573 5.4791923 -18.82645573 5.4791923 -21.1875 7.5 C-23.77535572 11.32552585 -23.78825179 13.80609254 -23.8125 18.4375 C-23.83376953 20.27248047 -23.83376953 20.27248047 -23.85546875 22.14453125 C-23.63175093 25.52304957 -23.29321042 27.69379115 -21.625 30.625 C-18.70022394 32.74079545 -16.5167515 32.82194501 -13 32.375 C-12.22398437 32.28734375 -11.44796875 32.1996875 -10.6484375 32.109375 C-8.41174973 31.76045643 -8.41174973 31.76045643 -6.625 29.625 C-6.22735737 27.63678687 -5.88724651 25.63555661 -5.625 23.625 C-8.925 23.625 -12.225 23.625 -15.625 23.625 C-15.625 21.315 -15.625 19.005 -15.625 16.625 C-9.355 16.625 -3.085 16.625 3.375 16.625 C4.38544795 19.65634384 4.42532949 21.36895943 4.25390625 24.51171875 C4.20556641 25.44951172 4.15722656 26.38730469 4.10742188 27.35351562 C4.05134766 28.32998047 3.99527344 29.30644531 3.9375 30.3125 C3.88529297 31.30056641 3.83308594 32.28863281 3.77929688 33.30664062 C3.64964694 35.74641676 3.51468258 38.18578105 3.375 40.625 C2.09625 40.686875 0.8175 40.74875 -0.5 40.8125 C-1.57894531 40.86470703 -1.57894531 40.86470703 -2.6796875 40.91796875 C-3.32164062 40.82128906 -3.96359375 40.72460938 -4.625 40.625 C-5.285 39.635 -5.945 38.645 -6.625 37.625 C-7.058125 38.099375 -7.49125 38.57375 -7.9375 39.0625 C-10.99288115 41.89155662 -14.39863571 41.96922151 -18.43359375 41.90234375 C-23.74219114 41.23048918 -27.54543526 38.87502233 -31 34.875 C-35.09689571 26.68120858 -35.71490863 18.39896579 -33.625 9.5 C-31.7682291 3.92968731 -28.61323068 0.6389047 -23.625 -2.375 C-16.19729438 -5.64753575 -6.51683452 -5.04781187 0 0 Z " fill="#EBEBEB" transform="translate(216.625,85.375)"/>
<path d="M0 0 C4.1837981 1.44625119 6.49216434 3.23005561 8.9375 6.9375 C11.19430122 13.41353827 10.95466485 21.13600546 8.8125 27.5625 C6.35731164 30.86430503 3.68011621 33.15994189 0 35 C-5.55142419 35.41897541 -6.9712235 35.0172659 -12 32 C-12.33 37.28 -12.66 42.56 -13 48 C-15.97 48 -18.94 48 -22 48 C-22 32.49 -22 16.98 -22 1 C-19.03 1 -16.06 1 -13 1 C-12.67 1.66 -12.34 2.32 -12 3 C-11.319375 2.505 -10.63875 2.01 -9.9375 1.5 C-6.24107205 -0.38753767 -4.1150616 -0.49664537 0 0 Z M-11.375 9.9375 C-13.5676283 14.06976102 -13.81269577 17.41407385 -13 22 C-11.58329289 25.14849606 -11.58329289 25.14849606 -9 27 C-5.95720628 27.66680368 -5.95720628 27.66680368 -3 27 C-0.96332385 25.45493534 -0.13926922 24.27853844 1 22 C1.54276964 17.47098776 1.53598336 14.01012248 -0.625 9.9375 C-2.89564705 7.7813388 -2.89564705 7.7813388 -6 7.375 C-9.10435295 7.7813388 -9.10435295 7.7813388 -11.375 9.9375 Z " fill="#E8E8E8" transform="translate(450,92)"/>
<path d="M0 0 C1.375 2.75 1.375 2.75 2 5 C-3.75 9 -3.75 9 -6 9 C-6.680625 8.175 -7.36125 7.35 -8.0625 6.5 C-11.61635694 3.4754409 -13.32905214 3.46903365 -17.81640625 3.53125 C-20.62658901 4.13450927 -21.97283871 4.95532543 -24 7 C-26.32196639 13.81446657 -26.55781758 20.30095395 -24 27 C-23.01951062 29.06402685 -23.01951062 29.06402685 -21 30 C-15.44776449 31.25568603 -15.44776449 31.25568603 -10.125 29.8125 C-7.97192355 27.97605244 -6.99543855 26.624338 -6 24 C-0.25 24.875 -0.25 24.875 2 26 C2 29.34388731 1.53407812 31.39870381 -0.70703125 33.921875 C-6.24478786 38.89455441 -10.15034133 40.38718604 -17.55859375 40.27734375 C-23.16280473 39.64070538 -28.15238997 37.34301118 -31.9375 33.125 C-36.73608022 25.85442391 -36.63117605 18.46170391 -36 10 C-34.86979391 4.82577524 -32.02681139 1.37128395 -28 -2 C-18.89059258 -7.42688101 -8.18885922 -7.16525182 0 0 Z " fill="#E5E5E5" transform="translate(356,87)"/>
<path d="M0 0 C3.51873918 3.31922304 5.80059211 6.55725336 6.203125 11.48828125 C6.29566383 17.06374548 6.35576823 21.30192448 3 26 C-1.02707942 30.03808237 -4.55880749 32.13075249 -10.3125 32.25 C-15.67237284 32.18039126 -19.08272811 30.54446903 -23.25 27.1875 C-26.82303425 22.72120719 -27.44647278 17.87976045 -27.32421875 12.3125 C-26.5863636 7.04972589 -23.97654395 2.4908592 -20 -1 C-12.84425749 -4.08997972 -6.80988397 -3.78326887 0 0 Z M-15.875 6.5625 C-17.61971781 10.34272191 -18.62636159 13.8627527 -17.421875 17.97265625 C-16.10197268 21.22899959 -16.10197268 21.22899959 -14 24 C-10.62642666 24.50070321 -10.62642666 24.50070321 -7 24 C-4.43926804 21.89888659 -3.24150688 20.36122061 -2.65625 17.0625 C-2.45151006 12.55822126 -3.21831639 9.67182236 -6 6 C-7.16475062 4.62228238 -7.16475062 4.62228238 -10.375 4.6875 C-13.93942554 4.64672538 -13.93942554 4.64672538 -15.875 6.5625 Z " fill="#E6E6E6" transform="translate(389,95)"/>
<path d="M0 0 C11.22 0 22.44 0 34 0 C34 2.64 34 5.28 34 8 C30.04 8 26.08 8 22 8 C22.00785522 9.47593628 22.00785522 9.47593628 22.01586914 10.98168945 C22.03397029 14.63255911 22.04545075 18.28342479 22.05493164 21.93432617 C22.05996014 23.51441108 22.06678378 25.09449134 22.07543945 26.67456055 C22.08756992 28.94581246 22.09324313 31.21700285 22.09765625 33.48828125 C22.10281754 34.19463211 22.10797882 34.90098297 22.11329651 35.6287384 C22.11364803 38.70254391 21.9803186 41.0590442 21 44 C18.03 44 15.06 44 12 44 C12 32.12 12 20.24 12 8 C8.04 8 4.08 8 0 8 C0 5.36 0 2.72 0 0 Z " fill="#E9E9E9" transform="translate(282,82)"/>
<path d="M0 0 C0.86625 0.391875 1.7325 0.78375 2.625 1.1875 C1.965 3.4975 1.305 5.8075 0.625 8.1875 C-0.468125 8.249375 -1.56125 8.31125 -2.6875 8.375 C-6.37986516 8.80508178 -6.37986516 8.80508178 -8.0625 11.125 C-9.89752843 15.40673301 -9.94204345 19.3847935 -10.0625 24 C-10.09666016 24.88365234 -10.13082031 25.76730469 -10.16601562 26.67773438 C-10.24810433 28.84722167 -10.31323879 31.0173389 -10.375 33.1875 C-13.345 33.1875 -16.315 33.1875 -19.375 33.1875 C-19.375 22.2975 -19.375 11.4075 -19.375 0.1875 C-16.405 0.1875 -13.435 0.1875 -10.375 0.1875 C-10.045 0.8475 -9.715 1.5075 -9.375 2.1875 C-8.50875 1.65125 -7.6425 1.115 -6.75 0.5625 C-3.375 -0.8125 -3.375 -0.8125 0 0 Z " fill="#E5E5E5" transform="translate(421.375,92.8125)"/>
<path d="M0 0 C2.875 -0.1875 2.875 -0.1875 6 0 C6.66 0.99 7.32 1.98 8 3 C5.69 2.67 3.38 2.34 1 2 C1 2.99 1 3.98 1 5 C2.11375 5.0825 3.2275 5.165 4.375 5.25 C5.57125 5.4975 6.7675 5.745 8 6 C8.66 7.32 9.32 8.64 10 10 C7.03 9.01 4.06 8.02 1 7 C1 7.99 1 8.98 1 10 C1.78375 10.103125 2.5675 10.20625 3.375 10.3125 C6 11 6 11 8 14 C7.01 15.485 7.01 15.485 6 17 C4 16 2 15 0 14 C2.5363513 18.06049765 2.5363513 18.06049765 5.75 21.5625 C7 23 7 23 7.1875 25.6875 C7.0946875 26.8321875 7.0946875 26.8321875 7 28 C4 29 4 29 2.09765625 28.21484375 C-2.42467103 25.37645407 -5.50636542 22.88336771 -8 18 C-8 16.68 -8 15.36 -8 14 C-8.66 14 -9.32 14 -10 14 C-9.5359375 15.85625 -9.5359375 15.85625 -9.0625 17.75 C-8.70833333 19.16666667 -8.35416667 20.58333333 -8 22 C-7.79503906 22.70898438 -7.59007813 23.41796875 -7.37890625 24.1484375 C-6.85855383 26.69119058 -7.80022094 27.73375067 -9 30 C-9.38290462 31.99110401 -9.72604615 33.99100513 -10 36 C-9.34 36 -8.68 36 -8 36 C-7.87625 35.071875 -7.7525 34.14375 -7.625 33.1875 C-7 30 -7 30 -5 27 C-4.34 27 -3.68 27 -3 27 C-3.66 29.97 -4.32 32.94 -5 36 C-3.515 35.505 -3.515 35.505 -2 35 C-2 35.66 -2 36.32 -2 37 C-4.97 37 -7.94 37 -11 37 C-11 28.42 -11 19.84 -11 11 C-7.7 11 -4.4 11 -1 11 C-1.020625 9.55625 -1.04125 8.1125 -1.0625 6.625 C-1.125 2.25 -1.125 2.25 0 0 Z " fill="#FAF3CE" transform="translate(86,63)"/>
<path d="M0 0 C6.625 0.75 6.625 0.75 10 3 C12.38558677 2.68192176 14.2825264 1.87992628 16.5 0.9375 C19 0 19 0 23 0 C23 0.99 23 1.98 23 3 C22.01 3.33 21.02 3.66 20 4 C20.99 4 21.98 4 23 4 C23 4.99 23 5.98 23 7 C21.35546875 8.17578125 21.35546875 8.17578125 19.1875 9.3125 C15.96751236 11.16694315 15.14334553 11.69539075 13.5 15.1875 C12 18 12 18 10.05078125 18.82421875 C8.05564467 19.31516859 6.02758908 19.66760835 4 20 C-1 14.25 -1 14.25 -1 12 C1 13 3 14 5 15 C5.33 13.68 5.66 12.36 6 11 C4.02 10.01 2.04 9.02 0 8 C0 7.01 0 6.02 0 5 C2.97 5.99 5.94 6.98 9 8 C6.16569547 4.7457985 4.31392226 3.4793247 0 3 C0 2.01 0 1.02 0 0 Z " fill="#F9E9B0" transform="translate(87,65)"/>
<path d="M0 0 C4.93724857 0.76280071 7.36499067 2.52654664 11 6 C12.75670469 8.71490725 13 9.71434047 13 13 C9.8125 13.8125 9.8125 13.8125 6 14 C3.0625 11.5625 3.0625 11.5625 1 9 C1 10.98 1 12.96 1 15 C2.98 15.66 4.96 16.32 7 17 C7 17.99 7 18.98 7 20 C6.071875 19.835 5.14375 19.67 4.1875 19.5 C1.04378647 18.92251612 1.04378647 18.92251612 -2 19 C1.18762365 21.12508244 3.26512223 21.5020163 7 22 C7 22.99 7 23.98 7 25 C-0.51713062 24.23554604 -0.51713062 24.23554604 -3.5625 22.75 C-7.30163239 21.59949773 -9.59019034 23.35823979 -13 25 C-13.99 25 -14.98 25 -16 25 C-16 24.01 -16 23.02 -16 22 C-15.40832031 21.87625 -14.81664063 21.7525 -14.20703125 21.625 C-9.77198868 20.46740324 -6.70073074 19.37788132 -4.0625 15.5 C-1.4347494 10.643192 -0.66841314 5.42711567 0 0 Z " fill="#D3AB51" transform="translate(103,86)"/>
<path d="M0 0 C0.66 0 1.32 0 2 0 C2.391875 1.2375 2.78375 2.475 3.1875 3.75 C5.94962918 10.9264909 11.75328375 13.01091506 18.37890625 16.14453125 C21.14974835 17.04887465 22.32290096 17.02674622 25 16 C23.33234495 21.15457015 20.47148882 25.40080135 15.875 28.375 C14 29 14 29 11 29 C11.33 27.35 11.66 25.7 12 24 C11.34 24 10.68 24 10 24 C10 23.01 10 22.02 10 21 C10.639375 20.71125 11.27875 20.4225 11.9375 20.125 C14.15206079 19.17176549 14.15206079 19.17176549 15 17 C12.05908413 17.18415432 12.05908413 17.18415432 9 18 C7.56362302 19.95163118 7.56362302 19.95163118 7 22 C6.34 22 5.68 22 5 22 C4.79859524 18.37471432 5.14223235 16.13498292 7 13 C3.9083091 15.52956528 3.09068668 18.22454612 2 22 C1.34 22 0.68 22 0 22 C-0.18585272 17.91124013 0.19854694 15.60290612 2 12 C1.66059264 9.69202999 1.04244769 8.08489539 0 6 C-0.039992 4.00039988 -0.04346799 1.99952758 0 0 Z " fill="#F7E6AE" transform="translate(76,77)"/>
<path d="M0 0 C0 3 0 3 -2 5.1875 C-2.66 5.785625 -3.32 6.38375 -4 7 C-2.68 7 -1.36 7 0 7 C0.66 5.02 1.32 3.04 2 1 C3.32 1 4.64 1 6 1 C6.20140476 4.62528568 5.85776765 6.86501708 4 10 C6.89932357 7.60490662 7.50168276 5.68754757 8 2 C8.99 2 9.98 2 11 2 C10.234375 8.5078125 10.234375 8.5078125 8.75 11.625 C8.5025 12.40875 8.255 13.1925 8 14 C9.3553326 16.53673288 9.3553326 16.53673288 11 19 C11.1875 21.8125 11.1875 21.8125 11 24 C10.01 24 9.02 24 8 24 C7.84917969 23.12988281 7.84917969 23.12988281 7.6953125 22.2421875 C6.7452456 18.29875912 5.89832607 15.74630166 2.71484375 13.1015625 C-1.08755598 10.80556266 -4.62304747 8.89367012 -9 8 C-7.47364599 4.11473526 -4.49771687 0 0 0 Z " fill="#CCA74D" transform="translate(110,75)"/>
<path d="M0 0 C5.61198961 2.31562678 9.21691969 4.31787771 12 10 C12.25 12.875 12.25 12.875 12 15 C12.99 15 13.98 15 15 15 C15.33 13.68 15.66 12.36 16 11 C16 12.65 16 14.3 16 16 C15.37351562 16.06058594 14.74703125 16.12117188 14.1015625 16.18359375 C12.87566406 16.30927734 12.87566406 16.30927734 11.625 16.4375 C10.81289062 16.51871094 10.00078125 16.59992188 9.1640625 16.68359375 C6.95727195 16.89090114 6.95727195 16.89090114 5 18 C5.20625 18.66 5.4125 19.32 5.625 20 C6.13703763 24.09630108 5.14033701 27.04235979 4 31 C3.67 30.34 3.34 29.68 3 29 C1.824375 29.0928125 1.824375 29.0928125 0.625 29.1875 C-0.24125 29.125625 -1.1075 29.06375 -2 29 C-2.66 28.01 -3.32 27.02 -4 26 C-1.36 26.33 1.28 26.66 4 27 C4 26.01 4 25.02 4 24 C3.0925 24.0825 2.185 24.165 1.25 24.25 C-2 24 -2 24 -4.375 22 C-4.91125 21.34 -5.4475 20.68 -6 20 C-2.09567131 20 0.38026598 20.68373308 4 22 C4 21.01 4 20.02 4 19 C2.02 18.67 0.04 18.34 -2 18 C-3.04449911 14.86650268 -2.93423645 14.01031744 -2 11 C1.875 12.75 1.875 12.75 3 15 C3.598125 14.814375 4.19625 14.62875 4.8125 14.4375 C7 14 7 14 10 15 C7.24798141 8.23462097 4.50773014 5.28545599 -2 2 C-1.34 1.34 -0.68 0.68 0 0 Z " fill="#FCF4CF" transform="translate(106,84)"/>
<path d="M0 0 C0.99 0.33 1.98 0.66 3 1 C3 1.33 3 1.66 3 2 C6.3 2.33 9.6 2.66 13 3 C13 3.99 13 4.98 13 6 C12.01 6 11.02 6 10 6 C10 8.97 10 11.94 10 15 C9.34 15 8.68 15 8 15 C8 12.03 8 9.06 8 6 C6.68 6 5.36 6 4 6 C4 8.97 4 11.94 4 15 C3.01 15 2.02 15 1 15 C1 13.02 1 11.04 1 9 C0.21625 9.185625 -0.5675 9.37125 -1.375 9.5625 C-4 10 -4 10 -6 9 C-6 10.98 -6 12.96 -6 15 C-6.66 15 -7.32 15 -8 15 C-8 11.04 -8 7.08 -8 3 C-5.69 3.33 -3.38 3.66 -1 4 C-0.67 2.68 -0.34 1.36 0 0 Z " fill="#EDF0E8" transform="translate(102,113)"/>
<path d="M0 0 C0.66 1.32 1.32 2.64 2 4 C5.3 4 8.6 4 12 4 C12.07654536 8.51617599 12.10228696 12.59085217 11 17 C10.34 17 9.68 17 9 17 C8.67 17.99 8.34 18.98 8 20 C8 16.41936487 8.34407525 14.52512014 9.5 11.25 C9.7784375 10.45078125 10.056875 9.6515625 10.34375 8.828125 C10.5603125 8.22484375 10.776875 7.6215625 11 7 C10.01 7 9.02 7 8 7 C7.896875 8.11375 7.79375 9.2275 7.6875 10.375 C7.460625 11.57125 7.23375 12.7675 7 14 C6.01 14.66 5.02 15.32 4 16 C3.67 15.34 3.34 14.68 3 14 C3.66 13.01 4.32 12.02 5 11 C5.38499891 9.34450469 5.72793135 7.6777567 6 6 C4.68 6 3.36 6 2 6 C1.855625 6.61875 1.71125 7.2375 1.5625 7.875 C1 10 1 10 0 12 C-1.32 12 -2.64 12 -4 12 C-3.34 10.68 -2.68 9.36 -2 8 C-1.34 8 -0.68 8 0 8 C0 7.01 0 6.02 0 5 C-4.09107699 7.60013426 -4.09107699 7.60013426 -7.75 10.75 C-8.36875 11.36875 -8.36875 11.36875 -9 12 C-9.66 12 -10.32 12 -11 12 C-9.64908476 7.57882285 -7.8349855 5.556657 -4 3 C-1.6875 2.25 -1.6875 2.25 0 2 C0 1.34 0 0.68 0 0 Z " fill="#FCF4CA" transform="translate(110,70)"/>
<path d="M0 0 C6.625 0.75 6.625 0.75 10 3 C12.38558677 2.68192176 14.2825264 1.87992628 16.5 0.9375 C19 0 19 0 23 0 C23 0.99 23 1.98 23 3 C21.948125 3.2475 20.89625 3.495 19.8125 3.75 C16.139093 4.81862749 13.74229446 6.25770554 11 9 C9.95377125 10.97620986 8.94560065 12.9737129 8 15 C7.01 15.495 7.01 15.495 6 16 C6 14.35 6 12.7 6 11 C4.02 10.01 2.04 9.02 0 8 C0 7.01 0 6.02 0 5 C2.97 5.99 5.94 6.98 9 8 C6.16569547 4.7457985 4.31392226 3.4793247 0 3 C0 2.01 0 1.02 0 0 Z " fill="#CBA13F" transform="translate(87,65)"/>
<path d="M0 0 C4.92289989 0.43437352 7.48750825 2.643619 11 6 C12.75670469 8.71490725 13 9.71434047 13 13 C10.69 13.33 8.38 13.66 6 14 C5.5875 13.38125 5.175 12.7625 4.75 12.125 C2.94426121 9.93231719 1.5909466 9.07211583 -1 8 C-0.67 5.36 -0.34 2.72 0 0 Z " fill="#FAEBB7" transform="translate(103,86)"/>
<path d="M0 0 C1.4540625 0.0309375 1.4540625 0.0309375 2.9375 0.0625 C2.6075 1.0525 2.2775 2.0425 1.9375 3.0625 C-0.125 3.75 -0.125 3.75 -2.0625 4.0625 C-2.0625 5.0525 -2.0625 6.0425 -2.0625 7.0625 C-1.4025 7.0625 -0.7425 7.0625 -0.0625 7.0625 C-0.3925 8.7125 -0.7225 10.3625 -1.0625 12.0625 C5.32790222 9.50951053 8.19084814 6.79267343 11.9375 1.0625 C12.5975 1.0625 13.2575 1.0625 13.9375 1.0625 C12.19608313 5.75093003 10.61762769 9.78029729 6.5625 12.875 C3.76495599 14.14055562 1.9689678 14.3223401 -1.0625 14.0625 C-1.3925 15.0525 -1.7225 16.0425 -2.0625 17.0625 C-2.7225 14.7525 -3.3825 12.4425 -4.0625 10.0625 C-5.3825 9.7325 -6.7025 9.4025 -8.0625 9.0625 C-8.0625 8.0725 -8.0625 7.0825 -8.0625 6.0625 C-6.7425 6.0625 -5.4225 6.0625 -4.0625 6.0625 C-4.083125 5.258125 -4.10375 4.45375 -4.125 3.625 C-4.03366838 -0.11959638 -3.80090148 0.07756942 0 0 Z " fill="#FDFAE1" transform="translate(88.0625,93.9375)"/>
<path d="M0 0 C0.66 0 1.32 0 2 0 C2.391875 1.2375 2.78375 2.475 3.1875 3.75 C5.12928454 8.91897574 8.15845109 10.89507065 12.8125 13.6875 C13.534375 14.120625 14.25625 14.55375 15 15 C15 15.33 15 15.66 15 16 C13.02 16 11.04 16 9 16 C8.34 17.98 7.68 19.96 7 22 C6.34 22 5.68 22 5 22 C4.79859524 18.37471432 5.14223235 16.13498292 7 13 C3.9083091 15.52956528 3.09068668 18.22454612 2 22 C1.34 22 0.68 22 0 22 C-0.18585272 17.91124013 0.19854694 15.60290612 2 12 C1.66059264 9.69202999 1.04244769 8.08489539 0 6 C-0.039992 4.00039988 -0.04346799 1.99952758 0 0 Z " fill="#D1A84D" transform="translate(76,77)"/>
<path d="M0 0 C1.65 0 3.3 0 5 0 C5.2475 1.093125 5.495 2.18625 5.75 3.3125 C7.03569781 7.10530855 7.58713933 8.13843964 11 10 C11.99 10.33 12.98 10.66 14 11 C14 12.32 14 13.64 14 15 C11 16 11 16 9.09765625 15.21484375 C4.60151078 12.39288681 1.36183158 9.92903982 -1 5 C-0.75 2.125 -0.75 2.125 0 0 Z " fill="#FBEEB6" transform="translate(79,76)"/>
<path d="M0 0 C1.98 0.99 1.98 0.99 4 2 C6.85418219 1.651929 9.26879341 0.9104022 12 0 C12 3.63 12 7.26 12 11 C11.01 11 10.02 11 9 11 C9 9.02 9 7.04 9 5 C8.21625 5.185625 7.4325 5.37125 6.625 5.5625 C4 6 4 6 2 5 C2 6.98 2 8.96 2 11 C1.34 11 0.68 11 0 11 C0 7.37 0 3.74 0 0 Z " fill="#576A60" transform="translate(94,117)"/>
<path d="M0 0 C0.94875 0.04125 1.8975 0.0825 2.875 0.125 C2.875 0.785 2.875 1.445 2.875 2.125 C1.225 2.455 -0.425 2.785 -2.125 3.125 C-1.795 4.775 -1.465 6.425 -1.125 8.125 C0.195 8.125 1.515 8.125 2.875 8.125 C2.875 7.465 2.875 6.805 2.875 6.125 C2.215 6.125 1.555 6.125 0.875 6.125 C0.875 5.465 0.875 4.805 0.875 4.125 C2.525 4.125 4.175 4.125 5.875 4.125 C5.875 6.435 5.875 8.745 5.875 11.125 C-1.38957399 11.60930493 -1.38957399 11.60930493 -4.6875 9.4375 C-6.125 7.125 -6.125 7.125 -6 4.5 C-4.66489729 0.87614979 -3.90948703 0.15637948 0 0 Z " fill="#4F5D53" transform="translate(87.125,116.875)"/>
<path d="M0 0 C2.875 -0.1875 2.875 -0.1875 6 0 C6.66 0.99 7.32 1.98 8 3 C5.69 2.67 3.38 2.34 1 2 C1 2.99 1 3.98 1 5 C2.11375 5.0825 3.2275 5.165 4.375 5.25 C5.57125 5.4975 6.7675 5.745 8 6 C8.66 7.32 9.32 8.64 10 10 C7.03 9.01 4.06 8.02 1 7 C1 7.99 1 8.98 1 10 C1.99 10.33 2.98 10.66 4 11 C2.0625 11.5625 2.0625 11.5625 0 12 C-1 11 -1 11 -1.1328125 9.00390625 C-1.13023438 8.19824219 -1.12765625 7.39257812 -1.125 6.5625 C-1.12757812 5.75941406 -1.13015625 4.95632812 -1.1328125 4.12890625 C-1 2 -1 2 0 0 Z " fill="#FCF5D3" transform="translate(86,63)"/>
<path d="M0 0 C5.61198961 2.31562678 9.21691969 4.31787771 12 10 C12.25 12.875 12.25 12.875 12 15 C12.99 15 13.98 15 15 15 C15.33 13.68 15.66 12.36 16 11 C16 12.65 16 14.3 16 16 C13.36 16 10.72 16 8 16 C8.66 15.67 9.32 15.34 10 15 C7.24798141 8.23462097 4.50773014 5.28545599 -2 2 C-1.34 1.34 -0.68 0.68 0 0 Z " fill="#FAEBB4" transform="translate(106,84)"/>
<path d="M0 0 C0.99 0.33 1.98 0.66 3 1 C3 4.63 3 8.26 3 12 C2.67 12 2.34 12 2 12 C2 9.69 2 7.38 2 5 C0.35 5 -1.3 5 -3 5 C-3 5.66 -3 6.32 -3 7 C-2.34 7 -1.68 7 -1 7 C-1 7.66 -1 8.32 -1 9 C-2.875 9.625 -2.875 9.625 -5 10 C-5.66 9.34 -6.32 8.68 -7 8 C-6.625 5.375 -6.625 5.375 -6 3 C-4.35 3 -2.7 3 -1 3 C-0.67 2.01 -0.34 1.02 0 0 Z " fill="#DCEBE2" transform="translate(91,116)"/>
<path d="M0 0 C0.66 0 1.32 0 2 0 C0.25858313 4.68843003 -1.31987231 8.71779729 -5.375 11.8125 C-8.17254401 13.07805562 -9.9685322 13.2598401 -13 13 C-13.33 13.99 -13.66 14.98 -14 16 C-14 13.69 -14 11.38 -14 9 C-13.67 9.66 -13.34 10.32 -13 11 C-6.60959778 8.44701053 -3.74665186 5.73017343 0 0 Z " fill="#FCECAC" transform="translate(100,95)"/>
<path d="M0 0 C0.99 0 1.98 0 3 0 C1.33234495 5.15457015 -1.52851118 9.40080135 -6.125 12.375 C-8 13 -8 13 -11 13 C-11 12.01 -11 11.02 -11 10 C-10.113125 9.649375 -9.22625 9.29875 -8.3125 8.9375 C-4.67282245 6.808632 -3.30063393 4.95259858 -1.17578125 1.42578125 C-0.78777344 0.95527344 -0.39976563 0.48476562 0 0 Z " fill="#D8B262" transform="translate(98,93)"/>
<path d="M0 0 C0 3 0 3 -2 5.1875 C-2.66 5.785625 -3.32 6.38375 -4 7 C-2.68 7 -1.36 7 0 7 C0.66 5.02 1.32 3.04 2 1 C3.32 1.33 4.64 1.66 6 2 C5.01 2 4.02 2 3 2 C2.67 3.65 2.34 5.3 2 7 C-5.42857143 9.42857143 -5.42857143 9.42857143 -9 8 C-7.47364599 4.11473526 -4.49771687 0 0 0 Z " fill="#F4DFAE" transform="translate(110,75)"/>
<path d="M0 0 C0.66 0 1.32 0 2 0 C2 0.66 2 1.32 2 2 C1.34 2 0.68 2 0 2 C0 2.66 0 3.32 0 4 C0.99 4 1.98 4 3 4 C3.33 3.01 3.66 2.02 4 1 C6.97 1 9.94 1 13 1 C13 2.32 13 3.64 13 5 C12.34 5 11.68 5 11 5 C10.67 5.66 10.34 6.32 10 7 C10 5.68 10 4.36 10 3 C9.34 3 8.68 3 8 3 C8 3.66 8 4.32 8 5 C5.03 5 2.06 5 -1 5 C-0.67 3.35 -0.34 1.7 0 0 Z " fill="#595854" transform="translate(115,123)"/>
<path d="M0 0 C0.66 1.32 1.32 2.64 2 4 C1.01 4.495 1.01 4.495 0 5 C0 4.01 0 3.02 0 2 C-0.60328125 2.20496094 -1.2065625 2.40992187 -1.828125 2.62109375 C-3.02695313 3.02521484 -3.02695313 3.02521484 -4.25 3.4375 C-5.03890625 3.70433594 -5.8278125 3.97117187 -6.640625 4.24609375 C-11.10942957 5.67403958 -11.10942957 5.67403958 -13 6 C-14.75 4.5625 -14.75 4.5625 -16 3 C-14.125 1.9375 -14.125 1.9375 -12 1 C-11.34 1.33 -10.68 1.66 -10 2 C-9.4225 1.690625 -8.845 1.38125 -8.25 1.0625 C-5.39383489 -0.28624463 -3.12024959 -0.14182953 0 0 Z " fill="#FCF4D0" transform="translate(110,63)"/>
<path d="M0 0 C0.99 0 1.98 0 3 0 C3.804375 1.6396875 3.804375 1.6396875 4.625 3.3125 C6.72529475 7.04467844 8.969086 8.44260141 13 10 C13 10.99 13 11.98 13 13 C8.84688981 12.23090552 5.32188279 10.8437912 2.79296875 7.31640625 C0 2.56934629 0 2.56934629 0 0 Z " fill="#D4AF55" transform="translate(80,77)"/>
<path d="M0 0 C5.46438233 1.27078659 7.84181079 3.39806715 11 8 C11.8125 10.875 11.8125 10.875 12 13 C11.34 13 10.68 13 10 13 C8.41988963 11.05872155 7.0464337 9.01023561 5.6328125 6.9453125 C3.89579131 4.87584706 2.47555328 4.01808468 0 3 C0 2.01 0 1.02 0 0 Z " fill="#D8AD56" transform="translate(104,86)"/>
<path d="M0 0 C1.65 0.33 3.3 0.66 5 1 C5 1.66 5 2.32 5 3 C5.66 3 6.32 3 7 3 C6.67 4.32 6.34 5.64 6 7 C3.69 7 1.38 7 -1 7 C-2 4 -2 4 -1.0625 1.8125 C-0.5365625 0.9153125 -0.5365625 0.9153125 0 0 Z " fill="#F7FBF3" transform="translate(96,85)"/>
<path d="M0 0 C0 0.66 0 1.32 0 2 C-1.64453125 3.11328125 -1.64453125 3.11328125 -3.8125 4.3125 C-7.33519348 6.40741152 -9.25682094 8.18679581 -11 12 C-11.99 11.67 -12.98 11.34 -14 11 C-9.84826726 2.94525583 -9.84826726 2.94525583 -5.3125 1 C-2 0 -2 0 0 0 Z " fill="#D5AF5D" transform="translate(110,70)"/>
<path d="M0 0 C0.66 0 1.32 0 2 0 C1.34 2.97 0.68 5.94 0 9 C0.99 8.67 1.98 8.34 3 8 C3 8.66 3 9.32 3 10 C0.03 10 -2.94 10 -6 10 C-6 8.35 -6 6.7 -6 5 C-5.67 6.32 -5.34 7.64 -5 9 C-4.34 9 -3.68 9 -3 9 C-2.87625 8.071875 -2.7525 7.14375 -2.625 6.1875 C-2 3 -2 3 0 0 Z " fill="#F7E8B3" transform="translate(81,90)"/>
<path d="M0 0 C0 0.99 0 1.98 0 3 C-1.95890881 4.39300182 -3.9639118 5.72245446 -6 7 C-6.5775 7.5775 -7.155 8.155 -7.75 8.75 C-8.36875 9.36875 -8.36875 9.36875 -9 10 C-9.66 10 -10.32 10 -11 10 C-9.64717831 5.57258356 -7.76701112 3.63690779 -4 1 C-2 0 -2 0 0 0 Z " fill="#FBECB5" transform="translate(110,72)"/>
<path d="M0 0 C3.465 1.485 3.465 1.485 7 3 C7 3.99 7 4.98 7 6 C5.35 5.67 3.7 5.34 2 5 C2 6.98 2 8.96 2 11 C1.34 11 0.68 11 0 11 C0 7.37 0 3.74 0 0 Z " fill="#46584F" transform="translate(94,117)"/>
<path d="M0 0 C2.64 0 5.28 0 8 0 C8 0.66 8 1.32 8 2 C7.01 2 6.02 2 5 2 C5 4.97 5 7.94 5 11 C4.34 11 3.68 11 3 11 C3 8.03 3 5.06 3 2 C2.01 2 1.02 2 0 2 C0 1.34 0 0.68 0 0 Z " fill="#3E4E47" transform="translate(107,117)"/>
<path d="M0 0 C0 0.99 0 1.98 0 3 C-1.0725 3.28875 -2.145 3.5775 -3.25 3.875 C-6.09400364 4.72820109 -8.43508983 5.5636503 -11 7 C-11.33 6.01 -11.66 5.02 -12 4 C-10.75539217 3.32332002 -9.50403104 2.65905281 -8.25 2 C-7.55390625 1.62875 -6.8578125 1.2575 -6.140625 0.875 C-4 0 -4 0 0 0 Z " fill="#D6AF58" transform="translate(110,65)"/>
<path d="M0 0 C4.75862069 2.37931034 4.75862069 2.37931034 6 6 C6.125 8.75 6.125 8.75 6 11 C5.01 11 4.02 11 3 11 C2.01 7.37 1.02 3.74 0 0 Z " fill="#D8B05C" transform="translate(115,88)"/>
<path d="M0 0 C6.52307692 0.61538462 6.52307692 0.61538462 8.9375 2.5625 C9.288125 3.036875 9.63875 3.51125 10 4 C9.34 4.66 8.68 5.32 8 6 C7.01 5.34 6.02 4.68 5 4 C3.34450469 3.61500109 1.6777567 3.27206865 0 3 C0 2.01 0 1.02 0 0 Z " fill="#D7B060" transform="translate(87,65)"/>
<path d="M0 0 C0.680625 0.391875 1.36125 0.78375 2.0625 1.1875 C-0.61842691 3.86842691 -2.32917363 3.57420257 -6.0625 3.8125 C-7.15820312 3.88726562 -8.25390625 3.96203125 -9.3828125 4.0390625 C-10.22585937 4.08804688 -11.06890625 4.13703125 -11.9375 4.1875 C-8.53518698 0.78518698 -4.76753676 -1.31868038 0 0 Z " fill="#FCF2C9" transform="translate(99.9375,107.8125)"/>
<path d="M0 0 C2.31 1.98 4.62 3.96 7 6 C6.67 6.66 6.34 7.32 6 8 C2.59679258 6.98823563 1.24274669 6.35156418 -0.8125 3.375 C-1.204375 2.59125 -1.59625 1.8075 -2 1 C-1.34 0.67 -0.68 0.34 0 0 Z " fill="#FCEDAD" transform="translate(86,79)"/>
<path d="M0 0 C2.31 0 4.62 0 7 0 C7 0.99 7 1.98 7 3 C6.030625 3.12375 5.06125 3.2475 4.0625 3.375 C3.051875 3.58125 2.04125 3.7875 1 4 C0.67 4.66 0.34 5.32 0 6 C0 4.02 0 2.04 0 0 Z " fill="#D6E6DB" transform="translate(96,122)"/>
<path d="M0 0 C3.53647504 1.67517239 4.7911563 2.49280817 6.3125 6.1875 C6.539375 7.115625 6.76625 8.04375 7 9 C3.26955235 7.75651745 2.20459674 6.19286425 0 3 C0 2.01 0 1.02 0 0 Z " fill="#D7B05D" transform="translate(104,91)"/>
<path d="M0 0 C0.99 0 1.98 0 3 0 C2.125 6.75 2.125 6.75 1 9 C0.01 8.67 -0.98 8.34 -2 8 C-1.34 5.36 -0.68 2.72 0 0 Z " fill="#D7AF5B" transform="translate(118,77)"/>
<path d="M0 0 C0 0.99 0 1.98 0 3 C-2.8125 5.25 -2.8125 5.25 -6 7 C-6.99 6.67 -7.98 6.34 -9 6 C-7.8803014 4.99406757 -6.7540588 3.9954151 -5.625 3 C-4.68527344 2.1646875 -4.68527344 2.1646875 -3.7265625 1.3125 C-2 0 -2 0 0 0 Z " fill="#D9AC5E" transform="translate(110,75)"/>
<path d="M0 0 C1.32 0.66 2.64 1.32 4 2 C3.34 3.32 2.68 4.64 2 6 C-0.02045442 5.39816251 -2.02111039 4.72693904 -4 4 C-4.33 3.34 -4.66 2.68 -5 2 C-3.35 2 -1.7 2 0 2 C0 1.34 0 0.68 0 0 Z " fill="#F8EDC0" transform="translate(90,74)"/>
<path d="M0 0 C0.33 0 0.66 0 1 0 C1.33 2.97 1.66 5.94 2 9 C4.31 9 6.62 9 9 9 C9 9.33 9 9.66 9 10 C6.36 10.66 3.72 11.32 1 12 C-0.26237731 9.47524538 -0.09856404 7.68799534 -0.0625 4.875 C-0.05347656 3.96492188 -0.04445313 3.05484375 -0.03515625 2.1171875 C-0.02355469 1.41851562 -0.01195313 0.71984375 0 0 Z " fill="#D4DAD1" transform="translate(112,119)"/>
<path d="M0 0 C0.99 0.33 1.98 0.66 3 1 C3 1.33 3 1.66 3 2 C6.3 2.33 9.6 2.66 13 3 C13 3.33 13 3.66 13 4 C10.36 4 7.72 4 5 4 C4.67 4.66 4.34 5.32 4 6 C4 5.34 4 4.68 4 4 C3.01 4.33 2.02 4.66 1 5 C0.67 3.35 0.34 1.7 0 0 Z " fill="#D5DED4" transform="translate(102,113)"/>
<path d="M0 0 C2.64 0.66 5.28 1.32 8 2 C8 2.99 8 3.98 8 5 C5.36 4.67 2.72 4.34 0 4 C0 2.68 0 1.36 0 0 Z " fill="#DBB15E" transform="translate(102,106)"/>
<path d="M0 0 C0.33 0.66 0.66 1.32 1 2 C4.465 1.505 4.465 1.505 8 1 C7.01 2.485 7.01 2.485 6 4 C3.375 4.1875 3.375 4.1875 1 4 C0.67 4.99 0.34 5.98 0 7 C0 4.69 0 2.38 0 0 Z " fill="#F9F2BC" transform="translate(86,104)"/>
<path d="M0 0 C0.33 0.66 0.66 1.32 1 2 C1.66 2.33 2.32 2.66 3 3 C3 3.99 3 4.98 3 6 C3.33 6.99 3.66 7.98 4 9 C2.125 8.75 2.125 8.75 0 8 C-1.375 6.1875 -1.375 6.1875 -2 4 C-1.125 1.75 -1.125 1.75 0 0 Z " fill="#CFA346" transform="translate(99,100)"/>
<path d="M0 0 C0.99 0.33 1.98 0.66 3 1 C0.6875 3.5 0.6875 3.5 -2 6 C-2.99 6 -3.98 6 -5 6 C-3.86525052 2.59575156 -3.03188696 1.78346291 0 0 Z " fill="#D2AE59" transform="translate(92,94)"/>
<path d="M0 0 C1.125 1.625 1.125 1.625 2 4 C1.125 7.25 1.125 7.25 0 10 C-0.66 10 -1.32 10 -2 10 C-2.17942163 6.05272412 -2.09350689 3.4019487 0 0 Z " fill="#D2AD55" transform="translate(78,89)"/>
<path d="M0 0 C3.35620271 1.38877354 5.07298728 2.91677965 7 6 C7 6.66 7 7.32 7 8 C3.64379729 6.61122646 1.92701272 5.08322035 0 2 C0 1.34 0 0.68 0 0 Z " fill="#D2AC56" transform="translate(86,77)"/>
<path d="M0 0 C0.66 0 1.32 0 2 0 C2 0.66 2 1.32 2 2 C1.34 2 0.68 2 0 2 C0 2.66 0 3.32 0 4 C0.99 4 1.98 4 3 4 C3.33 3.01 3.66 2.02 4 1 C4.66 1 5.32 1 6 1 C6 1.99 6 2.98 6 4 C3.69 4.33 1.38 4.66 -1 5 C-0.67 3.35 -0.34 1.7 0 0 Z " fill="#67665F" transform="translate(115,123)"/>
<path d="M0 0 C1.65 0 3.3 0 5 0 C5 2.31 5 4.62 5 7 C3.5 5.625 3.5 5.625 2 4 C2 3.34 2 2.68 2 2 C1.34 2 0.68 2 0 2 C0 1.34 0 0.68 0 0 Z M0 4 C2 5 2 5 2 5 Z " fill="#606C67" transform="translate(88,121)"/>
<path d="M0 0 C4.455 0.99 4.455 0.99 9 2 C9 2.99 9 3.98 9 5 C5.51694958 4.35499066 2.93797836 2.95865224 0 1 C0 0.67 0 0.34 0 0 Z " fill="#D7B462" transform="translate(84,85)"/>
<path d="M0 0 C2.97 0.495 2.97 0.495 6 1 C6 1.99 6 2.98 6 4 C3.03 3.505 3.03 3.505 0 3 C0 2.01 0 1.02 0 0 Z " fill="#D5B465" transform="translate(104,102)"/>
<path d="M0 0 C0.66 0.33 1.32 0.66 2 1 C-0.64 3.64 -3.28 6.28 -6 9 C-6 6 -6 6 -3.5625 3.375 C-2.716875 2.59125 -1.87125 1.8075 -1 1 C-0.67 0.67 -0.34 0.34 0 0 Z " fill="#AFAFAF" transform="translate(329,84)"/>
<path d="M0 0 C0.99 0.33 1.98 0.66 3 1 C3 4.63 3 8.26 3 12 C2.67 12 2.34 12 2 12 C1.8046875 9.94921875 1.609375 7.8984375 1.4140625 5.84765625 C1.27742188 5.23792969 1.14078125 4.62820312 1 4 C0.34 3.67 -0.32 3.34 -1 3 C-0.67 2.01 -0.34 1.02 0 0 Z " fill="#D3E0D8" transform="translate(91,116)"/>
<path d="M0 0 C1.98 0 3.96 0 6 0 C5.67 0.99 5.34 1.98 5 3 C4.01 3.33 3.02 3.66 2 4 C2 3.34 2 2.68 2 2 C1.01 2.33 0.02 2.66 -1 3 C-0.67 2.01 -0.34 1.02 0 0 Z " fill="#FDF5C7" transform="translate(85,94)"/>
<path d="M0 0 C0 0.66 0 1.32 0 2 C-5.75 5 -5.75 5 -8 5 C-7.67 4.01 -7.34 3.02 -7 2 C-4.56723614 0.81480735 -2.71982714 0 0 0 Z " fill="#D4AA50" transform="translate(110,70)"/>
<path d="M0 0 C1.98 0.66 3.96 1.32 6 2 C5.67 2.99 5.34 3.98 5 5 C2.525 4.01 2.525 4.01 0 3 C0 2.01 0 1.02 0 0 Z " fill="#FCECB8" transform="translate(101,103)"/>
<path d="M0 0 C2.31 0.66 4.62 1.32 7 2 C6.01 3.485 6.01 3.485 5 5 C2.525 4.01 2.525 4.01 0 3 C0 2.01 0 1.02 0 0 Z " fill="#D0B05A" transform="translate(87,70)"/>
<path d="M0 0 C2.5 1.375 2.5 1.375 5 3 C5 3.66 5 4.32 5 5 C2.69 4.34 0.38 3.68 -2 3 C-1.34 2.67 -0.68 2.34 0 2 C0 1.34 0 0.68 0 0 Z " fill="#FBEBB3" transform="translate(91,68)"/>
</svg>
