<?xml version="1.0" encoding="UTF-8"?>
<svg version="1.1" xmlns="http://www.w3.org/2000/svg" width="200" height="100" viewBox="0 0 450 101">
<path d="M0 0 C3.19706535 1.27882614 4.50115896 1.85979191 5.875 5 C6 7 6 7 5 10 C5.85464844 9.98839844 6.70929688 9.97679687 7.58984375 9.96484375 C8.69457031 9.95582031 9.79929687 9.94679688 10.9375 9.9375 C12.03964844 9.92589844 13.14179688 9.91429687 14.27734375 9.90234375 C17 10 17 10 18 11 C18.07205511 12.68608966 18.08386068 14.37500659 18.0625 16.0625 C18.05347656 16.98160156 18.04445313 17.90070312 18.03515625 18.84765625 C18.02355469 19.55792969 18.01195312 20.26820312 18 21 C19.98 21 21.96 21 24 21 C24.02578125 20.41992188 24.0515625 19.83984375 24.078125 19.2421875 C24.52980341 13.02134392 25.83678535 8.98523326 30.52734375 4.55859375 C35.85325351 -0.01205252 39.12876999 -0.34715292 46.015625 -0.28125 C51.25963519 0.21294991 53.80589278 2.70638385 57.25 6.4375 C60.7265156 11.52811212 61.19375152 14.79713788 60.484375 20.81640625 C59.97205034 23.12599888 59.14164971 24.93660851 58 27 C59.98 28.98 59.98 28.98 62 31 C62.185625 30.278125 62.37125 29.55625 62.5625 28.8125 C64.87264736 24.29264647 68.70715982 21.74517306 73.5 20.1875 C74.325 20.125625 75.15 20.06375 76 20 C77.093125 19.9175 78.18625 19.835 79.3125 19.75 C84.34155757 20.09095306 88.86281294 20.97122098 92.6171875 24.53515625 C93.81554016 25.96708612 94.91790754 27.47830748 96 29 C96.721875 28.236875 97.44375 27.47375 98.1875 26.6875 C103.88891542 21.23948082 108.27078761 20.11616157 116 20 C122.67681617 20.17687824 129.33219062 20.59993144 136 21 C136 32.88 136 44.76 136 57 C130.39 57 124.78 57 119 57 C117.185 57.268125 115.37 57.53625 113.5 57.8125 C108.81404217 58.38923327 105.88615671 56.90801792 101.91015625 54.51953125 C99.85189344 52.88218108 98.47864219 51.16465801 97 49 C96.278125 49.763125 95.55625 50.52625 94.8125 51.3125 C89.67636514 56.2203622 85.62964151 57.65758099 78.6875 58.3125 C73.46118707 57.86959212 69.18810831 56.21573594 65.453125 52.43359375 C64.26597623 50.98457393 63.12924342 49.49458688 62 48 C61.34 47.67 60.68 47.34 60 47 C59.62875 47.86625 59.62875 47.86625 59.25 48.75 C56.37283909 53.92888963 52.9967776 55.66573118 47.53833008 57.41381836 C43.34622805 58.38190886 39.38295231 58.10594869 35.125 57.75 C33.86429687 57.67072266 33.86429687 57.67072266 32.578125 57.58984375 C29.14699996 57.35415944 26.28147326 57.09382442 23 56 C22.1646875 56.4640625 22.1646875 56.4640625 21.3125 56.9375 C17.90011372 58.50535316 14.6502565 58.56969321 11 58 C6.5128008 55.71406833 4.19532133 53.49043 2 49 C1.48828125 45.44921875 1.48828125 45.44921875 1.3125 41.6875 C1.24675781 40.43324219 1.18101562 39.17898437 1.11328125 37.88671875 C1.05720703 36.45779297 1.05720703 36.45779297 1 35 C-0.65 34.67 -2.3 34.34 -4 34 C-3.99476318 34.6612085 -3.98952637 35.32241699 -3.98413086 36.00366211 C-3.96342344 38.98159851 -3.95035988 41.95951982 -3.9375 44.9375 C-3.92912109 45.97841797 -3.92074219 47.01933594 -3.91210938 48.09179688 C-3.90888672 49.08115234 -3.90566406 50.07050781 -3.90234375 51.08984375 C-3.89710693 52.00628662 -3.89187012 52.92272949 -3.88647461 53.86694336 C-4 56 -4 56 -5 57 C-7.5327765 57.07320163 -10.03103918 57.09227569 -12.5625 57.0625 C-15.016875 57.041875 -17.47125 57.02125 -20 57 C-20.33 49.74 -20.66 42.48 -21 35 C-21.66 35 -22.32 35 -23 35 C-23.03758423 35.94637329 -23.03758423 35.94637329 -23.07592773 36.91186523 C-23.19154137 39.75396825 -23.31442316 42.59571083 -23.4375 45.4375 C-23.47681641 46.43072266 -23.51613281 47.42394531 -23.55664062 48.44726562 C-23.59853516 49.39150391 -23.64042969 50.33574219 -23.68359375 51.30859375 C-23.72025146 52.18314209 -23.75690918 53.05769043 -23.79467773 53.95874023 C-24 56 -24 56 -25 57 C-27.33160055 57.09909302 -29.66629942 57.12970504 -32 57.125 C-33.27875 57.12757812 -34.5575 57.13015625 -35.875 57.1328125 C-39 57 -39 57 -40 56 C-40.15714654 54.36743242 -40.25085414 52.72864662 -40.31640625 51.08984375 C-40.35830078 50.10048828 -40.40019531 49.11113281 -40.44335938 48.09179688 C-40.48267578 47.05087891 -40.52199219 46.00996094 -40.5625 44.9375 C-40.60568359 43.89271484 -40.64886719 42.84792969 -40.69335938 41.77148438 C-40.79981225 39.18113116 -40.9018276 36.59067814 -41 34 C-41.35827881 34.6612085 -41.71655762 35.32241699 -42.08569336 36.00366211 C-43.7011502 38.98259493 -45.31928784 41.96006309 -46.9375 44.9375 C-47.50146484 45.97841797 -48.06542969 47.01933594 -48.64648438 48.09179688 C-49.18466797 49.08115234 -49.72285156 50.07050781 -50.27734375 51.08984375 C-50.77484131 52.00628662 -51.27233887 52.92272949 -51.78491211 53.86694336 C-53 56 -53 56 -54 57 C-57.33618231 57.14257189 -60.65975606 57.04228157 -64 57 C-65.65 53.7 -67.3 50.4 -69 47 C-70.47225301 49.20837951 -71.82100438 51.3837744 -73.125 53.6875 C-73.74375 54.780625 -74.3625 55.87375 -75 57 C-76.55622858 57.21756982 -78.12136107 57.37196528 -79.6875 57.5 C-80.55761719 57.5928125 -81.42773438 57.685625 -82.32421875 57.78125 C-86.06563552 56.68886554 -86.82585593 54.73024369 -88.68530273 51.42431641 C-89.11915283 50.62429199 -89.55300293 49.82426758 -90 49 C-91.01078235 47.28826893 -92.02525373 45.57871209 -93.04296875 43.87109375 C-94.09290022 42.06091227 -95.14105515 40.24969929 -96.1875 38.4375 C-96.72052734 37.53064453 -97.25355469 36.62378906 -97.80273438 35.68945312 C-100.59642069 30.84354945 -102.77720251 26.46883051 -104 21 C-98.14907271 19.0496909 -91.9042084 19.47383003 -86 21 C-83.24103304 24.02099175 -82.03366589 27.07206964 -81 31 C-78.99006295 28.99006295 -78.10059081 27.40788768 -76.875 24.875 C-76.25625 23.59625 -75.6375 22.3175 -75 21 C-71.37 21 -67.74 21 -64 21 C-60.125 28.625 -60.125 28.625 -59 32 C-58.7525 31.21753906 -58.505 30.43507813 -58.25 29.62890625 C-56.82476992 26.13263872 -55.61820493 23.74613025 -53 21 C-47.89768013 19.29653986 -42.30072701 19.72929779 -37 20 C-37.46792969 19.23816406 -37.46792969 19.23816406 -37.9453125 18.4609375 C-41.1383817 12.81491447 -41.1383817 12.81491447 -40.4375 8.6875 C-38.36759788 4.81768299 -37.38696321 3.42211924 -33.125 2.125 C-29.36891137 1.97475645 -27.93585637 2.71655616 -25 5 C-22.51613941 8.72579089 -22.6195788 10.58711402 -23 15 C-24.5 17.9375 -24.5 17.9375 -26 20 C-24.35 20 -22.7 20 -21 20 C-20.92523438 19.21496094 -20.85046875 18.42992188 -20.7734375 17.62109375 C-19.88046813 10.48609339 -18.61819146 5.7174488 -13 1 C-9.07693202 -0.96153399 -4.28690635 -0.34641667 0 0 Z M-4 15 C-4 16.98 -4 18.96 -4 21 C-2.35 21 -0.7 21 1 21 C1.33 19.02 1.66 17.04 2 15 C0.02 15 -1.96 15 -4 15 Z M42 15 C41.67 16.65 41.34 18.3 41 20 C42.32 19.34 43.64 18.68 45 18 C45 17.01 45 16.02 45 15 C44.01 15 43.02 15 42 15 Z M19 34 C17.58422523 35.18424326 17.58422523 35.18424326 17.9375 38.5625 C17.958125 39.696875 17.97875 40.83125 18 42 C19.32 41.67 20.64 41.34 22 41 C22.66 44.3 23.32 47.6 24 51 C24.33 51 24.66 51 25 51 C25.14975239 43.94348748 25.14975239 43.94348748 24 37 C23.01 36.67 22.02 36.34 21 36 C21 35.34 21 34.68 21 34 C20.34 34 19.68 34 19 34 Z M41 34 C41 36.64 41 39.28 41 42 C42.98491642 41.73323796 42.98491642 41.73323796 45 41 C46.33304698 38.10813214 46.33304698 38.10813214 45.0625 35.8125 C44.711875 35.214375 44.36125 34.61625 44 34 C43.01 34 42.02 34 41 34 Z M113 35 C112.32198966 37.90073181 112.32198966 37.90073181 112 41 C112.66 41.66 113.32 42.32 114 43 C117.30683466 42.71016731 117.30683466 42.71016731 120 41 C120.04063832 39.33382885 120.042721 37.66611905 120 36 C116.73914061 34.02948211 116.73914061 34.02948211 113 35 Z " fill="#070707" transform="translate(213,28)"/>
<path d="M0 0 C3.97544668 3.49357435 6.86177208 6.7249296 7.375 12.0625 C7.01106262 16.42974859 5.64030116 18.34857969 3.0625 21.8125 C3.0625 22.4725 3.0625 23.1325 3.0625 23.8125 C4.238125 24.864375 4.238125 24.864375 5.4375 25.9375 C8.76749051 29.58463246 9.16943423 32.02241997 10.0625 36.8125 C10.20945312 36.24402344 10.35640625 35.67554688 10.5078125 35.08984375 C12.20504425 29.24707468 14.43465921 24.86041087 19.0625 20.8125 C21.875 19.5625 21.875 19.5625 24.0625 18.8125 C24.5575 17.3275 24.5575 17.3275 25.0625 15.8125 C30.59403671 15.46677896 35.18027025 16.02411355 40.0625 18.8125 C42.04701347 20.69634974 43.4647167 22.56561723 45.0625 24.8125 C46.1453125 23.6678125 46.1453125 23.6678125 47.25 22.5 C52.95141542 17.05198082 57.33328761 15.92866157 65.0625 15.8125 C71.73931617 15.98937824 78.39469062 16.41243144 85.0625 16.8125 C85.0625 28.6925 85.0625 40.5725 85.0625 52.8125 C79.4525 52.8125 73.8425 52.8125 68.0625 52.8125 C66.2475 53.080625 64.4325 53.34875 62.5625 53.625 C57.87654217 54.20173327 54.94865671 52.72051792 50.97265625 50.33203125 C48.91439344 48.69468108 47.54114219 46.97715801 46.0625 44.8125 C45.340625 45.575625 44.61875 46.33875 43.875 47.125 C38.73886514 52.0328622 34.69214151 53.47008099 27.75 54.125 C22.52368707 53.68209212 18.25060831 52.02823594 14.515625 48.24609375 C13.32847623 46.79707393 12.19174342 45.30708688 11.0625 43.8125 C10.0725 43.3175 10.0725 43.3175 9.0625 42.8125 C8.815 43.39 8.5675 43.9675 8.3125 44.5625 C5.43977111 49.733412 2.06521895 51.48279294 -3.38598633 53.23071289 C-7.64196671 54.20114646 -11.6824163 53.87850036 -16 53.5 C-16.86560547 53.43876953 -17.73121094 53.37753906 -18.62304688 53.31445312 C-20.72907931 53.16319113 -22.83352913 52.99014963 -24.9375 52.8125 C-24.9375 52.4825 -24.9375 52.1525 -24.9375 51.8125 C-19.85663204 50.96568867 -15.08921623 50.72211901 -9.9375 50.8125 C-9.9375 47.5125 -9.9375 44.2125 -9.9375 40.8125 C-6.9675 40.3175 -6.9675 40.3175 -3.9375 39.8125 C-2.74197419 34.4227468 -2.74197419 34.4227468 -4.1875 29.375 C-5.95970209 27.58512606 -5.95970209 27.58512606 -8.9375 26.8125 C-9.37963264 21.41848179 -9.37963264 21.41848179 -8.9375 18.8125 C-6.4375 17.1875 -6.4375 17.1875 -3.9375 15.8125 C-3.35404524 12.76996492 -3.35404524 12.76996492 -3.9375 9.8125 C-4.5975 9.1525 -5.2575 8.4925 -5.9375 7.8125 C-9.24433466 8.10233269 -9.24433466 8.10233269 -11.9375 9.8125 C-12.09779688 12.76779504 -12.19707328 15.70232457 -12.25390625 18.66015625 C-12.27468735 19.5465831 -12.29546844 20.43300995 -12.31687927 21.34629822 C-12.382474 24.189117 -12.44130552 27.03203117 -12.5 29.875 C-12.5431758 31.79753606 -12.58678978 33.72006234 -12.63085938 35.64257812 C-12.73816543 40.36578668 -12.83940451 45.08909153 -12.9375 49.8125 C-16.2375 49.8125 -19.5375 49.8125 -22.9375 49.8125 C-22.9375 43.5425 -22.9375 37.2725 -22.9375 30.8125 C-24.2575 30.8125 -25.5775 30.8125 -26.9375 30.8125 C-26.9375 28.1725 -26.9375 25.5325 -26.9375 22.8125 C-25.6175 22.8125 -24.2975 22.8125 -22.9375 22.8125 C-22.98390625 21.88308594 -23.0303125 20.95367187 -23.078125 19.99609375 C-23.44883549 7.29925938 -23.44883549 7.29925938 -18.9375 1.8125 C-14.0395853 -2.78857139 -5.94542021 -2.40346774 0 0 Z M62.0625 30.8125 C61.38448966 33.71323181 61.38448966 33.71323181 61.0625 36.8125 C61.7225 37.4725 62.3825 38.1325 63.0625 38.8125 C66.36933466 38.52266731 66.36933466 38.52266731 69.0625 36.8125 C69.10313832 35.14632885 69.105221 33.47861905 69.0625 31.8125 C65.80164061 29.84198211 65.80164061 29.84198211 62.0625 30.8125 Z " fill="#C6DEF3" transform="translate(263.9375,32.1875)"/>
<path d="M0 0 C3.26008643 3.16952847 6.22237877 6.39937989 9 10 C5.59394455 13.70658975 2.52116033 15.84217348 -2 18 C-2.33 18.66 -2.66 19.32 -3 20 C-2.113125 20.2475 -1.22625 20.495 -0.3125 20.75 C3.71639791 22.27033883 6.75631532 24.0787216 9.1328125 27.75 C10.25021331 30.64920209 10.1935141 33.02664028 10.125 36.125 C10.10695313 37.17945313 10.08890625 38.23390625 10.0703125 39.3203125 C10.04710937 40.20460937 10.02390625 41.08890625 10 42 C10 42.66 10 43.32 10 44 C9.89725235 47.69891543 8.74256969 49.65103519 6.1875 52.1875 C1.37368597 56.00296656 -3.95863906 56.898003 -10 57 C-15.41975829 56.13959327 -19.5198488 54.38801673 -23 50 C-23.020625 50.598125 -23.04125 51.19625 -23.0625 51.8125 C-24 54 -24 54 -27.0625 55.8125 C-32.26606706 57.7678445 -36.67916559 56.92833376 -41.8125 54.875 C-45.74637103 51.50311054 -46.79618034 47.89672179 -47.33203125 42.91015625 C-47.48234503 40.767548 -47.6035396 38.62263887 -47.69140625 36.4765625 C-47.84416016 35.25066406 -47.84416016 35.25066406 -48 34 C-48.99 33.505 -48.99 33.505 -50 33 C-49.95359375 33.86882813 -49.9071875 34.73765625 -49.859375 35.6328125 C-49.49978364 47.11405081 -49.49978364 47.11405081 -54 52 C-54.66515625 52.77923828 -54.66515625 52.77923828 -55.34375 53.57421875 C-59.30680013 56.98580671 -66.0512463 57.08363593 -71.125 57.375 C-77.34253939 56.77330264 -81.43192246 54.88973447 -85.4375 50.0625 C-87.66391329 45.69872995 -88.12634658 41.80995678 -88.1328125 36.953125 C-88.13410156 36.02628906 -88.13539063 35.09945312 -88.13671875 34.14453125 C-88.13285156 33.18933594 -88.12898438 32.23414063 -88.125 31.25 C-88.12886719 30.27933594 -88.13273437 29.30867188 -88.13671875 28.30859375 C-88.13542969 27.38691406 -88.13414062 26.46523438 -88.1328125 25.515625 C-88.13168457 24.67290039 -88.13055664 23.83017578 -88.12939453 22.96191406 C-88 21 -88 21 -87 20 C-84.4672235 19.92679837 -81.96896082 19.90772431 -79.4375 19.9375 C-76.983125 19.958125 -74.52875 19.97875 -72 20 C-71.67 26.93 -71.34 33.86 -71 41 C-69.68 41.33 -68.36 41.66 -67 42 C-66.23817368 34.67350007 -65.5975819 27.34172044 -65 20 C-59.39 20 -53.78 20 -48 20 C-47.67 16.37 -47.34 12.74 -47 9 C-41.72 9 -36.44 9 -31 9 C-30.505 13.95 -30.505 13.95 -30 19 C-28.824375 19.0928125 -28.824375 19.0928125 -27.625 19.1875 C-26.75875 19.455625 -25.8925 19.72375 -25 20 C-23.6875 22.5625 -23.6875 22.5625 -23 25 C-22.2575 24.38125 -21.515 23.7625 -20.75 23.125 C-18.51198812 21.39562719 -16.56260013 20.13893339 -14 19 C-14.44279297 17.44925781 -14.44279297 17.44925781 -14.89453125 15.8671875 C-15 12 -15 12 -13.89599609 10.40722656 C-12.23044099 8.85808957 -10.5114262 7.48392941 -8.6875 6.125 C-8.07970703 5.6403125 -7.47191406 5.155625 -6.84570312 4.65625 C-4.64272229 2.91718244 -2.51706416 1.25853208 0 0 Z M-30 33 C-31.41577477 34.18424326 -31.41577477 34.18424326 -31.0625 37.5625 C-31.041875 38.696875 -31.02125 39.83125 -31 41 C-29.68 40.67 -28.36 40.34 -27 40 C-27 38.02 -27 36.04 -27 34 C-27.99 33.67 -28.98 33.34 -30 33 Z " fill="#D9E5EB" transform="translate(438,29)"/>
<path d="M0 0 C3.24771257 1.62385629 5.19791385 2.98867399 7.4375 5.8125 C8.29972945 9.16561453 7.84741162 11.6708829 7 15 C4.53924074 17.54561303 2.37325392 18.22210077 -1 19 C0.03060547 19.74443359 0.03060547 19.74443359 1.08203125 20.50390625 C10.41306022 27.53888803 10.41306022 27.53888803 12 34 C12.78079056 39.59735568 12.17798995 44.18034954 9.41015625 49.140625 C6.22515928 53.34023319 1.97329456 56.34223515 -3 58 C-10.25503055 58.6556398 -17.13610493 58.80670245 -23 54 C-25.61580846 50.93088382 -26.84472525 47.86263747 -27.5625 43.875 C-26.77683893 39.85939897 -25.2596036 38.40927223 -22 36 C-19 35.1875 -19 35.1875 -16 36 C-14.54754899 37.98688402 -13.40818371 40.05352587 -12.2265625 42.2109375 C-11.09209072 44.29739959 -11.09209072 44.29739959 -8.3125 44.625 C-5.8272323 44.15931527 -5.8272323 44.15931527 -4 42 C-3.88261806 39.54766958 -3.88261806 39.54766958 -5 37 C-7.56489403 34.64564139 -7.56489403 34.64564139 -10.75 32.5625 C-21.6999844 24.7447692 -21.6999844 24.7447692 -23.0625 18.125 C-23.38005379 13.38891208 -21.69670178 9.81608742 -19 6 C-13.16900042 0.4605504 -7.91731831 -1.02400647 0 0 Z M-7 15 C-6.01 15.99 -5.02 16.98 -4 18 C-3.34 17.67 -2.68 17.34 -2 17 C-2.66 16.34 -3.32 15.68 -4 15 C-4.99 15 -5.98 15 -7 15 Z " fill="#090809" transform="translate(102,29)"/>
<path d="M0 0 C3.19706535 1.27882614 4.50115896 1.85979191 5.875 5 C6 7 6 7 5 10 C5.85464844 9.98839844 6.70929688 9.97679687 7.58984375 9.96484375 C8.69457031 9.95582031 9.79929688 9.94679688 10.9375 9.9375 C12.03964844 9.92589844 13.14179688 9.91429687 14.27734375 9.90234375 C17 10 17 10 18 11 C18.07205511 12.68608966 18.08386068 14.37500659 18.0625 16.0625 C18.05347656 16.98160156 18.04445312 17.90070312 18.03515625 18.84765625 C18.02355469 19.55792969 18.01195312 20.26820312 18 21 C19.98 21 21.96 21 24 21 C24.03867188 20.12988281 24.03867188 20.12988281 24.078125 19.2421875 C24.52980341 13.02134392 25.83678535 8.98523326 30.52734375 4.55859375 C35.85325351 -0.01205252 39.12876999 -0.34715292 46.015625 -0.28125 C51.25963519 0.21294991 53.80589278 2.70638385 57.25 6.4375 C60.7265156 11.52811212 61.19375152 14.79713788 60.484375 20.81640625 C59.97205034 23.12599888 59.14164971 24.93660851 58 27 C59.32 28.32 60.64 29.64 62 31 C62.2784375 29.9171875 62.2784375 29.9171875 62.5625 28.8125 C64.58586234 24.8537476 66.84500789 22.49687115 71 21 C75.73584101 20.880957 80.31355825 21.34350816 85 22 C85 22.33 85 22.66 85 23 C83.69675781 23.12955078 83.69675781 23.12955078 82.3671875 23.26171875 C73.03714844 24.3432752 73.03714844 24.3432752 66 30 C63.47538775 34.14757727 62.21138128 38.34084122 61 43 C60.67 43 60.34 43 60 43 C59.87044922 42.00419922 59.87044922 42.00419922 59.73828125 40.98828125 C58.78174263 34.97700641 57.81850592 31.80408362 53 28 C55 24 55 24 56.125 22.1875 C57.42480821 18.93797947 57.35907702 16.47107783 57 13 C54.74559823 8.65818919 52.60899048 5.76514529 48 4 C43.09865357 3.46772708 38.64744372 3.38220861 34 5.125 C29.41944473 9.41927057 28.59858127 14.31007718 28.3125 20.375 C28.24675781 21.62023437 28.18101562 22.86546875 28.11328125 24.1484375 C28.05720703 25.55996094 28.05720703 25.55996094 28 27 C26.68 27 25.36 27 24 27 C24 29.64 24 32.28 24 35 C25.32 35 26.64 35 28 35 C28 41.27 28 47.54 28 54 C31.3 54 34.6 54 38 54 C37.98428955 52.8039917 37.9685791 51.6079834 37.95239258 50.37573242 C37.89812939 45.94220707 37.8636631 41.50871112 37.83520508 37.07495117 C37.8201102 35.15530462 37.79963227 33.2356926 37.77368164 31.31616211 C37.73732891 28.55834436 37.72028088 25.8009822 37.70703125 23.04296875 C37.69154739 22.18350143 37.67606354 21.32403412 37.66011047 20.43852234 C37.65988388 19.63791885 37.65965729 18.83731537 37.65942383 18.01245117 C37.65276199 17.3085173 37.64610016 16.60458344 37.63923645 15.87931824 C38.1134956 13.40876968 39.01334546 12.50011331 41 11 C44.34192692 11.24453124 45.60543557 11.60543557 48 14 C48.375 16.9375 48.375 16.9375 48 20 C46.125 21.875 46.125 21.875 44 23 C43.34 23 42.68 23 42 23 C42 25.64 42 28.28 42 31 C42.8971875 31.12375 42.8971875 31.12375 43.8125 31.25 C46.73748806 32.25285305 47.5917795 33.25767587 49 36 C48.86909762 39.20710821 48.53714743 41.23264653 46.6875 43.875 C45 45 45 45 41 45 C41 48.3 41 51.6 41 55 C39.91460937 55.04898438 38.82921875 55.09796875 37.7109375 55.1484375 C36.26560216 55.22351986 34.82029081 55.29906528 33.375 55.375 C32.66214844 55.4059375 31.94929688 55.436875 31.21484375 55.46875 C26.80477016 55.71150634 23.18640931 56.48857429 19 58 C14.60750167 58.69440231 11.68275707 58.34781964 7.6875 56.3125 C3.8604737 53.01947737 2.21558094 50.49590134 1.48828125 45.44921875 C1.43027344 44.20785156 1.37226563 42.96648437 1.3125 41.6875 C1.24675781 40.43324219 1.18101562 39.17898437 1.11328125 37.88671875 C1.07589844 36.93410156 1.03851563 35.98148438 1 35 C-0.65 34.67 -2.3 34.34 -4 34 C-3.99214478 34.99181274 -3.99214478 34.99181274 -3.98413086 36.00366211 C-3.96342344 38.98159851 -3.95035988 41.95951982 -3.9375 44.9375 C-3.92912109 45.97841797 -3.92074219 47.01933594 -3.91210938 48.09179688 C-3.90727539 49.57583008 -3.90727539 49.57583008 -3.90234375 51.08984375 C-3.89448853 52.46450806 -3.89448853 52.46450806 -3.88647461 53.86694336 C-4 56 -4 56 -5 57 C-7.5327765 57.07320163 -10.03103918 57.09227569 -12.5625 57.0625 C-15.016875 57.041875 -17.47125 57.02125 -20 57 C-20.33 49.74 -20.66 42.48 -21 35 C-21.99 34.67 -22.98 34.34 -24 34 C-24 30.04 -24 26.08 -24 22 C-23.34 22 -22.68 22 -22 22 C-22 25.3 -22 28.6 -22 32 C-20.35 32 -18.7 32 -17 32 C-17 39.26 -17 46.52 -17 54 C-13.7 54 -10.4 54 -7 54 C-7 46.74 -7 39.48 -7 32 C-3.04 32 0.92 32 5 32 C5.03738281 33.09699219 5.07476562 34.19398437 5.11328125 35.32421875 C5.17896653 36.77867857 5.24541299 38.23310416 5.3125 39.6875 C5.33505859 40.40873047 5.35761719 41.12996094 5.38085938 41.87304688 C5.6053337 46.3421267 6.169519 49.34483565 9 53 C11.24512262 54.12256131 12.51456649 54.13413762 15 54.125 C15.70125 54.12757812 16.4025 54.13015625 17.125 54.1328125 C19.09153775 54.11377236 19.09153775 54.11377236 21 53 C20.505 49.535 20.505 49.535 20 46 C18.35 45.34 16.7 44.68 15 44 C15 40.04 15 36.08 15 32 C16.98 32 18.96 32 21 32 C21 29.36 21 26.72 21 24 C19.02 24 17.04 24 15 24 C15 20.37 15 16.74 15 13 C11.7 13 8.4 13 5 13 C5 16.63 5 20.26 5 24 C1.04 24 -2.92 24 -7 24 C-7.09765625 15.50390625 -7.09765625 15.50390625 -7 13 C-6 12 -6 12 -2.9375 11.9375 C-1.4834375 11.9684375 -1.4834375 11.9684375 0 12 C0.66 9.69 1.32 7.38 2 5 C-2.08596999 3.63801 -5.73198279 3.38384259 -10 4 C-14.65096337 6.83102118 -15.51918169 10.26438659 -16.8125 15.3125 C-17.22562133 17.20464133 -17.62717618 19.09950784 -18 21 C-18.33 21 -18.66 21 -19 21 C-19.91545316 9.72636383 -19.91545316 9.72636383 -17.734375 5.61328125 C-12.47935042 -0.47081274 -7.83358576 -0.63301703 0 0 Z M-4 15 C-4 16.98 -4 18.96 -4 21 C-2.35 21 -0.7 21 1 21 C1.33 19.02 1.66 17.04 2 15 C0.02 15 -1.96 15 -4 15 Z M42 15 C41.67 16.65 41.34 18.3 41 20 C42.32 19.34 43.64 18.68 45 18 C45 17.01 45 16.02 45 15 C44.01 15 43.02 15 42 15 Z M19 34 C17.58422523 35.18424326 17.58422523 35.18424326 17.9375 38.5625 C17.958125 39.696875 17.97875 40.83125 18 42 C19.32 41.67 20.64 41.34 22 41 C22.66 44.3 23.32 47.6 24 51 C24.33 51 24.66 51 25 51 C25.14975239 43.94348748 25.14975239 43.94348748 24 37 C23.01 36.67 22.02 36.34 21 36 C21 35.34 21 34.68 21 34 C20.34 34 19.68 34 19 34 Z M41 34 C41 36.64 41 39.28 41 42 C42.98491642 41.73323796 42.98491642 41.73323796 45 41 C46.33304698 38.10813214 46.33304698 38.10813214 45.0625 35.8125 C44.711875 35.214375 44.36125 34.61625 44 34 C43.01 34 42.02 34 41 34 Z " fill="#C9DBE7" transform="translate(213,28)"/>
<path d="M0 0 C0.76183594 -0.00515625 1.52367187 -0.0103125 2.30859375 -0.015625 C4.77693018 0.2752708 6.420186 1.02024344 8.5625 2.25 C6.97700777 7.09455959 6.97700777 7.09455959 5.5625 9.25 C2.375 10.1875 2.375 10.1875 -0.4375 10.25 C-0.7675 13.88 -1.0975 17.51 -1.4375 21.25 C2.5225 21.25 6.4825 21.25 10.5625 21.25 C10.5625 17.62 10.5625 13.99 10.5625 10.25 C13.8625 10.25 17.1625 10.25 20.5625 10.25 C20.5625 13.88 20.5625 17.51 20.5625 21.25 C22.5425 21.25 24.5225 21.25 26.5625 21.25 C26.5625 23.89 26.5625 26.53 26.5625 29.25 C24.5825 29.25 22.6025 29.25 20.5625 29.25 C21.0575 35.19 21.0575 35.19 21.5625 41.25 C23.2125 41.91 24.8625 42.57 26.5625 43.25 C27.0575 46.715 27.0575 46.715 27.5625 50.25 C23.87356884 52.70928744 20.84608579 52.94305579 16.5625 52.25 C13.11937286 50.1255173 11.84632453 49.10147359 10.5625 45.25 C10.49198886 42.51134713 10.46892235 39.79972412 10.5 37.0625 C10.50451172 36.31291016 10.50902344 35.56332031 10.51367188 34.79101562 C10.52543646 32.94397617 10.54337135 31.09697787 10.5625 29.25 C6.6025 29.25 2.6425 29.25 -1.4375 29.25 C-1.4375 36.51 -1.4375 43.77 -1.4375 51.25 C-4.7375 51.25 -8.0375 51.25 -11.4375 51.25 C-11.4375 43.99 -11.4375 36.73 -11.4375 29.25 C-13.0875 29.25 -14.7375 29.25 -16.4375 29.25 C-16.4375 26.61 -16.4375 23.97 -16.4375 21.25 C-14.7875 21.25 -13.1375 21.25 -11.4375 21.25 C-11.48390625 20.38117187 -11.5303125 19.51234375 -11.578125 18.6171875 C-11.9097547 8.02872482 -11.9097547 8.02872482 -9.625 4.5625 C-6.49117168 1.24959578 -4.49958121 -0.03035131 0 0 Z " fill="#050506" transform="translate(207.4375,30.75)"/>
<path d="M0 0 C3.97544668 3.49357435 6.86177208 6.7249296 7.375 12.0625 C7.01106262 16.42974859 5.64030116 18.34857969 3.0625 21.8125 C3.0625 22.4725 3.0625 23.1325 3.0625 23.8125 C3.8875 24.43125 4.7125 25.05 5.5625 25.6875 C8.35000755 28.38689668 8.60109151 30.81484237 8.8125 34.625 C8.57401529 40.31356178 7.05280885 43.37774471 3.00390625 47.3203125 C-0.93089435 50.34464616 -4.06485546 50.8125 -8.9375 50.8125 C-8.9375 47.5125 -8.9375 44.2125 -8.9375 40.8125 C-6.4625 40.3175 -6.4625 40.3175 -3.9375 39.8125 C-2.74197419 34.4227468 -2.74197419 34.4227468 -4.1875 29.375 C-5.95970209 27.58512606 -5.95970209 27.58512606 -8.9375 26.8125 C-9.37963264 21.41848179 -9.37963264 21.41848179 -8.9375 18.8125 C-6.4375 17.1875 -6.4375 17.1875 -3.9375 15.8125 C-3.35404524 12.76996492 -3.35404524 12.76996492 -3.9375 9.8125 C-4.5975 9.1525 -5.2575 8.4925 -5.9375 7.8125 C-9.24433466 8.10233269 -9.24433466 8.10233269 -11.9375 9.8125 C-12.09779688 12.76779504 -12.19707328 15.70232457 -12.25390625 18.66015625 C-12.27468735 19.5465831 -12.29546844 20.43300995 -12.31687927 21.34629822 C-12.382474 24.189117 -12.44130552 27.03203117 -12.5 29.875 C-12.5431758 31.79753606 -12.58678978 33.72006234 -12.63085938 35.64257812 C-12.73816543 40.36578668 -12.83940451 45.08909153 -12.9375 49.8125 C-16.2375 49.8125 -19.5375 49.8125 -22.9375 49.8125 C-22.9375 43.5425 -22.9375 37.2725 -22.9375 30.8125 C-24.2575 30.8125 -25.5775 30.8125 -26.9375 30.8125 C-26.9375 28.1725 -26.9375 25.5325 -26.9375 22.8125 C-25.6175 22.8125 -24.2975 22.8125 -22.9375 22.8125 C-22.98390625 21.88308594 -23.0303125 20.95367187 -23.078125 19.99609375 C-23.44883549 7.29925938 -23.44883549 7.29925938 -18.9375 1.8125 C-14.0395853 -2.78857139 -5.94542021 -2.40346774 0 0 Z " fill="#050405" transform="translate(263.9375,32.1875)"/>
<path d="M0 0 C0.66 0 1.32 0 2 0 C6 4.47058824 6 4.47058824 6 7 C3.56866946 8.63863397 1.15228465 10.14921334 -1.375 11.625 C-2.07367188 12.04523437 -2.77234375 12.46546875 -3.4921875 12.8984375 C-8.72859172 16 -8.72859172 16 -11 16 C-11 16.66 -11 17.32 -11 18 C-9.845 17.9175 -8.69 17.835 -7.5 17.75 C-2.62271039 17.77594303 1.09940142 19.05729178 5 22 C8.6221241 26.20207094 9 29.34431084 9 35 C1.74 35 -5.52 35 -13 35 C-12.01 36.65 -11.02 38.3 -10 40 C-5.40732719 40.51029698 -1.95523262 40.63682175 2 38 C3.98 39.32 5.96 40.64 8 42 C5.39624678 45.74289525 3.62301527 48.18486366 -0.875 49.375 C-2.24419499 49.61858338 -3.61996464 49.82815652 -5 50 C-6.155 50.144375 -7.31 50.28875 -8.5 50.4375 C-13.92089319 49.75988835 -17.97503269 47.55815198 -21.39453125 43.23828125 C-24.41831047 37.97070826 -24.43866079 32.9462907 -24 27 C-24.33 27 -24.66 27 -25 27 C-25 23.7 -25 20.4 -25 17 C-24.01 18.32 -23.02 19.64 -22 21 C-21.2575 20.38125 -20.515 19.7625 -19.75 19.125 C-17.51198812 17.39562719 -15.56260013 16.13893339 -13 15 C-13.4640625 13.453125 -13.4640625 13.453125 -13.9375 11.875 C-14 8 -14 8 -12.5078125 6.19921875 C-10.7252298 4.69941523 -8.9252082 3.3106779 -7 2 C-6.34 2.33 -5.68 2.66 -5 3 C-3.08576342 2.18789963 -1.47927983 1.47927983 0 0 Z " fill="#09090A" transform="translate(437,33)"/>
<path d="M0 0 C3.125 1.5 3.125 1.5 5 3 C5 2.34 5 1.68 5 1 C8.3 1 11.6 1 15 1 C15 10.9 15 20.8 15 31 C11.7 31 8.4 31 5 31 C4.67 30.34 4.34 29.68 4 29 C3.154375 29.495 2.30875 29.99 1.4375 30.5 C-2.48083062 32.209817 -4.76813363 32.5289833 -9 32 C-14.27838327 29.2055618 -18.08864461 25.73406618 -20 20 C-20.53647936 13.6695435 -19.71212234 9.2433728 -16 4 C-11.20163666 -0.56986985 -6.32982792 -0.91629789 0 0 Z M-5 12 C-5.67801034 14.90073181 -5.67801034 14.90073181 -6 18 C-5.34 18.66 -4.68 19.32 -4 20 C-0.69316534 19.71016731 -0.69316534 19.71016731 2 18 C2.04063832 16.33382885 2.042721 14.66611905 2 13 C-1.26085939 11.02948211 -1.26085939 11.02948211 -5 12 Z " fill="#060506" transform="translate(331,51)"/>
<path d="M0 0 C2.86688248 0.09096556 5.70300515 0.23767988 8.5625 0.4375 C9.36880859 0.48970703 10.17511719 0.54191406 11.00585938 0.59570312 C13.00421738 0.72577376 15.00215386 0.86229056 17 1 C18.65 4.3 20.3 7.6 22 11 C24.00993705 8.99006295 24.89940919 7.40788768 26.125 4.875 C26.74375 3.59625 27.3625 2.3175 28 1 C31.63 1 35.26 1 39 1 C42.875 8.625 42.875 8.625 44 12 C45.32 9.36 46.64 6.72 48 4 C48.66 4.66 49.32 5.32 50 6 C49.71857705 10.78419016 47.2129098 14.8520807 45 19 C42.08975798 16.49941082 40.83208836 13.80344623 39.3125 10.3125 C38.87550781 9.31863281 38.43851563 8.32476562 37.98828125 7.30078125 C37.49908203 6.16189453 37.49908203 6.16189453 37 5 C34.69 5 32.38 5 30 5 C27.69 9.62 25.38 14.24 23 19 C20.7197488 15.95966506 19.28706127 13.75349671 17.8125 10.375 C17.46832031 9.59898438 17.12414062 8.82296875 16.76953125 8.0234375 C16 6 16 6 16 4 C12.04 4 8.08 4 4 4 C5.93560308 7.73016222 7.87340265 11.4591548 9.8125 15.1875 C10.35970703 16.24259766 10.90691406 17.29769531 11.47070312 18.38476562 C12.00244141 19.40634766 12.53417969 20.42792969 13.08203125 21.48046875 C13.81256714 22.88655396 13.81256714 22.88655396 14.55786133 24.32104492 C15.54345272 26.15190566 16.58859657 27.95161144 17.68237305 29.7199707 C19 32 19 32 19 34 C21.64 34 24.28 34 27 34 C27.18175781 33.41992188 27.36351562 32.83984375 27.55078125 32.2421875 C29.0418106 27.60852707 30.68333576 23.30237645 33 19 C36.30616284 22.80208727 40 28.83581485 40 34 C42.64 34 45.28 34 48 34 C48.27328125 33.11916748 48.5465625 32.23833496 48.828125 31.33081055 C49.91483444 28.24206535 51.1742911 25.56962204 52.75 22.70703125 C53.2759375 21.74732422 53.801875 20.78761719 54.34375 19.79882812 C55.16359375 18.3205957 55.16359375 18.3205957 56 16.8125 C56.5465625 15.81541016 57.093125 14.81832031 57.65625 13.79101562 C61.67446911 6.48829633 61.67446911 6.48829633 64 3 C64.66 3 65.32 3 66 3 C66 13.23 66 23.46 66 34 C69.63 34 73.26 34 77 34 C77 23.77 77 13.54 77 3 C77.33 3 77.66 3 78 3 C78.81014451 10.9278427 79.10791447 18.78529739 79.125 26.75 C79.12951172 27.64364258 79.13402344 28.53728516 79.13867188 29.45800781 C79.13673828 30.29170898 79.13480469 31.12541016 79.1328125 31.984375 C79.13168457 32.73428711 79.13055664 33.48419922 79.12939453 34.25683594 C79 36 79 36 78 37 C75.66839945 37.09909302 73.33370058 37.12970504 71 37.125 C69.72125 37.12757812 68.4425 37.13015625 67.125 37.1328125 C64 37 64 37 63 36 C62.84285346 34.36743242 62.74914586 32.72864662 62.68359375 31.08984375 C62.64169922 30.10048828 62.59980469 29.11113281 62.55664062 28.09179688 C62.51732422 27.05087891 62.47800781 26.00996094 62.4375 24.9375 C62.39431641 23.89271484 62.35113281 22.84792969 62.30664062 21.77148438 C62.20018775 19.18113116 62.0981724 16.59067814 62 14 C61.64172119 14.6612085 61.28344238 15.32241699 60.91430664 16.00366211 C59.2988498 18.98259493 57.68071216 21.96006309 56.0625 24.9375 C55.49853516 25.97841797 54.93457031 27.01933594 54.35351562 28.09179688 C53.54624023 29.57583008 53.54624023 29.57583008 52.72265625 31.08984375 C52.22515869 32.00628662 51.72766113 32.92272949 51.21508789 33.86694336 C50 36 50 36 49 37 C45.66381769 37.14257189 42.34024394 37.04228157 39 37 C37.35 33.7 35.7 30.4 34 27 C32.52774699 29.20837951 31.17899562 31.3837744 29.875 33.6875 C29.25625 34.780625 28.6375 35.87375 28 37 C26.44377142 37.21756982 24.87863893 37.37196528 23.3125 37.5 C22.44238281 37.5928125 21.57226562 37.685625 20.67578125 37.78125 C16.93436448 36.68886554 16.17414407 34.73024369 14.31469727 31.42431641 C13.88084717 30.62429199 13.44699707 29.82426758 13 29 C11.98921765 27.28826893 10.97474627 25.57871209 9.95703125 23.87109375 C8.90709978 22.06091227 7.85894485 20.24969929 6.8125 18.4375 C6.27947266 17.53064453 5.74644531 16.62378906 5.19726562 15.68945312 C2.40357931 10.84354945 0.22279749 6.46883051 -1 1 C-0.67 0.67 -0.34 0.34 0 0 Z " fill="#C5DEF2" transform="translate(110,48)"/>
<path d="M0 0 C3.10749914 2.78039397 3.91835789 4.34686309 4.4375 8.5 C3.98361382 12.13108948 3.13143595 14.06927557 1 17 C2.65 17 4.3 17 6 17 C6.33 14.03 6.66 11.06 7 8 C7.33 8 7.66 8 8 8 C8.495 10.475 8.495 10.475 9 13 C9.33 13 9.66 13 10 13 C10 15.64 10 18.28 10 21 C8.35 21 6.7 21 5 21 C5 20.34 5 19.68 5 19 C4.34 19 3.68 19 3 19 C3.33 23.29 3.66 27.58 4 32 C3.01 32.495 3.01 32.495 2 33 C1.67 38.94 1.34 44.88 1 51 C-2.63 51 -6.26 51 -10 51 C-10 40.77 -10 30.54 -10 20 C-10.66 20 -11.32 20 -12 20 C-12.33 20.66 -12.66 21.32 -13 22 C-16.96 21.67 -20.92 21.34 -25 21 C-25 21.66 -25 22.32 -25 23 C-25.66 23 -26.32 23 -27 23 C-26.67 21.35 -26.34 19.7 -26 18 C-20.72 17.67 -15.44 17.34 -10 17 C-10.70125 15.80375 -11.4025 14.6075 -12.125 13.375 C-13.72129661 10.18804741 -14.05643023 9.33231134 -13.4375 5.6875 C-10.23801527 -0.29414537 -6.68652733 -1.91043638 0 0 Z " fill="#BBC6D0" transform="translate(186,31)"/>
<path d="M0 0 C3.08731756 2.0821444 4.79426972 3.58699656 6.6875 6.8125 C7.0175 9.7825 7.3475 12.7525 7.6875 15.8125 C0.4275 15.8125 -6.8325 15.8125 -14.3125 15.8125 C-12.0622694 20.8871202 -12.0622694 20.8871202 -9.15625 21.37109375 C-8.3828125 21.33113281 -7.609375 21.29117188 -6.8125 21.25 C-6.0390625 21.22808594 -5.265625 21.20617187 -4.46875 21.18359375 C-2.02369528 20.91285433 -2.02369528 20.91285433 0.6875 18.8125 C2.6675 19.8025 4.6475 20.7925 6.6875 21.8125 C6.5625 23.5625 6.5625 23.5625 5.6875 25.8125 C-0.18716441 30.28235335 -5.0598243 31.68137296 -12.3125 30.8125 C-17.15125464 29.07696227 -20.47673577 26.06614635 -23.3125 21.8125 C-24.66932449 17.74202653 -24.83722254 14.06858283 -24.3125 9.8125 C-19.27847753 -0.06909966 -10.36011178 -3.71400234 0 0 Z " fill="#080708" transform="translate(300.3125,52.1875)"/>
<path d="M0 0 C3.3 0 6.6 0 10 0 C10.04898437 1.26457031 10.09796875 2.52914062 10.1484375 3.83203125 C10.2234738 5.49220947 10.29902127 7.15236464 10.375 8.8125 C10.4059375 9.64587891 10.436875 10.47925781 10.46875 11.33789062 C10.50742187 12.14033203 10.54609375 12.94277344 10.5859375 13.76953125 C10.6173584 14.50792236 10.6487793 15.24631348 10.68115234 16.00708008 C10.90834614 18.31349588 10.90834614 18.31349588 13 21 C16.58357241 21.25015873 16.58357241 21.25015873 20 21 C21.14654482 18.70691037 21.19729117 17.20090344 21.31640625 14.6484375 C21.35830078 13.79765625 21.40019531 12.946875 21.44335938 12.0703125 C21.48267578 11.18085937 21.52199219 10.29140625 21.5625 9.375 C21.60568359 8.4778125 21.64886719 7.580625 21.69335938 6.65625 C21.79956715 4.43768761 21.90029959 2.21886435 22 0 C25.63 0 29.26 0 33 0 C33.08122832 3.37548805 33.14061118 6.74900518 33.1875 10.125 C33.21263672 11.07632813 33.23777344 12.02765625 33.26367188 13.0078125 C33.32017148 18.43177433 33.13616356 22.34802405 30 27 C23.92098581 31.5202926 17.34174034 31.59585139 10 31 C5.75107147 29.48252552 3.31027127 27.89098319 1 24 C0.01956036 21.05868109 -0.11621202 19.17498335 -0.09765625 16.11328125 C-0.09443359 15.17548828 -0.09121094 14.23769531 -0.08789062 13.27148438 C-0.07532227 11.80678711 -0.07532227 11.80678711 -0.0625 10.3125 C-0.05798828 9.32443359 -0.05347656 8.33636719 -0.04882812 7.31835938 C-0.0370432 4.87888042 -0.01910783 2.43943259 0 0 Z " fill="#080809" transform="translate(353,52)"/>
<path d="M0 0 C3.24771257 1.62385629 5.19791385 2.98867399 7.4375 5.8125 C8.29972945 9.16561453 7.84741162 11.6708829 7 15 C4.53924074 17.54561303 2.37325392 18.22210077 -1 19 C0.03060547 19.74443359 0.03060547 19.74443359 1.08203125 20.50390625 C10.41306022 27.53888803 10.41306022 27.53888803 12 34 C12.78079056 39.59735568 12.17798995 44.18034954 9.41015625 49.140625 C6.22515928 53.34023319 1.97329456 56.34223515 -3 58 C-10.25503055 58.6556398 -17.13610493 58.80670245 -23 54 C-25.61580846 50.93088382 -26.84472525 47.86263747 -27.5625 43.875 C-26.77683893 39.85939897 -25.2596036 38.40927223 -22 36 C-19 35.1875 -19 35.1875 -16 36 C-14.54754899 37.98688402 -13.40818371 40.05352587 -12.2265625 42.2109375 C-11.09209072 44.29739959 -11.09209072 44.29739959 -8.3125 44.625 C-5.8272323 44.15931527 -5.8272323 44.15931527 -4 42 C-3.88261806 39.54766958 -3.88261806 39.54766958 -5 37 C-7.56489403 34.64564139 -7.56489403 34.64564139 -10.75 32.5625 C-21.6999844 24.7447692 -21.6999844 24.7447692 -23.0625 18.125 C-23.38005379 13.38891208 -21.69670178 9.81608742 -19 6 C-13.16900042 0.4605504 -7.91731831 -1.02400647 0 0 Z M-17.62890625 8.83984375 C-20.07389756 12.69192408 -19.81368103 16.6129031 -19 21 C-15.94187586 26.91932362 -9.71091425 30.88184082 -4 34 C-3.34 34 -2.68 34 -2 34 C-0.6774658 41.21382289 -0.6774658 41.21382289 -2 44.4375 C-4.89251492 46.69727728 -7.38758129 46.80647757 -11 47 C-11.99 46.67 -12.98 46.34 -14 46 C-15.125 43 -15.125 43 -16 40 C-17.05310277 38.72996677 -17.05310277 38.72996677 -19.4375 38.8125 C-22.16734675 38.73160017 -22.16734675 38.73160017 -24 41 C-24.09672084 46.36191181 -24.09672084 46.36191181 -21.47265625 50.82421875 C-17.74015963 54.08324857 -14.92821756 55.80717824 -9.875 56.3125 C-3.76443694 55.81971266 1.17986511 53.91347514 5.4375 49.4375 C5.953125 48.633125 6.46875 47.82875 7 47 C7.66 46.01 8.32 45.02 9 44 C9.76322071 38.95470941 9.97306646 33.69075812 7.1875 29.25 C3.98502803 25.40888477 -0.31277629 23.00042863 -4.57421875 20.48046875 C-7 19 -7 19 -9 17 C-8.625 14.375 -8.625 14.375 -8 12 C-3.125 12.875 -3.125 12.875 -2 14 C1 14.16666667 1 14.16666667 4 14 C4.33 13.67 4.66 13.34 5 13 C4.84829516 7.97737716 4.84829516 7.97737716 2 4.0625 C-5.79698198 1.30106888 -12.00900735 2.49218816 -17.62890625 8.83984375 Z M-7 15 C-6.01 15.99 -5.02 16.98 -4 18 C-3.34 17.67 -2.68 17.34 -2 17 C-2.66 16.34 -3.32 15.68 -4 15 C-4.99 15 -5.98 15 -7 15 Z " fill="#C5DCEE" transform="translate(102,29)"/>
<path d="M0 0 C3.3 0 6.6 0 10 0 C10 3.63 10 7.26 10 11 C11.98 11 13.96 11 16 11 C16 13.64 16 16.28 16 19 C14.02 19 12.04 19 10 19 C10.33 22.96 10.66 26.92 11 31 C12.65 31.66 14.3 32.32 16 33 C17.3125 36.625 17.3125 36.625 18 40 C14.83305545 42.11129637 11.74480087 42.47202483 7.96875 42.39453125 C4.61306974 41.72206358 3.04063604 39.59717314 1 37 C-0.59412284 33.81175432 -0.10174735 30.37103338 -0.0625 26.875 C-0.05798828 26.12089844 -0.05347656 25.36679688 -0.04882812 24.58984375 C-0.03703499 22.72652873 -0.01909942 20.86325445 0 19 C-1.32 19 -2.64 19 -4 19 C-4 16.36 -4 13.72 -4 11 C-2.68 11 -1.36 11 0 11 C0 7.37 0 3.74 0 0 Z " fill="#050405" transform="translate(394,41)"/>
<path d="M0 0 C3.63 0 7.26 0 11 0 C11 0.33 11 0.66 11 1 C8.03 1 5.06 1 2 1 C2 4.96 2 8.92 2 13 C0.68 13 -0.64 13 -2 13 C-2 15.64 -2 18.28 -2 21 C-1.01 21 -0.02 21 1 21 C1 24.96 1 28.92 1 33 C0.67 33 0.34 33 0 33 C0 29.7 0 26.4 0 23 C-1.32 23 -2.64 23 -4 23 C-3.95359375 23.86882813 -3.9071875 24.73765625 -3.859375 25.6328125 C-3.49978364 37.11405081 -3.49978364 37.11405081 -8 42 C-8.66515625 42.77923828 -8.66515625 42.77923828 -9.34375 43.57421875 C-13.30680013 46.98580671 -20.0512463 47.08363593 -25.125 47.375 C-31.34253939 46.77330264 -35.43192246 44.88973447 -39.4375 40.0625 C-41.66391329 35.69872995 -42.12634658 31.80995678 -42.1328125 26.953125 C-42.13410156 26.02628906 -42.13539063 25.09945312 -42.13671875 24.14453125 C-42.13285156 23.18933594 -42.12898438 22.23414062 -42.125 21.25 C-42.12886719 20.27933594 -42.13273437 19.30867188 -42.13671875 18.30859375 C-42.13542969 17.38691406 -42.13414062 16.46523438 -42.1328125 15.515625 C-42.13168457 14.67290039 -42.13055664 13.83017578 -42.12939453 12.96191406 C-42 11 -42 11 -41 10 C-38.4672235 9.92679837 -35.96896082 9.90772431 -33.4375 9.9375 C-30.983125 9.958125 -28.52875 9.97875 -26 10 C-25.67 16.93 -25.34 23.86 -25 31 C-23.68 31.33 -22.36 31.66 -21 32 C-20.2867302 25.00388553 -19.62858528 18.00423596 -19 11 C-12.73 11 -6.46 11 0 11 C0 7.37 0 3.74 0 0 Z M-39 13 C-39.08122832 16.37548805 -39.14061118 19.74900518 -39.1875 23.125 C-39.21263672 24.07632813 -39.23777344 25.02765625 -39.26367188 26.0078125 C-39.3203279 31.44679044 -39.10512895 35.31599192 -36 40 C-31.36712208 44.19854561 -26.86575471 44.28639641 -20.86328125 44.21484375 C-16.61421811 43.89601909 -13.79947459 42.96758506 -10 41 C-8.00916823 38.5748212 -8.00916823 38.5748212 -7 36 C-6.67 35.34 -6.34 34.68 -6 34 C-5.91599471 32.40552536 -5.89272533 30.80759455 -5.90234375 29.2109375 C-5.90556641 28.26992187 -5.90878906 27.32890625 -5.91210938 26.359375 C-5.92048828 25.37453125 -5.92886719 24.3896875 -5.9375 23.375 C-5.94201172 22.38242187 -5.94652344 21.38984375 -5.95117188 20.3671875 C-5.96297839 17.91143278 -5.98091418 15.45570894 -6 13 C-9.63 13 -13.26 13 -17 13 C-17.09087891 15.02253906 -17.09087891 15.02253906 -17.18359375 17.0859375 C-17.26799422 18.8489696 -17.35264247 20.61198984 -17.4375 22.375 C-17.47681641 23.26445313 -17.51613281 24.15390625 -17.55664062 25.0703125 C-17.59853516 25.92109375 -17.64042969 26.771875 -17.68359375 27.6484375 C-17.72025146 28.43395996 -17.75690918 29.21948242 -17.79467773 30.02880859 C-18 32 -18 32 -19 34 C-22.375 34.1875 -22.375 34.1875 -26 34 C-28.0140956 30.9788566 -28.26836596 30.19339983 -28.4140625 26.76953125 C-28.45273437 25.96708984 -28.49140625 25.16464844 -28.53125 24.33789062 C-28.5621875 23.50451172 -28.593125 22.67113281 -28.625 21.8125 C-28.66367187 20.96751953 -28.70234375 20.12253906 -28.7421875 19.25195312 C-28.83636279 17.16832476 -28.91926675 15.08419247 -29 13 C-32.3 13 -35.6 13 -39 13 Z " fill="#D3E0EA" transform="translate(392,39)"/>
<path d="M0 0 C3.19706535 1.27882614 4.50115896 1.85979191 5.875 5 C6 7 6 7 5 10 C5.85464844 9.98839844 6.70929688 9.97679687 7.58984375 9.96484375 C8.69457031 9.95582031 9.79929688 9.94679688 10.9375 9.9375 C12.03964844 9.92589844 13.14179688 9.91429687 14.27734375 9.90234375 C17 10 17 10 18 11 C18.07205511 12.68608966 18.08386068 14.37500659 18.0625 16.0625 C18.05347656 16.98160156 18.04445312 17.90070312 18.03515625 18.84765625 C18.02355469 19.55792969 18.01195312 20.26820312 18 21 C19.98 21 21.96 21 24 21 C24.33 18.03 24.66 15.06 25 12 C25.33 12 25.66 12 26 12 C26 16.29 26 20.58 26 25 C24.68 25.33 23.36 25.66 22 26 C22 27.98 22 29.96 22 32 C21.67 32 21.34 32 21 32 C21 29.36 21 26.72 21 24 C19.02 24 17.04 24 15 24 C15 20.37 15 16.74 15 13 C11.7 13 8.4 13 5 13 C5 16.63 5 20.26 5 24 C1.04 24 -2.92 24 -7 24 C-7.09765625 15.50390625 -7.09765625 15.50390625 -7 13 C-6 12 -6 12 -2.9375 11.9375 C-1.4834375 11.9684375 -1.4834375 11.9684375 0 12 C0.66 9.69 1.32 7.38 2 5 C-2.08596999 3.63801 -5.73198279 3.38384259 -10 4 C-14.65096337 6.83102118 -15.51918169 10.26438659 -16.8125 15.3125 C-17.22562133 17.20464133 -17.62717618 19.09950784 -18 21 C-18.33 21 -18.66 21 -19 21 C-19.91545316 9.72636383 -19.91545316 9.72636383 -17.734375 5.61328125 C-12.47935042 -0.47081274 -7.83358576 -0.63301703 0 0 Z M-4 15 C-4 16.98 -4 18.96 -4 21 C-2.35 21 -0.7 21 1 21 C1.33 19.02 1.66 17.04 2 15 C0.02 15 -1.96 15 -4 15 Z " fill="#C4D3E0" transform="translate(213,28)"/>
<path d="M0 0 C5.61 0.33 11.22 0.66 17 1 C18.65 4.3 20.3 7.6 22 11 C24.00993705 8.99006295 24.89940919 7.40788768 26.125 4.875 C26.74375 3.59625 27.3625 2.3175 28 1 C31.63 1 35.26 1 39 1 C42.875 8.625 42.875 8.625 44 12 C45.32 9.36 46.64 6.72 48 4 C48.66 4.66 49.32 5.32 50 6 C49.71857705 10.78419016 47.2129098 14.8520807 45 19 C42.08975798 16.49941082 40.83208836 13.80344623 39.3125 10.3125 C38.87550781 9.31863281 38.43851563 8.32476562 37.98828125 7.30078125 C37.49908203 6.16189453 37.49908203 6.16189453 37 5 C34.69 5 32.38 5 30 5 C27.69 9.62 25.38 14.24 23 19 C20.7197488 15.95966506 19.28706127 13.75349671 17.8125 10.375 C17.46832031 9.59898438 17.12414062 8.82296875 16.76953125 8.0234375 C16 6 16 6 16 4 C12.04 4 8.08 4 4 4 C5.24716797 6.38605469 5.24716797 6.38605469 6.51953125 8.8203125 C7.6172149 10.92186069 8.71486963 13.02342398 9.8125 15.125 C10.35970703 16.17171875 10.90691406 17.2184375 11.47070312 18.296875 C14.01991618 23.17900425 16.56425653 28.06014131 19 33 C18.34 33.99 17.68 34.98 17 36 C14.93324796 32.37740898 12.87240016 28.75149089 10.8125 25.125 C10.23435547 24.11179687 9.65621094 23.09859375 9.06054688 22.0546875 C6.31442615 17.21406792 3.60050212 12.35652462 1.01171875 7.4296875 C0.39043091 6.2538208 0.39043091 6.2538208 -0.2434082 5.05419922 C-1 3 -1 3 0 0 Z " fill="#D8E6EF" transform="translate(110,48)"/>
<path d="M0 0 C3.3 0 6.6 0 10 0 C10 9.9 10 19.8 10 30 C6.7 30 3.4 30 0 30 C0 20.1 0 10.2 0 0 Z " fill="#010102" transform="translate(176,52)"/>
<path d="M0 0 C0.66 0 1.32 0 2 0 C2 3.3 2 6.6 2 10 C3.65 10 5.3 10 7 10 C7 17.26 7 24.52 7 32 C10.3 32 13.6 32 17 32 C17 24.74 17 17.48 17 10 C20.63 10 24.26 10 28 10 C28 13.3 28 16.6 28 20 C27.67 20 27.34 20 27 20 C27 17.36 27 14.72 27 12 C24.69 12 22.38 12 20 12 C20.00785522 12.99181274 20.00785522 12.99181274 20.01586914 14.00366211 C20.03657656 16.98159851 20.04964012 19.95951982 20.0625 22.9375 C20.07087891 23.97841797 20.07925781 25.01933594 20.08789062 26.09179688 C20.09272461 27.57583008 20.09272461 27.57583008 20.09765625 29.08984375 C20.10551147 30.46450806 20.10551147 30.46450806 20.11352539 31.86694336 C20 34 20 34 19 35 C16.4672235 35.07320163 13.96896082 35.09227569 11.4375 35.0625 C8.983125 35.041875 6.52875 35.02125 4 35 C3.67 27.74 3.34 20.48 3 13 C2.01 12.67 1.02 12.34 0 12 C0 8.04 0 4.08 0 0 Z " fill="#B6CBDE" transform="translate(189,50)"/>
<path d="M0 0 C0.66 0 1.32 0 2 0 C6 4.47058824 6 4.47058824 6 7 C3.56866946 8.63863397 1.15228465 10.14921334 -1.375 11.625 C-2.07367188 12.04523437 -2.77234375 12.46546875 -3.4921875 12.8984375 C-8.72859172 16 -8.72859172 16 -11 16 C-11.33 16.99 -11.66 17.98 -12 19 C-13.7421875 20.24609375 -13.7421875 20.24609375 -15.875 21.4375 C-18.98240558 23.27521298 -21.1207896 24.82883246 -23 28 C-23.66 27.67 -24.32 27.34 -25 27 C-25 23.7 -25 20.4 -25 17 C-24.01 18.32 -23.02 19.64 -22 21 C-21.2575 20.38125 -20.515 19.7625 -19.75 19.125 C-17.51198812 17.39562719 -15.56260013 16.13893339 -13 15 C-13.4640625 13.453125 -13.4640625 13.453125 -13.9375 11.875 C-14 8 -14 8 -12.5078125 6.19921875 C-10.7252298 4.69941523 -8.9252082 3.3106779 -7 2 C-6.34 2.33 -5.68 2.66 -5 3 C-3.08576342 2.18789963 -1.47927983 1.47927983 0 0 Z " fill="#BDD0E4" transform="translate(437,33)"/>
<path d="M0 0 C3.63 0 7.26 0 11 0 C11 0.33 11 0.66 11 1 C8.03 1 5.06 1 2 1 C2 4.96 2 8.92 2 13 C0.68 13 -0.64 13 -2 13 C-2 15.64 -2 18.28 -2 21 C-1.01 21 -0.02 21 1 21 C1 24.96 1 28.92 1 33 C0.67 33 0.34 33 0 33 C0 29.7 0 26.4 0 23 C-1.32 23 -2.64 23 -4 23 C-3.98839844 23.61488281 -3.97679687 24.22976562 -3.96484375 24.86328125 C-3.95582031 25.67152344 -3.94679688 26.47976562 -3.9375 27.3125 C-3.92589844 28.11300781 -3.91429687 28.91351563 -3.90234375 29.73828125 C-4 32 -4 32 -5 35 C-5.66 34.67 -6.32 34.34 -7 34 C-6.67 27.07 -6.34 20.14 -6 13 C-9.63 13 -13.26 13 -17 13 C-16.97679687 14.33675781 -16.95359375 15.67351563 -16.9296875 17.05078125 C-16.9109292 18.80468192 -16.89272907 20.55858862 -16.875 22.3125 C-16.84986328 23.63411133 -16.84986328 23.63411133 -16.82421875 24.98242188 C-16.81777344 25.82998047 -16.81132812 26.67753906 -16.8046875 27.55078125 C-16.79421387 28.33106689 -16.78374023 29.11135254 -16.77294922 29.9152832 C-17 32 -17 32 -19 35 C-19.66 35 -20.32 35 -21 35 C-20.40168583 26.99277413 -19.74618498 18.99483907 -19 11 C-12.73 11 -6.46 11 0 11 C0 7.37 0 3.74 0 0 Z " fill="#E6EFF0" transform="translate(392,39)"/>
<path d="M0 0 C0.33 0 0.66 0 1 0 C1.03738281 1.09699219 1.07476562 2.19398437 1.11328125 3.32421875 C1.17896653 4.77867857 1.24541299 6.23310416 1.3125 7.6875 C1.33505859 8.40873047 1.35761719 9.12996094 1.38085938 9.87304688 C1.6053337 14.3421267 2.169519 17.34483565 5 21 C7.24512262 22.12256131 8.51456649 22.13413762 11 22.125 C11.70125 22.12757812 12.4025 22.13015625 13.125 22.1328125 C15.09153775 22.11377236 15.09153775 22.11377236 17 21 C16.73606499 17.56769552 16.73606499 17.56769552 16 14 C15.01 13.34 14.02 12.68 13 12 C12.70703125 9.6171875 12.70703125 9.6171875 12.8125 6.875 C12.83957031 5.96492188 12.86664063 5.05484375 12.89453125 4.1171875 C12.92933594 3.41851562 12.96414062 2.71984375 13 2 C13.66 2.33 14.32 2.66 15 3 C15 4.98 15 6.96 15 9 C15.99 9 16.98 9 18 9 C18.66 11.31 19.32 13.62 20 16 C19.505 11.05 19.505 11.05 19 6 C18.01 5.67 17.02 5.34 16 5 C16.33 4.01 16.66 3.02 17 2 C18.9375 2.375 18.9375 2.375 21 3 C22.17426264 5.34852528 22.11508173 6.73774065 22.09765625 9.3515625 C22.09443359 10.20234375 22.09121094 11.053125 22.08789062 11.9296875 C22.07951172 12.81914063 22.07113281 13.70859375 22.0625 14.625 C22.05798828 15.5221875 22.05347656 16.419375 22.04882812 17.34375 C22.03702591 19.56256648 22.02056155 21.78125018 22 24 C20.824375 24.2165625 20.824375 24.2165625 19.625 24.4375 C17.03578982 24.87798925 17.03578982 24.87798925 15 26 C10.29223 26.39231417 7.92920303 26.47336758 3.6875 24.3125 C-0.24649105 20.92743794 -1.80620024 18.42760892 -2.51171875 13.23046875 C-2.58399635 11.88347709 -2.64234586 10.53567347 -2.6875 9.1875 C-2.72166016 8.49462891 -2.75582031 7.80175781 -2.79101562 7.08789062 C-2.87286344 5.39247151 -2.93812365 3.69626542 -3 2 C-2.34 2 -1.68 2 -1 2 C-0.67 1.34 -0.34 0.68 0 0 Z " fill="#CFE4F2" transform="translate(217,60)"/>
<path d="M0 0 C2.73947939 2.31858903 3.36169275 3.85269268 3.8125 7.375 C4.61228094 11.36745488 5.71464309 13.36890581 9.14453125 15.81640625 C9.75683594 16.20699219 10.36914062 16.59757812 11 17 C12.58387992 18.04083538 14.16719043 19.08253766 15.75 20.125 C16.50796875 20.60195313 17.2659375 21.07890625 18.046875 21.5703125 C20 23 20 23 22 26 C21.82110557 29.33936274 21.61437281 31.97604532 19.875 34.875 C16.89605036 36.66236979 14.44725099 36.93952191 11 37 C8.06517421 34.9919613 7.1841885 33.67535784 6.25 30.25 C6.12625 29.13625 6.12625 29.13625 6 28 C3.03 28 0.06 28 -3 28 C0 25 0 25 2.875 24.3125 C6 25 6 25 7.32421875 26.79296875 C8.1481237 28.26144287 8.96458057 29.73412131 9.7734375 31.2109375 C10.90790928 33.29739959 10.90790928 33.29739959 13.6875 33.625 C16.1727677 33.15931527 16.1727677 33.15931527 18 31 C18.11738194 28.54766958 18.11738194 28.54766958 17 26 C14.43510597 23.64564139 14.43510597 23.64564139 11.25 21.5625 C0.83202951 14.12460002 0.83202951 14.12460002 -0.54296875 8.9609375 C-1.05964536 5.61773594 -1.07429785 3.22289355 0 0 Z " fill="#D4E3EF" transform="translate(80,40)"/>
<path d="M0 0 C5.61 0.33 11.22 0.66 17 1 C16.67 2.32 16.34 3.64 16 5 C12.04 4.67 8.08 4.34 4 4 C5.24716797 6.38605469 5.24716797 6.38605469 6.51953125 8.8203125 C7.6172149 10.92186069 8.71486963 13.02342398 9.8125 15.125 C10.35970703 16.17171875 10.90691406 17.2184375 11.47070312 18.296875 C14.01991618 23.17900425 16.56425653 28.06014131 19 33 C18.34 33.99 17.68 34.98 17 36 C14.93324796 32.37740898 12.87240016 28.75149089 10.8125 25.125 C10.23435547 24.11179687 9.65621094 23.09859375 9.06054688 22.0546875 C6.31442615 17.21406792 3.60050212 12.35652462 1.01171875 7.4296875 C0.39043091 6.2538208 0.39043091 6.2538208 -0.2434082 5.05419922 C-1 3 -1 3 0 0 Z " fill="#E1EDEF" transform="translate(110,48)"/>
<path d="M0 0 C0.33 0 0.66 0 1 0 C1.495 2.97 1.495 2.97 2 6 C2.33 4.35 2.66 2.7 3 1 C3.33 1 3.66 1 4 1 C4.66 4.63 5.32 8.26 6 12 C5.01 12.33 4.02 12.66 3 13 C2.34 12.67 1.68 12.34 1 12 C0.7525 12.5775 0.505 13.155 0.25 13.75 C-2.62272889 18.920912 -5.99728105 20.67029294 -11.44848633 22.41821289 C-15.70446671 23.38864646 -19.7449163 23.06600036 -24.0625 22.6875 C-24.92810547 22.62626953 -25.79371094 22.56503906 -26.68554688 22.50195312 C-28.79157931 22.35069113 -30.89602913 22.17764963 -33 22 C-33 21.67 -33 21.34 -33 21 C-27.91913204 20.15318867 -23.15171623 19.90961901 -18 20 C-18 16.7 -18 13.4 -18 10 C-17.67 10 -17.34 10 -17 10 C-17 13.3 -17 16.6 -17 20 C-10.67868273 18.54780549 -6.06985603 17.39293074 -2.05078125 12.1171875 C-0.13883524 8.26486506 -0.01707383 4.24284733 0 0 Z " fill="#BDD8EA" transform="translate(272,63)"/>
<path d="M0 0 C3.26008643 3.16952847 6.22237877 6.39937989 9 10 C5.15080717 14.33034194 1.27710354 16.6560756 -4 19 C-4 19.99 -4 20.98 -4 22 C-6.64 22 -9.28 22 -12 22 C-12 21.34 -12 20.68 -12 20 C-9.56866946 18.36136603 -7.15228465 16.85078666 -4.625 15.375 C-3.57699219 14.74464844 -3.57699219 14.74464844 -2.5078125 14.1015625 C2.72859172 11 2.72859172 11 5 11 C4.34 10.21625 3.68 9.4325 3 8.625 C1 6 1 6 1 4 C-1.64 5.65 -4.28 7.3 -7 9 C-5.64978174 4.58110387 -3.73884332 2.65654657 0 0 Z " fill="#C8E2F1" transform="translate(438,29)"/>
<path d="M0 0 C5.28 0 10.56 0 16 0 C16.495 4.95 16.495 4.95 17 10 C19.475 10.495 19.475 10.495 22 11 C21.34 11.66 20.68 12.32 20 13 C19.75746187 15.21072977 19.75746187 15.21072977 19.875 17.625 C19.89304687 18.44226563 19.91109375 19.25953125 19.9296875 20.1015625 C19.95289063 20.72804688 19.97609375 21.35453125 20 22 C19.67 22 19.34 22 19 22 C19 19.36 19 16.72 19 14 C17.02 14 15.04 14 13 14 C13 10.37 13 6.74 13 3 C9.19140625 3.09765625 9.19140625 3.09765625 5.3828125 3.1953125 C3 3 3 3 1 1 C1 4.63 1 8.26 1 12 C-5.27 12 -11.54 12 -18 12 C-18 11.67 -18 11.34 -18 11 C-12.39 11 -6.78 11 -1 11 C-0.67 7.37 -0.34 3.74 0 0 Z " fill="#A7CCF5" transform="translate(391,38)"/>
<path d="M0 0 C1.8125 1.0625 1.8125 1.0625 3 3 C3.3125 6.5625 3.3125 6.5625 3 10 C1 12 1 12 -2.4375 12.375 C-6 12 -6 12 -8 10.3125 C-9.27800253 7.35711914 -9.08051862 6.01001617 -8 3 C-5.77343916 -0.22851322 -3.81410641 -0.57211596 0 0 Z " fill="#0F0E0F" transform="translate(184,33)"/>
<path d="M0 0 C4 4.47058824 4 4.47058824 4 7 C1.515625 8.796875 1.515625 8.796875 -1.75 10.75 C-2.81734375 11.40484375 -3.8846875 12.0596875 -4.984375 12.734375 C-8 14 -8 14 -10.390625 13.203125 C-10.92171875 12.80609375 -11.4528125 12.4090625 -12 12 C-11.48256463 7.96945077 -9.56870538 6.34736145 -6.5625 3.75 C-5.75941406 3.04359375 -4.95632813 2.3371875 -4.12890625 1.609375 C-2 0 -2 0 0 0 Z " fill="#0C0B0B" transform="translate(439,33)"/>
<path d="M0 0 C0.33 0 0.66 0 1 0 C1.03738281 1.09699219 1.07476562 2.19398437 1.11328125 3.32421875 C1.17896653 4.77867857 1.24541299 6.23310416 1.3125 7.6875 C1.33505859 8.40873047 1.35761719 9.12996094 1.38085938 9.87304688 C1.6053337 14.3421267 2.169519 17.34483565 5 21 C8.19686463 22.59843231 11.53056904 22.5117743 15 22 C17.90809543 20.14283813 17.90809543 20.14283813 20 18 C20.33 18 20.66 18 21 18 C21 19.65 21 21.3 21 23 C15.37481402 25.92978436 12.22098295 26.40473809 6 25 C2.41721985 23.56688794 1.26238084 22.43105423 -0.75 19.125 C-2.82088393 13.70794203 -2.7500955 7.73056868 -3 2 C-2.34 2 -1.68 2 -1 2 C-0.67 1.34 -0.34 0.68 0 0 Z " fill="#C3DFF6" transform="translate(393,60)"/>
<path d="M0 0 C7.26 0 14.52 0 22 0 C21.34 0.66 20.68 1.32 20 2 C20.3185177 4.10820797 20.3185177 4.10820797 21 6 C18.69 5.34 16.38 4.68 14 4 C13.34 4.66 12.68 5.32 12 6 C8.96352486 6.49551587 6.03943456 6.46760532 3 6 C0.9375 4.125 0.9375 4.125 0 2 C0 1.34 0 0.68 0 0 Z " fill="#D3D6D8" transform="translate(286,68)"/>
<path d="M0 0 C2.375 1.625 2.375 1.625 4 4 C4.61195145 7.6717087 4.48706506 9.28813568 2.375 12.375 C0 14 0 14 -3 14.5625 C-6 14 -6 14 -8.375 11.8125 C-10.14232156 8.75367423 -10.70698088 7.44653179 -10 4 C-7.16979976 -0.02759265 -4.82432618 -0.80405436 0 0 Z M-6 3 C-6.67801034 5.90073181 -6.67801034 5.90073181 -7 9 C-6.34 9.66 -5.68 10.32 -5 11 C-1.69316534 10.71016731 -1.69316534 10.71016731 1 9 C1.04063832 7.33382885 1.042721 5.66611905 1 4 C-2.26085939 2.02948211 -2.26085939 2.02948211 -6 3 Z " fill="#D4E3EC" transform="translate(332,60)"/>
<path d="M0 0 C4.62 0 9.24 0 14 0 C14 11.22 14 22.44 14 34 C9.38 34 4.76 34 0 34 C0.66 33.34 1.32 32.68 2 32 C5.3 32 8.6 32 12 32 C12 21.77 12 11.54 12 1 C8.04 1 4.08 1 0 1 C0 0.67 0 0.34 0 0 Z " fill="#D8DFE1" transform="translate(334,50)"/>
<path d="M0 0 C0.33 1.32 0.66 2.64 1 4 C0.34 3.34 -0.32 2.68 -1 2 C-3.54190002 1.7499227 -3.54190002 1.7499227 -6 2 C-6.33 2.33 -6.66 2.66 -7 3 C-6.91846779 7.89193231 -6.77538376 10.06137755 -3.625 13.875 C0.64350305 16.98221913 5.88233807 17.38988728 11 18 C11 18.66 11 19.32 11 20 C4.20880362 20.5009899 -1.47122612 20.34403662 -7 16 C-9.7007725 12.84909876 -10.9191227 9.85729939 -11.3125 5.6875 C-11 3 -11 3 -10 1 C-6.52674819 -0.1577506 -3.63932552 -0.06866652 0 0 Z " fill="#CBE4F2" transform="translate(86,67)"/>
<path d="M0 0 C0.66 0 1.32 0 2 0 C2 4.95 2 9.9 2 15 C0.68 15 -0.64 15 -2 15 C-2 17.64 -2 20.28 -2 23 C-4.31 22.67 -6.62 22.34 -9 22 C-9 25.3 -9 28.6 -9 32 C-8.34 32.33 -7.68 32.66 -7 33 C-8.32 32.67 -9.64 32.34 -11 32 C-11 28.04 -11 24.08 -11 20 C-8.69 20 -6.38 20 -4 20 C-4 18.02 -4 16.04 -4 14 C-2.68 13.67 -1.36 13.34 0 13 C0 8.71 0 4.42 0 0 Z " fill="#E8F0F0" transform="translate(239,40)"/>
<path d="M0 0 C0.99 0 1.98 0 3 0 C3 6.27 3 12.54 3 19 C6.63 19 10.26 19 14 19 C14 15.7 14 12.4 14 9 C14.99 9.33 15.98 9.66 17 10 C16.67 13.3 16.34 16.6 16 20 C11.05 20.33 6.1 20.66 1 21 C0.67 14.07 0.34 7.14 0 0 Z " fill="#ECF2F1" transform="translate(238,63)"/>
<path d="M0 0 C0.66 0 1.32 0 2 0 C2 10.23 2 20.46 2 31 C5.63 31 9.26 31 13 31 C13 20.77 13 10.54 13 0 C13.33 0 13.66 0 14 0 C14 10.56 14 21.12 14 32 C9.71 32 5.42 32 1 32 C0.93941406 30.08574219 0.87882813 28.17148438 0.81640625 26.19921875 C0.73200465 23.69530461 0.64735646 21.19139877 0.5625 18.6875 C0.52318359 17.42486328 0.48386719 16.16222656 0.44335938 14.86132812 C0.40146484 13.65283203 0.35957031 12.44433594 0.31640625 11.19921875 C0.27974854 10.08377686 0.24309082 8.96833496 0.20532227 7.8190918 C0.11068791 4.92126429 0.11068791 4.92126429 -1 2 C-0.67 1.34 -0.34 0.68 0 0 Z " fill="#FAFDFE" transform="translate(174,51)"/>
<path d="M0 0 C3.63 0 7.26 0 11 0 C11 3.3 11 6.6 11 10 C10.67 10 10.34 10 10 10 C10 7.36 10 4.72 10 2 C7.69 2 5.38 2 3 2 C3 8.27 3 14.54 3 21 C2.34 20.67 1.68 20.34 1 20 C0.67 13.4 0.34 6.8 0 0 Z " fill="#D6EAF6" transform="translate(206,60)"/>
<path d="M0 0 C4.29 0.33 8.58 0.66 13 1 C13 1.33 13 1.66 13 2 C9.37 2 5.74 2 2 2 C2.02320313 3.33675781 2.04640625 4.67351563 2.0703125 6.05078125 C2.0890708 7.80468192 2.10727093 9.55858862 2.125 11.3125 C2.14175781 12.19357422 2.15851563 13.07464844 2.17578125 13.98242188 C2.18222656 14.82998047 2.18867188 15.67753906 2.1953125 16.55078125 C2.20578613 17.33106689 2.21625977 18.11135254 2.22705078 18.9152832 C2 21 2 21 0 24 C-0.66 24 -1.32 24 -2 24 C-1.40168583 15.99277413 -0.74618498 7.99483907 0 0 Z " fill="#D6EBF2" transform="translate(373,50)"/>
<path d="M0 0 C1.875 1.125 1.875 1.125 3 3 C3.1875 6.6875 3.1875 6.6875 3 10 C1.86195831 8.29293746 0.7430569 6.5717615 -0.3125 4.8125 C-1.88167581 2.76155835 -1.88167581 2.76155835 -4.5 2.5625 C-6.97453351 2.83929172 -6.97453351 2.83929172 -8.75 4.0625 C-10.57905748 6.89753909 -10.68754809 9.68800975 -11 13 C-13 12 -13 12 -13.8125 9.75 C-14.05821023 6.14624999 -13.22123621 4.81356587 -11 2 C-7.14207696 -1.12804571 -4.73975586 -1.44253439 0 0 Z " fill="#C0DCF6" transform="translate(186,31)"/>
<path d="M0 0 C1.98 0 3.96 0 6 0 C6 6.68181818 6 6.68181818 3.796875 9.5859375 C-1.32304752 14.68100603 -7.01583678 15.3348416 -14 16 C-12.60777989 13.21555978 -10.72900167 12.25224514 -7.84375 11.25390625 C-6.28195489 10.79317669 -4.71945184 10.33484012 -3.15625 9.87890625 C-0.79948438 8.91826809 0.39560441 7.95706459 2 6 C2.71447643 3.89667109 2.71447643 3.89667109 3 2 C2.01 1.67 1.02 1.34 0 1 C0 0.67 0 0.34 0 0 Z " fill="#C1DEED" transform="translate(442,70)"/>
<path d="M0 0 C6 0 6 0 8 1 C8 2.98 8 4.96 8 7 C7.34 6.67 6.68 6.34 6 6 C6 5.01 6 4.02 6 3 C5.34 3 4.68 3 4 3 C3.67 5.31 3.34 7.62 3 10 C4.32 9.67 5.64 9.34 7 9 C7.33 10.32 7.66 11.64 8 13 C7.67 12.34 7.34 11.68 7 11 C6.01 12.485 6.01 12.485 5 14 C2.525 13.01 2.525 13.01 0 12 C0 8.04 0 4.08 0 0 Z " fill="#D0E1ED" transform="translate(404,60)"/>
<path d="M0 0 C-0.33 0.66 -0.66 1.32 -1 2 C-2.92578125 2.421875 -2.92578125 2.421875 -5.3125 2.75 C-8.85673165 3.49260092 -9.81326425 3.80847615 -12.4375 6.5 C-14.40932055 10.91687803 -15.28432637 15.2351203 -16 20 C-16.33 20 -16.66 20 -17 20 C-18.02947427 7.32221503 -18.02947427 7.32221503 -14.6875 2.6875 C-10.55263152 -1.35769663 -5.39436091 -0.60470594 0 0 Z " fill="#D4E6EF" transform="translate(211,29)"/>
<path d="M0 0 C0.75 1.625 0.75 1.625 1 4 C-3.70779831 12.23864704 -3.70779831 12.23864704 -8.19921875 13.73046875 C-13.55571923 14.71431578 -18.55219768 15.38912874 -24 15 C-24.66 14.34 -25.32 13.68 -26 13 C-25.10796875 12.95101562 -24.2159375 12.90203125 -23.296875 12.8515625 C-21.54117187 12.73941406 -21.54117187 12.73941406 -19.75 12.625 C-18.00976562 12.52058594 -18.00976562 12.52058594 -16.234375 12.4140625 C-13.2462004 12.03151841 -11.53893317 11.52563697 -9 10 C-8.13375 9.54625 -7.2675 9.0925 -6.375 8.625 C-3.87485771 6.91437633 -3.05799017 5.7892468 -2 3 C-1.34 3 -0.68 3 0 3 C0 2.01 0 1.02 0 0 Z " fill="#B9E2F5" transform="translate(387,71)"/>
<path d="M0 0 C0.33 0.66 0.66 1.32 1 2 C1.9075 2.28875 2.815 2.5775 3.75 2.875 C7.90342057 4.31272251 10.7228055 6.23625522 13.3125 9.8125 C14.28378195 12.90294255 14.12362319 15.78579695 14 19 C11.22251584 17.61125792 11.01374442 15.95386912 9.8125 13.125 C8.08213785 9.4984925 6.95847579 7.43224506 3.1875 5.875 C1.6096875 5.441875 1.6096875 5.441875 0 5 C0 4.01 0 3.02 0 2 C-0.66 1.67 -1.32 1.34 -2 1 C-1.34 0.67 -0.68 0.34 0 0 Z " fill="#C4E2F2" transform="translate(434,47)"/>
<path d="M0 0 C5.53153671 -0.34572104 10.11777025 0.21161355 15 3 C16.98451347 4.88384974 18.4022167 6.75311723 20 9 C20.99 8.67 21.98 8.34 23 8 C22.34 9.32 21.68 10.64 21 12 C19.25 11.8125 19.25 11.8125 17 11 C16.360625 10.195625 15.72125 9.39125 15.0625 8.5625 C12.83187692 5.79111981 11.3470891 5.02272167 8 4 C8 3.67 8 3.34 8 3 C5.03 2.67 2.06 2.34 -1 2 C-0.67 1.34 -0.34 0.68 0 0 Z " fill="#C4DDEE" transform="translate(289,48)"/>
<path d="M0 0 C0.33 0 0.66 0 1 0 C1.36564201 6.33779492 1.36564201 6.33779492 -0.19921875 9.171875 C-2.4671268 11.47421983 -3.81397624 11.69656917 -7 12 C-7.86625 12.103125 -8.7325 12.20625 -9.625 12.3125 C-12 12 -12 12 -13.8125 10 C-14.204375 9.34 -14.59625 8.68 -15 8 C-14.34 7.01 -13.68 6.02 -13 5 C-12.01 6.485 -12.01 6.485 -11 8 C-7.41642759 8.25015873 -7.41642759 8.25015873 -4 8 C-3.71125 7.05125 -3.4225 6.1025 -3.125 5.125 C-2 2 -2 2 0 0 Z " fill="#BDD9EF" transform="translate(189,36)"/>
<path d="M0 0 C0.33 0 0.66 0 1 0 C1.33 1.65 1.66 3.3 2 5 C2.33 5 2.66 5 3 5 C3 7.64 3 10.28 3 13 C1.35 13 -0.3 13 -2 13 C-2 12.34 -2 11.68 -2 11 C-6.95 11 -11.9 11 -17 11 C-16.67 10.34 -16.34 9.68 -16 9 C-13.96875 8.55078125 -13.96875 8.55078125 -11.5 8.3125 C-10.6853125 8.22613281 -9.870625 8.13976563 -9.03125 8.05078125 C-8.3609375 8.03402344 -7.690625 8.01726563 -7 8 C-6.67 8.33 -6.34 8.66 -6 9 C-4.33382885 9.04063832 -2.66611905 9.042721 -1 9 C-0.67 6.03 -0.34 3.06 0 0 Z " fill="#9DC1EF" transform="translate(193,39)"/>
<path d="M0 0 C3.25696479 0.41755959 4.63443291 0.63443291 7 3 C7.3125 6 7.3125 6 7 9 C4 11 4 11 1.3125 10.625 C0.549375 10.41875 -0.21375 10.2125 -1 10 C-1 1 -1 1 0 0 Z M1 4 C0.67 5.65 0.34 7.3 0 9 C1.32 8.34 2.64 7.68 4 7 C4 6.01 4 5.02 4 4 C3.01 4 2.02 4 1 4 Z " fill="#ABCCE4" transform="translate(254,39)"/>
<path d="M0 0 C9.83711825 -0.4651527 9.83711825 -0.4651527 14.125 1.25 C16.22630848 3.21122125 16.82175943 4.14815095 17 7 C16.67 7.99 16.34 8.98 16 10 C19.96 10 23.92 10 28 10 C28 10.33 28 10.66 28 11 C23.38 11 18.76 11 14 11 C14.33 9.02 14.66 7.04 15 5 C12.69 4.34 10.38 3.68 8 3 C8 2.67 8 2.34 8 2 C5.36 1.67 2.72 1.34 0 1 C0 0.67 0 0.34 0 0 Z " fill="#B9D3F2" transform="translate(202,28)"/>
<path d="M0 0 C0.03867187 1.04800781 0.03867187 1.04800781 0.078125 2.1171875 C0.13484375 3.02726562 0.1915625 3.93734375 0.25 4.875 C0.29640625 5.77992187 0.3428125 6.68484375 0.390625 7.6171875 C0.69226563 8.79667969 0.69226563 8.79667969 1 10 C2.32 10.66 3.64 11.32 5 12 C5 14.97 5 17.94 5 21 C4.67 21 4.34 21 4 21 C4 18.36 4 15.72 4 13 C2.02 13 0.04 13 -2 13 C-2 9.37 -2 5.74 -2 2 C-5.3 2 -8.6 2 -12 2 C-12 1.67 -12 1.34 -12 1 C-10.56274129 0.83126522 -9.12518162 0.66509263 -7.6875 0.5 C-6.88699219 0.4071875 -6.08648437 0.314375 -5.26171875 0.21875 C-3 0 -3 0 0 0 Z " fill="#C0C5C7" transform="translate(406,39)"/>
<path d="M0 0 C0.66 0 1.32 0 2 0 C2 3.3 2 6.6 2 10 C3.32 10 4.64 10 6 10 C6 17.26 6 24.52 6 32 C5.67 32 5.34 32 5 32 C5 25.4 5 18.8 5 12 C3.35 12 1.7 12 0 12 C0 8.04 0 4.08 0 0 Z " fill="#F6FEFE" transform="translate(189,50)"/>
<path d="M0 0 C4.95 0 9.9 0 15 0 C15.33 6.93 15.66 13.86 16 21 C17.32 21.66 18.64 22.32 20 23 C20 23.66 20 24.32 20 25 C17.625 25.1875 17.625 25.1875 15 25 C12.78663586 21.67995379 12.79237026 20.92589068 13.0234375 17.11328125 C13.075 16.17548828 13.1265625 15.23769531 13.1796875 14.27148438 C13.24414062 13.29501953 13.30859375 12.31855469 13.375 11.3125 C13.43171875 10.32443359 13.4884375 9.33636719 13.546875 8.31835938 C13.6883259 5.87833135 13.84291446 3.43907139 14 1 C9.38 1 4.76 1 0 1 C0 0.67 0 0.34 0 0 Z " fill="#C1DCFC" transform="translate(351,49)"/>
<path d="M0 0 C-1.96238669 1.3082578 -3.96278154 2.56162256 -6 3.75 C-10.65943577 7.24457683 -12.16835921 11.34484263 -13 17 C-13.33 17 -13.66 17 -14 17 C-14.86097841 7.31877615 -14.86097841 7.31877615 -11.625 3.4375 C-7.59994434 -0.30005169 -5.42097204 -0.10038837 0 0 Z " fill="#C8E5F4" transform="translate(95,31)"/>
<path d="M0 0 C0.66 0.99 1.32 1.98 2 3 C6.81774796 8.18834396 9.722135 9.07975193 16.6875 9.5625 C17.86699219 9.64628906 19.04648437 9.73007813 20.26171875 9.81640625 C21.16535156 9.87699219 22.06898438 9.93757813 23 10 C23 10.33 23 10.66 23 11 C20.10315842 11.10829314 17.21038981 11.18743954 14.3125 11.25 C13.49587891 11.28351563 12.67925781 11.31703125 11.83789062 11.3515625 C7.69726593 11.41861715 5.56892921 11.35457137 1.97265625 9.11328125 C-0.04799953 6.94857873 -0.81110277 5.92790703 -1 3 C-0.67 2.01 -0.34 1.02 0 0 Z " fill="#D9EAF2" transform="translate(353,73)"/>
<path d="M0 0 C3 1 3 1 4.82421875 4.16015625 C5.45553148 5.45600869 6.07625399 6.75706229 6.6875 8.0625 C7.00783203 8.72572266 7.32816406 9.38894531 7.65820312 10.07226562 C8.4478598 11.71050858 9.22512362 13.35471454 10 15 C9.01 16.485 9.01 16.485 8 18 C6.84583494 15.94178919 5.70164153 13.87900528 4.5625 11.8125 C3.92441406 10.66394531 3.28632812 9.51539062 2.62890625 8.33203125 C1.21240965 5.43449743 0.42360107 3.16805872 0 0 Z " fill="#D1E5F2" transform="translate(119,66)"/>
<path d="M0 0 C1.7890625 0.13671875 1.7890625 0.13671875 4 1 C5.7734375 3.58203125 5.7734375 3.58203125 7.375 6.8125 C7.91898437 7.87082031 8.46296875 8.92914063 9.0234375 10.01953125 C10 13 10 13 9.1640625 15.38671875 C8.77992187 15.91910156 8.39578125 16.45148438 8 17 C6.65869239 14.73354942 5.32683766 12.46239903 4 10.1875 C3.42765625 9.22360352 3.42765625 9.22360352 2.84375 8.24023438 C0 3.33984375 0 3.33984375 0 0 Z " fill="#B7D2EB" transform="translate(111,53)"/>
<path d="M0 0 C1.77206945 0.08044414 3.5437602 0.17736708 5.3125 0.3125 C4.3225 1.7975 4.3225 1.7975 3.3125 3.3125 C2.19875 3.374375 1.085 3.43625 -0.0625 3.5 C-3.69151073 3.89639572 -3.69151073 3.89639572 -5.03515625 6.1484375 C-6.02789312 8.17660961 -6.91021533 10.19307161 -7.6875 12.3125 C-8.3475 12.3125 -9.0075 12.3125 -9.6875 12.3125 C-8.48252725 0.02177799 -8.48252725 0.02177799 0 0 Z " fill="#C5DCF0" transform="translate(143.6875,48.6875)"/>
<path d="M0 0 C3.125 0.1875 3.125 0.1875 6.125 2.1875 C6.125 3.1775 6.125 4.1675 6.125 5.1875 C2.495 5.1875 -1.135 5.1875 -4.875 5.1875 C-3.63743094 0.23722376 -3.63743094 0.23722376 0 0 Z " fill="#C2C5C4" transform="translate(291.875,57.8125)"/>
<path d="M0 0 C3.125 0.25 3.125 0.25 5 1.625 C6.125 3.25 6.125 3.25 6.125 5.25 C2.165 5.25 -1.795 5.25 -5.875 5.25 C-3.39772727 0.29545455 -3.39772727 0.29545455 0 0 Z " fill="#D6D6D7" transform="translate(429.875,57.75)"/>
<path d="M0 0 C3.125 0.6875 3.125 0.6875 4.484375 2.41015625 C5.31846939 3.82863158 6.10934689 5.2735481 6.8515625 6.7421875 C8.3418014 9.01868741 9.63258466 9.68843056 12.125 10.6875 C12.125 11.3475 12.125 12.0075 12.125 12.6875 C9.47675278 12.32962875 7.56964124 12.00510089 5.375 10.4375 C3.80739911 8.24285876 3.48287125 6.33574722 3.125 3.6875 C0.155 3.6875 -2.815 3.6875 -5.875 3.6875 C-2.875 0.6875 -2.875 0.6875 0 0 Z " fill="#BDD3EA" transform="translate(82.875,64.3125)"/>
<path d="M0 0 C1.32 0 2.64 0 4 0 C4 0.66 4 1.32 4 2 C3.01 2 2.02 2 1 2 C1 4.64 1 7.28 1 10 C4.465 9.505 4.465 9.505 8 9 C8.33 6.03 8.66 3.06 9 0 C9.33 0 9.66 0 10 0 C10 3.63 10 7.26 10 11 C6.37 11 2.74 11 -1 11 C-1.09765625 3.28515625 -1.09765625 3.28515625 -1 1 C-0.67 0.67 -0.34 0.34 0 0 Z " fill="#EDF8F9" transform="translate(207,40)"/>
<path d="M0 0 C0.3403125 0.9590625 0.3403125 0.9590625 0.6875 1.9375 C1.85250896 4.27193661 1.85250896 4.27193661 4.625 4.75 C5.40875 4.8325 6.1925 4.915 7 5 C7.66 3.35 8.32 1.7 9 0 C9.33 0 9.66 0 10 0 C10.33 2.31 10.66 4.62 11 7 C7.52957297 9.31361802 6.08165827 9.51020728 2 9 C0.0625 7.3125 0.0625 7.3125 -1 5 C-0.6875 2.25 -0.6875 2.25 0 0 Z " fill="#BCD7EA" transform="translate(324,65)"/>
<path d="M0 0 C0.33 0 0.66 0 1 0 C1 5.94 1 11.88 1 18 C0.34 18.33 -0.32 18.66 -1 19 C-2.2982126 13.23918159 -3.25706972 7.91260345 -3 2 C-2.34 2 -1.68 2 -1 2 C-0.67 1.34 -0.34 0.68 0 0 Z " fill="#ADC9DA" transform="translate(217,60)"/>
<path d="M0 0 C0.61875 0.804375 1.2375 1.60875 1.875 2.4375 C3.74164041 5.03874519 3.74164041 5.03874519 6 6 C6 6.66 6 7.32 6 8 C9.3 8 12.6 8 16 8 C14 10 14 10 10.25 10.375 C5.88347168 10.26364955 3.31418257 8.91001397 0 6 C-0.9375 3.875 -0.9375 3.875 -1 2 C-0.67 1.34 -0.34 0.68 0 0 Z " fill="#A6DAEE" transform="translate(218,76)"/>
<path d="M0 0 C0.70511719 0.30679688 1.41023438 0.61359375 2.13671875 0.9296875 C5.04265573 2.01594498 7.75754152 2.6097058 10.8125 3.125 C11.78832031 3.29257813 12.76414062 3.46015625 13.76953125 3.6328125 C14.50558594 3.75398438 15.24164063 3.87515625 16 4 C16 4.66 16 5.32 16 6 C9.86946489 6.32712342 5.37330889 6.39366878 0 3 C0 2.01 0 1.02 0 0 Z " fill="#DBECF8" transform="translate(81,81)"/>
<path d="M0 0 C1.65 0 3.3 0 5 0 C5.02689216 1.47906892 5.04634621 2.95827483 5.0625 4.4375 C5.07410156 5.26121094 5.08570313 6.08492187 5.09765625 6.93359375 C5 9 5 9 4 10 C1.66702567 10.04092937 -0.66705225 10.04241723 -3 10 C-3 7.36 -3 4.72 -3 2 C-2.01 2 -1.02 2 0 2 C0 1.34 0 0.68 0 0 Z M-2 3 C-2 4.98 -2 6.96 -2 9 C-0.35 9 1.3 9 3 9 C3.33 7.02 3.66 5.04 4 3 C2.02 3 0.04 3 -2 3 Z " fill="#B0CEEB" transform="translate(211,40)"/>
<path d="M0 0 C0.33 1.32 0.66 2.64 1 4 C-1.9901855 5.72327319 -4.12033978 6.25156728 -7.5625 6.1875 C-8.32691406 6.18105469 -9.09132813 6.17460938 -9.87890625 6.16796875 C-12 6 -12 6 -15 5 C-15 4.34 -15 3.68 -15 3 C-14.41992188 3.03480469 -13.83984375 3.06960937 -13.2421875 3.10546875 C-7.990866 3.28744524 -4.60488781 2.83377711 0 0 Z " fill="#E0EFF4" transform="translate(335,79)"/>
<path d="M0 0 C1.9375 0.375 1.9375 0.375 4 1 C5.17426264 3.34852528 5.11508173 4.73774065 5.09765625 7.3515625 C5.09443359 8.20234375 5.09121094 9.053125 5.08789062 9.9296875 C5.07951172 10.81914063 5.07113281 11.70859375 5.0625 12.625 C5.05798828 13.5221875 5.05347656 14.419375 5.04882812 15.34375 C5.03702591 17.56256648 5.02056155 19.78125018 5 22 C3 20 3 20 2.83984375 17.3203125 C2.87207031 16.26585938 2.90429688 15.21140625 2.9375 14.125 C3.19401571 8.95541033 3.19401571 8.95541033 2 4 C1.01 3.67 0.02 3.34 -1 3 C-0.67 2.01 -0.34 1.02 0 0 Z " fill="#A1CCF5" transform="translate(234,62)"/>
<path d="M0 0 C1.37478516 0.01740234 1.37478516 0.01740234 2.77734375 0.03515625 C3.69644531 0.04417969 4.61554688 0.05320312 5.5625 0.0625 C6.27277344 0.07410156 6.98304688 0.08570312 7.71484375 0.09765625 C7.71484375 1.41765625 7.71484375 2.73765625 7.71484375 4.09765625 C6.25741912 4.17862428 4.79871568 4.23683399 3.33984375 4.28515625 C2.52773438 4.31996094 1.715625 4.35476562 0.87890625 4.390625 C0.16476562 4.29394531 -0.549375 4.19726562 -1.28515625 4.09765625 C-1.94515625 3.10765625 -2.60515625 2.11765625 -3.28515625 1.09765625 C-2.28515625 0.09765625 -2.28515625 0.09765625 0 0 Z " fill="#CAD9EC" transform="translate(290.28515625,69.90234375)"/>
<path d="M0 0 C0.33 0 0.66 0 1 0 C1.33 5.61 1.66 11.22 2 17 C1.01 17 0.02 17 -1 17 C-2.41634833 14.16730334 -2.3463005 11.52533562 -2.5625 8.375 C-2.64628906 7.18648438 -2.73007812 5.99796875 -2.81640625 4.7734375 C-2.87699219 3.85820313 -2.93757813 2.94296875 -3 2 C-2.34 2 -1.68 2 -1 2 C-0.67 1.34 -0.34 0.68 0 0 Z " fill="#C4D5E6" transform="translate(393,60)"/>
<path d="M0 0 C0.99 0.495 0.99 0.495 2 1 C1.67 2.98 1.34 4.96 1 7 C2.65 7 4.3 7 6 7 C5.67 7.66 5.34 8.32 5 9 C4.01 9 3.02 9 2 9 C2 11.64 2 14.28 2 17 C1.34 17.33 0.68 17.66 0 18 C0 12.06 0 6.12 0 0 Z " fill="#F6FCFC" transform="translate(252,42)"/>
<path d="M0 0 C0.33 0 0.66 0 1 0 C1.33 1.98 1.66 3.96 2 6 C2.33 4.35 2.66 2.7 3 1 C3.33 1 3.66 1 4 1 C4.66 4.63 5.32 8.26 6 12 C5.01 12.33 4.02 12.66 3 13 C0.75393573 11.22555028 0.04918998 10.41647515 -0.29296875 7.51953125 C-0.25816406 6.62621094 -0.22335937 5.73289062 -0.1875 4.8125 C-0.16042969 3.91144531 -0.13335937 3.01039062 -0.10546875 2.08203125 C-0.07066406 1.39496094 -0.03585937 0.70789062 0 0 Z " fill="#BFC4C7" transform="translate(272,63)"/>
<path d="M0 0 C-0.66 0 -1.32 0 -2 0 C-2 0.66 -2 1.32 -2 2 C-5.46153846 5 -5.46153846 5 -8 5 C-8.33 5.99 -8.66 6.98 -9 8 C-9.66 6.68 -10.32 5.36 -11 4 C-4.45754717 -1.33726415 -4.45754717 -1.33726415 0 0 Z " fill="#C8DCE8" transform="translate(323,50)"/>
<path d="M0 0 C0.66 0.66 1.32 1.32 2 2 C1.6442194 5.37991574 0.64284201 8.04288438 -1 11 C-2.32 10.67 -3.64 10.34 -5 10 C-3.33333333 6.66666667 -1.66666667 3.33333333 0 0 Z " fill="#C6DCEE" transform="translate(158,52)"/>
<path d="M0 0 C2.31 0.33 4.62 0.66 7 1 C7 1.33 7 1.66 7 2 C5.35 2 3.7 2 2 2 C2 5.3 2 8.6 2 12 C2.66 12.33 3.32 12.66 4 13 C2.68 12.67 1.36 12.34 0 12 C0 8.04 0 4.08 0 0 Z " fill="#F2FBFD" transform="translate(228,60)"/>
<path d="M0 0 C1.96966795 1.37020379 2.88185633 2.54992888 3.4921875 4.875 C4.33883058 10.49175412 4.33883058 10.49175412 2 14 C-1.27137992 8.76579213 -1.10643764 5.83394389 0 0 Z " fill="#A5C0DE" transform="translate(80,40)"/>
<path d="M0 0 C3.3 0.33 6.6 0.66 10 1 C10 1.99 10 2.98 10 4 C6.7 4 3.4 4 0 4 C0 2.68 0 1.36 0 0 Z " fill="#D1E7FB" transform="translate(128,81)"/>
<path d="M0 0 C5 6.36363636 5 6.36363636 5 11 C4.01 11 3.02 11 2 11 C1.67 9.35 1.34 7.7 1 6 C0.34 6 -0.32 6 -1 6 C-0.67 4.02 -0.34 2.04 0 0 Z " fill="#DDE8F0" transform="translate(143,67)"/>
<path d="M0 0 C3.63 0 7.26 0 11 0 C11 0.33 11 0.66 11 1 C8.36 1 5.72 1 3 1 C3 1.66 3 2.32 3 3 C5.31 3 7.62 3 10 3 C10 3.66 10 4.32 10 5 C3.51707705 5.3669579 3.51707705 5.3669579 1.0625 3.625 C0 2 0 2 0 0 Z " fill="#EEF5F9" transform="translate(424,69)"/>
<path d="M0 0 C1.32 0.66 2.64 1.32 4 2 C4 2.99 4 3.98 4 5 C6.64 5.33 9.28 5.66 12 6 C12 6.33 12 6.66 12 7 C5.7950962 6.7242265 1.89839001 5.89359206 -3 2 C-2.01 1.34 -1.02 0.68 0 0 Z " fill="#A6C5EA" transform="translate(316,79)"/>
<path d="M0 0 C0.66 0 1.32 0 2 0 C2.042721 1.66611905 2.04063832 3.33382885 2 5 C1 6 1 6 -2.0625 6.0625 C-3.031875 6.041875 -4.00125 6.02125 -5 6 C-5.33 5.34 -5.66 4.68 -6 4 C-4.7934375 3.566875 -4.7934375 3.566875 -3.5625 3.125 C-0.8673532 2.26737432 -0.8673532 2.26737432 0 0 Z " fill="#130D0F" transform="translate(105,37)"/>
<path d="M0 0 C2.75 -0.25 2.75 -0.25 6 0 C8.375 2 8.375 2 10 4 C9.01 5.485 9.01 5.485 8 7 C5.18060883 4.79020692 2.46941056 2.59937954 0 0 Z " fill="#BDD2E9" transform="translate(90,60)"/>
<path d="M0 0 C0.625 1.8125 0.625 1.8125 1 4 C0.01 5.485 0.01 5.485 -1 7 C-1.33 6.67 -1.66 6.34 -2 6 C-2.33 7.98 -2.66 9.96 -3 12 C-3.33 12 -3.66 12 -4 12 C-4.33 8.7 -4.66 5.4 -5 2 C-4.01 2.33 -3.02 2.66 -2 3 C-1.34 2.01 -0.68 1.02 0 0 Z " fill="#D8E0E1" transform="translate(312,56)"/>
<path d="M0 0 C2.43929746 1.92576115 4.80090595 3.80090595 7 6 C7.66 5.67 8.32 5.34 9 5 C8.34 6.32 7.68 7.64 7 9 C5.1875 8.875 5.1875 8.875 3 8 C0 2.96428571 0 2.96428571 0 0 Z " fill="#B9D2EA" transform="translate(303,51)"/>
<path d="M0 0 C2.0625 1.5625 2.0625 1.5625 4 4 C3.75 7.75 3.75 7.75 3 11 C2.01 10.67 1.02 10.34 0 10 C0 6.7 0 3.4 0 0 Z " fill="#B4D5E8" transform="translate(412,50)"/>
<path d="M0 0 C0.33 0 0.66 0 1 0 C1 3.3 1 6.6 1 10 C-1.31 9.67 -3.62 9.34 -6 9 C-5.38125 8.814375 -4.7625 8.62875 -4.125 8.4375 C-0.94397134 6.28562767 -0.80548053 3.62466237 0 0 Z " fill="#F8FCFC" transform="translate(310,61)"/>
<path d="M0 0 C1.32 0 2.64 0 4 0 C3.88590407 1.45922693 3.75834456 2.91740598 3.625 4.375 C3.55539062 5.18710938 3.48578125 5.99921875 3.4140625 6.8359375 C3 9 3 9 1 11 C0.67 7.37 0.34 3.74 0 0 Z " fill="#F9FBF8" transform="translate(272,60)"/>
<path d="M0 0 C2.86688248 0.09096556 5.70300515 0.23767988 8.5625 0.4375 C9.36880859 0.48970703 10.17511719 0.54191406 11.00585938 0.59570312 C13.00421738 0.72577376 15.00215386 0.86229056 17 1 C17 1.33 17 1.66 17 2 C11.72 2 6.44 2 1 2 C0.67 2.99 0.34 3.98 0 5 C-0.5625 3.0625 -0.5625 3.0625 -1 1 C-0.67 0.67 -0.34 0.34 0 0 Z " fill="#9FC8F7" transform="translate(110,48)"/>
<path d="M0 0 C2.2477975 2.05233685 3.0022242 3.00667261 4 6 C3.01 7.485 3.01 7.485 2 9 C-1.07692308 4.56923077 -1.07692308 4.56923077 -0.6875 1.6875 C-0.460625 1.130625 -0.23375 0.57375 0 0 Z " fill="#C1D9EC" transform="translate(125,75)"/>
<path d="M0 0 C0.33 0 0.66 0 1 0 C0.91253716 1.43861294 0.80434652 2.87597508 0.6875 4.3125 C0.62949219 5.11300781 0.57148438 5.91351563 0.51171875 6.73828125 C-0.08206694 9.36272334 -0.95780294 10.30820672 -3 12 C-3.6875 10.1875 -3.6875 10.1875 -4 8 C-3.02246356 6.97803008 -2.0194119 5.98020375 -1 5 C-0.27802838 2.39388923 -0.27802838 2.39388923 0 0 Z " fill="#ABC9E8" transform="translate(273,42)"/>
<path d="M0 0 C0.33 0.99 0.66 1.98 1 3 C-1.64 3 -4.28 3 -7 3 C-7 2.34 -7 1.68 -7 1 C-3.375 -1.125 -3.375 -1.125 0 0 Z " fill="#F3FCFD" transform="translate(433,48)"/>
<path d="M0 0 C0.391875 0.474375 0.78375 0.94875 1.1875 1.4375 C3.40808374 3.35179633 5.13375709 3.61266988 8 4 C7.01 4.33 6.02 4.66 5 5 C5 5.66 5 6.32 5 7 C3.125 6.6875 3.125 6.6875 1 6 C0.34 5.01 -0.32 4.02 -1 3 C-0.67 2.01 -0.34 1.02 0 0 Z " fill="#B9D1E4" transform="translate(175,41)"/>
<path d="M0 0 C2.375 -0.125 2.375 -0.125 5 0 C7 2 7 2 7.125 5.625 C7.08375 6.73875 7.0425 7.8525 7 9 C6.34 8.01 5.68 7.02 5 6 C4.13824802 4.92672708 3.2630396 3.86412584 2.375 2.8125 C1.59125 1.884375 0.8075 0.95625 0 0 Z " fill="#D8EDF7" transform="translate(182,32)"/>
<path d="M0 0 C1.32 0 2.64 0 4 0 C4.33 1.98 4.66 3.96 5 6 C4.34 6 3.68 6 3 6 C2.67 6.66 2.34 7.32 2 8 C1.34 7.67 0.68 7.34 0 7 C0.33 6.01 0.66 5.02 1 4 C0.61067144 1.85744207 0.61067144 1.85744207 0 0 Z " fill="#9FCADD" transform="translate(257,62)"/>
<path d="M0 0 C1.32 0 2.64 0 4 0 C2.66667905 3.99996286 0.5042173 4.83782337 -3 7 C-1.125 1.125 -1.125 1.125 0 0 Z " fill="#D4E6F6" transform="translate(418,51)"/>
<path d="M0 0 C0.66 0 1.32 0 2 0 C2.75 1.75 2.75 1.75 3 4 C1.0625 6.25 1.0625 6.25 -1 8 C-1.33 7.34 -1.66 6.68 -2 6 C-2.66 5.67 -3.32 5.34 -4 5 C-2.68 4.34 -1.36 3.68 0 3 C0 2.01 0 1.02 0 0 Z " fill="#A6CEE7" transform="translate(424,45)"/>
<path d="M0 0 C2.35694954 0.09031574 4.71153582 0.24688128 7.0625 0.4375 C8.35285156 0.53933594 9.64320313 0.64117187 10.97265625 0.74609375 C12.47119141 0.87177734 12.47119141 0.87177734 14 1 C14 1.33 14 1.66 14 2 C11.87631556 2.22134176 9.75095976 2.42670007 7.625 2.625 C6.44164062 2.74101563 5.25828125 2.85703125 4.0390625 2.9765625 C3.03617187 2.98429687 2.03328125 2.99203125 1 3 C0.34 2.34 -0.32 1.68 -1 1 C-0.67 0.67 -0.34 0.34 0 0 Z " fill="#D8E6F7" transform="translate(284,49)"/>
<path d="M0 0 C4 4.75 4 4.75 4 7 C2 6 0 5 -2 4 C-2 3.01 -2 2.02 -2 1 C-1.34 0.67 -0.68 0.34 0 0 Z " fill="#D0E0E7" transform="translate(414,73)"/>
<path d="M0 0 C5.57142857 5.14285714 5.57142857 5.14285714 6 9 C5.01 9 4.02 9 3 9 C1.35173889 6.03312999 0.55728913 3.34373475 0 0 Z " fill="#B4D2EB" transform="translate(107,53)"/>
<path d="M0 0 C2.97 0.495 2.97 0.495 6 1 C6 1.99 6 2.98 6 4 C3.03 3.505 3.03 3.505 0 3 C0 2.01 0 1.02 0 0 Z " fill="#F5F5F5" transform="translate(291,58)"/>
<path d="M0 0 C0.66 0 1.32 0 2 0 C2.33 2.31 2.66 4.62 3 7 C1.35 6.01 -0.3 5.02 -2 4 C-1.34 2.68 -0.68 1.36 0 0 Z " fill="#DDE7F1" transform="translate(268,52)"/>
<path d="M0 0 C0.33 0.66 0.66 1.32 1 2 C2.97888961 2.72693904 4.97954558 3.39816251 7 4 C5.1875 5.0625 5.1875 5.0625 3 6 C2.01 5.67 1.02 5.34 0 5 C0 4.01 0 3.02 0 2 C-0.66 1.67 -1.32 1.34 -2 1 C-1.34 0.67 -0.68 0.34 0 0 Z " fill="#B2CAE1" transform="translate(434,47)"/>
<path d="M0 0 C0.99 0 1.98 0 3 0 C4.54779543 2.26216255 5.77612283 4.55224566 7 7 C6.01 7.33 5.02 7.66 4 8 C3.896875 7.360625 3.79375 6.72125 3.6875 6.0625 C3.460625 5.381875 3.23375 4.70125 3 4 C2.01 3.67 1.02 3.34 0 3 C0 2.01 0 1.02 0 0 Z " fill="#D4E5F2" transform="translate(423,41)"/>
<path d="M0 0 C0.33 0 0.66 0 1 0 C1.16820551 1.93736701 1.33451095 3.87489906 1.5 5.8125 C1.5928125 6.89144531 1.685625 7.97039062 1.78125 9.08203125 C2 12 2 12 2 15 C1.01 14.67 0.02 14.34 -1 14 C-0.67 9.38 -0.34 4.76 0 0 Z " fill="#F6FEFF" transform="translate(206,68)"/>
<path d="M0 0 C4.29 0 8.58 0 13 0 C13 0.33 13 0.66 13 1 C12.28972656 1.04898438 11.57945312 1.09796875 10.84765625 1.1484375 C9.46900391 1.26058594 9.46900391 1.26058594 8.0625 1.375 C7.14597656 1.44460937 6.22945312 1.51421875 5.28515625 1.5859375 C4.53105469 1.72257812 3.77695313 1.85921875 3 2 C2.67 2.66 2.34 3.32 2 4 C1.34 4 0.68 4 0 4 C0 2.68 0 1.36 0 0 Z " fill="#E9F8FD" transform="translate(159,50)"/>
<path d="M0 0 C2.475 0.495 2.475 0.495 5 1 C5 1.66 5 2.32 5 3 C3.35 3.66 1.7 4.32 0 5 C0 3.35 0 1.7 0 0 Z " fill="#121218" transform="translate(405,73)"/>
<path d="M0 0 C0.99 0 1.98 0 3 0 C3 2.64 3 5.28 3 8 C2.01 8.495 2.01 8.495 1 9 C0.67 6.03 0.34 3.06 0 0 Z " fill="#E6F4F9" transform="translate(270,39)"/>
<path d="M0 0 C0 1.65 0 3.3 0 5 C-1.875 5.625 -1.875 5.625 -4 6 C-4.66 5.34 -5.32 4.68 -6 4 C-1.125 0 -1.125 0 0 0 Z " fill="#CEE3ED" transform="translate(414,78)"/>
<path d="M0 0 C0.33 0 0.66 0 1 0 C1 2.64 1 5.28 1 8 C-0.65 8 -2.3 8 -4 8 C-4 7.34 -4 6.68 -4 6 C-2.68 5.67 -1.36 5.34 0 5 C0 3.35 0 1.7 0 0 Z " fill="#BCC2C3" transform="translate(195,44)"/>
<path d="M0 0 C0.66 0 1.32 0 2 0 C2.1875 2.875 2.1875 2.875 2 6 C1.01 6.66 0.02 7.32 -1 8 C-1.66 7.34 -2.32 6.68 -3 6 C-2.34 5.67 -1.68 5.34 -1 5 C-0.34444881 2.47266765 -0.34444881 2.47266765 0 0 Z " fill="#DBE3E5" transform="translate(259,42)"/>
<path d="M0 0 C-2.35953094 2.35953094 -3.77895617 2.49141413 -7 3 C-7.33 2.01 -7.66 1.02 -8 0 C-4.71023192 -1.09658936 -3.28696233 -0.79953138 0 0 Z " fill="#BDD4E7" transform="translate(104,84)"/>
<path d="M0 0 C1.5625 1.6875 1.5625 1.6875 3 4 C2.6875 6.75 2.6875 6.75 2 9 C-0.16295027 6.83704973 -0.5534013 5.94755143 -1 3 C-0.67 2.01 -0.34 1.02 0 0 Z " fill="#C3DBEC" transform="translate(127,50)"/>
<path d="M0 0 C-0.66 0 -1.32 0 -2 0 C-2 0.66 -2 1.32 -2 2 C-4.31 2.33 -6.62 2.66 -9 3 C-5.83583464 -0.30799106 -4.50236011 -1.35070803 0 0 Z " fill="#BED8F5" transform="translate(323,50)"/>
<path d="M0 0 C0.99 0 1.98 0 3 0 C2.34 3.3 1.68 6.6 1 10 C0.67 10 0.34 10 0 10 C0 6.7 0 3.4 0 0 Z " fill="#E3F2F9" transform="translate(81,38)"/>
</svg>
